G75*
%MOIN*%
%OFA0B0*%
%FSLAX25Y25*%
%IPPOS*%
%LPD*%
%AMOC8*
5,1,8,0,0,1.08239X$1,22.5*
%
%ADD10C,0.00600*%
%ADD11R,0.01710X0.00286*%
%ADD12R,0.01430X0.00286*%
%ADD13R,0.02000X0.00285*%
%ADD14R,0.01420X0.00286*%
%ADD15R,0.01720X0.00286*%
%ADD16R,0.01710X0.00285*%
%ADD17R,0.01720X0.00286*%
%ADD18R,0.00850X0.00286*%
%ADD19R,0.02000X0.00286*%
%ADD20R,0.00860X0.00286*%
%ADD21R,0.01140X0.00286*%
%ADD22R,0.02290X0.00285*%
%ADD23R,0.03140X0.00285*%
%ADD24R,0.03430X0.00286*%
%ADD25R,0.03720X0.00286*%
%ADD26R,0.02290X0.00286*%
%ADD27R,0.02570X0.00286*%
%ADD28R,0.01430X0.00285*%
%ADD29R,0.02860X0.00286*%
%ADD30R,0.04000X0.00286*%
%ADD31R,0.03710X0.00286*%
%ADD32R,0.04000X0.00285*%
%ADD33R,0.08570X0.00285*%
%ADD34R,0.06860X0.00286*%
%ADD35R,0.05430X0.00286*%
%ADD36R,0.04570X0.00286*%
%ADD37R,0.00280X0.00285*%
%ADD38R,0.00860X0.00285*%
%ADD39R,0.03140X0.00285*%
%ADD40R,0.00280X0.00286*%
%ADD41R,0.02850X0.00286*%
%ADD42R,0.01140X0.00286*%
%ADD43R,0.01140X0.00285*%
%ADD44R,0.02570X0.00285*%
%ADD45R,0.01150X0.00286*%
%ADD46R,0.01140X0.00285*%
%ADD47R,0.01420X0.00285*%
%ADD48R,0.03150X0.00285*%
%ADD49R,0.02280X0.00286*%
%ADD50R,0.03150X0.00286*%
%ADD51R,0.05420X0.00286*%
%ADD52R,0.02570X0.00286*%
%ADD53R,0.12000X0.00285*%
%ADD54R,0.02860X0.00285*%
%ADD55R,0.11710X0.00286*%
%ADD56R,0.04290X0.00286*%
%ADD57R,0.11430X0.00286*%
%ADD58R,0.08860X0.00286*%
%ADD59R,0.04850X0.00286*%
%ADD60R,0.10280X0.00286*%
%ADD61R,0.09150X0.00286*%
%ADD62R,0.10570X0.00285*%
%ADD63R,0.16000X0.00285*%
%ADD64R,0.16000X0.00286*%
%ADD65R,0.15140X0.00286*%
%ADD66R,0.09430X0.00285*%
%ADD67R,0.14860X0.00285*%
%ADD68R,0.14850X0.00286*%
%ADD69R,0.08290X0.00286*%
%ADD70R,0.09720X0.00286*%
%ADD71R,0.09720X0.00286*%
%ADD72R,0.09140X0.00286*%
%ADD73R,0.09710X0.00285*%
%ADD74R,0.08860X0.00285*%
%ADD75R,0.20570X0.00285*%
%ADD76R,0.09710X0.00286*%
%ADD77R,0.09140X0.00286*%
%ADD78R,0.20580X0.00286*%
%ADD79R,0.08570X0.00286*%
%ADD80R,0.20290X0.00286*%
%ADD81R,0.10290X0.00285*%
%ADD82R,0.20280X0.00285*%
%ADD83R,0.18290X0.00286*%
%ADD84R,0.19710X0.00286*%
%ADD85R,0.17720X0.00286*%
%ADD86R,0.19430X0.00286*%
%ADD87R,0.20000X0.00286*%
%ADD88R,0.22570X0.00286*%
%ADD89R,0.19430X0.00285*%
%ADD90R,0.22280X0.00285*%
%ADD91R,0.42280X0.00286*%
%ADD92R,0.40570X0.00286*%
%ADD93R,0.39420X0.00285*%
%ADD94R,0.38570X0.00286*%
%ADD95R,0.37140X0.00286*%
%ADD96R,0.36570X0.00286*%
%ADD97R,0.33140X0.00285*%
%ADD98R,0.30000X0.00286*%
%ADD99R,0.27430X0.00286*%
%ADD100R,0.26000X0.00285*%
%ADD101R,0.26000X0.00286*%
%ADD102R,0.23430X0.00286*%
%ADD103R,0.21720X0.00285*%
%ADD104R,0.19720X0.00286*%
%ADD105R,0.19150X0.00286*%
%ADD106R,0.18860X0.00286*%
%ADD107R,0.18000X0.00286*%
%ADD108R,0.18000X0.00285*%
%ADD109R,0.16570X0.00286*%
%ADD110R,0.16280X0.00286*%
%ADD111R,0.15710X0.00285*%
%ADD112R,0.14860X0.00286*%
%ADD113R,0.14000X0.00286*%
%ADD114R,0.12290X0.00286*%
%ADD115R,0.08280X0.00286*%
%ADD116R,0.07710X0.00285*%
%ADD117R,0.06570X0.00286*%
%ADD118R,0.06580X0.00286*%
%ADD119R,0.06280X0.00285*%
%ADD120R,0.06570X0.00286*%
%ADD121R,0.06850X0.00286*%
%ADD122R,0.06860X0.00285*%
%ADD123R,0.07430X0.00286*%
%ADD124R,0.07710X0.00286*%
%ADD125R,0.08290X0.00285*%
%ADD126R,0.12860X0.00285*%
%ADD127R,0.14290X0.00286*%
%ADD128R,0.14570X0.00286*%
%ADD129R,0.13430X0.00286*%
%ADD130R,0.08000X0.00286*%
%ADD131R,0.08000X0.00285*%
%ADD132R,0.07140X0.00286*%
%ADD133R,0.06290X0.00286*%
%ADD134R,0.06290X0.00285*%
%ADD135R,0.06280X0.00286*%
%ADD136R,0.06000X0.00286*%
%ADD137R,0.04850X0.00285*%
%ADD138C,0.00000*%
%ADD139C,0.00400*%
%ADD140C,0.02200*%
%ADD141R,0.01969X0.03740*%
%ADD142C,0.00100*%
%ADD143R,0.03740X0.01969*%
%ADD144C,0.00800*%
%ADD145R,0.07300X0.12600*%
%ADD146R,0.07300X0.03400*%
%ADD147R,0.04331X0.01929*%
%ADD148R,0.02000X0.02000*%
%ADD149C,0.00500*%
%ADD150R,0.04000X0.40000*%
%ADD151R,0.01800X0.03000*%
%ADD152R,0.03000X0.01800*%
%ADD153C,0.00200*%
%ADD154C,0.00300*%
%ADD155R,0.01280X0.03679*%
D10*
X0085400Y0057600D02*
X0091400Y0057600D01*
X0091460Y0057602D01*
X0091521Y0057607D01*
X0091580Y0057616D01*
X0091639Y0057629D01*
X0091698Y0057645D01*
X0091755Y0057665D01*
X0091810Y0057688D01*
X0091865Y0057715D01*
X0091917Y0057744D01*
X0091968Y0057777D01*
X0092017Y0057813D01*
X0092063Y0057851D01*
X0092107Y0057893D01*
X0092149Y0057937D01*
X0092187Y0057983D01*
X0092223Y0058032D01*
X0092256Y0058083D01*
X0092285Y0058135D01*
X0092312Y0058190D01*
X0092335Y0058245D01*
X0092355Y0058302D01*
X0092371Y0058361D01*
X0092384Y0058420D01*
X0092393Y0058479D01*
X0092398Y0058540D01*
X0092400Y0058600D01*
X0092400Y0069600D01*
X0092398Y0069660D01*
X0092393Y0069721D01*
X0092384Y0069780D01*
X0092371Y0069839D01*
X0092355Y0069898D01*
X0092335Y0069955D01*
X0092312Y0070010D01*
X0092285Y0070065D01*
X0092256Y0070117D01*
X0092223Y0070168D01*
X0092187Y0070217D01*
X0092149Y0070263D01*
X0092107Y0070307D01*
X0092063Y0070349D01*
X0092017Y0070387D01*
X0091968Y0070423D01*
X0091917Y0070456D01*
X0091865Y0070485D01*
X0091810Y0070512D01*
X0091755Y0070535D01*
X0091698Y0070555D01*
X0091639Y0070571D01*
X0091580Y0070584D01*
X0091521Y0070593D01*
X0091460Y0070598D01*
X0091400Y0070600D01*
X0085400Y0070600D01*
X0085340Y0070598D01*
X0085279Y0070593D01*
X0085220Y0070584D01*
X0085161Y0070571D01*
X0085102Y0070555D01*
X0085045Y0070535D01*
X0084990Y0070512D01*
X0084935Y0070485D01*
X0084883Y0070456D01*
X0084832Y0070423D01*
X0084783Y0070387D01*
X0084737Y0070349D01*
X0084693Y0070307D01*
X0084651Y0070263D01*
X0084613Y0070217D01*
X0084577Y0070168D01*
X0084544Y0070117D01*
X0084515Y0070065D01*
X0084488Y0070010D01*
X0084465Y0069955D01*
X0084445Y0069898D01*
X0084429Y0069839D01*
X0084416Y0069780D01*
X0084407Y0069721D01*
X0084402Y0069660D01*
X0084400Y0069600D01*
X0084400Y0058600D01*
X0084402Y0058540D01*
X0084407Y0058479D01*
X0084416Y0058420D01*
X0084429Y0058361D01*
X0084445Y0058302D01*
X0084465Y0058245D01*
X0084488Y0058190D01*
X0084515Y0058135D01*
X0084544Y0058083D01*
X0084577Y0058032D01*
X0084613Y0057983D01*
X0084651Y0057937D01*
X0084693Y0057893D01*
X0084737Y0057851D01*
X0084783Y0057813D01*
X0084832Y0057777D01*
X0084883Y0057744D01*
X0084935Y0057715D01*
X0084990Y0057688D01*
X0085045Y0057665D01*
X0085102Y0057645D01*
X0085161Y0057629D01*
X0085220Y0057616D01*
X0085279Y0057607D01*
X0085340Y0057602D01*
X0085400Y0057600D01*
X0088400Y0058100D02*
X0088400Y0060100D01*
X0088400Y0068100D02*
X0088400Y0070100D01*
X0117928Y0070084D02*
X0117928Y0093116D01*
X0158872Y0093116D01*
X0158872Y0070084D01*
X0117928Y0070084D01*
X0117301Y0067427D02*
X0117303Y0067502D01*
X0117309Y0067576D01*
X0117319Y0067650D01*
X0117332Y0067723D01*
X0117350Y0067796D01*
X0117371Y0067867D01*
X0117396Y0067938D01*
X0117425Y0068007D01*
X0117458Y0068074D01*
X0117494Y0068139D01*
X0117533Y0068203D01*
X0117575Y0068264D01*
X0117621Y0068323D01*
X0117670Y0068380D01*
X0117722Y0068433D01*
X0117776Y0068484D01*
X0117833Y0068533D01*
X0117893Y0068577D01*
X0117955Y0068619D01*
X0118019Y0068658D01*
X0118085Y0068693D01*
X0118152Y0068724D01*
X0118222Y0068752D01*
X0118292Y0068776D01*
X0118364Y0068797D01*
X0118437Y0068813D01*
X0118510Y0068826D01*
X0118585Y0068835D01*
X0118659Y0068840D01*
X0118734Y0068841D01*
X0118808Y0068838D01*
X0118883Y0068831D01*
X0118956Y0068820D01*
X0119030Y0068806D01*
X0119102Y0068787D01*
X0119173Y0068765D01*
X0119243Y0068739D01*
X0119312Y0068709D01*
X0119378Y0068676D01*
X0119443Y0068639D01*
X0119506Y0068599D01*
X0119567Y0068555D01*
X0119625Y0068509D01*
X0119681Y0068459D01*
X0119734Y0068407D01*
X0119785Y0068352D01*
X0119832Y0068294D01*
X0119876Y0068234D01*
X0119917Y0068171D01*
X0119955Y0068107D01*
X0119989Y0068041D01*
X0120020Y0067972D01*
X0120047Y0067903D01*
X0120070Y0067832D01*
X0120089Y0067760D01*
X0120105Y0067687D01*
X0120117Y0067613D01*
X0120125Y0067539D01*
X0120129Y0067464D01*
X0120129Y0067390D01*
X0120125Y0067315D01*
X0120117Y0067241D01*
X0120105Y0067167D01*
X0120089Y0067094D01*
X0120070Y0067022D01*
X0120047Y0066951D01*
X0120020Y0066882D01*
X0119989Y0066813D01*
X0119955Y0066747D01*
X0119917Y0066683D01*
X0119876Y0066620D01*
X0119832Y0066560D01*
X0119785Y0066502D01*
X0119734Y0066447D01*
X0119681Y0066395D01*
X0119625Y0066345D01*
X0119567Y0066299D01*
X0119506Y0066255D01*
X0119443Y0066215D01*
X0119378Y0066178D01*
X0119312Y0066145D01*
X0119243Y0066115D01*
X0119173Y0066089D01*
X0119102Y0066067D01*
X0119030Y0066048D01*
X0118956Y0066034D01*
X0118883Y0066023D01*
X0118808Y0066016D01*
X0118734Y0066013D01*
X0118659Y0066014D01*
X0118585Y0066019D01*
X0118510Y0066028D01*
X0118437Y0066041D01*
X0118364Y0066057D01*
X0118292Y0066078D01*
X0118222Y0066102D01*
X0118152Y0066130D01*
X0118085Y0066161D01*
X0118019Y0066196D01*
X0117955Y0066235D01*
X0117893Y0066277D01*
X0117833Y0066321D01*
X0117776Y0066370D01*
X0117722Y0066421D01*
X0117670Y0066474D01*
X0117621Y0066531D01*
X0117575Y0066590D01*
X0117533Y0066651D01*
X0117494Y0066715D01*
X0117458Y0066780D01*
X0117425Y0066847D01*
X0117396Y0066916D01*
X0117371Y0066987D01*
X0117350Y0067058D01*
X0117332Y0067131D01*
X0117319Y0067204D01*
X0117309Y0067278D01*
X0117303Y0067352D01*
X0117301Y0067427D01*
X0178981Y0084000D02*
X0187819Y0084000D01*
X0187819Y0089200D01*
X0178981Y0089200D01*
X0178981Y0084000D01*
X0205900Y0084100D02*
X0205900Y0089100D01*
X0208400Y0091600D01*
X0223400Y0091600D01*
X0225900Y0089100D01*
X0225900Y0084100D01*
X0223400Y0081600D01*
X0208400Y0081600D01*
X0205900Y0084100D01*
X0208400Y0091600D02*
X0205900Y0094100D01*
X0205900Y0099100D01*
X0208400Y0101600D01*
X0223400Y0101600D01*
X0225900Y0099100D01*
X0225900Y0094100D01*
X0223400Y0091600D01*
X0223400Y0101600D02*
X0225900Y0104100D01*
X0225900Y0109100D01*
X0223400Y0111600D01*
X0208400Y0111600D01*
X0205900Y0109100D01*
X0205900Y0104100D01*
X0208400Y0101600D01*
X0186000Y0109681D02*
X0180800Y0109681D01*
X0180800Y0118519D01*
X0186000Y0118519D01*
X0186000Y0109681D01*
X0205900Y0114100D02*
X0205900Y0119100D01*
X0208400Y0121600D01*
X0223400Y0121600D01*
X0225900Y0119100D01*
X0225900Y0114100D01*
X0223400Y0111600D01*
X0208400Y0111600D02*
X0205900Y0114100D01*
X0245900Y0119100D02*
X0245900Y0104100D01*
X0248400Y0101600D01*
X0253400Y0101600D01*
X0255900Y0104100D01*
X0255900Y0119100D01*
X0253400Y0121600D01*
X0248400Y0121600D01*
X0245900Y0119100D01*
X0255900Y0119100D02*
X0258400Y0121600D01*
X0263400Y0121600D01*
X0265900Y0119100D01*
X0265900Y0104100D01*
X0263400Y0101600D01*
X0258400Y0101600D01*
X0255900Y0104100D01*
X0265900Y0104100D02*
X0268400Y0101600D01*
X0273400Y0101600D01*
X0275900Y0104100D01*
X0275900Y0119100D01*
X0273400Y0121600D01*
X0268400Y0121600D01*
X0265900Y0119100D01*
X0252207Y0069914D02*
X0255036Y0067086D01*
X0288411Y0060439D02*
X0291240Y0063267D01*
X0269531Y0035619D02*
X0267269Y0035619D01*
X0257298Y0033852D02*
X0254399Y0030952D01*
X0268400Y0016600D02*
X0273400Y0016600D01*
X0275900Y0014100D01*
X0278400Y0016600D01*
X0283400Y0016600D01*
X0285900Y0014100D01*
X0288400Y0016600D01*
X0293400Y0016600D01*
X0295900Y0014100D01*
X0295900Y0009100D01*
X0293400Y0006600D01*
X0288400Y0006600D01*
X0285900Y0009100D01*
X0283400Y0006600D01*
X0278400Y0006600D01*
X0275900Y0009100D01*
X0273400Y0006600D01*
X0268400Y0006600D01*
X0265900Y0009100D01*
X0265900Y0014100D01*
X0268400Y0016600D01*
X0275900Y0014100D02*
X0275900Y0009100D01*
X0285900Y0009100D02*
X0285900Y0014100D01*
X0345228Y0015457D02*
X0345228Y0012255D01*
X0346296Y0011187D01*
X0347363Y0012255D01*
X0348431Y0011187D01*
X0349498Y0012255D01*
X0349498Y0015457D01*
X0351673Y0015457D02*
X0351673Y0012255D01*
X0352741Y0011187D01*
X0353809Y0012255D01*
X0354876Y0011187D01*
X0355944Y0012255D01*
X0355944Y0015457D01*
X0358119Y0015457D02*
X0358119Y0012255D01*
X0359187Y0011187D01*
X0360254Y0012255D01*
X0361322Y0011187D01*
X0362389Y0012255D01*
X0362389Y0015457D01*
X0364564Y0012255D02*
X0365632Y0012255D01*
X0365632Y0011187D01*
X0364564Y0011187D01*
X0364564Y0012255D01*
X0369922Y0011187D02*
X0369922Y0017592D01*
X0367787Y0017592D02*
X0372058Y0017592D01*
X0374233Y0014390D02*
X0375300Y0015457D01*
X0377435Y0015457D01*
X0378503Y0014390D01*
X0378503Y0012255D01*
X0377435Y0011187D01*
X0375300Y0011187D01*
X0374233Y0012255D01*
X0374233Y0014390D01*
X0380678Y0015457D02*
X0381746Y0015457D01*
X0382813Y0014390D01*
X0383881Y0015457D01*
X0384949Y0014390D01*
X0384949Y0011187D01*
X0382813Y0011187D02*
X0382813Y0014390D01*
X0380678Y0015457D02*
X0380678Y0011187D01*
X0387124Y0012255D02*
X0388191Y0011187D01*
X0390326Y0011187D01*
X0391394Y0012255D01*
X0391394Y0013322D01*
X0390326Y0014390D01*
X0388191Y0014390D01*
X0387124Y0015457D01*
X0387124Y0016525D01*
X0388191Y0017592D01*
X0390326Y0017592D01*
X0391394Y0016525D01*
X0393569Y0014390D02*
X0394637Y0015457D01*
X0397840Y0015457D01*
X0400015Y0014390D02*
X0401082Y0015457D01*
X0403217Y0015457D01*
X0404285Y0014390D01*
X0404285Y0011187D01*
X0406460Y0012255D02*
X0406460Y0014390D01*
X0407528Y0015457D01*
X0409663Y0015457D01*
X0410731Y0014390D01*
X0410731Y0013322D01*
X0406460Y0013322D01*
X0406460Y0012255D02*
X0407528Y0011187D01*
X0409663Y0011187D01*
X0412906Y0011187D02*
X0412906Y0015457D01*
X0412906Y0013322D02*
X0415041Y0015457D01*
X0416108Y0015457D01*
X0422574Y0015457D02*
X0423642Y0015457D01*
X0423642Y0011187D01*
X0424709Y0011187D02*
X0422574Y0011187D01*
X0420412Y0011187D02*
X0418277Y0011187D01*
X0419345Y0011187D02*
X0419345Y0017592D01*
X0418277Y0017592D01*
X0423642Y0017592D02*
X0423642Y0018660D01*
X0426871Y0014390D02*
X0427939Y0015457D01*
X0431141Y0015457D01*
X0430074Y0013322D02*
X0427939Y0013322D01*
X0426871Y0014390D01*
X0430074Y0013322D02*
X0431141Y0012255D01*
X0430074Y0011187D01*
X0426871Y0011187D01*
X0433316Y0011187D02*
X0433316Y0012255D01*
X0434384Y0012255D01*
X0434384Y0011187D01*
X0433316Y0011187D01*
X0436539Y0012255D02*
X0437607Y0011187D01*
X0440810Y0011187D01*
X0442985Y0012255D02*
X0444052Y0011187D01*
X0446187Y0011187D01*
X0447255Y0012255D01*
X0447255Y0014390D01*
X0446187Y0015457D01*
X0444052Y0015457D01*
X0442985Y0014390D01*
X0442985Y0012255D01*
X0437607Y0015457D02*
X0436539Y0014390D01*
X0436539Y0012255D01*
X0437607Y0015457D02*
X0440810Y0015457D01*
X0449430Y0015457D02*
X0450498Y0015457D01*
X0451565Y0014390D01*
X0452633Y0015457D01*
X0453701Y0014390D01*
X0453701Y0011187D01*
X0451565Y0011187D02*
X0451565Y0014390D01*
X0449430Y0015457D02*
X0449430Y0011187D01*
X0400015Y0011187D02*
X0400015Y0017592D01*
X0393569Y0014390D02*
X0393569Y0012255D01*
X0394637Y0011187D01*
X0397840Y0011187D01*
D11*
X0488658Y0016601D03*
X0492948Y0012887D03*
X0492948Y0012601D03*
X0491518Y0010601D03*
X0491518Y0009173D03*
X0491518Y0008887D03*
X0491518Y0008601D03*
X0490088Y0006887D03*
X0490088Y0006601D03*
D12*
X0490518Y0007173D03*
X0491378Y0010887D03*
X0490518Y0012601D03*
X0489948Y0013744D03*
X0489088Y0015744D03*
X0488518Y0016887D03*
X0491378Y0020887D03*
D13*
X0487943Y0017458D03*
X0467373Y0011458D03*
X0490803Y0007458D03*
D14*
X0490803Y0007744D03*
D15*
X0491233Y0008030D03*
D16*
X0491518Y0008315D03*
X0491518Y0009458D03*
X0491518Y0010315D03*
D17*
X0491803Y0009744D03*
D18*
X0462518Y0009744D03*
D19*
X0467373Y0010887D03*
X0467943Y0010601D03*
X0487943Y0017744D03*
X0492513Y0022887D03*
X0491663Y0010030D03*
D20*
X0493373Y0013173D03*
X0489663Y0014601D03*
X0489663Y0014887D03*
X0467943Y0010030D03*
D21*
X0462663Y0010030D03*
X0488373Y0017173D03*
X0488943Y0016030D03*
X0490373Y0013173D03*
X0490373Y0012887D03*
X0491233Y0011173D03*
X0492943Y0022601D03*
X0465233Y0042601D03*
D22*
X0474658Y0016315D03*
X0474658Y0015458D03*
X0468088Y0010315D03*
X0464658Y0011458D03*
D23*
X0462803Y0010315D03*
D24*
X0462948Y0010601D03*
X0490658Y0021173D03*
X0465228Y0041744D03*
X0465228Y0042030D03*
D25*
X0463373Y0010887D03*
D26*
X0467518Y0011173D03*
X0474658Y0015744D03*
X0474658Y0016030D03*
D27*
X0474518Y0016601D03*
X0474518Y0016887D03*
X0474518Y0015173D03*
X0474518Y0014887D03*
X0474518Y0014601D03*
X0464228Y0011173D03*
D28*
X0491378Y0011458D03*
X0515948Y0017458D03*
D29*
X0491803Y0012030D03*
X0491803Y0011744D03*
X0474373Y0014030D03*
X0474663Y0017173D03*
D30*
X0465513Y0011744D03*
X0519803Y0018030D03*
X0464663Y0040601D03*
D31*
X0521658Y0020601D03*
X0465948Y0012030D03*
D32*
X0474943Y0018315D03*
X0491803Y0012315D03*
D33*
X0468658Y0012315D03*
D34*
X0470663Y0012601D03*
X0466663Y0033173D03*
D35*
X0471948Y0012887D03*
D36*
X0472948Y0013173D03*
D37*
X0493373Y0013458D03*
D38*
X0490233Y0013458D03*
D39*
X0473663Y0013458D03*
D40*
X0493373Y0013744D03*
D41*
X0474088Y0013744D03*
D42*
X0489803Y0014030D03*
D43*
X0489803Y0014315D03*
D44*
X0474518Y0014315D03*
X0464518Y0041458D03*
X0465378Y0042315D03*
D45*
X0489518Y0015173D03*
D46*
X0489233Y0015458D03*
D47*
X0488803Y0016315D03*
D48*
X0474518Y0017458D03*
D49*
X0515803Y0017744D03*
D50*
X0487088Y0018601D03*
X0474518Y0018030D03*
X0474518Y0017744D03*
D51*
X0514803Y0018030D03*
D52*
X0487658Y0018030D03*
D53*
X0516663Y0018315D03*
D54*
X0521803Y0020315D03*
X0487233Y0018315D03*
D55*
X0515948Y0018601D03*
D56*
X0475088Y0018601D03*
X0465088Y0041173D03*
D57*
X0514658Y0018887D03*
D58*
X0511373Y0019744D03*
X0510803Y0020030D03*
X0509373Y0020601D03*
X0505373Y0022030D03*
X0484233Y0018887D03*
X0463373Y0035744D03*
D59*
X0465088Y0040887D03*
X0475088Y0019173D03*
X0475088Y0018887D03*
D60*
X0513803Y0019173D03*
D61*
X0484088Y0019173D03*
D62*
X0512518Y0019458D03*
X0470228Y0031458D03*
D63*
X0480663Y0019458D03*
D64*
X0480663Y0019744D03*
X0480093Y0020887D03*
X0480093Y0021173D03*
D65*
X0480233Y0020030D03*
D66*
X0504518Y0022315D03*
X0509658Y0020315D03*
D67*
X0479803Y0020315D03*
D68*
X0479518Y0020601D03*
D69*
X0520518Y0020887D03*
D70*
X0508373Y0020887D03*
D71*
X0519803Y0021173D03*
D72*
X0507233Y0021173D03*
D73*
X0518948Y0021458D03*
D74*
X0506803Y0021458D03*
X0464233Y0037458D03*
D75*
X0482088Y0021458D03*
D76*
X0517518Y0021744D03*
X0469518Y0031744D03*
D77*
X0505803Y0021744D03*
D78*
X0481803Y0021744D03*
D79*
X0516658Y0022030D03*
D80*
X0481658Y0022030D03*
D81*
X0514658Y0022315D03*
D82*
X0481373Y0022315D03*
D83*
X0508088Y0022601D03*
D84*
X0481088Y0022601D03*
D85*
X0507233Y0022887D03*
D86*
X0480948Y0022887D03*
D87*
X0477513Y0028030D03*
X0504943Y0023173D03*
D88*
X0481948Y0023173D03*
X0479658Y0027173D03*
D89*
X0476948Y0028315D03*
X0504088Y0023458D03*
D90*
X0481803Y0023458D03*
D91*
X0491803Y0023744D03*
D92*
X0490658Y0024030D03*
D93*
X0489803Y0024315D03*
D94*
X0489088Y0024601D03*
D95*
X0488373Y0024887D03*
D96*
X0487518Y0025173D03*
D97*
X0485803Y0025458D03*
D98*
X0484233Y0025744D03*
D99*
X0482948Y0026030D03*
D100*
X0481943Y0026315D03*
D101*
X0481663Y0026601D03*
D102*
X0480378Y0026887D03*
D103*
X0479233Y0027458D03*
D104*
X0478233Y0027744D03*
D105*
X0476518Y0028601D03*
D106*
X0476373Y0028887D03*
D107*
X0475943Y0029173D03*
D108*
X0475373Y0029458D03*
D109*
X0474658Y0029744D03*
D110*
X0474233Y0030030D03*
D111*
X0473658Y0030315D03*
D112*
X0472943Y0030601D03*
D113*
X0472513Y0030887D03*
D114*
X0471088Y0031173D03*
X0461658Y0036030D03*
D115*
X0464233Y0035173D03*
X0468803Y0032030D03*
D116*
X0467948Y0032315D03*
D117*
X0467378Y0032601D03*
D118*
X0466803Y0032887D03*
D119*
X0466373Y0033458D03*
D120*
X0465948Y0033744D03*
D121*
X0465518Y0034030D03*
D122*
X0465233Y0034315D03*
D123*
X0464948Y0034601D03*
X0464088Y0038030D03*
X0464948Y0038601D03*
D124*
X0464518Y0034887D03*
D125*
X0463948Y0035458D03*
D126*
X0461373Y0036315D03*
D127*
X0460658Y0036601D03*
D128*
X0461378Y0036887D03*
D129*
X0461948Y0037173D03*
D130*
X0464093Y0037744D03*
D131*
X0464663Y0038315D03*
D132*
X0464803Y0038887D03*
D133*
X0464658Y0039173D03*
D134*
X0464658Y0039458D03*
D135*
X0465233Y0039744D03*
D136*
X0465093Y0040030D03*
D137*
X0465088Y0040315D03*
D138*
X0013495Y0005170D02*
X0013400Y0005265D01*
X0013400Y0005645D01*
X0013495Y0005740D01*
X0013685Y0005740D01*
X0013780Y0005645D01*
X0013925Y0005550D02*
X0013925Y0005455D01*
X0014020Y0005455D01*
X0014020Y0005550D01*
X0013925Y0005550D01*
X0013925Y0005265D02*
X0013925Y0005170D01*
X0014020Y0005170D01*
X0014020Y0005265D01*
X0013925Y0005265D01*
X0013780Y0005265D02*
X0013685Y0005170D01*
X0013495Y0005170D01*
X0014187Y0005170D02*
X0014568Y0005740D01*
X0014712Y0005740D02*
X0014712Y0005265D01*
X0014807Y0005170D01*
X0014997Y0005170D01*
X0015092Y0005265D01*
X0015092Y0005740D01*
X0015332Y0005550D02*
X0015617Y0005550D01*
X0015762Y0005455D02*
X0015857Y0005550D01*
X0016047Y0005550D01*
X0016142Y0005455D01*
X0016142Y0005360D01*
X0015762Y0005360D01*
X0015762Y0005265D02*
X0015762Y0005455D01*
X0015762Y0005265D02*
X0015857Y0005170D01*
X0016047Y0005170D01*
X0016287Y0005170D02*
X0016287Y0005550D01*
X0016287Y0005360D02*
X0016477Y0005550D01*
X0016572Y0005550D01*
X0016724Y0005455D02*
X0016819Y0005550D01*
X0017104Y0005550D01*
X0017009Y0005360D02*
X0016819Y0005360D01*
X0016724Y0005455D01*
X0016724Y0005170D02*
X0017009Y0005170D01*
X0017104Y0005265D01*
X0017009Y0005360D01*
X0017249Y0005170D02*
X0017629Y0005740D01*
X0017774Y0005550D02*
X0017964Y0005550D01*
X0017869Y0005645D02*
X0017869Y0005265D01*
X0017964Y0005170D01*
X0018124Y0005265D02*
X0018219Y0005170D01*
X0018409Y0005170D01*
X0018504Y0005265D01*
X0018504Y0005455D01*
X0018409Y0005550D01*
X0018219Y0005550D01*
X0018124Y0005455D01*
X0018124Y0005265D01*
X0018649Y0005170D02*
X0018649Y0005550D01*
X0018744Y0005550D01*
X0018839Y0005455D01*
X0018934Y0005550D01*
X0019029Y0005455D01*
X0019029Y0005170D01*
X0019173Y0005170D02*
X0019459Y0005170D01*
X0019554Y0005265D01*
X0019459Y0005360D01*
X0019268Y0005360D01*
X0019173Y0005455D01*
X0019268Y0005550D01*
X0019554Y0005550D01*
X0019698Y0005455D02*
X0019698Y0005265D01*
X0019793Y0005170D01*
X0020079Y0005170D01*
X0020223Y0005170D02*
X0020603Y0005740D01*
X0020748Y0005740D02*
X0021033Y0005740D01*
X0021128Y0005645D01*
X0021128Y0005265D01*
X0021033Y0005170D01*
X0020748Y0005170D01*
X0020748Y0005740D01*
X0021273Y0005455D02*
X0021368Y0005550D01*
X0021558Y0005550D01*
X0021653Y0005455D01*
X0021653Y0005360D01*
X0021273Y0005360D01*
X0021273Y0005265D02*
X0021273Y0005455D01*
X0021273Y0005265D02*
X0021368Y0005170D01*
X0021558Y0005170D01*
X0021798Y0005170D02*
X0022083Y0005170D01*
X0022178Y0005265D01*
X0022083Y0005360D01*
X0021893Y0005360D01*
X0021798Y0005455D01*
X0021893Y0005550D01*
X0022178Y0005550D01*
X0022322Y0005360D02*
X0022608Y0005550D01*
X0022760Y0005550D02*
X0022950Y0005550D01*
X0022855Y0005645D02*
X0022855Y0005265D01*
X0022950Y0005170D01*
X0023110Y0005265D02*
X0023205Y0005170D01*
X0023395Y0005170D01*
X0023490Y0005265D01*
X0023490Y0005455D01*
X0023395Y0005550D01*
X0023205Y0005550D01*
X0023110Y0005455D01*
X0023110Y0005265D01*
X0022608Y0005170D02*
X0022322Y0005360D01*
X0022322Y0005170D02*
X0022322Y0005740D01*
X0023635Y0005550D02*
X0023920Y0005550D01*
X0024015Y0005455D01*
X0024015Y0005265D01*
X0023920Y0005170D01*
X0023635Y0005170D01*
X0023635Y0004980D02*
X0023635Y0005550D01*
X0024159Y0005170D02*
X0024540Y0005740D01*
X0024779Y0005550D02*
X0025065Y0005550D01*
X0025209Y0005455D02*
X0025494Y0005455D01*
X0025590Y0005360D01*
X0025590Y0005265D01*
X0025494Y0005170D01*
X0025304Y0005170D01*
X0025209Y0005265D01*
X0025209Y0005455D01*
X0025399Y0005645D01*
X0025590Y0005740D01*
X0025734Y0005645D02*
X0025829Y0005740D01*
X0026019Y0005740D01*
X0026114Y0005645D01*
X0026114Y0005550D01*
X0025734Y0005170D01*
X0026114Y0005170D01*
X0026259Y0005265D02*
X0026354Y0005170D01*
X0026544Y0005170D01*
X0026639Y0005265D01*
X0026639Y0005360D01*
X0026544Y0005455D01*
X0026259Y0005455D01*
X0026259Y0005265D01*
X0026259Y0005455D02*
X0026449Y0005645D01*
X0026639Y0005740D01*
X0026784Y0005645D02*
X0026784Y0005550D01*
X0026879Y0005455D01*
X0027069Y0005455D01*
X0027164Y0005360D01*
X0027164Y0005265D01*
X0027069Y0005170D01*
X0026879Y0005170D01*
X0026784Y0005265D01*
X0026784Y0005360D01*
X0026879Y0005455D01*
X0027069Y0005455D02*
X0027164Y0005550D01*
X0027164Y0005645D01*
X0027069Y0005740D01*
X0026879Y0005740D01*
X0026784Y0005645D01*
X0027309Y0005645D02*
X0027404Y0005740D01*
X0027594Y0005740D01*
X0027689Y0005645D01*
X0027309Y0005265D01*
X0027404Y0005170D01*
X0027594Y0005170D01*
X0027689Y0005265D01*
X0027689Y0005645D01*
X0027309Y0005645D02*
X0027309Y0005265D01*
X0027833Y0005265D02*
X0027929Y0005265D01*
X0027929Y0005170D01*
X0027833Y0005170D01*
X0027833Y0005265D01*
X0028096Y0005170D02*
X0028381Y0005170D01*
X0028476Y0005265D01*
X0028476Y0005455D01*
X0028381Y0005550D01*
X0028096Y0005550D01*
X0028096Y0005740D02*
X0028096Y0005170D01*
X0028621Y0005170D02*
X0028621Y0005550D01*
X0028716Y0005550D01*
X0028811Y0005455D01*
X0028906Y0005550D01*
X0029001Y0005455D01*
X0029001Y0005170D01*
X0029146Y0005170D02*
X0029431Y0005170D01*
X0029526Y0005265D01*
X0029526Y0005455D01*
X0029431Y0005550D01*
X0029146Y0005550D01*
X0029146Y0004980D01*
X0028811Y0005170D02*
X0028811Y0005455D01*
X0025065Y0005170D02*
X0024779Y0005170D01*
X0024684Y0005265D01*
X0024684Y0005455D01*
X0024779Y0005550D01*
X0025065Y0005740D02*
X0025065Y0005170D01*
X0020079Y0005550D02*
X0019793Y0005550D01*
X0019698Y0005455D01*
X0018839Y0005455D02*
X0018839Y0005170D01*
X0015617Y0005265D02*
X0015522Y0005360D01*
X0015332Y0005360D01*
X0015237Y0005455D01*
X0015332Y0005550D01*
X0015237Y0005170D02*
X0015522Y0005170D01*
X0015617Y0005265D01*
X0247470Y0047499D02*
X0248742Y0046226D01*
X0251500Y0048984D01*
X0265784Y0034700D01*
X0263026Y0031942D01*
X0264299Y0030670D01*
X0267056Y0033427D01*
X0265784Y0034700D01*
X0264864Y0035619D01*
X0271936Y0035619D01*
X0274693Y0032862D01*
X0275966Y0034134D01*
X0273208Y0036892D01*
X0271936Y0035619D01*
X0271016Y0034700D01*
X0273774Y0031942D01*
X0272501Y0030670D01*
X0269743Y0033427D01*
X0286573Y0050256D01*
X0289330Y0047499D01*
X0288058Y0046226D01*
X0285300Y0048984D01*
X0286573Y0050256D01*
X0287916Y0051600D01*
X0286573Y0052943D01*
X0289330Y0055701D01*
X0288058Y0056974D01*
X0285300Y0054216D01*
X0286573Y0052943D01*
X0285300Y0054216D02*
X0284381Y0055136D01*
X0287138Y0057893D01*
X0285866Y0059166D01*
X0283108Y0056408D01*
X0273208Y0066308D01*
X0275966Y0069066D01*
X0274693Y0070338D01*
X0271936Y0067581D01*
X0273208Y0066308D01*
X0274198Y0065318D01*
X0276956Y0068076D01*
X0278229Y0066803D01*
X0275471Y0064045D01*
X0274198Y0065318D01*
X0275471Y0064045D02*
X0276390Y0063126D01*
X0279148Y0065884D01*
X0280421Y0064611D01*
X0277663Y0061853D01*
X0276390Y0063126D01*
X0277663Y0061853D02*
X0278653Y0060863D01*
X0281411Y0063621D01*
X0282684Y0062348D01*
X0279926Y0059590D01*
X0278653Y0060863D01*
X0279926Y0059590D02*
X0280845Y0058671D01*
X0283603Y0061429D01*
X0284876Y0060156D01*
X0282118Y0057398D01*
X0280845Y0058671D01*
X0282118Y0057398D02*
X0283108Y0056408D01*
X0284381Y0055136D01*
X0285300Y0048984D02*
X0284381Y0048064D01*
X0287138Y0045307D01*
X0285866Y0044034D01*
X0283108Y0046792D01*
X0284381Y0048064D01*
X0283108Y0046792D02*
X0282118Y0045802D01*
X0284876Y0043044D01*
X0283603Y0041771D01*
X0280845Y0044529D01*
X0282118Y0045802D01*
X0280845Y0044529D02*
X0279926Y0043610D01*
X0282684Y0040852D01*
X0281411Y0039579D01*
X0278653Y0042337D01*
X0279926Y0043610D01*
X0278653Y0042337D02*
X0277663Y0041347D01*
X0280421Y0038589D01*
X0279148Y0037316D01*
X0276390Y0040074D01*
X0277663Y0041347D01*
X0276390Y0040074D02*
X0275471Y0039155D01*
X0278229Y0036397D01*
X0276956Y0035124D01*
X0274198Y0037882D01*
X0275471Y0039155D01*
X0274198Y0037882D02*
X0273208Y0036892D01*
X0271016Y0034700D02*
X0269743Y0033427D01*
X0268400Y0032084D01*
X0267056Y0033427D01*
X0264864Y0035619D02*
X0262107Y0032862D01*
X0260834Y0034134D01*
X0263592Y0036892D01*
X0264864Y0035619D01*
X0263592Y0036892D02*
X0262602Y0037882D01*
X0259844Y0035124D01*
X0258571Y0036397D01*
X0261329Y0039155D01*
X0262602Y0037882D01*
X0261329Y0039155D02*
X0260410Y0040074D01*
X0257652Y0037316D01*
X0256379Y0038589D01*
X0259137Y0041347D01*
X0260410Y0040074D01*
X0259137Y0041347D02*
X0258147Y0042337D01*
X0255389Y0039579D01*
X0254116Y0040852D01*
X0256874Y0043610D01*
X0258147Y0042337D01*
X0256874Y0043610D02*
X0255955Y0044529D01*
X0253197Y0041771D01*
X0251924Y0043044D01*
X0254682Y0045802D01*
X0255955Y0044529D01*
X0254682Y0045802D02*
X0253692Y0046792D01*
X0250934Y0044034D01*
X0249662Y0045307D01*
X0252419Y0048064D01*
X0253692Y0046792D01*
X0252419Y0048064D02*
X0251500Y0048984D01*
X0250227Y0050256D01*
X0247470Y0047499D01*
X0250227Y0050256D02*
X0248884Y0051600D01*
X0250227Y0052943D01*
X0247470Y0055701D01*
X0248742Y0056974D01*
X0251500Y0054216D01*
X0250227Y0052943D01*
X0251500Y0054216D02*
X0252419Y0055136D01*
X0264864Y0067581D01*
X0262107Y0070338D01*
X0260834Y0069066D01*
X0263592Y0066308D01*
X0264864Y0067581D01*
X0265784Y0068500D01*
X0263026Y0071258D01*
X0264299Y0072530D01*
X0267056Y0069773D01*
X0265784Y0068500D01*
X0267056Y0069773D02*
X0268400Y0071116D01*
X0269743Y0069773D01*
X0272501Y0072530D01*
X0273774Y0071258D01*
X0271016Y0068500D01*
X0269743Y0069773D01*
X0271016Y0068500D02*
X0271936Y0067581D01*
X0263592Y0066308D02*
X0262602Y0065318D01*
X0259844Y0068076D01*
X0258571Y0066803D01*
X0261329Y0064045D01*
X0262602Y0065318D01*
X0261329Y0064045D02*
X0260410Y0063126D01*
X0257652Y0065884D01*
X0256379Y0064611D01*
X0259137Y0061853D01*
X0260410Y0063126D01*
X0259137Y0061853D02*
X0258147Y0060863D01*
X0255389Y0063621D01*
X0254116Y0062348D01*
X0256874Y0059590D01*
X0258147Y0060863D01*
X0256874Y0059590D02*
X0255955Y0058671D01*
X0253197Y0061429D01*
X0251924Y0060156D01*
X0254682Y0057398D01*
X0255955Y0058671D01*
X0254682Y0057398D02*
X0253692Y0056408D01*
X0250934Y0059166D01*
X0249662Y0057893D01*
X0252419Y0055136D01*
X0253692Y0056408D01*
D139*
X0211052Y0068649D02*
X0208248Y0068649D01*
X0208248Y0072000D02*
X0211052Y0072000D01*
X0211052Y0074899D02*
X0208248Y0074899D01*
X0208248Y0078250D02*
X0211052Y0078250D01*
X0246750Y0082698D02*
X0246750Y0085502D01*
X0250101Y0085502D02*
X0250101Y0082698D01*
X0307324Y0098323D02*
X0307324Y0101127D01*
X0310675Y0101127D02*
X0310675Y0098323D01*
X0342949Y0098948D02*
X0342949Y0101752D01*
X0346300Y0101752D02*
X0346300Y0098948D01*
X0348000Y0074252D02*
X0348000Y0071448D01*
X0351351Y0071448D02*
X0351351Y0074252D01*
X0388600Y0066404D02*
X0390902Y0066404D01*
X0391669Y0065637D01*
X0391669Y0064869D01*
X0390902Y0064102D01*
X0388600Y0064102D01*
X0388600Y0061800D02*
X0388600Y0066404D01*
X0390902Y0064102D02*
X0391669Y0063335D01*
X0391669Y0062567D01*
X0390902Y0061800D01*
X0388600Y0061800D01*
X0393204Y0061800D02*
X0393204Y0066404D01*
X0396273Y0061800D01*
X0396273Y0066404D01*
X0397808Y0065637D02*
X0397808Y0062567D01*
X0398575Y0061800D01*
X0400110Y0061800D01*
X0400877Y0062567D01*
X0400877Y0065637D01*
X0400110Y0066404D01*
X0398575Y0066404D01*
X0397808Y0065637D01*
X0402412Y0065637D02*
X0403179Y0066404D01*
X0404714Y0066404D01*
X0405481Y0065637D01*
X0402412Y0062567D01*
X0403179Y0061800D01*
X0404714Y0061800D01*
X0405481Y0062567D01*
X0405481Y0065637D01*
X0407016Y0066404D02*
X0407016Y0064102D01*
X0408550Y0064869D01*
X0409318Y0064869D01*
X0410085Y0064102D01*
X0410085Y0062567D01*
X0409318Y0061800D01*
X0407783Y0061800D01*
X0407016Y0062567D01*
X0411620Y0062567D02*
X0412387Y0061800D01*
X0413922Y0061800D01*
X0414689Y0062567D01*
X0414689Y0064102D01*
X0413922Y0064869D01*
X0413154Y0064869D01*
X0411620Y0064102D01*
X0411620Y0066404D01*
X0414689Y0066404D01*
X0410085Y0066404D02*
X0407016Y0066404D01*
X0402412Y0065637D02*
X0402412Y0062567D01*
X0351300Y0061752D02*
X0351300Y0058948D01*
X0347949Y0058948D02*
X0347949Y0061752D01*
X0293188Y0036294D02*
X0291206Y0034312D01*
X0293575Y0031942D02*
X0295558Y0033925D01*
X0242601Y0025502D02*
X0242601Y0022698D01*
X0239250Y0022698D02*
X0239250Y0025502D01*
X0149802Y0052399D02*
X0146998Y0052399D01*
X0146998Y0055750D02*
X0149802Y0055750D01*
X0129802Y0053301D02*
X0126998Y0053301D01*
X0126998Y0049950D02*
X0129802Y0049950D01*
X0088200Y0035701D02*
X0085398Y0035701D01*
X0086799Y0034300D01*
X0086799Y0036168D01*
X0112398Y0032220D02*
X0112398Y0031286D01*
X0112865Y0030819D01*
X0113799Y0031753D02*
X0113799Y0032220D01*
X0114266Y0032687D01*
X0114733Y0032687D01*
X0115200Y0032220D01*
X0115200Y0031286D01*
X0114733Y0030819D01*
X0113799Y0032220D02*
X0113332Y0032687D01*
X0112865Y0032687D01*
X0112398Y0032220D01*
X0098000Y0027542D02*
X0098000Y0024473D01*
X0098000Y0026008D02*
X0093396Y0026008D01*
X0094931Y0024473D01*
X0094163Y0022939D02*
X0093396Y0022171D01*
X0093396Y0020637D01*
X0094163Y0019869D01*
X0097233Y0019869D01*
X0098000Y0020637D01*
X0098000Y0022171D01*
X0097233Y0022939D01*
X0098000Y0018335D02*
X0098000Y0016800D01*
X0098000Y0017567D02*
X0093396Y0017567D01*
X0093396Y0016800D02*
X0093396Y0018335D01*
X0112435Y0022186D02*
X0112902Y0021719D01*
X0112435Y0022186D02*
X0112435Y0023120D01*
X0112902Y0023587D01*
X0113369Y0023587D01*
X0115237Y0021719D01*
X0115237Y0023587D01*
X0115200Y0015075D02*
X0115200Y0013207D01*
X0115200Y0014141D02*
X0112398Y0014141D01*
X0113332Y0013207D01*
X0090101Y0085198D02*
X0090101Y0088002D01*
X0086750Y0088002D02*
X0086750Y0085198D01*
X0164498Y0104899D02*
X0167302Y0104899D01*
X0167302Y0108250D02*
X0164498Y0108250D01*
X0181998Y0104500D02*
X0184802Y0104500D01*
X0184802Y0101149D02*
X0181998Y0101149D01*
X0181998Y0098301D02*
X0184802Y0098301D01*
X0184802Y0094950D02*
X0181998Y0094950D01*
X0129802Y0108700D02*
X0126998Y0108700D01*
X0126998Y0112051D02*
X0129802Y0112051D01*
X0129802Y0114950D02*
X0126998Y0114950D01*
X0126998Y0118301D02*
X0129802Y0118301D01*
X0491323Y0095904D02*
X0492857Y0095904D01*
X0492090Y0095904D02*
X0492090Y0091300D01*
X0491323Y0091300D02*
X0492857Y0091300D01*
X0494392Y0092067D02*
X0495159Y0091300D01*
X0496694Y0091300D01*
X0497461Y0092067D01*
X0498996Y0091300D02*
X0502065Y0094369D01*
X0502065Y0095137D01*
X0501298Y0095904D01*
X0499763Y0095904D01*
X0498996Y0095137D01*
X0497461Y0095137D02*
X0496694Y0095904D01*
X0495159Y0095904D01*
X0494392Y0095137D01*
X0494392Y0092067D01*
X0498996Y0091300D02*
X0502065Y0091300D01*
X0531998Y0088301D02*
X0534802Y0088301D01*
X0534802Y0084950D02*
X0531998Y0084950D01*
X0531998Y0068301D02*
X0534802Y0068301D01*
X0534802Y0064950D02*
X0531998Y0064950D01*
X0516052Y0050801D02*
X0513248Y0050801D01*
X0513248Y0047450D02*
X0516052Y0047450D01*
X0514802Y0039551D02*
X0511998Y0039551D01*
X0511998Y0036200D02*
X0514802Y0036200D01*
X0514802Y0030301D02*
X0511998Y0030301D01*
X0511998Y0026950D02*
X0514802Y0026950D01*
X0514516Y0015908D02*
X0511713Y0015908D01*
X0511713Y0012558D02*
X0514516Y0012558D01*
X0531998Y0114950D02*
X0534802Y0114950D01*
X0534802Y0118301D02*
X0531998Y0118301D01*
D140*
X0349770Y0072850D02*
X0349530Y0072850D01*
X0349530Y0060350D02*
X0349770Y0060350D01*
X0293485Y0034015D02*
X0293315Y0034185D01*
X0148400Y0053980D02*
X0148400Y0054220D01*
X0128400Y0051720D02*
X0128400Y0051480D01*
X0248280Y0084100D02*
X0248520Y0084100D01*
D141*
X0211966Y0076580D03*
X0207366Y0076580D03*
X0207366Y0070330D03*
X0211966Y0070330D03*
X0150716Y0054080D03*
X0146116Y0054080D03*
X0130684Y0051620D03*
X0126084Y0051620D03*
G36*
X0293766Y0031851D02*
X0292374Y0030459D01*
X0289730Y0033103D01*
X0291122Y0034495D01*
X0293766Y0031851D01*
G37*
G36*
X0297019Y0035104D02*
X0295627Y0033712D01*
X0292983Y0036356D01*
X0294375Y0037748D01*
X0297019Y0035104D01*
G37*
X0511084Y0037870D03*
X0515684Y0037870D03*
X0515684Y0028620D03*
X0511084Y0028620D03*
X0510799Y0014227D03*
X0515399Y0014227D03*
X0516934Y0049120D03*
X0512334Y0049120D03*
X0531084Y0066620D03*
X0535684Y0066620D03*
X0535684Y0086620D03*
X0531084Y0086620D03*
X0531084Y0116620D03*
X0535684Y0116620D03*
X0185716Y0102830D03*
X0181116Y0102830D03*
X0168216Y0106580D03*
X0163616Y0106580D03*
X0130684Y0110370D03*
X0126084Y0110370D03*
X0126084Y0116620D03*
X0130684Y0116620D03*
X0181084Y0096620D03*
X0185684Y0096620D03*
D142*
X0190525Y0096578D02*
X0191275Y0096578D01*
X0191525Y0096828D01*
X0191525Y0097329D01*
X0191275Y0097579D01*
X0190525Y0097579D01*
X0190525Y0096077D01*
X0191025Y0096578D02*
X0191525Y0096077D01*
X0191998Y0096328D02*
X0192248Y0096077D01*
X0192749Y0096077D01*
X0192999Y0096328D01*
X0192999Y0097329D01*
X0192749Y0097579D01*
X0192248Y0097579D01*
X0191998Y0097329D01*
X0191998Y0097078D01*
X0192248Y0096828D01*
X0192999Y0096828D01*
X0192801Y0101444D02*
X0193051Y0101694D01*
X0193051Y0101944D01*
X0192801Y0102194D01*
X0192050Y0102194D01*
X0192050Y0101694D01*
X0192300Y0101444D01*
X0192801Y0101444D01*
X0192050Y0102194D02*
X0192551Y0102695D01*
X0193051Y0102945D01*
X0191578Y0102695D02*
X0191578Y0102194D01*
X0191328Y0101944D01*
X0190577Y0101944D01*
X0190577Y0101444D02*
X0190577Y0102945D01*
X0191328Y0102945D01*
X0191578Y0102695D01*
X0191077Y0101944D02*
X0191578Y0101444D01*
X0168978Y0103301D02*
X0167977Y0102300D01*
X0167977Y0102050D01*
X0167504Y0102050D02*
X0167004Y0102550D01*
X0167254Y0102550D02*
X0166503Y0102550D01*
X0166503Y0102050D02*
X0166503Y0103551D01*
X0167254Y0103551D01*
X0167504Y0103301D01*
X0167504Y0102801D01*
X0167254Y0102550D01*
X0167977Y0103551D02*
X0168978Y0103551D01*
X0168978Y0103301D01*
X0176372Y0109175D02*
X0176623Y0108924D01*
X0177123Y0108924D01*
X0177373Y0109175D01*
X0177373Y0110175D01*
X0177123Y0110426D01*
X0176623Y0110426D01*
X0176372Y0110175D01*
X0176372Y0109175D01*
X0176873Y0109425D02*
X0177373Y0108924D01*
X0177846Y0108924D02*
X0178846Y0109925D01*
X0178846Y0110175D01*
X0178596Y0110426D01*
X0178096Y0110426D01*
X0177846Y0110175D01*
X0177846Y0108924D02*
X0178846Y0108924D01*
X0142103Y0102801D02*
X0141102Y0102801D01*
X0141852Y0103551D01*
X0141852Y0102050D01*
X0140629Y0102300D02*
X0140629Y0103301D01*
X0140379Y0103551D01*
X0139628Y0103551D01*
X0139628Y0102050D01*
X0140379Y0102050D01*
X0140629Y0102300D01*
X0121174Y0110525D02*
X0120924Y0110275D01*
X0120423Y0110275D01*
X0120173Y0110525D01*
X0120173Y0111026D02*
X0120674Y0111276D01*
X0120924Y0111276D01*
X0121174Y0111026D01*
X0121174Y0110525D01*
X0120173Y0111026D02*
X0120173Y0111776D01*
X0121174Y0111776D01*
X0119701Y0111526D02*
X0119451Y0111776D01*
X0118700Y0111776D01*
X0118700Y0110275D01*
X0118700Y0110775D02*
X0119451Y0110775D01*
X0119701Y0111026D01*
X0119701Y0111526D01*
X0119200Y0110775D02*
X0119701Y0110275D01*
X0119701Y0115900D02*
X0119200Y0116400D01*
X0119451Y0116400D02*
X0118700Y0116400D01*
X0118700Y0115900D02*
X0118700Y0117401D01*
X0119451Y0117401D01*
X0119701Y0117151D01*
X0119701Y0116651D01*
X0119451Y0116400D01*
X0120173Y0116651D02*
X0121174Y0116651D01*
X0120924Y0117401D02*
X0120173Y0116651D01*
X0120924Y0117401D02*
X0120924Y0115900D01*
X0139628Y0122675D02*
X0140379Y0122675D01*
X0140629Y0122925D01*
X0140629Y0123926D01*
X0140379Y0124176D01*
X0139628Y0124176D01*
X0139628Y0122675D01*
X0141102Y0122925D02*
X0141352Y0122675D01*
X0141852Y0122675D01*
X0142103Y0122925D01*
X0142103Y0123175D01*
X0141852Y0123426D01*
X0141602Y0123426D01*
X0141852Y0123426D02*
X0142103Y0123676D01*
X0142103Y0123926D01*
X0141852Y0124176D01*
X0141352Y0124176D01*
X0141102Y0123926D01*
X0044950Y0096178D02*
X0044950Y0095177D01*
X0044950Y0095677D02*
X0043449Y0095677D01*
X0043949Y0095177D01*
X0043449Y0094704D02*
X0043449Y0094204D01*
X0043449Y0094454D02*
X0044700Y0094454D01*
X0044950Y0094204D01*
X0044950Y0093954D01*
X0044700Y0093703D01*
X0091449Y0089427D02*
X0091699Y0089678D01*
X0091949Y0089678D01*
X0092199Y0089427D01*
X0092199Y0088927D01*
X0091949Y0088677D01*
X0091699Y0088677D01*
X0091449Y0088927D01*
X0091449Y0089427D01*
X0092199Y0089427D02*
X0092450Y0089678D01*
X0092700Y0089678D01*
X0092950Y0089427D01*
X0092950Y0088927D01*
X0092700Y0088677D01*
X0092450Y0088677D01*
X0092199Y0088927D01*
X0092199Y0088204D02*
X0092450Y0087954D01*
X0092450Y0087203D01*
X0092950Y0087203D02*
X0091449Y0087203D01*
X0091449Y0087954D01*
X0091699Y0088204D01*
X0092199Y0088204D01*
X0092450Y0087704D02*
X0092950Y0088204D01*
X0123450Y0088151D02*
X0123450Y0086900D01*
X0123700Y0086650D01*
X0124201Y0086650D01*
X0124451Y0086900D01*
X0124451Y0088151D01*
X0124923Y0087901D02*
X0125173Y0088151D01*
X0125674Y0088151D01*
X0125924Y0087901D01*
X0125924Y0087651D01*
X0124923Y0086650D01*
X0125924Y0086650D01*
X0175074Y0083909D02*
X0175325Y0084159D01*
X0175825Y0084159D01*
X0176075Y0083909D01*
X0176075Y0082908D01*
X0175825Y0082658D01*
X0175325Y0082658D01*
X0175074Y0082908D01*
X0175074Y0083909D01*
X0175575Y0083158D02*
X0176075Y0082658D01*
X0176548Y0082658D02*
X0177549Y0082658D01*
X0177048Y0082658D02*
X0177048Y0084159D01*
X0176548Y0083659D01*
X0216503Y0077301D02*
X0216503Y0075800D01*
X0216503Y0076300D02*
X0217254Y0076300D01*
X0217504Y0076551D01*
X0217504Y0077051D01*
X0217254Y0077301D01*
X0216503Y0077301D01*
X0217004Y0076300D02*
X0217504Y0075800D01*
X0217977Y0075800D02*
X0218978Y0076801D01*
X0218978Y0077051D01*
X0218727Y0077301D01*
X0218227Y0077301D01*
X0217977Y0077051D01*
X0217977Y0075800D02*
X0218978Y0075800D01*
X0251449Y0084954D02*
X0251699Y0084703D01*
X0252700Y0084703D01*
X0252950Y0084954D01*
X0252950Y0085454D01*
X0252700Y0085704D01*
X0252700Y0086177D02*
X0252950Y0086427D01*
X0252950Y0086927D01*
X0252700Y0087178D01*
X0252199Y0087178D01*
X0251949Y0086927D01*
X0251949Y0086677D01*
X0252199Y0086177D01*
X0251449Y0086177D01*
X0251449Y0087178D01*
X0251699Y0085704D02*
X0251449Y0085454D01*
X0251449Y0084954D01*
X0304474Y0096275D02*
X0304474Y0097026D01*
X0304724Y0097276D01*
X0305224Y0097276D01*
X0305475Y0097026D01*
X0305475Y0096275D01*
X0305975Y0096275D02*
X0304474Y0096275D01*
X0305475Y0096775D02*
X0305975Y0097276D01*
X0305975Y0097748D02*
X0305975Y0098749D01*
X0305975Y0099222D02*
X0305725Y0099222D01*
X0304724Y0100222D01*
X0304474Y0100222D01*
X0304474Y0099222D01*
X0304474Y0098249D02*
X0305975Y0098249D01*
X0304974Y0097748D02*
X0304474Y0098249D01*
X0340099Y0097651D02*
X0340099Y0096900D01*
X0341600Y0096900D01*
X0341100Y0096900D02*
X0341100Y0097651D01*
X0340849Y0097901D01*
X0340349Y0097901D01*
X0340099Y0097651D01*
X0340599Y0098373D02*
X0340099Y0098874D01*
X0341600Y0098874D01*
X0341600Y0099374D02*
X0341600Y0098373D01*
X0341600Y0097901D02*
X0341100Y0097400D01*
X0341100Y0099847D02*
X0340849Y0100097D01*
X0340849Y0100597D01*
X0341100Y0100847D01*
X0341350Y0100847D01*
X0341600Y0100597D01*
X0341600Y0100097D01*
X0341350Y0099847D01*
X0341100Y0099847D01*
X0340849Y0100097D02*
X0340599Y0099847D01*
X0340349Y0099847D01*
X0340099Y0100097D01*
X0340099Y0100597D01*
X0340349Y0100847D01*
X0340599Y0100847D01*
X0340849Y0100597D01*
X0354521Y0073355D02*
X0354271Y0073105D01*
X0354271Y0072605D01*
X0354521Y0072355D01*
X0354521Y0071882D02*
X0354271Y0071632D01*
X0354271Y0071131D01*
X0354521Y0070881D01*
X0355522Y0070881D01*
X0355772Y0071131D01*
X0355772Y0071632D01*
X0355522Y0071882D01*
X0355772Y0072355D02*
X0354771Y0073355D01*
X0354521Y0073355D01*
X0355772Y0073355D02*
X0355772Y0072355D01*
X0355210Y0062947D02*
X0355460Y0062696D01*
X0355460Y0062196D01*
X0355210Y0061946D01*
X0355210Y0061473D02*
X0355460Y0061223D01*
X0355460Y0060723D01*
X0355210Y0060473D01*
X0354209Y0060473D01*
X0353959Y0060723D01*
X0353959Y0061223D01*
X0354209Y0061473D01*
X0354209Y0061946D02*
X0353959Y0062196D01*
X0353959Y0062696D01*
X0354209Y0062947D01*
X0354459Y0062947D01*
X0354709Y0062696D01*
X0354959Y0062947D01*
X0355210Y0062947D01*
X0354709Y0062696D02*
X0354709Y0062446D01*
X0297773Y0031497D02*
X0296712Y0032559D01*
X0296712Y0031851D01*
X0296201Y0031694D02*
X0295847Y0031694D01*
X0295493Y0031340D01*
X0295493Y0030986D01*
X0296201Y0030279D01*
X0296554Y0030279D01*
X0296908Y0030633D01*
X0296908Y0030986D01*
X0297419Y0031143D02*
X0298127Y0031851D01*
X0316003Y0017301D02*
X0316254Y0017551D01*
X0316754Y0017551D01*
X0317004Y0017301D01*
X0317477Y0016801D02*
X0318478Y0016801D01*
X0318227Y0017551D02*
X0318227Y0016050D01*
X0317477Y0016801D02*
X0318227Y0017551D01*
X0317004Y0016300D02*
X0316754Y0016050D01*
X0316254Y0016050D01*
X0316003Y0016300D01*
X0316003Y0017301D01*
X0245450Y0024703D02*
X0243949Y0024703D01*
X0243949Y0025454D01*
X0244199Y0025704D01*
X0244699Y0025704D01*
X0244950Y0025454D01*
X0244950Y0024703D01*
X0244950Y0025204D02*
X0245450Y0025704D01*
X0245200Y0026177D02*
X0245450Y0026427D01*
X0245450Y0026927D01*
X0245200Y0027178D01*
X0244950Y0027178D01*
X0244699Y0026927D01*
X0244699Y0026677D01*
X0244699Y0026927D02*
X0244449Y0027178D01*
X0244199Y0027178D01*
X0243949Y0026927D01*
X0243949Y0026427D01*
X0244199Y0026177D01*
X0231950Y0032454D02*
X0231700Y0032203D01*
X0231950Y0032454D02*
X0231950Y0032954D01*
X0231700Y0033204D01*
X0231450Y0033204D01*
X0231199Y0032954D01*
X0231199Y0032454D01*
X0230949Y0032203D01*
X0230699Y0032203D01*
X0230449Y0032454D01*
X0230449Y0032954D01*
X0230699Y0033204D01*
X0230949Y0033677D02*
X0230449Y0034177D01*
X0231950Y0034177D01*
X0231950Y0033677D02*
X0231950Y0034678D01*
X0175850Y0018097D02*
X0175850Y0017097D01*
X0175850Y0017597D02*
X0174349Y0017597D01*
X0174849Y0017097D01*
X0174599Y0016624D02*
X0174349Y0016374D01*
X0174349Y0015873D01*
X0174599Y0015623D01*
X0174849Y0015623D01*
X0175099Y0015873D01*
X0175099Y0016374D01*
X0175350Y0016624D01*
X0175600Y0016624D01*
X0175850Y0016374D01*
X0175850Y0015873D01*
X0175600Y0015623D01*
X0175600Y0015151D02*
X0174349Y0015151D01*
X0174349Y0014150D02*
X0175600Y0014150D01*
X0175850Y0014400D01*
X0175850Y0014901D01*
X0175600Y0015151D01*
X0176100Y0016124D02*
X0174099Y0016124D01*
X0123674Y0045025D02*
X0122673Y0045025D01*
X0123174Y0045025D02*
X0123174Y0046526D01*
X0122673Y0046026D01*
X0122201Y0046276D02*
X0121951Y0046526D01*
X0121200Y0046526D01*
X0121200Y0045025D01*
X0121951Y0045025D01*
X0122201Y0045275D01*
X0122201Y0046276D01*
X0149003Y0049800D02*
X0149254Y0049550D01*
X0149754Y0049550D01*
X0150004Y0049800D01*
X0150477Y0049800D02*
X0150477Y0050050D01*
X0150727Y0050301D01*
X0151227Y0050301D01*
X0151478Y0050050D01*
X0151478Y0049800D01*
X0151227Y0049550D01*
X0150727Y0049550D01*
X0150477Y0049800D01*
X0150727Y0050301D02*
X0150477Y0050551D01*
X0150477Y0050801D01*
X0150727Y0051051D01*
X0151227Y0051051D01*
X0151478Y0050801D01*
X0151478Y0050551D01*
X0151227Y0050301D01*
X0150004Y0050801D02*
X0149754Y0051051D01*
X0149254Y0051051D01*
X0149003Y0050801D01*
X0149003Y0049800D01*
X0127424Y0054900D02*
X0127424Y0055150D01*
X0127174Y0055401D01*
X0126423Y0055401D01*
X0126423Y0054900D01*
X0126673Y0054650D01*
X0127174Y0054650D01*
X0127424Y0054900D01*
X0126924Y0055901D02*
X0126423Y0055401D01*
X0125951Y0055901D02*
X0125701Y0056151D01*
X0125200Y0056151D01*
X0124950Y0055901D01*
X0124950Y0054900D01*
X0125200Y0054650D01*
X0125701Y0054650D01*
X0125951Y0054900D01*
X0126924Y0055901D02*
X0127424Y0056151D01*
X0183699Y0061954D02*
X0183949Y0061703D01*
X0184950Y0061703D01*
X0185200Y0061954D01*
X0185200Y0062454D01*
X0184950Y0062704D01*
X0184950Y0063177D02*
X0185200Y0063427D01*
X0185200Y0063927D01*
X0184950Y0064178D01*
X0183949Y0064178D01*
X0183699Y0063927D01*
X0183699Y0063427D01*
X0183949Y0063177D01*
X0184199Y0063177D01*
X0184449Y0063427D01*
X0184449Y0064178D01*
X0183949Y0062704D02*
X0183699Y0062454D01*
X0183699Y0061954D01*
X0209628Y0065175D02*
X0209628Y0066676D01*
X0210379Y0066676D01*
X0210629Y0066426D01*
X0210629Y0065926D01*
X0210379Y0065675D01*
X0209628Y0065675D01*
X0210129Y0065675D02*
X0210629Y0065175D01*
X0211102Y0065175D02*
X0212103Y0065175D01*
X0211602Y0065175D02*
X0211602Y0066676D01*
X0211102Y0066176D01*
X0034950Y0036178D02*
X0034950Y0035177D01*
X0033949Y0036178D01*
X0033699Y0036178D01*
X0033449Y0035927D01*
X0033449Y0035427D01*
X0033699Y0035177D01*
X0033699Y0034704D02*
X0033449Y0034454D01*
X0033449Y0033703D01*
X0034950Y0033703D01*
X0034450Y0033703D02*
X0034450Y0034454D01*
X0034199Y0034704D01*
X0033699Y0034704D01*
X0033449Y0033231D02*
X0033449Y0032731D01*
X0033449Y0032981D02*
X0034700Y0032981D01*
X0034950Y0032731D01*
X0034950Y0032480D01*
X0034700Y0032230D01*
X0509950Y0032150D02*
X0510701Y0032150D01*
X0510951Y0032401D01*
X0510951Y0032901D01*
X0510701Y0033151D01*
X0509950Y0033151D01*
X0509950Y0031650D01*
X0510450Y0032150D02*
X0510951Y0031650D01*
X0511423Y0031650D02*
X0512424Y0031650D01*
X0511924Y0031650D02*
X0511924Y0033151D01*
X0511423Y0032651D01*
X0512897Y0032401D02*
X0513897Y0032401D01*
X0513647Y0033151D02*
X0512897Y0032401D01*
X0513647Y0033151D02*
X0513647Y0031650D01*
X0534003Y0032301D02*
X0534003Y0030800D01*
X0534754Y0030800D01*
X0535004Y0031050D01*
X0535004Y0032051D01*
X0534754Y0032301D01*
X0534003Y0032301D01*
X0535477Y0032051D02*
X0535477Y0031801D01*
X0535727Y0031551D01*
X0536478Y0031551D01*
X0536478Y0032051D02*
X0536478Y0031050D01*
X0536227Y0030800D01*
X0535727Y0030800D01*
X0535477Y0031050D01*
X0535477Y0032051D02*
X0535727Y0032301D01*
X0536227Y0032301D01*
X0536478Y0032051D01*
X0536227Y0042050D02*
X0535727Y0042050D01*
X0535477Y0042300D01*
X0536478Y0043301D01*
X0536478Y0042300D01*
X0536227Y0042050D01*
X0535477Y0042300D02*
X0535477Y0043301D01*
X0535727Y0043551D01*
X0536227Y0043551D01*
X0536478Y0043301D01*
X0535004Y0042050D02*
X0534003Y0042050D01*
X0534504Y0042050D02*
X0534504Y0043551D01*
X0534003Y0043051D01*
X0533531Y0043301D02*
X0533281Y0043551D01*
X0532530Y0043551D01*
X0532530Y0042050D01*
X0533281Y0042050D01*
X0533531Y0042300D01*
X0533531Y0043301D01*
X0513897Y0042401D02*
X0512897Y0042401D01*
X0512897Y0041651D01*
X0513397Y0041901D01*
X0513647Y0041901D01*
X0513897Y0041651D01*
X0513897Y0041150D01*
X0513647Y0040900D01*
X0513147Y0040900D01*
X0512897Y0041150D01*
X0512424Y0040900D02*
X0511423Y0040900D01*
X0510951Y0040900D02*
X0510450Y0041400D01*
X0510701Y0041400D02*
X0509950Y0041400D01*
X0509950Y0040900D02*
X0509950Y0042401D01*
X0510701Y0042401D01*
X0510951Y0042151D01*
X0510951Y0041651D01*
X0510701Y0041400D01*
X0511423Y0041901D02*
X0511924Y0042401D01*
X0511924Y0040900D01*
X0512201Y0052150D02*
X0511700Y0052650D01*
X0511951Y0052650D02*
X0511200Y0052650D01*
X0511200Y0052150D02*
X0511200Y0053651D01*
X0511951Y0053651D01*
X0512201Y0053401D01*
X0512201Y0052901D01*
X0511951Y0052650D01*
X0512673Y0052150D02*
X0513674Y0052150D01*
X0513174Y0052150D02*
X0513174Y0053651D01*
X0512673Y0053151D01*
X0514147Y0052901D02*
X0514897Y0052901D01*
X0515147Y0052650D01*
X0515147Y0052400D01*
X0514897Y0052150D01*
X0514397Y0052150D01*
X0514147Y0052400D01*
X0514147Y0052901D01*
X0514647Y0053401D01*
X0515147Y0053651D01*
X0529950Y0069650D02*
X0529950Y0071151D01*
X0530701Y0071151D01*
X0530951Y0070901D01*
X0530951Y0070401D01*
X0530701Y0070150D01*
X0529950Y0070150D01*
X0530450Y0070150D02*
X0530951Y0069650D01*
X0531423Y0069650D02*
X0532424Y0069650D01*
X0532897Y0069650D02*
X0533897Y0070651D01*
X0533897Y0070901D01*
X0533647Y0071151D01*
X0533147Y0071151D01*
X0532897Y0070901D01*
X0531924Y0071151D02*
X0531423Y0070651D01*
X0531924Y0071151D02*
X0531924Y0069650D01*
X0532897Y0069650D02*
X0533897Y0069650D01*
X0534299Y0080900D02*
X0533298Y0080900D01*
X0534299Y0081901D01*
X0534299Y0082151D01*
X0534049Y0082401D01*
X0533548Y0082401D01*
X0533298Y0082151D01*
X0532826Y0082151D02*
X0532576Y0082401D01*
X0531825Y0082401D01*
X0531825Y0080900D01*
X0532576Y0080900D01*
X0532826Y0081150D01*
X0532826Y0082151D01*
X0532897Y0089650D02*
X0533897Y0089650D01*
X0533397Y0089650D02*
X0533397Y0091151D01*
X0532897Y0090651D01*
X0531924Y0091151D02*
X0531924Y0089650D01*
X0532424Y0089650D02*
X0531423Y0089650D01*
X0530951Y0089650D02*
X0530450Y0090150D01*
X0530701Y0090150D02*
X0529950Y0090150D01*
X0529950Y0089650D02*
X0529950Y0091151D01*
X0530701Y0091151D01*
X0530951Y0090901D01*
X0530951Y0090401D01*
X0530701Y0090150D01*
X0531423Y0090651D02*
X0531924Y0091151D01*
X0532450Y0100900D02*
X0533201Y0100900D01*
X0533451Y0101150D01*
X0533451Y0102151D01*
X0533201Y0102401D01*
X0532450Y0102401D01*
X0532450Y0100900D01*
X0533923Y0101150D02*
X0534173Y0100900D01*
X0534674Y0100900D01*
X0534924Y0101150D01*
X0534924Y0101400D01*
X0534674Y0101651D01*
X0533923Y0101651D01*
X0533923Y0101150D01*
X0533923Y0101651D02*
X0534424Y0102151D01*
X0534924Y0102401D01*
X0534674Y0111525D02*
X0534173Y0111525D01*
X0533923Y0111775D01*
X0533451Y0111775D02*
X0533451Y0112776D01*
X0533201Y0113026D01*
X0532450Y0113026D01*
X0532450Y0111525D01*
X0533201Y0111525D01*
X0533451Y0111775D01*
X0533923Y0112276D02*
X0534424Y0112526D01*
X0534674Y0112526D01*
X0534924Y0112276D01*
X0534924Y0111775D01*
X0534674Y0111525D01*
X0533923Y0112276D02*
X0533923Y0113026D01*
X0534924Y0113026D01*
X0533647Y0119650D02*
X0533147Y0119650D01*
X0532897Y0119900D01*
X0533897Y0120901D01*
X0533897Y0119900D01*
X0533647Y0119650D01*
X0532897Y0119900D02*
X0532897Y0120901D01*
X0533147Y0121151D01*
X0533647Y0121151D01*
X0533897Y0120901D01*
X0532424Y0119650D02*
X0531423Y0119650D01*
X0530951Y0119650D02*
X0530450Y0120150D01*
X0530701Y0120150D02*
X0529950Y0120150D01*
X0529950Y0119650D02*
X0529950Y0121151D01*
X0530701Y0121151D01*
X0530951Y0120901D01*
X0530951Y0120401D01*
X0530701Y0120150D01*
X0531423Y0120651D02*
X0531924Y0121151D01*
X0531924Y0119650D01*
X0534003Y0021051D02*
X0534754Y0021051D01*
X0535004Y0020801D01*
X0535004Y0019800D01*
X0534754Y0019550D01*
X0534003Y0019550D01*
X0534003Y0021051D01*
X0535477Y0020801D02*
X0535477Y0020551D01*
X0535727Y0020301D01*
X0536227Y0020301D01*
X0536478Y0020050D01*
X0536478Y0019800D01*
X0536227Y0019550D01*
X0535727Y0019550D01*
X0535477Y0019800D01*
X0535477Y0020050D01*
X0535727Y0020301D01*
X0536227Y0020301D02*
X0536478Y0020551D01*
X0536478Y0020801D01*
X0536227Y0021051D01*
X0535727Y0021051D01*
X0535477Y0020801D01*
X0514612Y0010792D02*
X0514612Y0010541D01*
X0514362Y0010291D01*
X0514612Y0010041D01*
X0514612Y0009791D01*
X0514362Y0009541D01*
X0513861Y0009541D01*
X0513611Y0009791D01*
X0513139Y0009541D02*
X0512138Y0009541D01*
X0511665Y0009541D02*
X0511165Y0010041D01*
X0511415Y0010041D02*
X0510665Y0010041D01*
X0510665Y0009541D02*
X0510665Y0011042D01*
X0511415Y0011042D01*
X0511665Y0010792D01*
X0511665Y0010291D01*
X0511415Y0010041D01*
X0512138Y0010541D02*
X0512638Y0011042D01*
X0512638Y0009541D01*
X0513611Y0010792D02*
X0513861Y0011042D01*
X0514362Y0011042D01*
X0514612Y0010792D01*
X0514362Y0010291D02*
X0514112Y0010291D01*
X0534003Y0009801D02*
X0534003Y0008300D01*
X0534754Y0008300D01*
X0535004Y0008550D01*
X0535004Y0009551D01*
X0534754Y0009801D01*
X0534003Y0009801D01*
X0535477Y0009801D02*
X0536478Y0009801D01*
X0536478Y0009551D01*
X0535477Y0008550D01*
X0535477Y0008300D01*
D143*
X0349630Y0058034D03*
X0349630Y0062634D03*
X0349670Y0070566D03*
X0349670Y0075166D03*
X0344630Y0098034D03*
X0344630Y0102634D03*
X0309005Y0102009D03*
X0309005Y0097409D03*
X0248420Y0086416D03*
X0248420Y0081816D03*
X0088420Y0084316D03*
X0088420Y0088916D03*
X0240920Y0026416D03*
X0240920Y0021816D03*
D144*
X0233400Y0025537D02*
X0229463Y0021600D01*
X0228282Y0021600D02*
X0218518Y0021600D01*
X0217337Y0021600D02*
X0213400Y0025537D01*
X0213400Y0037663D01*
X0217337Y0041600D01*
X0218518Y0041600D02*
X0228400Y0041600D01*
X0229463Y0041600D02*
X0233400Y0037663D01*
X0233400Y0025537D01*
X0218400Y0031600D02*
X0218402Y0031741D01*
X0218408Y0031882D01*
X0218418Y0032022D01*
X0218432Y0032162D01*
X0218450Y0032302D01*
X0218471Y0032441D01*
X0218497Y0032580D01*
X0218526Y0032718D01*
X0218560Y0032854D01*
X0218597Y0032990D01*
X0218638Y0033125D01*
X0218683Y0033259D01*
X0218732Y0033391D01*
X0218784Y0033522D01*
X0218840Y0033651D01*
X0218900Y0033778D01*
X0218963Y0033904D01*
X0219029Y0034028D01*
X0219100Y0034151D01*
X0219173Y0034271D01*
X0219250Y0034389D01*
X0219330Y0034505D01*
X0219414Y0034618D01*
X0219500Y0034729D01*
X0219590Y0034838D01*
X0219683Y0034944D01*
X0219778Y0035047D01*
X0219877Y0035148D01*
X0219978Y0035246D01*
X0220082Y0035341D01*
X0220189Y0035433D01*
X0220298Y0035522D01*
X0220410Y0035607D01*
X0220524Y0035690D01*
X0220640Y0035770D01*
X0220759Y0035846D01*
X0220880Y0035918D01*
X0221002Y0035988D01*
X0221127Y0036053D01*
X0221253Y0036116D01*
X0221381Y0036174D01*
X0221511Y0036229D01*
X0221642Y0036281D01*
X0221775Y0036328D01*
X0221909Y0036372D01*
X0222044Y0036413D01*
X0222180Y0036449D01*
X0222317Y0036481D01*
X0222455Y0036510D01*
X0222593Y0036535D01*
X0222733Y0036555D01*
X0222873Y0036572D01*
X0223013Y0036585D01*
X0223154Y0036594D01*
X0223294Y0036599D01*
X0223435Y0036600D01*
X0223576Y0036597D01*
X0223717Y0036590D01*
X0223857Y0036579D01*
X0223997Y0036564D01*
X0224137Y0036545D01*
X0224276Y0036523D01*
X0224414Y0036496D01*
X0224552Y0036466D01*
X0224688Y0036431D01*
X0224824Y0036393D01*
X0224958Y0036351D01*
X0225092Y0036305D01*
X0225224Y0036256D01*
X0225354Y0036202D01*
X0225483Y0036145D01*
X0225610Y0036085D01*
X0225736Y0036021D01*
X0225859Y0035953D01*
X0225981Y0035882D01*
X0226101Y0035808D01*
X0226218Y0035730D01*
X0226333Y0035649D01*
X0226446Y0035565D01*
X0226557Y0035478D01*
X0226665Y0035387D01*
X0226770Y0035294D01*
X0226873Y0035197D01*
X0226973Y0035098D01*
X0227070Y0034996D01*
X0227164Y0034891D01*
X0227255Y0034784D01*
X0227343Y0034674D01*
X0227428Y0034562D01*
X0227510Y0034447D01*
X0227589Y0034330D01*
X0227664Y0034211D01*
X0227736Y0034090D01*
X0227804Y0033967D01*
X0227869Y0033842D01*
X0227931Y0033715D01*
X0227988Y0033586D01*
X0228043Y0033456D01*
X0228093Y0033325D01*
X0228140Y0033192D01*
X0228183Y0033058D01*
X0228222Y0032922D01*
X0228257Y0032786D01*
X0228289Y0032649D01*
X0228316Y0032511D01*
X0228340Y0032372D01*
X0228360Y0032232D01*
X0228376Y0032092D01*
X0228388Y0031952D01*
X0228396Y0031811D01*
X0228400Y0031670D01*
X0228400Y0031530D01*
X0228396Y0031389D01*
X0228388Y0031248D01*
X0228376Y0031108D01*
X0228360Y0030968D01*
X0228340Y0030828D01*
X0228316Y0030689D01*
X0228289Y0030551D01*
X0228257Y0030414D01*
X0228222Y0030278D01*
X0228183Y0030142D01*
X0228140Y0030008D01*
X0228093Y0029875D01*
X0228043Y0029744D01*
X0227988Y0029614D01*
X0227931Y0029485D01*
X0227869Y0029358D01*
X0227804Y0029233D01*
X0227736Y0029110D01*
X0227664Y0028989D01*
X0227589Y0028870D01*
X0227510Y0028753D01*
X0227428Y0028638D01*
X0227343Y0028526D01*
X0227255Y0028416D01*
X0227164Y0028309D01*
X0227070Y0028204D01*
X0226973Y0028102D01*
X0226873Y0028003D01*
X0226770Y0027906D01*
X0226665Y0027813D01*
X0226557Y0027722D01*
X0226446Y0027635D01*
X0226333Y0027551D01*
X0226218Y0027470D01*
X0226101Y0027392D01*
X0225981Y0027318D01*
X0225859Y0027247D01*
X0225736Y0027179D01*
X0225610Y0027115D01*
X0225483Y0027055D01*
X0225354Y0026998D01*
X0225224Y0026944D01*
X0225092Y0026895D01*
X0224958Y0026849D01*
X0224824Y0026807D01*
X0224688Y0026769D01*
X0224552Y0026734D01*
X0224414Y0026704D01*
X0224276Y0026677D01*
X0224137Y0026655D01*
X0223997Y0026636D01*
X0223857Y0026621D01*
X0223717Y0026610D01*
X0223576Y0026603D01*
X0223435Y0026600D01*
X0223294Y0026601D01*
X0223154Y0026606D01*
X0223013Y0026615D01*
X0222873Y0026628D01*
X0222733Y0026645D01*
X0222593Y0026665D01*
X0222455Y0026690D01*
X0222317Y0026719D01*
X0222180Y0026751D01*
X0222044Y0026787D01*
X0221909Y0026828D01*
X0221775Y0026872D01*
X0221642Y0026919D01*
X0221511Y0026971D01*
X0221381Y0027026D01*
X0221253Y0027084D01*
X0221127Y0027147D01*
X0221002Y0027212D01*
X0220880Y0027282D01*
X0220759Y0027354D01*
X0220640Y0027430D01*
X0220524Y0027510D01*
X0220410Y0027593D01*
X0220298Y0027678D01*
X0220189Y0027767D01*
X0220082Y0027859D01*
X0219978Y0027954D01*
X0219877Y0028052D01*
X0219778Y0028153D01*
X0219683Y0028256D01*
X0219590Y0028362D01*
X0219500Y0028471D01*
X0219414Y0028582D01*
X0219330Y0028695D01*
X0219250Y0028811D01*
X0219173Y0028929D01*
X0219100Y0029049D01*
X0219029Y0029172D01*
X0218963Y0029296D01*
X0218900Y0029422D01*
X0218840Y0029549D01*
X0218784Y0029678D01*
X0218732Y0029809D01*
X0218683Y0029941D01*
X0218638Y0030075D01*
X0218597Y0030210D01*
X0218560Y0030346D01*
X0218526Y0030482D01*
X0218497Y0030620D01*
X0218471Y0030759D01*
X0218450Y0030898D01*
X0218432Y0031038D01*
X0218418Y0031178D01*
X0218408Y0031318D01*
X0218402Y0031459D01*
X0218400Y0031600D01*
X0195861Y0032250D02*
X0195861Y0023982D01*
X0165939Y0023982D02*
X0165939Y0032250D01*
X0131943Y0039041D02*
X0126431Y0039041D01*
X0126431Y0044159D01*
X0131943Y0044159D01*
X0126431Y0044159D02*
X0124857Y0044159D01*
X0124857Y0039041D02*
X0126431Y0039041D01*
X0105400Y0039500D02*
X0105400Y0013700D01*
X0091400Y0013700D01*
X0091400Y0039500D01*
X0105400Y0039500D01*
X0063400Y0044100D02*
X0063400Y0045600D01*
X0063401Y0045715D01*
X0063398Y0045830D01*
X0063391Y0045945D01*
X0063380Y0046060D01*
X0063365Y0046174D01*
X0063347Y0046288D01*
X0063325Y0046401D01*
X0063299Y0046514D01*
X0063269Y0046625D01*
X0063235Y0046735D01*
X0063198Y0046845D01*
X0063157Y0046952D01*
X0063112Y0047059D01*
X0063064Y0047163D01*
X0063012Y0047267D01*
X0062957Y0047368D01*
X0062898Y0047467D01*
X0062837Y0047565D01*
X0062771Y0047660D01*
X0062703Y0047753D01*
X0062632Y0047843D01*
X0062557Y0047931D01*
X0062480Y0048017D01*
X0062400Y0048100D01*
X0062317Y0048180D01*
X0062231Y0048257D01*
X0062143Y0048332D01*
X0062053Y0048403D01*
X0061960Y0048471D01*
X0061865Y0048537D01*
X0061767Y0048598D01*
X0061668Y0048657D01*
X0061567Y0048712D01*
X0061463Y0048764D01*
X0061359Y0048812D01*
X0061252Y0048857D01*
X0061145Y0048898D01*
X0061035Y0048935D01*
X0060925Y0048969D01*
X0060814Y0048999D01*
X0060701Y0049025D01*
X0060588Y0049047D01*
X0060474Y0049065D01*
X0060360Y0049080D01*
X0060245Y0049091D01*
X0060130Y0049098D01*
X0060015Y0049101D01*
X0059900Y0049100D01*
X0050400Y0049100D01*
X0046400Y0049100D01*
X0046400Y0009100D01*
X0050400Y0009100D01*
X0050400Y0049100D01*
X0018085Y0040458D02*
X0014148Y0040458D01*
X0014148Y0038490D01*
X0012376Y0038490D02*
X0012376Y0010931D01*
X0009227Y0010931D01*
X0009227Y0038490D01*
X0012376Y0038490D01*
X0036786Y0038490D01*
X0036786Y0010931D01*
X0012376Y0010931D01*
X0031865Y0010931D02*
X0031865Y0008962D01*
X0035802Y0008962D01*
X0035802Y0010931D01*
X0050400Y0009100D02*
X0059900Y0009100D01*
X0060015Y0009099D01*
X0060130Y0009102D01*
X0060245Y0009109D01*
X0060360Y0009120D01*
X0060474Y0009135D01*
X0060588Y0009153D01*
X0060701Y0009175D01*
X0060814Y0009201D01*
X0060925Y0009231D01*
X0061035Y0009265D01*
X0061145Y0009302D01*
X0061252Y0009343D01*
X0061359Y0009388D01*
X0061463Y0009436D01*
X0061567Y0009488D01*
X0061668Y0009543D01*
X0061767Y0009602D01*
X0061865Y0009663D01*
X0061960Y0009729D01*
X0062053Y0009797D01*
X0062143Y0009868D01*
X0062231Y0009943D01*
X0062317Y0010020D01*
X0062400Y0010100D01*
X0062480Y0010183D01*
X0062557Y0010269D01*
X0062632Y0010357D01*
X0062703Y0010447D01*
X0062771Y0010540D01*
X0062837Y0010635D01*
X0062898Y0010733D01*
X0062957Y0010832D01*
X0063012Y0010933D01*
X0063064Y0011037D01*
X0063112Y0011141D01*
X0063157Y0011248D01*
X0063198Y0011355D01*
X0063235Y0011465D01*
X0063269Y0011575D01*
X0063299Y0011686D01*
X0063325Y0011799D01*
X0063347Y0011912D01*
X0063365Y0012026D01*
X0063380Y0012140D01*
X0063391Y0012255D01*
X0063398Y0012370D01*
X0063401Y0012485D01*
X0063400Y0012600D01*
X0063400Y0014100D01*
X0018085Y0038490D02*
X0018085Y0040458D01*
X0012900Y0059600D02*
X0001400Y0059600D01*
X0001400Y0113600D01*
X0012900Y0113600D01*
X0012900Y0059600D01*
X0074400Y0059600D01*
X0074400Y0113600D01*
X0012900Y0113600D01*
X0138951Y0113913D02*
X0138951Y0121787D01*
X0144463Y0121787D01*
X0147219Y0120606D02*
X0147219Y0117850D01*
X0149581Y0120212D01*
X0149581Y0115488D01*
X0147219Y0117850D01*
X0147219Y0115094D01*
X0144463Y0113913D02*
X0138951Y0113913D01*
X0138951Y0113037D02*
X0144463Y0113037D01*
X0147219Y0111856D02*
X0147219Y0109100D01*
X0149581Y0111462D01*
X0149581Y0106738D01*
X0147219Y0109100D01*
X0147219Y0106344D01*
X0144463Y0105163D02*
X0138951Y0105163D01*
X0138951Y0113037D01*
X0152337Y0113037D02*
X0157849Y0113037D01*
X0157849Y0105163D01*
X0152337Y0105163D01*
X0180644Y0109769D02*
X0183794Y0109769D01*
X0180644Y0109769D02*
X0180644Y0110950D01*
X0180644Y0117250D02*
X0180644Y0118431D01*
X0183794Y0118431D01*
X0157849Y0121787D02*
X0157849Y0113913D01*
X0152337Y0113913D01*
X0152337Y0121787D02*
X0157849Y0121787D01*
X0179069Y0086994D02*
X0179069Y0083844D01*
X0180250Y0083844D01*
X0186550Y0083844D02*
X0187731Y0083844D01*
X0187731Y0086994D01*
X0182150Y0069100D02*
X0182150Y0064100D01*
X0164355Y0061600D02*
X0164359Y0061914D01*
X0164370Y0062228D01*
X0164390Y0062541D01*
X0164417Y0062854D01*
X0164451Y0063166D01*
X0164493Y0063477D01*
X0164543Y0063787D01*
X0164601Y0064096D01*
X0164666Y0064403D01*
X0164738Y0064709D01*
X0164818Y0065013D01*
X0164906Y0065314D01*
X0165001Y0065614D01*
X0165103Y0065911D01*
X0165212Y0066205D01*
X0165329Y0066496D01*
X0165453Y0066785D01*
X0165583Y0067071D01*
X0165721Y0067353D01*
X0165866Y0067632D01*
X0166017Y0067907D01*
X0166175Y0068178D01*
X0166340Y0068445D01*
X0166511Y0068709D01*
X0166689Y0068967D01*
X0166873Y0069222D01*
X0167063Y0069472D01*
X0167259Y0069717D01*
X0167462Y0069957D01*
X0167670Y0070193D01*
X0167883Y0070423D01*
X0168103Y0070647D01*
X0168327Y0070867D01*
X0168557Y0071080D01*
X0168793Y0071288D01*
X0169033Y0071491D01*
X0169278Y0071687D01*
X0169528Y0071877D01*
X0169783Y0072061D01*
X0170041Y0072239D01*
X0170305Y0072410D01*
X0170572Y0072575D01*
X0170843Y0072733D01*
X0171118Y0072884D01*
X0171397Y0073029D01*
X0171679Y0073167D01*
X0171965Y0073297D01*
X0172254Y0073421D01*
X0172545Y0073538D01*
X0172839Y0073647D01*
X0173136Y0073749D01*
X0173436Y0073844D01*
X0173737Y0073932D01*
X0174041Y0074012D01*
X0174347Y0074084D01*
X0174654Y0074149D01*
X0174963Y0074207D01*
X0175273Y0074257D01*
X0175584Y0074299D01*
X0175896Y0074333D01*
X0176209Y0074360D01*
X0176522Y0074380D01*
X0176836Y0074391D01*
X0177150Y0074395D01*
X0177464Y0074391D01*
X0177778Y0074380D01*
X0178091Y0074360D01*
X0178404Y0074333D01*
X0178716Y0074299D01*
X0179027Y0074257D01*
X0179337Y0074207D01*
X0179646Y0074149D01*
X0179953Y0074084D01*
X0180259Y0074012D01*
X0180563Y0073932D01*
X0180864Y0073844D01*
X0181164Y0073749D01*
X0181461Y0073647D01*
X0181755Y0073538D01*
X0182046Y0073421D01*
X0182335Y0073297D01*
X0182621Y0073167D01*
X0182903Y0073029D01*
X0183182Y0072884D01*
X0183457Y0072733D01*
X0183728Y0072575D01*
X0183995Y0072410D01*
X0184259Y0072239D01*
X0184517Y0072061D01*
X0184772Y0071877D01*
X0185022Y0071687D01*
X0185267Y0071491D01*
X0185507Y0071288D01*
X0185743Y0071080D01*
X0185973Y0070867D01*
X0186197Y0070647D01*
X0186417Y0070423D01*
X0186630Y0070193D01*
X0186838Y0069957D01*
X0187041Y0069717D01*
X0187237Y0069472D01*
X0187427Y0069222D01*
X0187611Y0068967D01*
X0187789Y0068709D01*
X0187960Y0068445D01*
X0188125Y0068178D01*
X0188283Y0067907D01*
X0188434Y0067632D01*
X0188579Y0067353D01*
X0188717Y0067071D01*
X0188847Y0066785D01*
X0188971Y0066496D01*
X0189088Y0066205D01*
X0189197Y0065911D01*
X0189299Y0065614D01*
X0189394Y0065314D01*
X0189482Y0065013D01*
X0189562Y0064709D01*
X0189634Y0064403D01*
X0189699Y0064096D01*
X0189757Y0063787D01*
X0189807Y0063477D01*
X0189849Y0063166D01*
X0189883Y0062854D01*
X0189910Y0062541D01*
X0189930Y0062228D01*
X0189941Y0061914D01*
X0189945Y0061600D01*
X0189941Y0061286D01*
X0189930Y0060972D01*
X0189910Y0060659D01*
X0189883Y0060346D01*
X0189849Y0060034D01*
X0189807Y0059723D01*
X0189757Y0059413D01*
X0189699Y0059104D01*
X0189634Y0058797D01*
X0189562Y0058491D01*
X0189482Y0058187D01*
X0189394Y0057886D01*
X0189299Y0057586D01*
X0189197Y0057289D01*
X0189088Y0056995D01*
X0188971Y0056704D01*
X0188847Y0056415D01*
X0188717Y0056129D01*
X0188579Y0055847D01*
X0188434Y0055568D01*
X0188283Y0055293D01*
X0188125Y0055022D01*
X0187960Y0054755D01*
X0187789Y0054491D01*
X0187611Y0054233D01*
X0187427Y0053978D01*
X0187237Y0053728D01*
X0187041Y0053483D01*
X0186838Y0053243D01*
X0186630Y0053007D01*
X0186417Y0052777D01*
X0186197Y0052553D01*
X0185973Y0052333D01*
X0185743Y0052120D01*
X0185507Y0051912D01*
X0185267Y0051709D01*
X0185022Y0051513D01*
X0184772Y0051323D01*
X0184517Y0051139D01*
X0184259Y0050961D01*
X0183995Y0050790D01*
X0183728Y0050625D01*
X0183457Y0050467D01*
X0183182Y0050316D01*
X0182903Y0050171D01*
X0182621Y0050033D01*
X0182335Y0049903D01*
X0182046Y0049779D01*
X0181755Y0049662D01*
X0181461Y0049553D01*
X0181164Y0049451D01*
X0180864Y0049356D01*
X0180563Y0049268D01*
X0180259Y0049188D01*
X0179953Y0049116D01*
X0179646Y0049051D01*
X0179337Y0048993D01*
X0179027Y0048943D01*
X0178716Y0048901D01*
X0178404Y0048867D01*
X0178091Y0048840D01*
X0177778Y0048820D01*
X0177464Y0048809D01*
X0177150Y0048805D01*
X0176836Y0048809D01*
X0176522Y0048820D01*
X0176209Y0048840D01*
X0175896Y0048867D01*
X0175584Y0048901D01*
X0175273Y0048943D01*
X0174963Y0048993D01*
X0174654Y0049051D01*
X0174347Y0049116D01*
X0174041Y0049188D01*
X0173737Y0049268D01*
X0173436Y0049356D01*
X0173136Y0049451D01*
X0172839Y0049553D01*
X0172545Y0049662D01*
X0172254Y0049779D01*
X0171965Y0049903D01*
X0171679Y0050033D01*
X0171397Y0050171D01*
X0171118Y0050316D01*
X0170843Y0050467D01*
X0170572Y0050625D01*
X0170305Y0050790D01*
X0170041Y0050961D01*
X0169783Y0051139D01*
X0169528Y0051323D01*
X0169278Y0051513D01*
X0169033Y0051709D01*
X0168793Y0051912D01*
X0168557Y0052120D01*
X0168327Y0052333D01*
X0168103Y0052553D01*
X0167883Y0052777D01*
X0167670Y0053007D01*
X0167462Y0053243D01*
X0167259Y0053483D01*
X0167063Y0053728D01*
X0166873Y0053978D01*
X0166689Y0054233D01*
X0166511Y0054491D01*
X0166340Y0054755D01*
X0166175Y0055022D01*
X0166017Y0055293D01*
X0165866Y0055568D01*
X0165721Y0055847D01*
X0165583Y0056129D01*
X0165453Y0056415D01*
X0165329Y0056704D01*
X0165212Y0056995D01*
X0165103Y0057289D01*
X0165001Y0057586D01*
X0164906Y0057886D01*
X0164818Y0058187D01*
X0164738Y0058491D01*
X0164666Y0058797D01*
X0164601Y0059104D01*
X0164543Y0059413D01*
X0164493Y0059723D01*
X0164451Y0060034D01*
X0164417Y0060346D01*
X0164390Y0060659D01*
X0164370Y0060972D01*
X0164359Y0061286D01*
X0164355Y0061600D01*
X0168695Y0042092D02*
X0172239Y0042092D01*
X0189561Y0042092D02*
X0193105Y0042092D01*
X0195861Y0011383D02*
X0195861Y0005872D01*
X0165939Y0005872D01*
X0165939Y0011383D01*
X0303105Y0024100D02*
X0303109Y0024414D01*
X0303120Y0024728D01*
X0303140Y0025041D01*
X0303167Y0025354D01*
X0303201Y0025666D01*
X0303243Y0025977D01*
X0303293Y0026287D01*
X0303351Y0026596D01*
X0303416Y0026903D01*
X0303488Y0027209D01*
X0303568Y0027513D01*
X0303656Y0027814D01*
X0303751Y0028114D01*
X0303853Y0028411D01*
X0303962Y0028705D01*
X0304079Y0028996D01*
X0304203Y0029285D01*
X0304333Y0029571D01*
X0304471Y0029853D01*
X0304616Y0030132D01*
X0304767Y0030407D01*
X0304925Y0030678D01*
X0305090Y0030945D01*
X0305261Y0031209D01*
X0305439Y0031467D01*
X0305623Y0031722D01*
X0305813Y0031972D01*
X0306009Y0032217D01*
X0306212Y0032457D01*
X0306420Y0032693D01*
X0306633Y0032923D01*
X0306853Y0033147D01*
X0307077Y0033367D01*
X0307307Y0033580D01*
X0307543Y0033788D01*
X0307783Y0033991D01*
X0308028Y0034187D01*
X0308278Y0034377D01*
X0308533Y0034561D01*
X0308791Y0034739D01*
X0309055Y0034910D01*
X0309322Y0035075D01*
X0309593Y0035233D01*
X0309868Y0035384D01*
X0310147Y0035529D01*
X0310429Y0035667D01*
X0310715Y0035797D01*
X0311004Y0035921D01*
X0311295Y0036038D01*
X0311589Y0036147D01*
X0311886Y0036249D01*
X0312186Y0036344D01*
X0312487Y0036432D01*
X0312791Y0036512D01*
X0313097Y0036584D01*
X0313404Y0036649D01*
X0313713Y0036707D01*
X0314023Y0036757D01*
X0314334Y0036799D01*
X0314646Y0036833D01*
X0314959Y0036860D01*
X0315272Y0036880D01*
X0315586Y0036891D01*
X0315900Y0036895D01*
X0316214Y0036891D01*
X0316528Y0036880D01*
X0316841Y0036860D01*
X0317154Y0036833D01*
X0317466Y0036799D01*
X0317777Y0036757D01*
X0318087Y0036707D01*
X0318396Y0036649D01*
X0318703Y0036584D01*
X0319009Y0036512D01*
X0319313Y0036432D01*
X0319614Y0036344D01*
X0319914Y0036249D01*
X0320211Y0036147D01*
X0320505Y0036038D01*
X0320796Y0035921D01*
X0321085Y0035797D01*
X0321371Y0035667D01*
X0321653Y0035529D01*
X0321932Y0035384D01*
X0322207Y0035233D01*
X0322478Y0035075D01*
X0322745Y0034910D01*
X0323009Y0034739D01*
X0323267Y0034561D01*
X0323522Y0034377D01*
X0323772Y0034187D01*
X0324017Y0033991D01*
X0324257Y0033788D01*
X0324493Y0033580D01*
X0324723Y0033367D01*
X0324947Y0033147D01*
X0325167Y0032923D01*
X0325380Y0032693D01*
X0325588Y0032457D01*
X0325791Y0032217D01*
X0325987Y0031972D01*
X0326177Y0031722D01*
X0326361Y0031467D01*
X0326539Y0031209D01*
X0326710Y0030945D01*
X0326875Y0030678D01*
X0327033Y0030407D01*
X0327184Y0030132D01*
X0327329Y0029853D01*
X0327467Y0029571D01*
X0327597Y0029285D01*
X0327721Y0028996D01*
X0327838Y0028705D01*
X0327947Y0028411D01*
X0328049Y0028114D01*
X0328144Y0027814D01*
X0328232Y0027513D01*
X0328312Y0027209D01*
X0328384Y0026903D01*
X0328449Y0026596D01*
X0328507Y0026287D01*
X0328557Y0025977D01*
X0328599Y0025666D01*
X0328633Y0025354D01*
X0328660Y0025041D01*
X0328680Y0024728D01*
X0328691Y0024414D01*
X0328695Y0024100D01*
X0328691Y0023786D01*
X0328680Y0023472D01*
X0328660Y0023159D01*
X0328633Y0022846D01*
X0328599Y0022534D01*
X0328557Y0022223D01*
X0328507Y0021913D01*
X0328449Y0021604D01*
X0328384Y0021297D01*
X0328312Y0020991D01*
X0328232Y0020687D01*
X0328144Y0020386D01*
X0328049Y0020086D01*
X0327947Y0019789D01*
X0327838Y0019495D01*
X0327721Y0019204D01*
X0327597Y0018915D01*
X0327467Y0018629D01*
X0327329Y0018347D01*
X0327184Y0018068D01*
X0327033Y0017793D01*
X0326875Y0017522D01*
X0326710Y0017255D01*
X0326539Y0016991D01*
X0326361Y0016733D01*
X0326177Y0016478D01*
X0325987Y0016228D01*
X0325791Y0015983D01*
X0325588Y0015743D01*
X0325380Y0015507D01*
X0325167Y0015277D01*
X0324947Y0015053D01*
X0324723Y0014833D01*
X0324493Y0014620D01*
X0324257Y0014412D01*
X0324017Y0014209D01*
X0323772Y0014013D01*
X0323522Y0013823D01*
X0323267Y0013639D01*
X0323009Y0013461D01*
X0322745Y0013290D01*
X0322478Y0013125D01*
X0322207Y0012967D01*
X0321932Y0012816D01*
X0321653Y0012671D01*
X0321371Y0012533D01*
X0321085Y0012403D01*
X0320796Y0012279D01*
X0320505Y0012162D01*
X0320211Y0012053D01*
X0319914Y0011951D01*
X0319614Y0011856D01*
X0319313Y0011768D01*
X0319009Y0011688D01*
X0318703Y0011616D01*
X0318396Y0011551D01*
X0318087Y0011493D01*
X0317777Y0011443D01*
X0317466Y0011401D01*
X0317154Y0011367D01*
X0316841Y0011340D01*
X0316528Y0011320D01*
X0316214Y0011309D01*
X0315900Y0011305D01*
X0315586Y0011309D01*
X0315272Y0011320D01*
X0314959Y0011340D01*
X0314646Y0011367D01*
X0314334Y0011401D01*
X0314023Y0011443D01*
X0313713Y0011493D01*
X0313404Y0011551D01*
X0313097Y0011616D01*
X0312791Y0011688D01*
X0312487Y0011768D01*
X0312186Y0011856D01*
X0311886Y0011951D01*
X0311589Y0012053D01*
X0311295Y0012162D01*
X0311004Y0012279D01*
X0310715Y0012403D01*
X0310429Y0012533D01*
X0310147Y0012671D01*
X0309868Y0012816D01*
X0309593Y0012967D01*
X0309322Y0013125D01*
X0309055Y0013290D01*
X0308791Y0013461D01*
X0308533Y0013639D01*
X0308278Y0013823D01*
X0308028Y0014013D01*
X0307783Y0014209D01*
X0307543Y0014412D01*
X0307307Y0014620D01*
X0307077Y0014833D01*
X0306853Y0015053D01*
X0306633Y0015277D01*
X0306420Y0015507D01*
X0306212Y0015743D01*
X0306009Y0015983D01*
X0305813Y0016228D01*
X0305623Y0016478D01*
X0305439Y0016733D01*
X0305261Y0016991D01*
X0305090Y0017255D01*
X0304925Y0017522D01*
X0304767Y0017793D01*
X0304616Y0018068D01*
X0304471Y0018347D01*
X0304333Y0018629D01*
X0304203Y0018915D01*
X0304079Y0019204D01*
X0303962Y0019495D01*
X0303853Y0019789D01*
X0303751Y0020086D01*
X0303656Y0020386D01*
X0303568Y0020687D01*
X0303488Y0020991D01*
X0303416Y0021297D01*
X0303351Y0021604D01*
X0303293Y0021913D01*
X0303243Y0022223D01*
X0303201Y0022534D01*
X0303167Y0022846D01*
X0303140Y0023159D01*
X0303120Y0023472D01*
X0303109Y0023786D01*
X0303105Y0024100D01*
X0318400Y0019100D02*
X0323400Y0019100D01*
X0326900Y0053100D02*
X0326900Y0080100D01*
X0326903Y0080319D01*
X0326911Y0080538D01*
X0326924Y0080757D01*
X0326943Y0080975D01*
X0326967Y0081193D01*
X0326996Y0081410D01*
X0327030Y0081627D01*
X0327070Y0081842D01*
X0327115Y0082057D01*
X0327166Y0082270D01*
X0327221Y0082482D01*
X0327282Y0082693D01*
X0327347Y0082902D01*
X0327418Y0083109D01*
X0327494Y0083315D01*
X0327575Y0083519D01*
X0327660Y0083721D01*
X0327751Y0083920D01*
X0327846Y0084117D01*
X0327947Y0084312D01*
X0328052Y0084505D01*
X0328161Y0084695D01*
X0328275Y0084882D01*
X0328394Y0085066D01*
X0328517Y0085247D01*
X0328645Y0085425D01*
X0328777Y0085601D01*
X0328913Y0085772D01*
X0329053Y0085941D01*
X0329197Y0086106D01*
X0329345Y0086267D01*
X0329497Y0086425D01*
X0329653Y0086579D01*
X0329813Y0086729D01*
X0329976Y0086876D01*
X0330143Y0087018D01*
X0330313Y0087156D01*
X0330487Y0087290D01*
X0330663Y0087420D01*
X0330843Y0087545D01*
X0331026Y0087666D01*
X0331212Y0087782D01*
X0331400Y0087894D01*
X0331591Y0088001D01*
X0331785Y0088104D01*
X0331981Y0088202D01*
X0332179Y0088295D01*
X0332380Y0088383D01*
X0332583Y0088466D01*
X0332788Y0088545D01*
X0332994Y0088618D01*
X0333202Y0088686D01*
X0333412Y0088749D01*
X0333624Y0088807D01*
X0333836Y0088860D01*
X0334050Y0088908D01*
X0334265Y0088950D01*
X0334481Y0088987D01*
X0334698Y0089019D01*
X0334916Y0089046D01*
X0335134Y0089067D01*
X0335352Y0089083D01*
X0335571Y0089094D01*
X0335790Y0089099D01*
X0336010Y0089099D01*
X0336229Y0089094D01*
X0336448Y0089083D01*
X0336666Y0089067D01*
X0336884Y0089046D01*
X0337102Y0089019D01*
X0337319Y0088987D01*
X0337535Y0088950D01*
X0337750Y0088908D01*
X0337964Y0088860D01*
X0338176Y0088807D01*
X0338388Y0088749D01*
X0338598Y0088686D01*
X0338806Y0088618D01*
X0339012Y0088545D01*
X0339217Y0088466D01*
X0339420Y0088383D01*
X0339621Y0088295D01*
X0339819Y0088202D01*
X0340015Y0088104D01*
X0340209Y0088001D01*
X0340400Y0087894D01*
X0340588Y0087782D01*
X0340774Y0087666D01*
X0340957Y0087545D01*
X0341137Y0087420D01*
X0341313Y0087290D01*
X0341487Y0087156D01*
X0341657Y0087018D01*
X0341824Y0086876D01*
X0341987Y0086729D01*
X0342147Y0086579D01*
X0342303Y0086425D01*
X0342455Y0086267D01*
X0342603Y0086106D01*
X0342747Y0085941D01*
X0342887Y0085772D01*
X0343023Y0085601D01*
X0343155Y0085425D01*
X0343283Y0085247D01*
X0343406Y0085066D01*
X0343525Y0084882D01*
X0343639Y0084695D01*
X0343748Y0084505D01*
X0343853Y0084312D01*
X0343954Y0084117D01*
X0344049Y0083920D01*
X0344140Y0083721D01*
X0344225Y0083519D01*
X0344306Y0083315D01*
X0344382Y0083109D01*
X0344453Y0082902D01*
X0344518Y0082693D01*
X0344579Y0082482D01*
X0344634Y0082270D01*
X0344685Y0082057D01*
X0344730Y0081842D01*
X0344770Y0081627D01*
X0344804Y0081410D01*
X0344833Y0081193D01*
X0344857Y0080975D01*
X0344876Y0080757D01*
X0344889Y0080538D01*
X0344897Y0080319D01*
X0344900Y0080100D01*
X0344900Y0053100D01*
X0344897Y0052881D01*
X0344889Y0052662D01*
X0344876Y0052443D01*
X0344857Y0052225D01*
X0344833Y0052007D01*
X0344804Y0051790D01*
X0344770Y0051573D01*
X0344730Y0051358D01*
X0344685Y0051143D01*
X0344634Y0050930D01*
X0344579Y0050718D01*
X0344518Y0050507D01*
X0344453Y0050298D01*
X0344382Y0050091D01*
X0344306Y0049885D01*
X0344225Y0049681D01*
X0344140Y0049479D01*
X0344049Y0049280D01*
X0343954Y0049083D01*
X0343853Y0048888D01*
X0343748Y0048695D01*
X0343639Y0048505D01*
X0343525Y0048318D01*
X0343406Y0048134D01*
X0343283Y0047953D01*
X0343155Y0047775D01*
X0343023Y0047599D01*
X0342887Y0047428D01*
X0342747Y0047259D01*
X0342603Y0047094D01*
X0342455Y0046933D01*
X0342303Y0046775D01*
X0342147Y0046621D01*
X0341987Y0046471D01*
X0341824Y0046324D01*
X0341657Y0046182D01*
X0341487Y0046044D01*
X0341313Y0045910D01*
X0341137Y0045780D01*
X0340957Y0045655D01*
X0340774Y0045534D01*
X0340588Y0045418D01*
X0340400Y0045306D01*
X0340209Y0045199D01*
X0340015Y0045096D01*
X0339819Y0044998D01*
X0339621Y0044905D01*
X0339420Y0044817D01*
X0339217Y0044734D01*
X0339012Y0044655D01*
X0338806Y0044582D01*
X0338598Y0044514D01*
X0338388Y0044451D01*
X0338176Y0044393D01*
X0337964Y0044340D01*
X0337750Y0044292D01*
X0337535Y0044250D01*
X0337319Y0044213D01*
X0337102Y0044181D01*
X0336884Y0044154D01*
X0336666Y0044133D01*
X0336448Y0044117D01*
X0336229Y0044106D01*
X0336010Y0044101D01*
X0335790Y0044101D01*
X0335571Y0044106D01*
X0335352Y0044117D01*
X0335134Y0044133D01*
X0334916Y0044154D01*
X0334698Y0044181D01*
X0334481Y0044213D01*
X0334265Y0044250D01*
X0334050Y0044292D01*
X0333836Y0044340D01*
X0333624Y0044393D01*
X0333412Y0044451D01*
X0333202Y0044514D01*
X0332994Y0044582D01*
X0332788Y0044655D01*
X0332583Y0044734D01*
X0332380Y0044817D01*
X0332179Y0044905D01*
X0331981Y0044998D01*
X0331785Y0045096D01*
X0331591Y0045199D01*
X0331400Y0045306D01*
X0331212Y0045418D01*
X0331026Y0045534D01*
X0330843Y0045655D01*
X0330663Y0045780D01*
X0330487Y0045910D01*
X0330313Y0046044D01*
X0330143Y0046182D01*
X0329976Y0046324D01*
X0329813Y0046471D01*
X0329653Y0046621D01*
X0329497Y0046775D01*
X0329345Y0046933D01*
X0329197Y0047094D01*
X0329053Y0047259D01*
X0328913Y0047428D01*
X0328777Y0047599D01*
X0328645Y0047775D01*
X0328517Y0047953D01*
X0328394Y0048134D01*
X0328275Y0048318D01*
X0328161Y0048505D01*
X0328052Y0048695D01*
X0327947Y0048888D01*
X0327846Y0049083D01*
X0327751Y0049280D01*
X0327660Y0049479D01*
X0327575Y0049681D01*
X0327494Y0049885D01*
X0327418Y0050091D01*
X0327347Y0050298D01*
X0327282Y0050507D01*
X0327221Y0050718D01*
X0327166Y0050930D01*
X0327115Y0051143D01*
X0327070Y0051358D01*
X0327030Y0051573D01*
X0326996Y0051790D01*
X0326967Y0052007D01*
X0326943Y0052225D01*
X0326924Y0052443D01*
X0326911Y0052662D01*
X0326903Y0052881D01*
X0326900Y0053100D01*
X0476775Y0067434D02*
X0476777Y0067575D01*
X0476783Y0067716D01*
X0476793Y0067856D01*
X0476807Y0067996D01*
X0476825Y0068136D01*
X0476846Y0068275D01*
X0476872Y0068414D01*
X0476901Y0068552D01*
X0476935Y0068688D01*
X0476972Y0068824D01*
X0477013Y0068959D01*
X0477058Y0069093D01*
X0477107Y0069225D01*
X0477159Y0069356D01*
X0477215Y0069485D01*
X0477275Y0069612D01*
X0477338Y0069738D01*
X0477404Y0069862D01*
X0477475Y0069985D01*
X0477548Y0070105D01*
X0477625Y0070223D01*
X0477705Y0070339D01*
X0477789Y0070452D01*
X0477875Y0070563D01*
X0477965Y0070672D01*
X0478058Y0070778D01*
X0478153Y0070881D01*
X0478252Y0070982D01*
X0478353Y0071080D01*
X0478457Y0071175D01*
X0478564Y0071267D01*
X0478673Y0071356D01*
X0478785Y0071441D01*
X0478899Y0071524D01*
X0479015Y0071604D01*
X0479134Y0071680D01*
X0479255Y0071752D01*
X0479377Y0071822D01*
X0479502Y0071887D01*
X0479628Y0071950D01*
X0479756Y0072008D01*
X0479886Y0072063D01*
X0480017Y0072115D01*
X0480150Y0072162D01*
X0480284Y0072206D01*
X0480419Y0072247D01*
X0480555Y0072283D01*
X0480692Y0072315D01*
X0480830Y0072344D01*
X0480968Y0072369D01*
X0481108Y0072389D01*
X0481248Y0072406D01*
X0481388Y0072419D01*
X0481529Y0072428D01*
X0481669Y0072433D01*
X0481810Y0072434D01*
X0481951Y0072431D01*
X0482092Y0072424D01*
X0482232Y0072413D01*
X0482372Y0072398D01*
X0482512Y0072379D01*
X0482651Y0072357D01*
X0482789Y0072330D01*
X0482927Y0072300D01*
X0483063Y0072265D01*
X0483199Y0072227D01*
X0483333Y0072185D01*
X0483467Y0072139D01*
X0483599Y0072090D01*
X0483729Y0072036D01*
X0483858Y0071979D01*
X0483985Y0071919D01*
X0484111Y0071855D01*
X0484234Y0071787D01*
X0484356Y0071716D01*
X0484476Y0071642D01*
X0484593Y0071564D01*
X0484708Y0071483D01*
X0484821Y0071399D01*
X0484932Y0071312D01*
X0485040Y0071221D01*
X0485145Y0071128D01*
X0485248Y0071031D01*
X0485348Y0070932D01*
X0485445Y0070830D01*
X0485539Y0070725D01*
X0485630Y0070618D01*
X0485718Y0070508D01*
X0485803Y0070396D01*
X0485885Y0070281D01*
X0485964Y0070164D01*
X0486039Y0070045D01*
X0486111Y0069924D01*
X0486179Y0069801D01*
X0486244Y0069676D01*
X0486306Y0069549D01*
X0486363Y0069420D01*
X0486418Y0069290D01*
X0486468Y0069159D01*
X0486515Y0069026D01*
X0486558Y0068892D01*
X0486597Y0068756D01*
X0486632Y0068620D01*
X0486664Y0068483D01*
X0486691Y0068345D01*
X0486715Y0068206D01*
X0486735Y0068066D01*
X0486751Y0067926D01*
X0486763Y0067786D01*
X0486771Y0067645D01*
X0486775Y0067504D01*
X0486775Y0067364D01*
X0486771Y0067223D01*
X0486763Y0067082D01*
X0486751Y0066942D01*
X0486735Y0066802D01*
X0486715Y0066662D01*
X0486691Y0066523D01*
X0486664Y0066385D01*
X0486632Y0066248D01*
X0486597Y0066112D01*
X0486558Y0065976D01*
X0486515Y0065842D01*
X0486468Y0065709D01*
X0486418Y0065578D01*
X0486363Y0065448D01*
X0486306Y0065319D01*
X0486244Y0065192D01*
X0486179Y0065067D01*
X0486111Y0064944D01*
X0486039Y0064823D01*
X0485964Y0064704D01*
X0485885Y0064587D01*
X0485803Y0064472D01*
X0485718Y0064360D01*
X0485630Y0064250D01*
X0485539Y0064143D01*
X0485445Y0064038D01*
X0485348Y0063936D01*
X0485248Y0063837D01*
X0485145Y0063740D01*
X0485040Y0063647D01*
X0484932Y0063556D01*
X0484821Y0063469D01*
X0484708Y0063385D01*
X0484593Y0063304D01*
X0484476Y0063226D01*
X0484356Y0063152D01*
X0484234Y0063081D01*
X0484111Y0063013D01*
X0483985Y0062949D01*
X0483858Y0062889D01*
X0483729Y0062832D01*
X0483599Y0062778D01*
X0483467Y0062729D01*
X0483333Y0062683D01*
X0483199Y0062641D01*
X0483063Y0062603D01*
X0482927Y0062568D01*
X0482789Y0062538D01*
X0482651Y0062511D01*
X0482512Y0062489D01*
X0482372Y0062470D01*
X0482232Y0062455D01*
X0482092Y0062444D01*
X0481951Y0062437D01*
X0481810Y0062434D01*
X0481669Y0062435D01*
X0481529Y0062440D01*
X0481388Y0062449D01*
X0481248Y0062462D01*
X0481108Y0062479D01*
X0480968Y0062499D01*
X0480830Y0062524D01*
X0480692Y0062553D01*
X0480555Y0062585D01*
X0480419Y0062621D01*
X0480284Y0062662D01*
X0480150Y0062706D01*
X0480017Y0062753D01*
X0479886Y0062805D01*
X0479756Y0062860D01*
X0479628Y0062918D01*
X0479502Y0062981D01*
X0479377Y0063046D01*
X0479255Y0063116D01*
X0479134Y0063188D01*
X0479015Y0063264D01*
X0478899Y0063344D01*
X0478785Y0063427D01*
X0478673Y0063512D01*
X0478564Y0063601D01*
X0478457Y0063693D01*
X0478353Y0063788D01*
X0478252Y0063886D01*
X0478153Y0063987D01*
X0478058Y0064090D01*
X0477965Y0064196D01*
X0477875Y0064305D01*
X0477789Y0064416D01*
X0477705Y0064529D01*
X0477625Y0064645D01*
X0477548Y0064763D01*
X0477475Y0064883D01*
X0477404Y0065006D01*
X0477338Y0065130D01*
X0477275Y0065256D01*
X0477215Y0065383D01*
X0477159Y0065512D01*
X0477107Y0065643D01*
X0477058Y0065775D01*
X0477013Y0065909D01*
X0476972Y0066044D01*
X0476935Y0066180D01*
X0476901Y0066316D01*
X0476872Y0066454D01*
X0476846Y0066593D01*
X0476825Y0066732D01*
X0476807Y0066872D01*
X0476793Y0067012D01*
X0476783Y0067152D01*
X0476777Y0067293D01*
X0476775Y0067434D01*
X0458547Y0067434D02*
X0458554Y0068004D01*
X0458575Y0068574D01*
X0458610Y0069143D01*
X0458659Y0069711D01*
X0458722Y0070277D01*
X0458798Y0070842D01*
X0458889Y0071405D01*
X0458993Y0071966D01*
X0459111Y0072523D01*
X0459243Y0073078D01*
X0459388Y0073629D01*
X0459547Y0074177D01*
X0459719Y0074720D01*
X0459905Y0075259D01*
X0460103Y0075794D01*
X0460315Y0076323D01*
X0460540Y0076847D01*
X0460777Y0077365D01*
X0461027Y0077878D01*
X0461290Y0078384D01*
X0461565Y0078883D01*
X0461852Y0079376D01*
X0462151Y0079861D01*
X0462462Y0080339D01*
X0462784Y0080809D01*
X0463118Y0081271D01*
X0463463Y0081725D01*
X0463820Y0082170D01*
X0464187Y0082606D01*
X0464564Y0083033D01*
X0464952Y0083451D01*
X0465350Y0083859D01*
X0465758Y0084257D01*
X0466176Y0084645D01*
X0466603Y0085022D01*
X0467039Y0085389D01*
X0467484Y0085746D01*
X0467938Y0086091D01*
X0468400Y0086425D01*
X0468870Y0086747D01*
X0469348Y0087058D01*
X0469833Y0087357D01*
X0470326Y0087644D01*
X0470825Y0087919D01*
X0471331Y0088182D01*
X0471844Y0088432D01*
X0472362Y0088669D01*
X0472886Y0088894D01*
X0473415Y0089106D01*
X0473950Y0089304D01*
X0474489Y0089490D01*
X0475032Y0089662D01*
X0475580Y0089821D01*
X0476131Y0089966D01*
X0476686Y0090098D01*
X0477243Y0090216D01*
X0477804Y0090320D01*
X0478367Y0090411D01*
X0478932Y0090487D01*
X0479498Y0090550D01*
X0480066Y0090599D01*
X0480635Y0090634D01*
X0481205Y0090655D01*
X0481775Y0090662D01*
X0482345Y0090655D01*
X0482915Y0090634D01*
X0483484Y0090599D01*
X0484052Y0090550D01*
X0484618Y0090487D01*
X0485183Y0090411D01*
X0485746Y0090320D01*
X0486307Y0090216D01*
X0486864Y0090098D01*
X0487419Y0089966D01*
X0487970Y0089821D01*
X0488518Y0089662D01*
X0489061Y0089490D01*
X0489600Y0089304D01*
X0490135Y0089106D01*
X0490664Y0088894D01*
X0491188Y0088669D01*
X0491706Y0088432D01*
X0492219Y0088182D01*
X0492725Y0087919D01*
X0493224Y0087644D01*
X0493717Y0087357D01*
X0494202Y0087058D01*
X0494680Y0086747D01*
X0495150Y0086425D01*
X0495612Y0086091D01*
X0496066Y0085746D01*
X0496511Y0085389D01*
X0496947Y0085022D01*
X0497374Y0084645D01*
X0497792Y0084257D01*
X0498200Y0083859D01*
X0498598Y0083451D01*
X0498986Y0083033D01*
X0499363Y0082606D01*
X0499730Y0082170D01*
X0500087Y0081725D01*
X0500432Y0081271D01*
X0500766Y0080809D01*
X0501088Y0080339D01*
X0501399Y0079861D01*
X0501698Y0079376D01*
X0501985Y0078883D01*
X0502260Y0078384D01*
X0502523Y0077878D01*
X0502773Y0077365D01*
X0503010Y0076847D01*
X0503235Y0076323D01*
X0503447Y0075794D01*
X0503645Y0075259D01*
X0503831Y0074720D01*
X0504003Y0074177D01*
X0504162Y0073629D01*
X0504307Y0073078D01*
X0504439Y0072523D01*
X0504557Y0071966D01*
X0504661Y0071405D01*
X0504752Y0070842D01*
X0504828Y0070277D01*
X0504891Y0069711D01*
X0504940Y0069143D01*
X0504975Y0068574D01*
X0504996Y0068004D01*
X0505003Y0067434D01*
X0504996Y0066864D01*
X0504975Y0066294D01*
X0504940Y0065725D01*
X0504891Y0065157D01*
X0504828Y0064591D01*
X0504752Y0064026D01*
X0504661Y0063463D01*
X0504557Y0062902D01*
X0504439Y0062345D01*
X0504307Y0061790D01*
X0504162Y0061239D01*
X0504003Y0060691D01*
X0503831Y0060148D01*
X0503645Y0059609D01*
X0503447Y0059074D01*
X0503235Y0058545D01*
X0503010Y0058021D01*
X0502773Y0057503D01*
X0502523Y0056990D01*
X0502260Y0056484D01*
X0501985Y0055985D01*
X0501698Y0055492D01*
X0501399Y0055007D01*
X0501088Y0054529D01*
X0500766Y0054059D01*
X0500432Y0053597D01*
X0500087Y0053143D01*
X0499730Y0052698D01*
X0499363Y0052262D01*
X0498986Y0051835D01*
X0498598Y0051417D01*
X0498200Y0051009D01*
X0497792Y0050611D01*
X0497374Y0050223D01*
X0496947Y0049846D01*
X0496511Y0049479D01*
X0496066Y0049122D01*
X0495612Y0048777D01*
X0495150Y0048443D01*
X0494680Y0048121D01*
X0494202Y0047810D01*
X0493717Y0047511D01*
X0493224Y0047224D01*
X0492725Y0046949D01*
X0492219Y0046686D01*
X0491706Y0046436D01*
X0491188Y0046199D01*
X0490664Y0045974D01*
X0490135Y0045762D01*
X0489600Y0045564D01*
X0489061Y0045378D01*
X0488518Y0045206D01*
X0487970Y0045047D01*
X0487419Y0044902D01*
X0486864Y0044770D01*
X0486307Y0044652D01*
X0485746Y0044548D01*
X0485183Y0044457D01*
X0484618Y0044381D01*
X0484052Y0044318D01*
X0483484Y0044269D01*
X0482915Y0044234D01*
X0482345Y0044213D01*
X0481775Y0044206D01*
X0481205Y0044213D01*
X0480635Y0044234D01*
X0480066Y0044269D01*
X0479498Y0044318D01*
X0478932Y0044381D01*
X0478367Y0044457D01*
X0477804Y0044548D01*
X0477243Y0044652D01*
X0476686Y0044770D01*
X0476131Y0044902D01*
X0475580Y0045047D01*
X0475032Y0045206D01*
X0474489Y0045378D01*
X0473950Y0045564D01*
X0473415Y0045762D01*
X0472886Y0045974D01*
X0472362Y0046199D01*
X0471844Y0046436D01*
X0471331Y0046686D01*
X0470825Y0046949D01*
X0470326Y0047224D01*
X0469833Y0047511D01*
X0469348Y0047810D01*
X0468870Y0048121D01*
X0468400Y0048443D01*
X0467938Y0048777D01*
X0467484Y0049122D01*
X0467039Y0049479D01*
X0466603Y0049846D01*
X0466176Y0050223D01*
X0465758Y0050611D01*
X0465350Y0051009D01*
X0464952Y0051417D01*
X0464564Y0051835D01*
X0464187Y0052262D01*
X0463820Y0052698D01*
X0463463Y0053143D01*
X0463118Y0053597D01*
X0462784Y0054059D01*
X0462462Y0054529D01*
X0462151Y0055007D01*
X0461852Y0055492D01*
X0461565Y0055985D01*
X0461290Y0056484D01*
X0461027Y0056990D01*
X0460777Y0057503D01*
X0460540Y0058021D01*
X0460315Y0058545D01*
X0460103Y0059074D01*
X0459905Y0059609D01*
X0459719Y0060148D01*
X0459547Y0060691D01*
X0459388Y0061239D01*
X0459243Y0061790D01*
X0459111Y0062345D01*
X0458993Y0062902D01*
X0458889Y0063463D01*
X0458798Y0064026D01*
X0458722Y0064591D01*
X0458659Y0065157D01*
X0458610Y0065725D01*
X0458575Y0066294D01*
X0458554Y0066864D01*
X0458547Y0067434D01*
X0523951Y0072663D02*
X0529463Y0072663D01*
X0532219Y0074238D02*
X0534581Y0076600D01*
X0532219Y0078962D01*
X0532219Y0074238D01*
X0534581Y0073844D02*
X0534581Y0076600D01*
X0534581Y0079356D01*
X0537337Y0080537D02*
X0542849Y0080537D01*
X0542849Y0072663D01*
X0537337Y0072663D01*
X0523951Y0072663D02*
X0523951Y0080537D01*
X0529463Y0080537D01*
X0529463Y0092663D02*
X0523951Y0092663D01*
X0523951Y0100537D01*
X0529463Y0100537D01*
X0529463Y0102663D02*
X0523951Y0102663D01*
X0523951Y0110537D01*
X0529463Y0110537D01*
X0532219Y0108962D02*
X0532219Y0104238D01*
X0534581Y0106600D01*
X0532219Y0108962D01*
X0534581Y0109356D02*
X0534581Y0106600D01*
X0534581Y0103844D01*
X0537337Y0102663D02*
X0542849Y0102663D01*
X0542849Y0110537D01*
X0537337Y0110537D01*
X0503380Y0116049D02*
X0503380Y0097151D01*
X0501412Y0097151D01*
X0501412Y0116049D01*
X0503380Y0116049D01*
X0501412Y0116049D02*
X0488420Y0116049D01*
X0488420Y0097151D01*
X0501412Y0097151D01*
X0532219Y0098962D02*
X0532219Y0094238D01*
X0534581Y0096600D01*
X0532219Y0098962D01*
X0534581Y0099356D02*
X0534581Y0096600D01*
X0534581Y0093844D01*
X0537337Y0092663D02*
X0542849Y0092663D01*
X0542849Y0100537D01*
X0537337Y0100537D01*
X0375339Y0118544D02*
X0375339Y0120906D01*
X0372780Y0124843D02*
X0351520Y0124843D01*
X0348961Y0120906D02*
X0348961Y0118544D01*
X0362150Y0114607D02*
X0368056Y0114607D01*
X0334089Y0118544D02*
X0334089Y0120906D01*
X0331530Y0124843D02*
X0310270Y0124843D01*
X0307711Y0120906D02*
X0307711Y0118544D01*
X0320900Y0114607D02*
X0326806Y0114607D01*
X0523951Y0053037D02*
X0529463Y0053037D01*
X0532219Y0051856D02*
X0532219Y0049100D01*
X0534581Y0051462D01*
X0534581Y0046738D01*
X0532219Y0049100D01*
X0532219Y0046344D01*
X0529463Y0045163D02*
X0523951Y0045163D01*
X0523951Y0053037D01*
X0537337Y0053037D02*
X0542849Y0053037D01*
X0542849Y0045163D01*
X0537337Y0045163D01*
X0537337Y0041787D02*
X0542849Y0041787D01*
X0542849Y0033913D01*
X0537337Y0033913D01*
X0534581Y0035488D02*
X0534581Y0040212D01*
X0532219Y0037850D01*
X0534581Y0035488D01*
X0532219Y0035094D02*
X0532219Y0037850D01*
X0532219Y0040606D01*
X0529463Y0041787D02*
X0523951Y0041787D01*
X0523951Y0033913D01*
X0529463Y0033913D01*
X0529463Y0030537D02*
X0523951Y0030537D01*
X0523951Y0022663D01*
X0529463Y0022663D01*
X0532219Y0023844D02*
X0532219Y0026600D01*
X0534581Y0028962D01*
X0534581Y0024238D01*
X0532219Y0026600D01*
X0532219Y0029356D01*
X0537337Y0030537D02*
X0542849Y0030537D01*
X0542849Y0022663D01*
X0537337Y0022663D01*
X0537337Y0019287D02*
X0542849Y0019287D01*
X0542849Y0011413D01*
X0537337Y0011413D01*
X0534581Y0012988D02*
X0534581Y0017712D01*
X0532219Y0015350D01*
X0534581Y0012988D01*
X0532219Y0012594D02*
X0532219Y0015350D01*
X0532219Y0018106D01*
X0529463Y0019287D02*
X0523951Y0019287D01*
X0523951Y0011413D01*
X0529463Y0011413D01*
D145*
X0087650Y0026600D03*
X0087650Y0026600D03*
D146*
X0109150Y0026600D03*
X0109150Y0026600D03*
X0109150Y0017500D03*
X0109150Y0017500D03*
X0109150Y0035700D03*
X0109150Y0035700D03*
D147*
X0485861Y0099100D03*
X0485861Y0104100D03*
X0505939Y0104100D03*
X0505939Y0099100D03*
X0505939Y0109100D03*
X0505939Y0114100D03*
X0485861Y0114100D03*
X0485861Y0109100D03*
D148*
X0270900Y0106600D03*
X0260900Y0106600D03*
X0250900Y0106600D03*
X0220900Y0106600D03*
X0210900Y0106600D03*
X0210900Y0096600D03*
X0220900Y0096600D03*
X0220900Y0086600D03*
X0210900Y0086600D03*
X0210900Y0116600D03*
X0220900Y0116600D03*
X0250900Y0116600D03*
X0260900Y0116600D03*
X0270900Y0116600D03*
X0270900Y0011600D03*
X0280900Y0011600D03*
X0290900Y0011600D03*
D149*
X0353400Y0021600D02*
X0353400Y0101600D01*
X0453400Y0101600D01*
X0453400Y0021600D01*
X0353400Y0021600D01*
X0228400Y0024100D02*
X0225152Y0024100D01*
X0223361Y0023096D01*
X0222494Y0024100D02*
X0219010Y0024100D01*
X0083650Y0058601D02*
X0082899Y0057850D01*
X0083650Y0058601D02*
X0083650Y0060102D01*
X0082899Y0060853D01*
X0082149Y0060853D01*
X0081398Y0060102D01*
X0081398Y0058601D01*
X0080647Y0057850D01*
X0079897Y0057850D01*
X0079146Y0058601D01*
X0079146Y0060102D01*
X0079897Y0060853D01*
X0082899Y0062454D02*
X0083650Y0063205D01*
X0083650Y0063955D01*
X0082899Y0064706D01*
X0079146Y0064706D01*
X0079146Y0065456D02*
X0079146Y0063955D01*
X0085662Y0062851D02*
X0088400Y0063099D01*
X0088400Y0063099D01*
X0091138Y0062851D01*
X0091139Y0062850D01*
X0091127Y0062747D01*
X0091112Y0062643D01*
X0091093Y0062541D01*
X0091069Y0062439D01*
X0091042Y0062338D01*
X0091012Y0062239D01*
X0090977Y0062140D01*
X0090939Y0062043D01*
X0090897Y0061948D01*
X0090851Y0061854D01*
X0090802Y0061762D01*
X0090750Y0061671D01*
X0090694Y0061583D01*
X0090635Y0061497D01*
X0090572Y0061414D01*
X0090507Y0061333D01*
X0090438Y0061254D01*
X0090367Y0061178D01*
X0090292Y0061105D01*
X0090215Y0061034D01*
X0090136Y0060967D01*
X0090053Y0060903D01*
X0089969Y0060841D01*
X0089882Y0060784D01*
X0089793Y0060729D01*
X0089702Y0060678D01*
X0089609Y0060630D01*
X0089515Y0060586D01*
X0089419Y0060546D01*
X0089321Y0060509D01*
X0089222Y0060476D01*
X0089122Y0060446D01*
X0089021Y0060421D01*
X0088919Y0060399D01*
X0088816Y0060382D01*
X0088712Y0060368D01*
X0088609Y0060358D01*
X0088504Y0060352D01*
X0088400Y0060350D01*
X0088296Y0060352D01*
X0088191Y0060358D01*
X0088088Y0060368D01*
X0087984Y0060382D01*
X0087881Y0060399D01*
X0087779Y0060421D01*
X0087678Y0060446D01*
X0087578Y0060476D01*
X0087479Y0060509D01*
X0087381Y0060546D01*
X0087285Y0060586D01*
X0087191Y0060630D01*
X0087098Y0060678D01*
X0087007Y0060729D01*
X0086918Y0060784D01*
X0086831Y0060841D01*
X0086747Y0060903D01*
X0086664Y0060967D01*
X0086585Y0061034D01*
X0086508Y0061105D01*
X0086433Y0061178D01*
X0086362Y0061254D01*
X0086293Y0061333D01*
X0086228Y0061414D01*
X0086165Y0061497D01*
X0086106Y0061583D01*
X0086050Y0061671D01*
X0085998Y0061762D01*
X0085949Y0061854D01*
X0085903Y0061948D01*
X0085861Y0062043D01*
X0085823Y0062140D01*
X0085788Y0062239D01*
X0085758Y0062338D01*
X0085731Y0062439D01*
X0085707Y0062541D01*
X0085688Y0062643D01*
X0085673Y0062747D01*
X0085661Y0062850D01*
X0086138Y0062851D01*
X0086150Y0062756D01*
X0086166Y0062663D01*
X0086187Y0062570D01*
X0086211Y0062478D01*
X0086239Y0062387D01*
X0086270Y0062298D01*
X0086305Y0062209D01*
X0086344Y0062123D01*
X0086387Y0062038D01*
X0086433Y0061955D01*
X0086483Y0061874D01*
X0086535Y0061795D01*
X0086592Y0061718D01*
X0086651Y0061644D01*
X0086713Y0061572D01*
X0086778Y0061503D01*
X0086846Y0061437D01*
X0086917Y0061373D01*
X0086990Y0061313D01*
X0087066Y0061256D01*
X0087144Y0061202D01*
X0087225Y0061151D01*
X0087307Y0061104D01*
X0087391Y0061060D01*
X0087477Y0061019D01*
X0087565Y0060983D01*
X0087654Y0060950D01*
X0087744Y0060920D01*
X0087836Y0060895D01*
X0087928Y0060873D01*
X0088022Y0060856D01*
X0088116Y0060842D01*
X0088210Y0060832D01*
X0088305Y0060826D01*
X0088400Y0060824D01*
X0088495Y0060826D01*
X0088590Y0060832D01*
X0088684Y0060842D01*
X0088778Y0060856D01*
X0088872Y0060873D01*
X0088964Y0060895D01*
X0089056Y0060920D01*
X0089146Y0060950D01*
X0089235Y0060983D01*
X0089323Y0061019D01*
X0089409Y0061060D01*
X0089493Y0061104D01*
X0089575Y0061151D01*
X0089656Y0061202D01*
X0089734Y0061256D01*
X0089810Y0061313D01*
X0089883Y0061373D01*
X0089954Y0061437D01*
X0090022Y0061503D01*
X0090087Y0061572D01*
X0090149Y0061644D01*
X0090208Y0061718D01*
X0090265Y0061795D01*
X0090317Y0061874D01*
X0090367Y0061955D01*
X0090413Y0062038D01*
X0090456Y0062123D01*
X0090495Y0062209D01*
X0090530Y0062298D01*
X0090561Y0062387D01*
X0090589Y0062478D01*
X0090613Y0062570D01*
X0090634Y0062663D01*
X0090650Y0062756D01*
X0090662Y0062851D01*
X0090185Y0062851D01*
X0090171Y0062769D01*
X0090154Y0062687D01*
X0090133Y0062607D01*
X0090109Y0062527D01*
X0090080Y0062449D01*
X0090048Y0062372D01*
X0090013Y0062297D01*
X0089974Y0062223D01*
X0089932Y0062151D01*
X0089887Y0062081D01*
X0089838Y0062014D01*
X0089786Y0061949D01*
X0089732Y0061886D01*
X0089674Y0061826D01*
X0089614Y0061768D01*
X0089551Y0061714D01*
X0089486Y0061662D01*
X0089418Y0061613D01*
X0089349Y0061568D01*
X0089277Y0061526D01*
X0089203Y0061487D01*
X0089128Y0061452D01*
X0089051Y0061420D01*
X0088973Y0061391D01*
X0088893Y0061367D01*
X0088813Y0061346D01*
X0088731Y0061329D01*
X0088649Y0061315D01*
X0088566Y0061306D01*
X0088483Y0061300D01*
X0088400Y0061298D01*
X0088317Y0061300D01*
X0088234Y0061306D01*
X0088151Y0061315D01*
X0088069Y0061329D01*
X0087987Y0061346D01*
X0087907Y0061367D01*
X0087827Y0061391D01*
X0087749Y0061420D01*
X0087672Y0061452D01*
X0087597Y0061487D01*
X0087523Y0061526D01*
X0087451Y0061568D01*
X0087382Y0061613D01*
X0087314Y0061662D01*
X0087249Y0061714D01*
X0087186Y0061768D01*
X0087126Y0061826D01*
X0087068Y0061886D01*
X0087014Y0061949D01*
X0086962Y0062014D01*
X0086913Y0062081D01*
X0086868Y0062151D01*
X0086826Y0062223D01*
X0086787Y0062297D01*
X0086752Y0062372D01*
X0086720Y0062449D01*
X0086691Y0062527D01*
X0086667Y0062607D01*
X0086646Y0062687D01*
X0086629Y0062769D01*
X0086615Y0062851D01*
X0087095Y0062851D01*
X0087111Y0062781D01*
X0087130Y0062712D01*
X0087153Y0062644D01*
X0087179Y0062577D01*
X0087210Y0062511D01*
X0087243Y0062448D01*
X0087280Y0062386D01*
X0087321Y0062326D01*
X0087364Y0062269D01*
X0087411Y0062214D01*
X0087460Y0062162D01*
X0087512Y0062112D01*
X0087567Y0062065D01*
X0087625Y0062022D01*
X0087684Y0061981D01*
X0087746Y0061944D01*
X0087809Y0061911D01*
X0087875Y0061880D01*
X0087942Y0061854D01*
X0088010Y0061831D01*
X0088079Y0061811D01*
X0088150Y0061796D01*
X0088221Y0061784D01*
X0088292Y0061776D01*
X0088364Y0061772D01*
X0088436Y0061772D01*
X0088508Y0061776D01*
X0088579Y0061784D01*
X0088650Y0061796D01*
X0088721Y0061811D01*
X0088790Y0061831D01*
X0088858Y0061854D01*
X0088925Y0061880D01*
X0088991Y0061911D01*
X0089054Y0061944D01*
X0089116Y0061981D01*
X0089175Y0062022D01*
X0089233Y0062065D01*
X0089288Y0062112D01*
X0089340Y0062162D01*
X0089389Y0062214D01*
X0089436Y0062269D01*
X0089479Y0062326D01*
X0089520Y0062386D01*
X0089557Y0062448D01*
X0089590Y0062511D01*
X0089621Y0062577D01*
X0089647Y0062644D01*
X0089670Y0062712D01*
X0089689Y0062781D01*
X0089705Y0062851D01*
X0089218Y0062854D01*
X0089199Y0062799D01*
X0089177Y0062746D01*
X0089152Y0062695D01*
X0089123Y0062645D01*
X0089091Y0062598D01*
X0089055Y0062552D01*
X0089017Y0062509D01*
X0088976Y0062469D01*
X0088932Y0062432D01*
X0088886Y0062398D01*
X0088838Y0062367D01*
X0088787Y0062339D01*
X0088735Y0062315D01*
X0088682Y0062294D01*
X0088627Y0062277D01*
X0088571Y0062263D01*
X0088515Y0062254D01*
X0088457Y0062248D01*
X0088400Y0062246D01*
X0088343Y0062248D01*
X0088285Y0062254D01*
X0088229Y0062263D01*
X0088173Y0062277D01*
X0088118Y0062294D01*
X0088065Y0062315D01*
X0088013Y0062339D01*
X0087962Y0062367D01*
X0087914Y0062398D01*
X0087868Y0062432D01*
X0087824Y0062469D01*
X0087783Y0062509D01*
X0087745Y0062552D01*
X0087709Y0062598D01*
X0087677Y0062645D01*
X0087648Y0062695D01*
X0087623Y0062746D01*
X0087601Y0062799D01*
X0087582Y0062854D01*
X0088099Y0062868D01*
X0088123Y0062840D01*
X0088149Y0062814D01*
X0088178Y0062792D01*
X0088208Y0062772D01*
X0088241Y0062755D01*
X0088275Y0062741D01*
X0088310Y0062731D01*
X0088345Y0062724D01*
X0088382Y0062720D01*
X0088418Y0062720D01*
X0088455Y0062724D01*
X0088490Y0062731D01*
X0088525Y0062741D01*
X0088559Y0062755D01*
X0088592Y0062772D01*
X0088622Y0062792D01*
X0088651Y0062814D01*
X0088677Y0062840D01*
X0088701Y0062868D01*
X0091138Y0065349D02*
X0088400Y0065101D01*
X0088400Y0065101D01*
X0085662Y0065349D01*
X0085661Y0065350D01*
X0085673Y0065453D01*
X0085688Y0065557D01*
X0085707Y0065659D01*
X0085731Y0065761D01*
X0085758Y0065862D01*
X0085788Y0065961D01*
X0085823Y0066060D01*
X0085861Y0066157D01*
X0085903Y0066252D01*
X0085949Y0066346D01*
X0085998Y0066438D01*
X0086050Y0066529D01*
X0086106Y0066617D01*
X0086165Y0066703D01*
X0086228Y0066786D01*
X0086293Y0066867D01*
X0086362Y0066946D01*
X0086433Y0067022D01*
X0086508Y0067095D01*
X0086585Y0067166D01*
X0086664Y0067233D01*
X0086747Y0067297D01*
X0086831Y0067359D01*
X0086918Y0067416D01*
X0087007Y0067471D01*
X0087098Y0067522D01*
X0087191Y0067570D01*
X0087285Y0067614D01*
X0087381Y0067654D01*
X0087479Y0067691D01*
X0087578Y0067724D01*
X0087678Y0067754D01*
X0087779Y0067779D01*
X0087881Y0067801D01*
X0087984Y0067818D01*
X0088088Y0067832D01*
X0088191Y0067842D01*
X0088296Y0067848D01*
X0088400Y0067850D01*
X0088504Y0067848D01*
X0088609Y0067842D01*
X0088712Y0067832D01*
X0088816Y0067818D01*
X0088919Y0067801D01*
X0089021Y0067779D01*
X0089122Y0067754D01*
X0089222Y0067724D01*
X0089321Y0067691D01*
X0089419Y0067654D01*
X0089515Y0067614D01*
X0089609Y0067570D01*
X0089702Y0067522D01*
X0089793Y0067471D01*
X0089882Y0067416D01*
X0089969Y0067359D01*
X0090053Y0067297D01*
X0090136Y0067233D01*
X0090215Y0067166D01*
X0090292Y0067095D01*
X0090367Y0067022D01*
X0090438Y0066946D01*
X0090507Y0066867D01*
X0090572Y0066786D01*
X0090635Y0066703D01*
X0090694Y0066617D01*
X0090750Y0066529D01*
X0090802Y0066438D01*
X0090851Y0066346D01*
X0090897Y0066252D01*
X0090939Y0066157D01*
X0090977Y0066060D01*
X0091012Y0065961D01*
X0091042Y0065862D01*
X0091069Y0065761D01*
X0091093Y0065659D01*
X0091112Y0065557D01*
X0091127Y0065453D01*
X0091139Y0065350D01*
X0090662Y0065349D01*
X0090650Y0065444D01*
X0090634Y0065537D01*
X0090613Y0065630D01*
X0090589Y0065722D01*
X0090561Y0065813D01*
X0090530Y0065902D01*
X0090495Y0065991D01*
X0090456Y0066077D01*
X0090413Y0066162D01*
X0090367Y0066245D01*
X0090317Y0066326D01*
X0090265Y0066405D01*
X0090208Y0066482D01*
X0090149Y0066556D01*
X0090087Y0066628D01*
X0090022Y0066697D01*
X0089954Y0066763D01*
X0089883Y0066827D01*
X0089810Y0066887D01*
X0089734Y0066944D01*
X0089656Y0066998D01*
X0089575Y0067049D01*
X0089493Y0067096D01*
X0089409Y0067140D01*
X0089323Y0067181D01*
X0089235Y0067217D01*
X0089146Y0067250D01*
X0089056Y0067280D01*
X0088964Y0067305D01*
X0088872Y0067327D01*
X0088778Y0067344D01*
X0088684Y0067358D01*
X0088590Y0067368D01*
X0088495Y0067374D01*
X0088400Y0067376D01*
X0088305Y0067374D01*
X0088210Y0067368D01*
X0088116Y0067358D01*
X0088022Y0067344D01*
X0087928Y0067327D01*
X0087836Y0067305D01*
X0087744Y0067280D01*
X0087654Y0067250D01*
X0087565Y0067217D01*
X0087477Y0067181D01*
X0087391Y0067140D01*
X0087307Y0067096D01*
X0087225Y0067049D01*
X0087144Y0066998D01*
X0087066Y0066944D01*
X0086990Y0066887D01*
X0086917Y0066827D01*
X0086846Y0066763D01*
X0086778Y0066697D01*
X0086713Y0066628D01*
X0086651Y0066556D01*
X0086592Y0066482D01*
X0086535Y0066405D01*
X0086483Y0066326D01*
X0086433Y0066245D01*
X0086387Y0066162D01*
X0086344Y0066077D01*
X0086305Y0065991D01*
X0086270Y0065902D01*
X0086239Y0065813D01*
X0086211Y0065722D01*
X0086187Y0065630D01*
X0086166Y0065537D01*
X0086150Y0065444D01*
X0086138Y0065349D01*
X0086615Y0065349D01*
X0086629Y0065431D01*
X0086646Y0065513D01*
X0086667Y0065593D01*
X0086691Y0065673D01*
X0086720Y0065751D01*
X0086752Y0065828D01*
X0086787Y0065903D01*
X0086826Y0065977D01*
X0086868Y0066049D01*
X0086913Y0066119D01*
X0086962Y0066186D01*
X0087014Y0066251D01*
X0087068Y0066314D01*
X0087126Y0066374D01*
X0087186Y0066432D01*
X0087249Y0066486D01*
X0087314Y0066538D01*
X0087382Y0066587D01*
X0087451Y0066632D01*
X0087523Y0066674D01*
X0087597Y0066713D01*
X0087672Y0066748D01*
X0087749Y0066780D01*
X0087827Y0066809D01*
X0087907Y0066833D01*
X0087987Y0066854D01*
X0088069Y0066871D01*
X0088151Y0066885D01*
X0088234Y0066894D01*
X0088317Y0066900D01*
X0088400Y0066902D01*
X0088483Y0066900D01*
X0088566Y0066894D01*
X0088649Y0066885D01*
X0088731Y0066871D01*
X0088813Y0066854D01*
X0088893Y0066833D01*
X0088973Y0066809D01*
X0089051Y0066780D01*
X0089128Y0066748D01*
X0089203Y0066713D01*
X0089277Y0066674D01*
X0089349Y0066632D01*
X0089418Y0066587D01*
X0089486Y0066538D01*
X0089551Y0066486D01*
X0089614Y0066432D01*
X0089674Y0066374D01*
X0089732Y0066314D01*
X0089786Y0066251D01*
X0089838Y0066186D01*
X0089887Y0066119D01*
X0089932Y0066049D01*
X0089974Y0065977D01*
X0090013Y0065903D01*
X0090048Y0065828D01*
X0090080Y0065751D01*
X0090109Y0065673D01*
X0090133Y0065593D01*
X0090154Y0065513D01*
X0090171Y0065431D01*
X0090185Y0065349D01*
X0089705Y0065349D01*
X0089689Y0065419D01*
X0089670Y0065488D01*
X0089647Y0065556D01*
X0089621Y0065623D01*
X0089590Y0065689D01*
X0089557Y0065752D01*
X0089520Y0065814D01*
X0089479Y0065874D01*
X0089436Y0065931D01*
X0089389Y0065986D01*
X0089340Y0066038D01*
X0089288Y0066088D01*
X0089233Y0066135D01*
X0089175Y0066178D01*
X0089116Y0066219D01*
X0089054Y0066256D01*
X0088991Y0066289D01*
X0088925Y0066320D01*
X0088858Y0066346D01*
X0088790Y0066369D01*
X0088721Y0066389D01*
X0088650Y0066404D01*
X0088579Y0066416D01*
X0088508Y0066424D01*
X0088436Y0066428D01*
X0088364Y0066428D01*
X0088292Y0066424D01*
X0088221Y0066416D01*
X0088150Y0066404D01*
X0088079Y0066389D01*
X0088010Y0066369D01*
X0087942Y0066346D01*
X0087875Y0066320D01*
X0087809Y0066289D01*
X0087746Y0066256D01*
X0087684Y0066219D01*
X0087625Y0066178D01*
X0087567Y0066135D01*
X0087512Y0066088D01*
X0087460Y0066038D01*
X0087411Y0065986D01*
X0087364Y0065931D01*
X0087321Y0065874D01*
X0087280Y0065814D01*
X0087243Y0065752D01*
X0087210Y0065689D01*
X0087179Y0065623D01*
X0087153Y0065556D01*
X0087130Y0065488D01*
X0087111Y0065419D01*
X0087095Y0065349D01*
X0087582Y0065346D01*
X0087601Y0065401D01*
X0087623Y0065454D01*
X0087648Y0065505D01*
X0087677Y0065555D01*
X0087709Y0065602D01*
X0087745Y0065648D01*
X0087783Y0065691D01*
X0087824Y0065731D01*
X0087868Y0065768D01*
X0087914Y0065802D01*
X0087962Y0065833D01*
X0088013Y0065861D01*
X0088065Y0065885D01*
X0088118Y0065906D01*
X0088173Y0065923D01*
X0088229Y0065937D01*
X0088285Y0065946D01*
X0088343Y0065952D01*
X0088400Y0065954D01*
X0088457Y0065952D01*
X0088515Y0065946D01*
X0088571Y0065937D01*
X0088627Y0065923D01*
X0088682Y0065906D01*
X0088735Y0065885D01*
X0088787Y0065861D01*
X0088838Y0065833D01*
X0088886Y0065802D01*
X0088932Y0065768D01*
X0088976Y0065731D01*
X0089017Y0065691D01*
X0089055Y0065648D01*
X0089091Y0065602D01*
X0089123Y0065555D01*
X0089152Y0065505D01*
X0089177Y0065454D01*
X0089199Y0065401D01*
X0089218Y0065346D01*
X0088701Y0065332D01*
X0088677Y0065360D01*
X0088651Y0065386D01*
X0088622Y0065408D01*
X0088592Y0065428D01*
X0088559Y0065445D01*
X0088525Y0065459D01*
X0088490Y0065469D01*
X0088455Y0065476D01*
X0088418Y0065480D01*
X0088382Y0065480D01*
X0088345Y0065476D01*
X0088310Y0065469D01*
X0088275Y0065459D01*
X0088241Y0065445D01*
X0088208Y0065428D01*
X0088178Y0065408D01*
X0088149Y0065386D01*
X0088123Y0065360D01*
X0088099Y0065332D01*
X0083650Y0067058D02*
X0083650Y0070060D01*
X0083650Y0068559D02*
X0079146Y0068559D01*
X0080647Y0067058D01*
X0043899Y0025956D02*
X0044650Y0025206D01*
X0044650Y0023705D01*
X0043899Y0022954D01*
X0043899Y0021353D02*
X0044650Y0020602D01*
X0044650Y0019101D01*
X0043899Y0018350D01*
X0040897Y0018350D01*
X0040146Y0019101D01*
X0040146Y0020602D01*
X0040897Y0021353D01*
X0043899Y0021353D01*
X0044650Y0021353D02*
X0043149Y0019851D01*
X0040897Y0022954D02*
X0040146Y0023705D01*
X0040146Y0025206D01*
X0040897Y0025956D01*
X0041647Y0025956D01*
X0042398Y0025206D01*
X0043149Y0025956D01*
X0043899Y0025956D01*
X0042398Y0025206D02*
X0042398Y0024455D01*
X0034098Y0023726D02*
X0034100Y0023793D01*
X0034106Y0023859D01*
X0034116Y0023925D01*
X0034130Y0023990D01*
X0034147Y0024054D01*
X0034169Y0024117D01*
X0034194Y0024179D01*
X0034223Y0024239D01*
X0034256Y0024297D01*
X0034291Y0024353D01*
X0034331Y0024407D01*
X0034373Y0024458D01*
X0034418Y0024507D01*
X0034466Y0024553D01*
X0034517Y0024596D01*
X0034570Y0024636D01*
X0034626Y0024673D01*
X0034684Y0024706D01*
X0034743Y0024736D01*
X0034804Y0024762D01*
X0034867Y0024785D01*
X0034931Y0024803D01*
X0034996Y0024818D01*
X0035062Y0024829D01*
X0035128Y0024836D01*
X0035194Y0024839D01*
X0035261Y0024838D01*
X0035327Y0024833D01*
X0035393Y0024824D01*
X0035459Y0024811D01*
X0035523Y0024794D01*
X0035586Y0024774D01*
X0035648Y0024749D01*
X0035709Y0024721D01*
X0035768Y0024690D01*
X0035824Y0024655D01*
X0035879Y0024617D01*
X0035931Y0024575D01*
X0035980Y0024530D01*
X0036027Y0024483D01*
X0036071Y0024433D01*
X0036111Y0024380D01*
X0036149Y0024325D01*
X0036183Y0024268D01*
X0036214Y0024209D01*
X0036241Y0024148D01*
X0036264Y0024086D01*
X0036284Y0024022D01*
X0036300Y0023957D01*
X0036312Y0023892D01*
X0036320Y0023826D01*
X0036324Y0023759D01*
X0036324Y0023693D01*
X0036320Y0023626D01*
X0036312Y0023560D01*
X0036300Y0023495D01*
X0036284Y0023430D01*
X0036264Y0023366D01*
X0036241Y0023304D01*
X0036214Y0023243D01*
X0036183Y0023184D01*
X0036149Y0023127D01*
X0036111Y0023072D01*
X0036071Y0023019D01*
X0036027Y0022969D01*
X0035980Y0022922D01*
X0035931Y0022877D01*
X0035879Y0022835D01*
X0035824Y0022797D01*
X0035767Y0022762D01*
X0035709Y0022731D01*
X0035648Y0022703D01*
X0035586Y0022678D01*
X0035523Y0022658D01*
X0035459Y0022641D01*
X0035393Y0022628D01*
X0035327Y0022619D01*
X0035261Y0022614D01*
X0035194Y0022613D01*
X0035128Y0022616D01*
X0035062Y0022623D01*
X0034996Y0022634D01*
X0034931Y0022649D01*
X0034867Y0022667D01*
X0034804Y0022690D01*
X0034743Y0022716D01*
X0034684Y0022746D01*
X0034626Y0022779D01*
X0034570Y0022816D01*
X0034517Y0022856D01*
X0034466Y0022899D01*
X0034418Y0022945D01*
X0034373Y0022994D01*
X0034331Y0023045D01*
X0034291Y0023099D01*
X0034256Y0023155D01*
X0034223Y0023213D01*
X0034194Y0023273D01*
X0034169Y0023335D01*
X0034147Y0023398D01*
X0034130Y0023462D01*
X0034116Y0023527D01*
X0034106Y0023593D01*
X0034100Y0023659D01*
X0034098Y0023726D01*
X0346646Y0077642D02*
X0347397Y0077642D01*
X0348898Y0079143D01*
X0351150Y0079143D01*
X0348898Y0079143D02*
X0347397Y0080645D01*
X0346646Y0080645D01*
X0348147Y0082246D02*
X0346646Y0083747D01*
X0351150Y0083747D01*
X0351150Y0082246D02*
X0351150Y0085249D01*
X0348961Y0114607D02*
X0375339Y0114607D01*
X0375339Y0124843D01*
X0361756Y0124843D01*
X0361756Y0130749D01*
X0356638Y0130749D01*
X0356638Y0124843D01*
X0348961Y0124843D01*
X0348961Y0114607D01*
X0334089Y0114607D02*
X0334089Y0124843D01*
X0320506Y0124843D01*
X0320506Y0130749D01*
X0315388Y0130749D01*
X0315388Y0124843D01*
X0307711Y0124843D01*
X0307711Y0114607D01*
X0334089Y0114607D01*
X0320506Y0124843D02*
X0315388Y0124843D01*
X0356638Y0124843D02*
X0361756Y0124843D01*
D150*
X0048400Y0029100D03*
D151*
X0209650Y0070350D03*
X0209650Y0076600D03*
X0183400Y0096600D03*
X0183400Y0102850D03*
X0165900Y0106600D03*
X0128400Y0110350D03*
X0128400Y0116600D03*
X0514650Y0049100D03*
X0513400Y0037850D03*
X0513400Y0028600D03*
X0513114Y0014207D03*
X0533400Y0066600D03*
X0533400Y0086600D03*
X0533400Y0116600D03*
D152*
X0344650Y0100350D03*
X0309025Y0099725D03*
X0088400Y0086600D03*
X0240900Y0024100D03*
D153*
X0491873Y0071271D02*
X0492240Y0070904D01*
X0492607Y0070904D01*
X0492974Y0071271D01*
X0492974Y0072005D01*
X0493341Y0072372D01*
X0493708Y0072372D01*
X0494075Y0072005D01*
X0494075Y0071271D01*
X0493708Y0070904D01*
X0491873Y0071271D02*
X0491873Y0072005D01*
X0492240Y0072372D01*
X0492240Y0073114D02*
X0493708Y0073114D01*
X0494075Y0073481D01*
X0494075Y0074215D01*
X0493708Y0074582D01*
X0492974Y0074582D01*
X0492974Y0073848D01*
X0492240Y0073114D02*
X0491873Y0073481D01*
X0491873Y0074215D01*
X0492240Y0074582D01*
X0492607Y0075324D02*
X0491873Y0076058D01*
X0494075Y0076058D01*
X0494075Y0075324D02*
X0494075Y0076792D01*
X0360928Y0122692D02*
X0360561Y0122325D01*
X0359827Y0122325D01*
X0359460Y0122692D01*
X0358718Y0122692D02*
X0358351Y0122325D01*
X0357617Y0122325D01*
X0357250Y0122692D01*
X0357617Y0123426D02*
X0358351Y0123426D01*
X0358718Y0123059D01*
X0358718Y0122692D01*
X0357617Y0123426D02*
X0357250Y0123793D01*
X0357250Y0124160D01*
X0357617Y0124527D01*
X0358351Y0124527D01*
X0358718Y0124160D01*
X0359460Y0124160D02*
X0359827Y0124527D01*
X0360561Y0124527D01*
X0360928Y0124160D01*
X0360928Y0123793D01*
X0360561Y0123426D01*
X0360928Y0123059D01*
X0360928Y0122692D01*
X0360561Y0123426D02*
X0360194Y0123426D01*
X0319678Y0123793D02*
X0318210Y0122325D01*
X0319678Y0122325D01*
X0319678Y0123793D02*
X0319678Y0124160D01*
X0319311Y0124527D01*
X0318577Y0124527D01*
X0318210Y0124160D01*
X0317468Y0124160D02*
X0317101Y0124527D01*
X0316367Y0124527D01*
X0316000Y0124160D01*
X0316000Y0123793D01*
X0316367Y0123426D01*
X0317101Y0123426D01*
X0317468Y0123059D01*
X0317468Y0122692D01*
X0317101Y0122325D01*
X0316367Y0122325D01*
X0316000Y0122692D01*
D154*
X0274113Y0028161D02*
X0274113Y0023726D01*
X0274113Y0028161D01*
X0274113Y0023726D01*
X0274113Y0028161D01*
X0273005Y0027052D02*
X0275222Y0024835D01*
X0273005Y0027052D01*
X0275222Y0024835D01*
X0273005Y0027052D01*
X0271896Y0025943D02*
X0276331Y0025943D01*
X0271896Y0025943D01*
X0276331Y0025943D01*
X0271896Y0025943D01*
X0273005Y0024835D02*
X0275222Y0027052D01*
X0273005Y0024835D01*
X0275222Y0027052D01*
X0273005Y0024835D01*
D155*
X0155034Y0068085D03*
X0152475Y0068085D03*
X0149916Y0068085D03*
X0147357Y0068085D03*
X0144798Y0068085D03*
X0142239Y0068085D03*
X0139680Y0068085D03*
X0137120Y0068085D03*
X0134561Y0068085D03*
X0132002Y0068085D03*
X0129443Y0068085D03*
X0126884Y0068085D03*
X0124325Y0068085D03*
X0121766Y0068085D03*
X0121766Y0095115D03*
X0124325Y0095115D03*
X0126884Y0095115D03*
X0129443Y0095115D03*
X0132002Y0095115D03*
X0134561Y0095115D03*
X0137120Y0095115D03*
X0139680Y0095115D03*
X0142239Y0095115D03*
X0144798Y0095115D03*
X0147357Y0095115D03*
X0149916Y0095115D03*
X0152475Y0095115D03*
X0155034Y0095115D03*
M02*
