G75*
%MOIN*%
%OFA0B0*%
%FSLAX25Y25*%
%IPPOS*%
%LPD*%
%AMOC8*
5,1,8,0,0,1.08239X$1,22.5*
%
%ADD10R,0.04331X0.03937*%
%ADD11R,0.03937X0.04331*%
%ADD12C,0.06500*%
%ADD13R,0.06500X0.06500*%
%ADD14R,0.02480X0.03268*%
%ADD15R,0.04724X0.05512*%
%ADD16R,0.08800X0.04800*%
%ADD17R,0.08661X0.14173*%
%ADD18R,0.08661X0.02362*%
%ADD19C,0.07400*%
%ADD20OC8,0.06000*%
%ADD21R,0.08000X0.08000*%
%ADD22C,0.08000*%
%ADD23R,0.02756X0.02756*%
%ADD24C,0.06000*%
%ADD25R,0.03000X0.06000*%
%ADD26C,0.07000*%
%ADD27R,0.06300X0.04600*%
%ADD28R,0.01969X0.09843*%
%ADD29R,0.07874X0.09843*%
%ADD30R,0.04724X0.04724*%
%ADD31R,0.02000X0.05800*%
%ADD32R,0.01370X0.05500*%
%ADD33R,0.02756X0.05906*%
%ADD34R,0.03937X0.02362*%
%ADD35R,0.03937X0.03150*%
%ADD36C,0.01200*%
%ADD37C,0.03369*%
%ADD38C,0.02400*%
D10*
X0125054Y0051600D03*
X0131746Y0051600D03*
X0145054Y0054100D03*
X0151746Y0054100D03*
X0206304Y0070350D03*
X0212996Y0070350D03*
X0212996Y0076600D03*
X0206304Y0076600D03*
X0186746Y0096600D03*
X0180054Y0096600D03*
X0180054Y0102850D03*
X0186746Y0102850D03*
X0169246Y0106600D03*
X0162554Y0106600D03*
X0131746Y0110350D03*
X0125054Y0110350D03*
X0125054Y0116600D03*
X0131746Y0116600D03*
G36*
X0298688Y0036605D02*
X0295627Y0033544D01*
X0292844Y0036327D01*
X0295905Y0039388D01*
X0298688Y0036605D01*
G37*
G36*
X0293956Y0031873D02*
X0290895Y0028812D01*
X0288112Y0031595D01*
X0291173Y0034656D01*
X0293956Y0031873D01*
G37*
X0510054Y0028600D03*
X0516746Y0028600D03*
X0516746Y0037850D03*
X0510054Y0037850D03*
X0511304Y0049100D03*
X0517996Y0049100D03*
X0530054Y0066600D03*
X0536746Y0066600D03*
X0536746Y0086600D03*
X0530054Y0086600D03*
X0530054Y0116600D03*
X0536746Y0116600D03*
X0516461Y0014207D03*
X0509768Y0014207D03*
D11*
X0349650Y0057004D03*
X0349650Y0063696D03*
X0349650Y0069504D03*
X0349650Y0076196D03*
X0344650Y0097004D03*
X0344650Y0103696D03*
X0309025Y0103071D03*
X0309025Y0096379D03*
X0248400Y0087446D03*
X0248400Y0080754D03*
X0088400Y0083254D03*
X0088400Y0089946D03*
X0240900Y0027446D03*
X0240900Y0020754D03*
D12*
X0320900Y0024100D03*
X0335900Y0056600D03*
X0335900Y0076600D03*
X0177150Y0066600D03*
D13*
X0177150Y0056600D03*
X0310900Y0024100D03*
D14*
X0132928Y0041600D03*
X0123872Y0041600D03*
D15*
X0142494Y0109100D03*
X0154306Y0109100D03*
X0154306Y0117850D03*
X0142494Y0117850D03*
X0527494Y0106600D03*
X0539306Y0106600D03*
X0539306Y0096600D03*
X0527494Y0096600D03*
X0527494Y0076600D03*
X0539306Y0076600D03*
X0539306Y0049100D03*
X0527494Y0049100D03*
X0527494Y0037850D03*
X0539306Y0037850D03*
X0539306Y0026600D03*
X0527494Y0026600D03*
X0527494Y0015350D03*
X0539306Y0015350D03*
D16*
X0110600Y0017500D03*
X0110600Y0026600D03*
X0110600Y0035700D03*
D17*
X0086199Y0026600D03*
D18*
X0485664Y0099100D03*
X0485664Y0104100D03*
X0506136Y0104100D03*
X0506136Y0099100D03*
X0506136Y0109100D03*
X0506136Y0114100D03*
X0485664Y0114100D03*
X0485664Y0109100D03*
D19*
X0068400Y0099100D03*
X0058400Y0094100D03*
X0068400Y0089100D03*
X0058400Y0084100D03*
X0068400Y0079100D03*
X0058400Y0074100D03*
D20*
X0210900Y0086600D03*
X0220900Y0086600D03*
X0220900Y0096600D03*
X0210900Y0096600D03*
X0210900Y0106600D03*
X0220900Y0106600D03*
X0250900Y0106600D03*
X0260900Y0106600D03*
X0270900Y0106600D03*
X0270900Y0116600D03*
X0260900Y0116600D03*
X0250900Y0116600D03*
X0220900Y0116600D03*
X0210900Y0116600D03*
D21*
X0023400Y0031600D03*
D22*
X0023400Y0017820D03*
D23*
X0183400Y0082958D03*
X0180841Y0090242D03*
X0185959Y0090242D03*
X0187042Y0111541D03*
X0179758Y0114100D03*
X0187042Y0116659D03*
D24*
X0061400Y0039100D02*
X0055400Y0039100D01*
X0055400Y0029100D02*
X0061400Y0029100D01*
X0061400Y0019100D02*
X0055400Y0019100D01*
X0270900Y0014600D02*
X0270900Y0008600D01*
X0280900Y0008600D02*
X0280900Y0014600D01*
X0290900Y0014600D02*
X0290900Y0008600D01*
D25*
X0230900Y0020600D03*
X0215900Y0020600D03*
X0215900Y0042600D03*
X0230900Y0042600D03*
D26*
X0481775Y0054639D03*
X0481775Y0080229D03*
D27*
X0088400Y0067100D03*
X0088400Y0061100D03*
D28*
X0174601Y0038943D03*
X0177750Y0038943D03*
X0180900Y0038943D03*
X0184050Y0038943D03*
X0187199Y0038943D03*
D29*
X0198617Y0038943D03*
X0163183Y0038943D03*
X0163183Y0017289D03*
X0198617Y0017289D03*
D30*
X0378400Y0026600D03*
X0388400Y0026600D03*
X0398400Y0026600D03*
X0408400Y0026600D03*
X0418400Y0026600D03*
X0428400Y0026600D03*
X0418400Y0096600D03*
X0408400Y0096600D03*
X0398400Y0096600D03*
X0388400Y0096600D03*
D31*
G36*
X0272926Y0065884D02*
X0271512Y0067298D01*
X0275612Y0071398D01*
X0277026Y0069984D01*
X0272926Y0065884D01*
G37*
G36*
X0275189Y0063622D02*
X0273775Y0065036D01*
X0277875Y0069136D01*
X0279289Y0067722D01*
X0275189Y0063622D01*
G37*
G36*
X0277381Y0061429D02*
X0275967Y0062843D01*
X0280067Y0066943D01*
X0281481Y0065529D01*
X0277381Y0061429D01*
G37*
G36*
X0279643Y0059167D02*
X0278229Y0060581D01*
X0282329Y0064681D01*
X0283743Y0063267D01*
X0279643Y0059167D01*
G37*
G36*
X0281836Y0056975D02*
X0280422Y0058389D01*
X0284522Y0062489D01*
X0285936Y0061075D01*
X0281836Y0056975D01*
G37*
G36*
X0284098Y0054712D02*
X0282684Y0056126D01*
X0286784Y0060226D01*
X0288198Y0058812D01*
X0284098Y0054712D01*
G37*
G36*
X0286290Y0052520D02*
X0284876Y0053934D01*
X0288976Y0058034D01*
X0290390Y0056620D01*
X0286290Y0052520D01*
G37*
G36*
X0290390Y0046580D02*
X0288976Y0045166D01*
X0284876Y0049266D01*
X0286290Y0050680D01*
X0290390Y0046580D01*
G37*
G36*
X0288198Y0044388D02*
X0286784Y0042974D01*
X0282684Y0047074D01*
X0284098Y0048488D01*
X0288198Y0044388D01*
G37*
G36*
X0285936Y0042125D02*
X0284522Y0040711D01*
X0280422Y0044811D01*
X0281836Y0046225D01*
X0285936Y0042125D01*
G37*
G36*
X0283743Y0039933D02*
X0282329Y0038519D01*
X0278229Y0042619D01*
X0279643Y0044033D01*
X0283743Y0039933D01*
G37*
G36*
X0281481Y0037670D02*
X0280067Y0036256D01*
X0275967Y0040356D01*
X0277381Y0041770D01*
X0281481Y0037670D01*
G37*
G36*
X0279289Y0035478D02*
X0277875Y0034064D01*
X0273775Y0038164D01*
X0275189Y0039578D01*
X0279289Y0035478D01*
G37*
G36*
X0277026Y0033216D02*
X0275612Y0031802D01*
X0271512Y0035902D01*
X0272926Y0037316D01*
X0277026Y0033216D01*
G37*
G36*
X0274834Y0031024D02*
X0273420Y0029610D01*
X0269320Y0033710D01*
X0270734Y0035124D01*
X0274834Y0031024D01*
G37*
G36*
X0263380Y0029610D02*
X0261966Y0031024D01*
X0266066Y0035124D01*
X0267480Y0033710D01*
X0263380Y0029610D01*
G37*
G36*
X0261188Y0031802D02*
X0259774Y0033216D01*
X0263874Y0037316D01*
X0265288Y0035902D01*
X0261188Y0031802D01*
G37*
G36*
X0258925Y0034064D02*
X0257511Y0035478D01*
X0261611Y0039578D01*
X0263025Y0038164D01*
X0258925Y0034064D01*
G37*
G36*
X0256733Y0036256D02*
X0255319Y0037670D01*
X0259419Y0041770D01*
X0260833Y0040356D01*
X0256733Y0036256D01*
G37*
G36*
X0254470Y0038519D02*
X0253056Y0039933D01*
X0257156Y0044033D01*
X0258570Y0042619D01*
X0254470Y0038519D01*
G37*
G36*
X0252278Y0040711D02*
X0250864Y0042125D01*
X0254964Y0046225D01*
X0256378Y0044811D01*
X0252278Y0040711D01*
G37*
G36*
X0250016Y0042974D02*
X0248602Y0044388D01*
X0252702Y0048488D01*
X0254116Y0047074D01*
X0250016Y0042974D01*
G37*
G36*
X0247824Y0045166D02*
X0246410Y0046580D01*
X0250510Y0050680D01*
X0251924Y0049266D01*
X0247824Y0045166D01*
G37*
G36*
X0251924Y0053934D02*
X0250510Y0052520D01*
X0246410Y0056620D01*
X0247824Y0058034D01*
X0251924Y0053934D01*
G37*
G36*
X0254116Y0056126D02*
X0252702Y0054712D01*
X0248602Y0058812D01*
X0250016Y0060226D01*
X0254116Y0056126D01*
G37*
G36*
X0256378Y0058389D02*
X0254964Y0056975D01*
X0250864Y0061075D01*
X0252278Y0062489D01*
X0256378Y0058389D01*
G37*
G36*
X0258570Y0060581D02*
X0257156Y0059167D01*
X0253056Y0063267D01*
X0254470Y0064681D01*
X0258570Y0060581D01*
G37*
G36*
X0260833Y0062843D02*
X0259419Y0061429D01*
X0255319Y0065529D01*
X0256733Y0066943D01*
X0260833Y0062843D01*
G37*
G36*
X0263025Y0065036D02*
X0261611Y0063622D01*
X0257511Y0067722D01*
X0258925Y0069136D01*
X0263025Y0065036D01*
G37*
G36*
X0265288Y0067298D02*
X0263874Y0065884D01*
X0259774Y0069984D01*
X0261188Y0071398D01*
X0265288Y0067298D01*
G37*
G36*
X0267480Y0069490D02*
X0266066Y0068076D01*
X0261966Y0072176D01*
X0263380Y0073590D01*
X0267480Y0069490D01*
G37*
G36*
X0270734Y0068076D02*
X0269320Y0069490D01*
X0273420Y0073590D01*
X0274834Y0072176D01*
X0270734Y0068076D01*
G37*
D32*
X0155034Y0067206D03*
X0152475Y0067206D03*
X0149916Y0067206D03*
X0147357Y0067206D03*
X0144798Y0067206D03*
X0142239Y0067206D03*
X0139680Y0067206D03*
X0137120Y0067206D03*
X0134561Y0067206D03*
X0132002Y0067206D03*
X0129443Y0067206D03*
X0126884Y0067206D03*
X0124325Y0067206D03*
X0121766Y0067206D03*
X0121766Y0095994D03*
X0124325Y0095994D03*
X0126884Y0095994D03*
X0129443Y0095994D03*
X0132002Y0095994D03*
X0134561Y0095994D03*
X0137120Y0095994D03*
X0139680Y0095994D03*
X0142239Y0095994D03*
X0144798Y0095994D03*
X0147357Y0095994D03*
X0149916Y0095994D03*
X0152475Y0095994D03*
X0155034Y0095994D03*
D33*
X0312042Y0112835D03*
X0317947Y0112835D03*
X0329758Y0112835D03*
X0353292Y0112835D03*
X0359197Y0112835D03*
X0371008Y0112835D03*
D34*
X0376520Y0123662D03*
X0347780Y0123662D03*
X0335270Y0123662D03*
X0306530Y0123662D03*
D35*
X0306530Y0115394D03*
X0335270Y0115394D03*
X0347780Y0115394D03*
X0376520Y0115394D03*
D36*
X0015500Y0124451D02*
X0015500Y0006200D01*
X0226254Y0006200D01*
X0220154Y0012300D01*
X0219100Y0013354D01*
X0219100Y0039590D01*
X0219000Y0039631D01*
X0219000Y0039389D01*
X0218891Y0038982D01*
X0218680Y0038618D01*
X0218382Y0038320D01*
X0218018Y0038109D01*
X0217611Y0038000D01*
X0216050Y0038000D01*
X0216050Y0042450D01*
X0215750Y0042450D01*
X0215750Y0038000D01*
X0214189Y0038000D01*
X0213782Y0038109D01*
X0213418Y0038320D01*
X0213120Y0038618D01*
X0212909Y0038982D01*
X0212800Y0039389D01*
X0212800Y0042450D01*
X0215750Y0042450D01*
X0215750Y0042750D01*
X0215750Y0047200D01*
X0214189Y0047200D01*
X0213782Y0047091D01*
X0213418Y0046880D01*
X0213120Y0046582D01*
X0212909Y0046218D01*
X0212800Y0045811D01*
X0212800Y0042750D01*
X0215750Y0042750D01*
X0216050Y0042750D01*
X0216050Y0047200D01*
X0217611Y0047200D01*
X0218018Y0047091D01*
X0218382Y0046880D01*
X0218680Y0046582D01*
X0218891Y0046218D01*
X0219000Y0045811D01*
X0219000Y0044819D01*
X0219701Y0045109D01*
X0220849Y0045109D01*
X0221600Y0044798D01*
X0221600Y0069030D01*
X0221470Y0068716D01*
X0220659Y0067905D01*
X0219599Y0067466D01*
X0218451Y0067466D01*
X0217391Y0067905D01*
X0216746Y0068550D01*
X0216362Y0068550D01*
X0216362Y0067884D01*
X0215659Y0067181D01*
X0210334Y0067181D01*
X0209650Y0067866D01*
X0208966Y0067181D01*
X0203641Y0067181D01*
X0202938Y0067884D01*
X0202938Y0068550D01*
X0200054Y0068550D01*
X0199409Y0067905D01*
X0198349Y0067466D01*
X0197201Y0067466D01*
X0196141Y0067905D01*
X0195330Y0068716D01*
X0194891Y0069776D01*
X0194891Y0070924D01*
X0195330Y0071984D01*
X0196141Y0072795D01*
X0197201Y0073234D01*
X0198349Y0073234D01*
X0199409Y0072795D01*
X0200054Y0072150D01*
X0202938Y0072150D01*
X0202938Y0072816D01*
X0203598Y0073475D01*
X0202938Y0074134D01*
X0202938Y0076050D01*
X0200679Y0076050D01*
X0200034Y0075405D01*
X0198974Y0074966D01*
X0197826Y0074966D01*
X0196766Y0075405D01*
X0195955Y0076216D01*
X0195516Y0077276D01*
X0195516Y0078424D01*
X0195955Y0079484D01*
X0196766Y0080295D01*
X0197826Y0080734D01*
X0198974Y0080734D01*
X0200034Y0080295D01*
X0200679Y0079650D01*
X0203523Y0079650D01*
X0203641Y0079768D01*
X0208966Y0079768D01*
X0209650Y0079084D01*
X0210334Y0079768D01*
X0212148Y0079768D01*
X0214100Y0081721D01*
X0214100Y0083860D01*
X0212640Y0082400D01*
X0209246Y0082400D01*
X0208004Y0081158D01*
X0185978Y0081158D01*
X0185978Y0081083D01*
X0185275Y0080380D01*
X0181525Y0080380D01*
X0180822Y0081083D01*
X0180822Y0081158D01*
X0177546Y0081158D01*
X0167850Y0090854D01*
X0167850Y0103431D01*
X0166584Y0103431D01*
X0165900Y0104116D01*
X0165216Y0103431D01*
X0159891Y0103431D01*
X0159188Y0104134D01*
X0159188Y0107300D01*
X0157868Y0107300D01*
X0157868Y0105847D01*
X0157165Y0105144D01*
X0153240Y0105144D01*
X0148950Y0100854D01*
X0148400Y0100304D01*
X0148659Y0100235D01*
X0149024Y0100024D01*
X0149104Y0099944D01*
X0151098Y0099944D01*
X0151195Y0099846D01*
X0151293Y0099944D01*
X0153657Y0099944D01*
X0153754Y0099846D01*
X0153852Y0099944D01*
X0156216Y0099944D01*
X0156919Y0099241D01*
X0156919Y0093127D01*
X0171646Y0078400D01*
X0184146Y0078400D01*
X0185200Y0077346D01*
X0191450Y0071096D01*
X0191450Y0053354D01*
X0190396Y0052300D01*
X0183159Y0045064D01*
X0185152Y0045064D01*
X0185233Y0045144D01*
X0185597Y0045355D01*
X0186004Y0045464D01*
X0187199Y0045464D01*
X0187199Y0038943D01*
X0187199Y0038943D01*
X0187199Y0045464D01*
X0188394Y0045464D01*
X0188801Y0045355D01*
X0189166Y0045144D01*
X0189464Y0044846D01*
X0189674Y0044481D01*
X0189783Y0044074D01*
X0189783Y0038943D01*
X0187199Y0038943D01*
X0187199Y0038942D01*
X0187199Y0038942D01*
X0187199Y0032421D01*
X0186004Y0032421D01*
X0185597Y0032530D01*
X0185233Y0032741D01*
X0185152Y0032821D01*
X0182568Y0032821D01*
X0182475Y0032915D01*
X0182381Y0032821D01*
X0179419Y0032821D01*
X0179325Y0032915D01*
X0179232Y0032821D01*
X0176269Y0032821D01*
X0176176Y0032915D01*
X0176082Y0032821D01*
X0173372Y0032821D01*
X0174432Y0032382D01*
X0175521Y0031293D01*
X0176110Y0029870D01*
X0176110Y0028330D01*
X0175521Y0026907D01*
X0174432Y0025818D01*
X0173009Y0025228D01*
X0171468Y0025228D01*
X0170045Y0025818D01*
X0168956Y0026907D01*
X0168367Y0028330D01*
X0168367Y0029870D01*
X0168956Y0031293D01*
X0170045Y0032382D01*
X0171468Y0032972D01*
X0172969Y0032972D01*
X0172417Y0033524D01*
X0172417Y0042538D01*
X0162654Y0052300D01*
X0155112Y0052300D01*
X0155112Y0051634D01*
X0154409Y0050931D01*
X0154146Y0050931D01*
X0154146Y0048219D01*
X0153781Y0047337D01*
X0146685Y0040241D01*
X0146009Y0039565D01*
X0145127Y0039200D01*
X0135099Y0039200D01*
X0134665Y0038766D01*
X0131190Y0038766D01*
X0130487Y0039469D01*
X0130487Y0043731D01*
X0131190Y0044434D01*
X0134665Y0044434D01*
X0135099Y0044000D01*
X0143656Y0044000D01*
X0149346Y0049691D01*
X0149346Y0050931D01*
X0149084Y0050931D01*
X0148634Y0051382D01*
X0148499Y0051149D01*
X0148201Y0050851D01*
X0147836Y0050641D01*
X0147430Y0050531D01*
X0145438Y0050531D01*
X0145438Y0053716D01*
X0144669Y0053716D01*
X0141288Y0053716D01*
X0141288Y0051921D01*
X0141397Y0051514D01*
X0141608Y0051149D01*
X0141906Y0050851D01*
X0142271Y0050641D01*
X0142678Y0050531D01*
X0144669Y0050531D01*
X0144669Y0053716D01*
X0144669Y0054484D01*
X0141288Y0054484D01*
X0141288Y0056279D01*
X0141397Y0056686D01*
X0141608Y0057051D01*
X0141906Y0057349D01*
X0142271Y0057559D01*
X0142678Y0057668D01*
X0144669Y0057668D01*
X0144669Y0054484D01*
X0145438Y0054484D01*
X0145438Y0057668D01*
X0147430Y0057668D01*
X0147836Y0057559D01*
X0148201Y0057349D01*
X0148499Y0057051D01*
X0148634Y0056818D01*
X0149084Y0057268D01*
X0154409Y0057268D01*
X0155112Y0056566D01*
X0155112Y0055900D01*
X0162654Y0055900D01*
X0165154Y0058400D01*
X0172700Y0058400D01*
X0172700Y0060347D01*
X0173403Y0061050D01*
X0180897Y0061050D01*
X0181600Y0060347D01*
X0181600Y0052853D01*
X0180897Y0052150D01*
X0173403Y0052150D01*
X0172700Y0052853D01*
X0172700Y0054800D01*
X0166646Y0054800D01*
X0165946Y0054100D01*
X0174982Y0045064D01*
X0175950Y0045064D01*
X0175950Y0046696D01*
X0185350Y0056096D01*
X0185350Y0068354D01*
X0181404Y0072300D01*
X0168904Y0072300D01*
X0167850Y0073354D01*
X0150675Y0090530D01*
X0150675Y0092044D01*
X0149104Y0092044D01*
X0149024Y0091963D01*
X0148659Y0091753D01*
X0148252Y0091644D01*
X0147357Y0091644D01*
X0147357Y0095994D01*
X0147357Y0095994D01*
X0147357Y0091644D01*
X0146461Y0091644D01*
X0146054Y0091753D01*
X0145689Y0091963D01*
X0145609Y0092044D01*
X0143889Y0092044D01*
X0132580Y0080734D01*
X0132724Y0080734D01*
X0133784Y0080295D01*
X0134595Y0079484D01*
X0135034Y0078424D01*
X0135034Y0077276D01*
X0134595Y0076216D01*
X0133950Y0075571D01*
X0133950Y0071156D01*
X0135373Y0071156D01*
X0135453Y0071237D01*
X0135818Y0071447D01*
X0136225Y0071556D01*
X0137120Y0071556D01*
X0137120Y0067206D01*
X0137121Y0067206D01*
X0137121Y0062856D01*
X0138016Y0062856D01*
X0138423Y0062965D01*
X0138788Y0063176D01*
X0138868Y0063256D01*
X0140862Y0063256D01*
X0140959Y0063354D01*
X0141056Y0063256D01*
X0143421Y0063256D01*
X0143518Y0063354D01*
X0143616Y0063256D01*
X0145980Y0063256D01*
X0146077Y0063354D01*
X0146175Y0063256D01*
X0148539Y0063256D01*
X0148636Y0063354D01*
X0148734Y0063256D01*
X0151098Y0063256D01*
X0151195Y0063354D01*
X0151293Y0063256D01*
X0153657Y0063256D01*
X0153754Y0063354D01*
X0153852Y0063256D01*
X0156216Y0063256D01*
X0156919Y0063959D01*
X0156919Y0070453D01*
X0156216Y0071156D01*
X0153852Y0071156D01*
X0153754Y0071059D01*
X0153657Y0071156D01*
X0151293Y0071156D01*
X0151195Y0071059D01*
X0151098Y0071156D01*
X0148734Y0071156D01*
X0148636Y0071059D01*
X0148539Y0071156D01*
X0146175Y0071156D01*
X0146077Y0071059D01*
X0145980Y0071156D01*
X0143616Y0071156D01*
X0143518Y0071059D01*
X0143421Y0071156D01*
X0141056Y0071156D01*
X0140959Y0071059D01*
X0140862Y0071156D01*
X0138868Y0071156D01*
X0138788Y0071237D01*
X0138423Y0071447D01*
X0138016Y0071556D01*
X0137121Y0071556D01*
X0137121Y0067206D01*
X0137120Y0067206D02*
X0137120Y0062856D01*
X0136225Y0062856D01*
X0135818Y0062965D01*
X0135453Y0063176D01*
X0135373Y0063256D01*
X0133379Y0063256D01*
X0133282Y0063354D01*
X0133184Y0063256D01*
X0130820Y0063256D01*
X0130723Y0063354D01*
X0130625Y0063256D01*
X0128261Y0063256D01*
X0128164Y0063354D01*
X0128066Y0063256D01*
X0126125Y0063256D01*
X0126125Y0054768D01*
X0127716Y0054768D01*
X0128400Y0054084D01*
X0129084Y0054768D01*
X0134409Y0054768D01*
X0135112Y0054066D01*
X0135112Y0053641D01*
X0135516Y0054045D01*
X0136576Y0054484D01*
X0137724Y0054484D01*
X0138784Y0054045D01*
X0139595Y0053234D01*
X0140034Y0052174D01*
X0140034Y0051026D01*
X0139595Y0049966D01*
X0138784Y0049155D01*
X0137724Y0048716D01*
X0136576Y0048716D01*
X0135516Y0049155D01*
X0135112Y0049559D01*
X0135112Y0049134D01*
X0134409Y0048431D01*
X0129084Y0048431D01*
X0128400Y0049116D01*
X0127716Y0048431D01*
X0122391Y0048431D01*
X0121688Y0049134D01*
X0121688Y0054066D01*
X0122391Y0054768D01*
X0122525Y0054768D01*
X0122525Y0058504D01*
X0122095Y0057466D01*
X0121284Y0056655D01*
X0120224Y0056216D01*
X0119076Y0056216D01*
X0118016Y0056655D01*
X0117205Y0057466D01*
X0116766Y0058526D01*
X0116766Y0059674D01*
X0117205Y0060734D01*
X0118016Y0061545D01*
X0119076Y0061984D01*
X0119966Y0061984D01*
X0119966Y0063874D01*
X0119881Y0063959D01*
X0119881Y0070453D01*
X0120584Y0071156D01*
X0122948Y0071156D01*
X0123046Y0071059D01*
X0123143Y0071156D01*
X0125507Y0071156D01*
X0125605Y0071059D01*
X0125702Y0071156D01*
X0127548Y0071156D01*
X0126404Y0072300D01*
X0121646Y0072300D01*
X0116450Y0067104D01*
X0116450Y0048596D01*
X0121046Y0044000D01*
X0121701Y0044000D01*
X0122135Y0044434D01*
X0125610Y0044434D01*
X0126313Y0043731D01*
X0126313Y0042081D01*
X0131410Y0036984D01*
X0131474Y0036984D01*
X0132534Y0036545D01*
X0133345Y0035734D01*
X0133784Y0034674D01*
X0133784Y0033526D01*
X0133345Y0032466D01*
X0132534Y0031655D01*
X0131474Y0031216D01*
X0130326Y0031216D01*
X0129266Y0031655D01*
X0128455Y0032466D01*
X0128016Y0033526D01*
X0128016Y0033590D01*
X0122840Y0038766D01*
X0122135Y0038766D01*
X0121798Y0039104D01*
X0116359Y0033665D01*
X0116200Y0033599D01*
X0116200Y0032803D01*
X0115497Y0032100D01*
X0105703Y0032100D01*
X0105000Y0032803D01*
X0105000Y0038597D01*
X0105703Y0039300D01*
X0115206Y0039300D01*
X0117930Y0042024D01*
X0112850Y0047104D01*
X0112850Y0068596D01*
X0113904Y0069650D01*
X0120154Y0075900D01*
X0126404Y0075900D01*
X0126600Y0076096D01*
X0126600Y0079846D01*
X0127654Y0080900D01*
X0138480Y0091725D01*
X0138377Y0091753D01*
X0138012Y0091963D01*
X0137932Y0092044D01*
X0135938Y0092044D01*
X0135841Y0092141D01*
X0135744Y0092044D01*
X0133379Y0092044D01*
X0133282Y0092141D01*
X0133184Y0092044D01*
X0131191Y0092044D01*
X0131111Y0091963D01*
X0130746Y0091753D01*
X0130339Y0091644D01*
X0129443Y0091644D01*
X0129443Y0095994D01*
X0129443Y0100344D01*
X0128548Y0100344D01*
X0128141Y0100235D01*
X0127776Y0100024D01*
X0127696Y0099944D01*
X0125702Y0099944D01*
X0125605Y0099846D01*
X0125507Y0099944D01*
X0123143Y0099944D01*
X0123046Y0099846D01*
X0122948Y0099944D01*
X0120584Y0099944D01*
X0119881Y0099241D01*
X0119881Y0092747D01*
X0120584Y0092044D01*
X0122948Y0092044D01*
X0123046Y0092141D01*
X0123143Y0092044D01*
X0125507Y0092044D01*
X0125605Y0092141D01*
X0125702Y0092044D01*
X0127696Y0092044D01*
X0127776Y0091963D01*
X0128141Y0091753D01*
X0128548Y0091644D01*
X0129443Y0091644D01*
X0129443Y0095994D01*
X0129443Y0095994D01*
X0129443Y0100344D01*
X0130339Y0100344D01*
X0130746Y0100235D01*
X0131111Y0100024D01*
X0131191Y0099944D01*
X0132511Y0099944D01*
X0131404Y0101050D01*
X0121404Y0101050D01*
X0117654Y0104800D01*
X0116600Y0105854D01*
X0116600Y0114846D01*
X0119100Y0117346D01*
X0120154Y0118400D01*
X0121688Y0118400D01*
X0121688Y0119066D01*
X0122391Y0119768D01*
X0127716Y0119768D01*
X0128400Y0119084D01*
X0129084Y0119768D01*
X0134409Y0119768D01*
X0135112Y0119066D01*
X0135112Y0118400D01*
X0138932Y0118400D01*
X0138932Y0121103D01*
X0139635Y0121806D01*
X0145354Y0121806D01*
X0146057Y0121103D01*
X0146057Y0114597D01*
X0145354Y0113894D01*
X0139635Y0113894D01*
X0138932Y0114597D01*
X0138932Y0114800D01*
X0135112Y0114800D01*
X0135112Y0114134D01*
X0134452Y0113475D01*
X0135112Y0112816D01*
X0135112Y0112150D01*
X0138932Y0112150D01*
X0138932Y0112353D01*
X0139635Y0113056D01*
X0145354Y0113056D01*
X0146057Y0112353D01*
X0146057Y0105847D01*
X0145354Y0105144D01*
X0139635Y0105144D01*
X0138932Y0105847D01*
X0138932Y0108550D01*
X0135112Y0108550D01*
X0135112Y0107884D01*
X0134409Y0107181D01*
X0130768Y0107181D01*
X0130799Y0107150D01*
X0134146Y0107150D01*
X0135200Y0106096D01*
X0138920Y0102375D01*
X0138920Y0100344D01*
X0139679Y0100344D01*
X0139679Y0095994D01*
X0139680Y0095994D01*
X0139680Y0100344D01*
X0140350Y0100344D01*
X0140350Y0101096D01*
X0141404Y0102150D01*
X0142654Y0103400D01*
X0146404Y0103400D01*
X0150743Y0107739D01*
X0150743Y0112353D01*
X0151446Y0113056D01*
X0152506Y0113056D01*
X0152506Y0113894D01*
X0151446Y0113894D01*
X0150743Y0114597D01*
X0150743Y0121103D01*
X0151446Y0121806D01*
X0157165Y0121806D01*
X0157868Y0121103D01*
X0157868Y0114597D01*
X0157165Y0113894D01*
X0156105Y0113894D01*
X0156105Y0113056D01*
X0157165Y0113056D01*
X0157868Y0112353D01*
X0157868Y0110900D01*
X0160799Y0110900D01*
X0161102Y0110597D01*
X0162850Y0112346D01*
X0163904Y0113400D01*
X0171818Y0113400D01*
X0171766Y0113526D01*
X0171766Y0114674D01*
X0172205Y0115734D01*
X0173016Y0116545D01*
X0174076Y0116984D01*
X0175224Y0116984D01*
X0176284Y0116545D01*
X0176929Y0115900D01*
X0177180Y0115900D01*
X0177180Y0115975D01*
X0177883Y0116678D01*
X0181633Y0116678D01*
X0182336Y0115975D01*
X0182336Y0112225D01*
X0181953Y0111842D01*
X0187777Y0106018D01*
X0189409Y0106018D01*
X0190112Y0105316D01*
X0190112Y0100384D01*
X0189452Y0099725D01*
X0190112Y0099066D01*
X0190112Y0094134D01*
X0189409Y0093431D01*
X0187759Y0093431D01*
X0187759Y0092820D01*
X0187834Y0092820D01*
X0188504Y0092150D01*
X0189871Y0092150D01*
X0190516Y0092795D01*
X0191576Y0093234D01*
X0192724Y0093234D01*
X0193784Y0092795D01*
X0194595Y0091984D01*
X0195034Y0090924D01*
X0195034Y0089776D01*
X0194595Y0088716D01*
X0193784Y0087905D01*
X0192724Y0087466D01*
X0191576Y0087466D01*
X0190516Y0087905D01*
X0189871Y0088550D01*
X0188537Y0088550D01*
X0188537Y0088367D01*
X0187834Y0087664D01*
X0184084Y0087664D01*
X0183634Y0088114D01*
X0183499Y0087881D01*
X0183201Y0087583D01*
X0182836Y0087373D01*
X0182430Y0087264D01*
X0180930Y0087264D01*
X0180930Y0090153D01*
X0180752Y0090153D01*
X0177863Y0090153D01*
X0177863Y0088653D01*
X0177972Y0088246D01*
X0178183Y0087881D01*
X0178481Y0087583D01*
X0178845Y0087373D01*
X0179252Y0087264D01*
X0180752Y0087264D01*
X0180752Y0090153D01*
X0180752Y0090331D01*
X0177863Y0090331D01*
X0177863Y0091830D01*
X0177972Y0092237D01*
X0178183Y0092602D01*
X0178481Y0092900D01*
X0178708Y0093031D01*
X0177678Y0093031D01*
X0177271Y0093141D01*
X0176906Y0093351D01*
X0176608Y0093649D01*
X0176397Y0094014D01*
X0176288Y0094421D01*
X0176288Y0096216D01*
X0179669Y0096216D01*
X0179669Y0096984D01*
X0176288Y0096984D01*
X0176288Y0098779D01*
X0176397Y0099186D01*
X0176608Y0099551D01*
X0176906Y0099849D01*
X0177107Y0099965D01*
X0176688Y0100384D01*
X0176688Y0103670D01*
X0172850Y0107508D01*
X0172850Y0108354D01*
X0172612Y0108593D01*
X0172612Y0104134D01*
X0171909Y0103431D01*
X0171450Y0103431D01*
X0171450Y0092346D01*
X0179037Y0084758D01*
X0180822Y0084758D01*
X0180822Y0084833D01*
X0181525Y0085536D01*
X0185275Y0085536D01*
X0185978Y0084833D01*
X0185978Y0084758D01*
X0206513Y0084758D01*
X0206700Y0084946D01*
X0206700Y0088340D01*
X0209160Y0090800D01*
X0212640Y0090800D01*
X0214100Y0089340D01*
X0214100Y0093860D01*
X0212640Y0092400D01*
X0209160Y0092400D01*
X0206700Y0094860D01*
X0206700Y0098340D01*
X0209160Y0100800D01*
X0212640Y0100800D01*
X0214100Y0099340D01*
X0214100Y0103860D01*
X0212640Y0102400D01*
X0209160Y0102400D01*
X0206700Y0104860D01*
X0206700Y0108254D01*
X0205213Y0109741D01*
X0189620Y0109741D01*
X0189620Y0109666D01*
X0188917Y0108963D01*
X0185167Y0108963D01*
X0184464Y0109666D01*
X0184464Y0113416D01*
X0184914Y0113866D01*
X0184681Y0114001D01*
X0184383Y0114299D01*
X0184173Y0114664D01*
X0184064Y0115070D01*
X0184064Y0116570D01*
X0186953Y0116570D01*
X0186953Y0116748D01*
X0186953Y0119637D01*
X0185453Y0119637D01*
X0185046Y0119528D01*
X0184681Y0119317D01*
X0184383Y0119019D01*
X0184173Y0118655D01*
X0184064Y0118248D01*
X0184064Y0116748D01*
X0186953Y0116748D01*
X0187131Y0116748D01*
X0190020Y0116748D01*
X0190020Y0118248D01*
X0189911Y0118655D01*
X0189700Y0119019D01*
X0189402Y0119317D01*
X0189037Y0119528D01*
X0188630Y0119637D01*
X0187131Y0119637D01*
X0187131Y0116748D01*
X0187131Y0116570D01*
X0190020Y0116570D01*
X0190020Y0115070D01*
X0189911Y0114664D01*
X0189700Y0114299D01*
X0189402Y0114001D01*
X0189169Y0113866D01*
X0189620Y0113416D01*
X0189620Y0113341D01*
X0206705Y0113341D01*
X0209246Y0110800D01*
X0212640Y0110800D01*
X0214100Y0109340D01*
X0214100Y0112346D01*
X0216700Y0114946D01*
X0216700Y0118340D01*
X0219160Y0120800D01*
X0222640Y0120800D01*
X0225040Y0118400D01*
X0231021Y0118400D01*
X0236646Y0112775D01*
X0237700Y0111721D01*
X0237700Y0103354D01*
X0232814Y0098469D01*
X0240350Y0104928D01*
X0240350Y0108596D01*
X0246700Y0114946D01*
X0246700Y0118340D01*
X0249160Y0120800D01*
X0252640Y0120800D01*
X0255100Y0118340D01*
X0255100Y0114860D01*
X0252640Y0112400D01*
X0249246Y0112400D01*
X0243950Y0107104D01*
X0243950Y0104766D01*
X0244002Y0104705D01*
X0243950Y0104031D01*
X0243950Y0103354D01*
X0243894Y0103298D01*
X0243887Y0103219D01*
X0243374Y0102778D01*
X0242896Y0102300D01*
X0242816Y0102300D01*
X0235200Y0095772D01*
X0235200Y0092821D01*
X0235516Y0093136D01*
X0235516Y0094049D01*
X0235955Y0095109D01*
X0236766Y0095920D01*
X0237826Y0096359D01*
X0238974Y0096359D01*
X0240034Y0095920D01*
X0240845Y0095109D01*
X0241284Y0094049D01*
X0241284Y0092901D01*
X0240845Y0091841D01*
X0240034Y0091030D01*
X0238974Y0090591D01*
X0238061Y0090591D01*
X0237700Y0090229D01*
X0237700Y0038596D01*
X0242896Y0033400D01*
X0248771Y0033400D01*
X0248455Y0033716D01*
X0248016Y0034776D01*
X0248016Y0035924D01*
X0248455Y0036984D01*
X0249266Y0037795D01*
X0250326Y0038234D01*
X0251474Y0038234D01*
X0252534Y0037795D01*
X0253179Y0037150D01*
X0253904Y0037150D01*
X0254073Y0037319D01*
X0253973Y0037319D01*
X0251856Y0039436D01*
X0251856Y0039511D01*
X0251781Y0039511D01*
X0249664Y0041628D01*
X0249664Y0041773D01*
X0249518Y0041773D01*
X0247506Y0043785D01*
X0243784Y0040064D01*
X0243784Y0039151D01*
X0243345Y0038091D01*
X0242534Y0037280D01*
X0241474Y0036841D01*
X0240326Y0036841D01*
X0239266Y0037280D01*
X0238455Y0038091D01*
X0238016Y0039151D01*
X0238016Y0040299D01*
X0238455Y0041359D01*
X0239266Y0042170D01*
X0240326Y0042609D01*
X0241239Y0042609D01*
X0245209Y0046580D01*
X0245209Y0047077D01*
X0249732Y0051600D01*
X0245209Y0056123D01*
X0245209Y0056620D01*
X0244364Y0057466D01*
X0243451Y0057466D01*
X0242391Y0057905D01*
X0241580Y0058716D01*
X0241141Y0059776D01*
X0241141Y0060924D01*
X0241580Y0061984D01*
X0242391Y0062795D01*
X0243451Y0063234D01*
X0244599Y0063234D01*
X0245603Y0062818D01*
X0245330Y0063091D01*
X0244891Y0064151D01*
X0244891Y0065299D01*
X0245330Y0066359D01*
X0246141Y0067170D01*
X0247201Y0067609D01*
X0248349Y0067609D01*
X0249409Y0067170D01*
X0250220Y0066359D01*
X0250659Y0065299D01*
X0250659Y0064151D01*
X0250220Y0063091D01*
X0249575Y0062446D01*
X0249575Y0061721D01*
X0249694Y0061602D01*
X0251456Y0063364D01*
X0251456Y0063478D01*
X0251565Y0063885D01*
X0251775Y0064250D01*
X0252631Y0065106D01*
X0255813Y0061924D01*
X0255813Y0061924D01*
X0252632Y0065106D01*
X0253488Y0065962D01*
X0253657Y0066060D01*
X0246600Y0073117D01*
X0246600Y0077388D01*
X0245934Y0077388D01*
X0245231Y0078091D01*
X0245231Y0083416D01*
X0245682Y0083866D01*
X0245449Y0084001D01*
X0245151Y0084299D01*
X0244941Y0084664D01*
X0244831Y0085070D01*
X0244831Y0087062D01*
X0248016Y0087062D01*
X0248016Y0087831D01*
X0248016Y0091212D01*
X0246221Y0091212D01*
X0245814Y0091103D01*
X0245449Y0090892D01*
X0245151Y0090594D01*
X0244941Y0090229D01*
X0244831Y0089822D01*
X0244831Y0087831D01*
X0248016Y0087831D01*
X0248784Y0087831D01*
X0248784Y0091212D01*
X0250579Y0091212D01*
X0250986Y0091103D01*
X0251351Y0090892D01*
X0251649Y0090594D01*
X0251859Y0090229D01*
X0251968Y0089822D01*
X0251968Y0087831D01*
X0248784Y0087831D01*
X0248784Y0087062D01*
X0251968Y0087062D01*
X0251968Y0085070D01*
X0251859Y0084664D01*
X0251649Y0084299D01*
X0251351Y0084001D01*
X0251118Y0083866D01*
X0251568Y0083416D01*
X0251568Y0078091D01*
X0250866Y0077388D01*
X0250200Y0077388D01*
X0250200Y0074608D01*
X0256450Y0068358D01*
X0258398Y0070306D01*
X0256404Y0072300D01*
X0255350Y0073354D01*
X0255350Y0096216D01*
X0255326Y0096216D01*
X0254266Y0096655D01*
X0253455Y0097466D01*
X0253016Y0098526D01*
X0253016Y0099674D01*
X0253455Y0100734D01*
X0254266Y0101545D01*
X0255326Y0101984D01*
X0255470Y0101984D01*
X0254130Y0103325D01*
X0252805Y0102000D01*
X0251300Y0102000D01*
X0251300Y0106200D01*
X0250500Y0106200D01*
X0250500Y0102000D01*
X0248995Y0102000D01*
X0246300Y0104695D01*
X0246300Y0106200D01*
X0250500Y0106200D01*
X0250500Y0107000D01*
X0250500Y0111200D01*
X0248995Y0111200D01*
X0246300Y0108505D01*
X0246300Y0107000D01*
X0250500Y0107000D01*
X0251300Y0107000D01*
X0251300Y0111200D01*
X0252805Y0111200D01*
X0254130Y0109875D01*
X0255154Y0110900D01*
X0255154Y0110900D01*
X0257907Y0113653D01*
X0256700Y0114860D01*
X0256700Y0118340D01*
X0259160Y0120800D01*
X0262640Y0120800D01*
X0264100Y0119340D01*
X0264100Y0119846D01*
X0266600Y0122346D01*
X0267654Y0123400D01*
X0274146Y0123400D01*
X0281646Y0115900D01*
X0282700Y0114846D01*
X0282700Y0074527D01*
X0281646Y0073472D01*
X0281646Y0073472D01*
X0278441Y0070268D01*
X0280489Y0068219D01*
X0280489Y0068144D01*
X0280564Y0068144D01*
X0282681Y0066027D01*
X0282681Y0065927D01*
X0282850Y0066096D01*
X0282850Y0096721D01*
X0290516Y0104386D01*
X0290516Y0105299D01*
X0290955Y0106359D01*
X0291766Y0107170D01*
X0292826Y0107609D01*
X0293974Y0107609D01*
X0295034Y0107170D01*
X0295845Y0106359D01*
X0296284Y0105299D01*
X0296284Y0104151D01*
X0295845Y0103091D01*
X0295291Y0102537D01*
X0295845Y0101984D01*
X0296284Y0100924D01*
X0296284Y0099776D01*
X0295845Y0098716D01*
X0295034Y0097905D01*
X0294901Y0097850D01*
X0295034Y0097795D01*
X0295845Y0096984D01*
X0296284Y0095924D01*
X0296284Y0094776D01*
X0295845Y0093716D01*
X0295034Y0092905D01*
X0294901Y0092850D01*
X0295034Y0092795D01*
X0295845Y0091984D01*
X0296284Y0090924D01*
X0296284Y0089776D01*
X0295845Y0088716D01*
X0295034Y0087905D01*
X0293974Y0087466D01*
X0293950Y0087466D01*
X0293950Y0059604D01*
X0292896Y0058550D01*
X0291527Y0057181D01*
X0291591Y0057117D01*
X0291591Y0056123D01*
X0287068Y0051600D01*
X0287916Y0050751D01*
X0315565Y0078400D01*
X0331829Y0078400D01*
X0332127Y0079121D01*
X0333379Y0080373D01*
X0335015Y0081050D01*
X0336785Y0081050D01*
X0338421Y0080373D01*
X0339673Y0079121D01*
X0339971Y0078400D01*
X0346481Y0078400D01*
X0346481Y0078859D01*
X0347184Y0079562D01*
X0352116Y0079562D01*
X0352818Y0078859D01*
X0352818Y0073534D01*
X0352368Y0073084D01*
X0352601Y0072949D01*
X0352899Y0072651D01*
X0353109Y0072286D01*
X0353218Y0071880D01*
X0353218Y0069888D01*
X0350034Y0069888D01*
X0350034Y0069119D01*
X0350034Y0064081D01*
X0349266Y0064081D01*
X0349266Y0067462D01*
X0349266Y0069119D01*
X0350034Y0069119D01*
X0353218Y0069119D01*
X0353218Y0067128D01*
X0353109Y0066721D01*
X0353040Y0066600D01*
X0353109Y0066479D01*
X0353218Y0066072D01*
X0353218Y0064081D01*
X0350034Y0064081D01*
X0350034Y0063312D01*
X0353218Y0063312D01*
X0353218Y0061320D01*
X0353109Y0060914D01*
X0352899Y0060549D01*
X0352601Y0060251D01*
X0352368Y0060116D01*
X0352818Y0059666D01*
X0352818Y0054341D01*
X0352116Y0053638D01*
X0347184Y0053638D01*
X0346481Y0054341D01*
X0346481Y0054800D01*
X0339971Y0054800D01*
X0339673Y0054079D01*
X0338421Y0052827D01*
X0336785Y0052150D01*
X0335015Y0052150D01*
X0333379Y0052827D01*
X0332127Y0054079D01*
X0331829Y0054800D01*
X0307896Y0054800D01*
X0295200Y0042104D01*
X0294146Y0041050D01*
X0287746Y0041050D01*
X0291535Y0037261D01*
X0291563Y0037310D01*
X0292971Y0038718D01*
X0295223Y0036466D01*
X0295766Y0037010D01*
X0293515Y0039261D01*
X0294923Y0040670D01*
X0295288Y0040880D01*
X0295695Y0040989D01*
X0296116Y0040989D01*
X0296523Y0040880D01*
X0296888Y0040670D01*
X0298157Y0039400D01*
X0295766Y0037010D01*
X0296310Y0036466D01*
X0298561Y0034215D01*
X0299970Y0035623D01*
X0300180Y0035988D01*
X0300289Y0036395D01*
X0300289Y0036816D01*
X0300180Y0037223D01*
X0299970Y0037588D01*
X0298700Y0038857D01*
X0296310Y0036466D01*
X0295766Y0035923D01*
X0298018Y0033671D01*
X0296610Y0032263D01*
X0296245Y0032052D01*
X0295838Y0031943D01*
X0295416Y0031943D01*
X0295157Y0032013D01*
X0295157Y0031376D01*
X0294547Y0030766D01*
X0299413Y0025900D01*
X0306450Y0025900D01*
X0306450Y0027847D01*
X0307153Y0028550D01*
X0314647Y0028550D01*
X0315350Y0027847D01*
X0315350Y0020353D01*
X0314647Y0019650D01*
X0307153Y0019650D01*
X0306450Y0020353D01*
X0306450Y0022300D01*
X0297922Y0022300D01*
X0292001Y0028220D01*
X0291392Y0027611D01*
X0290397Y0027611D01*
X0289458Y0028550D01*
X0288371Y0028550D01*
X0299771Y0017150D01*
X0497896Y0017150D01*
X0504146Y0010900D01*
X0506721Y0010900D01*
X0506620Y0010958D01*
X0506322Y0011256D01*
X0506112Y0011621D01*
X0506002Y0012028D01*
X0506002Y0013823D01*
X0509384Y0013823D01*
X0509384Y0014591D01*
X0506002Y0014591D01*
X0506002Y0016386D01*
X0506112Y0016793D01*
X0506322Y0017158D01*
X0506620Y0017456D01*
X0506985Y0017667D01*
X0507392Y0017776D01*
X0509384Y0017776D01*
X0509384Y0014592D01*
X0510152Y0014592D01*
X0510152Y0017776D01*
X0512144Y0017776D01*
X0512551Y0017667D01*
X0512916Y0017456D01*
X0513213Y0017158D01*
X0513348Y0016925D01*
X0513798Y0017376D01*
X0519123Y0017376D01*
X0519826Y0016673D01*
X0519826Y0016365D01*
X0523932Y0016791D01*
X0523932Y0018603D01*
X0524635Y0019306D01*
X0530354Y0019306D01*
X0531057Y0018603D01*
X0531057Y0012097D01*
X0530354Y0011394D01*
X0524635Y0011394D01*
X0523932Y0012097D01*
X0523932Y0013171D01*
X0519826Y0012746D01*
X0519826Y0011742D01*
X0519123Y0011039D01*
X0513798Y0011039D01*
X0513348Y0011489D01*
X0513213Y0011256D01*
X0512916Y0010958D01*
X0512814Y0010900D01*
X0532310Y0010900D01*
X0535743Y0014333D01*
X0535743Y0018603D01*
X0536446Y0019306D01*
X0542165Y0019306D01*
X0542868Y0018603D01*
X0542868Y0012097D01*
X0542165Y0011394D01*
X0537895Y0011394D01*
X0551221Y0011394D01*
X0551221Y0010196D02*
X0536697Y0010196D01*
X0537895Y0011394D02*
X0533801Y0007300D01*
X0502654Y0007300D01*
X0501600Y0008354D01*
X0496404Y0013550D01*
X0298279Y0013550D01*
X0292700Y0019129D01*
X0292700Y0018400D01*
X0293279Y0018161D01*
X0294461Y0016979D01*
X0295100Y0015435D01*
X0295100Y0007765D01*
X0294461Y0006221D01*
X0294440Y0006200D01*
X0551221Y0006200D01*
X0551221Y0024624D01*
X0550845Y0023716D01*
X0550034Y0022905D01*
X0548974Y0022466D01*
X0547826Y0022466D01*
X0546766Y0022905D01*
X0546121Y0023550D01*
X0542868Y0023550D01*
X0542868Y0023347D01*
X0542165Y0022644D01*
X0536446Y0022644D01*
X0535743Y0023347D01*
X0535743Y0029853D01*
X0536446Y0030556D01*
X0542165Y0030556D01*
X0542868Y0029853D01*
X0542868Y0027150D01*
X0546121Y0027150D01*
X0546766Y0027795D01*
X0547826Y0028234D01*
X0548974Y0028234D01*
X0550034Y0027795D01*
X0550845Y0026984D01*
X0551221Y0026076D01*
X0551221Y0033374D01*
X0550845Y0032466D01*
X0550034Y0031655D01*
X0548974Y0031216D01*
X0547826Y0031216D01*
X0546766Y0031655D01*
X0546121Y0032300D01*
X0542310Y0032300D01*
X0540716Y0033894D01*
X0536446Y0033894D01*
X0535743Y0034597D01*
X0535743Y0041103D01*
X0536446Y0041806D01*
X0542165Y0041806D01*
X0542868Y0041103D01*
X0542868Y0036833D01*
X0543801Y0035900D01*
X0546121Y0035900D01*
X0546766Y0036545D01*
X0547826Y0036984D01*
X0548974Y0036984D01*
X0550034Y0036545D01*
X0550845Y0035734D01*
X0551221Y0034826D01*
X0551221Y0044624D01*
X0550845Y0043716D01*
X0550034Y0042905D01*
X0548974Y0042466D01*
X0547826Y0042466D01*
X0546766Y0042905D01*
X0546121Y0043550D01*
X0542310Y0043550D01*
X0540716Y0045144D01*
X0536446Y0045144D01*
X0535743Y0045847D01*
X0535743Y0052353D01*
X0536446Y0053056D01*
X0542165Y0053056D01*
X0542868Y0052353D01*
X0542868Y0048083D01*
X0543801Y0047150D01*
X0546121Y0047150D01*
X0546766Y0047795D01*
X0547826Y0048234D01*
X0548974Y0048234D01*
X0550034Y0047795D01*
X0550845Y0046984D01*
X0551221Y0046076D01*
X0551221Y0124451D01*
X0379689Y0124451D01*
X0379689Y0121984D01*
X0378986Y0121281D01*
X0374055Y0121281D01*
X0373352Y0121984D01*
X0373352Y0124451D01*
X0350948Y0124451D01*
X0350948Y0121984D01*
X0350245Y0121281D01*
X0345314Y0121281D01*
X0344611Y0121984D01*
X0344611Y0124451D01*
X0338439Y0124451D01*
X0338439Y0121984D01*
X0337736Y0121281D01*
X0332805Y0121281D01*
X0332102Y0121984D01*
X0332102Y0124451D01*
X0309698Y0124451D01*
X0309698Y0121984D01*
X0308995Y0121281D01*
X0304064Y0121281D01*
X0303361Y0121984D01*
X0303361Y0124451D01*
X0015500Y0124451D01*
X0015500Y0124054D02*
X0303361Y0124054D01*
X0303361Y0122856D02*
X0274690Y0122856D01*
X0275888Y0121657D02*
X0303688Y0121657D01*
X0309372Y0121657D02*
X0311604Y0121657D01*
X0311712Y0121918D02*
X0311123Y0120495D01*
X0311123Y0118955D01*
X0311712Y0117532D01*
X0312256Y0116988D01*
X0310167Y0116988D01*
X0309698Y0116520D01*
X0309698Y0117466D01*
X0308995Y0118169D01*
X0304064Y0118169D01*
X0303361Y0117466D01*
X0303361Y0113322D01*
X0304064Y0112619D01*
X0308124Y0112619D01*
X0307654Y0112150D01*
X0303904Y0112150D01*
X0301404Y0109650D01*
X0300350Y0108596D01*
X0300350Y0089604D01*
X0303475Y0086479D01*
X0304529Y0085425D01*
X0363279Y0085425D01*
X0371600Y0077104D01*
X0371600Y0030854D01*
X0374838Y0027617D01*
X0374838Y0023741D01*
X0375541Y0023038D01*
X0379417Y0023038D01*
X0382850Y0019604D01*
X0383904Y0018550D01*
X0497896Y0018550D01*
X0501646Y0022300D01*
X0502700Y0023354D01*
X0502700Y0068354D01*
X0509146Y0074800D01*
X0523932Y0074800D01*
X0523932Y0073347D01*
X0524635Y0072644D01*
X0530354Y0072644D01*
X0531057Y0073347D01*
X0531057Y0079853D01*
X0530354Y0080556D01*
X0524635Y0080556D01*
X0523932Y0079853D01*
X0523932Y0078400D01*
X0507654Y0078400D01*
X0506600Y0077346D01*
X0499100Y0069846D01*
X0499100Y0024846D01*
X0496404Y0022150D01*
X0385396Y0022150D01*
X0381962Y0025583D01*
X0381962Y0029459D01*
X0381259Y0030162D01*
X0377383Y0030162D01*
X0375200Y0032346D01*
X0375200Y0078596D01*
X0374146Y0079650D01*
X0364771Y0089025D01*
X0343521Y0089025D01*
X0338950Y0093596D01*
X0338950Y0105854D01*
X0341646Y0108550D01*
X0351021Y0108550D01*
X0351285Y0108814D01*
X0351417Y0108682D01*
X0355167Y0108682D01*
X0355870Y0109385D01*
X0355870Y0115853D01*
X0356619Y0115853D01*
X0356619Y0109385D01*
X0357225Y0108780D01*
X0357225Y0107629D01*
X0356580Y0106984D01*
X0356141Y0105924D01*
X0356141Y0105496D01*
X0347818Y0105496D01*
X0347818Y0106359D01*
X0347116Y0107062D01*
X0342184Y0107062D01*
X0341481Y0106359D01*
X0341481Y0101034D01*
X0341932Y0100584D01*
X0341699Y0100449D01*
X0341401Y0100151D01*
X0341191Y0099786D01*
X0341081Y0099380D01*
X0341081Y0097388D01*
X0344266Y0097388D01*
X0344266Y0096619D01*
X0345034Y0096619D01*
X0345034Y0093238D01*
X0346829Y0093238D01*
X0347236Y0093347D01*
X0347601Y0093558D01*
X0347899Y0093856D01*
X0348109Y0094221D01*
X0348218Y0094628D01*
X0348218Y0096619D01*
X0345034Y0096619D01*
X0345034Y0097388D01*
X0348218Y0097388D01*
X0348218Y0099380D01*
X0348109Y0099786D01*
X0347899Y0100151D01*
X0347601Y0100449D01*
X0347368Y0100584D01*
X0347818Y0101034D01*
X0347818Y0101896D01*
X0358117Y0101896D01*
X0358686Y0102466D01*
X0359599Y0102466D01*
X0360659Y0102905D01*
X0361470Y0103716D01*
X0361909Y0104776D01*
X0361909Y0105924D01*
X0361470Y0106984D01*
X0360825Y0107629D01*
X0360825Y0108682D01*
X0361072Y0108682D01*
X0361775Y0109385D01*
X0361775Y0116285D01*
X0361072Y0116988D01*
X0358983Y0116988D01*
X0359527Y0117532D01*
X0360116Y0118955D01*
X0360116Y0120495D01*
X0359527Y0121918D01*
X0358438Y0123007D01*
X0357015Y0123597D01*
X0355474Y0123597D01*
X0354051Y0123007D01*
X0352962Y0121918D01*
X0352373Y0120495D01*
X0352373Y0118955D01*
X0352962Y0117532D01*
X0353506Y0116988D01*
X0351417Y0116988D01*
X0350948Y0116520D01*
X0350948Y0117466D01*
X0350245Y0118169D01*
X0345314Y0118169D01*
X0344611Y0117466D01*
X0344611Y0113322D01*
X0345314Y0112619D01*
X0349999Y0112619D01*
X0349529Y0112150D01*
X0340154Y0112150D01*
X0336404Y0108400D01*
X0335350Y0107346D01*
X0335350Y0092104D01*
X0338429Y0089025D01*
X0306021Y0089025D01*
X0303950Y0091096D01*
X0303950Y0107104D01*
X0305396Y0108550D01*
X0309146Y0108550D01*
X0309722Y0109127D01*
X0310167Y0108682D01*
X0313917Y0108682D01*
X0314620Y0109385D01*
X0314620Y0115853D01*
X0315369Y0115853D01*
X0315369Y0109385D01*
X0315975Y0108780D01*
X0315975Y0106379D01*
X0315330Y0105734D01*
X0314973Y0104871D01*
X0312193Y0104871D01*
X0312193Y0105734D01*
X0311491Y0106437D01*
X0306559Y0106437D01*
X0305856Y0105734D01*
X0305856Y0100409D01*
X0306307Y0099959D01*
X0306074Y0099824D01*
X0305776Y0099526D01*
X0305566Y0099161D01*
X0305456Y0098755D01*
X0305456Y0096763D01*
X0308641Y0096763D01*
X0308641Y0095994D01*
X0309409Y0095994D01*
X0309409Y0092613D01*
X0311204Y0092613D01*
X0311611Y0092722D01*
X0311976Y0092933D01*
X0312274Y0093231D01*
X0312484Y0093596D01*
X0312593Y0094003D01*
X0312593Y0095994D01*
X0309409Y0095994D01*
X0309409Y0096763D01*
X0312593Y0096763D01*
X0312593Y0098755D01*
X0312484Y0099161D01*
X0312274Y0099526D01*
X0311976Y0099824D01*
X0311743Y0099959D01*
X0312193Y0100409D01*
X0312193Y0101271D01*
X0317067Y0101271D01*
X0317201Y0101216D01*
X0318349Y0101216D01*
X0319409Y0101655D01*
X0320220Y0102466D01*
X0320659Y0103526D01*
X0320659Y0104674D01*
X0320220Y0105734D01*
X0319575Y0106379D01*
X0319575Y0108682D01*
X0319822Y0108682D01*
X0320525Y0109385D01*
X0320525Y0116285D01*
X0319822Y0116988D01*
X0317733Y0116988D01*
X0318277Y0117532D01*
X0318866Y0118955D01*
X0318866Y0120495D01*
X0318277Y0121918D01*
X0317188Y0123007D01*
X0315765Y0123597D01*
X0314224Y0123597D01*
X0312801Y0123007D01*
X0311712Y0121918D01*
X0312650Y0122856D02*
X0309698Y0122856D01*
X0309698Y0124054D02*
X0332102Y0124054D01*
X0332102Y0122856D02*
X0329150Y0122856D01*
X0328999Y0123007D02*
X0327576Y0123597D01*
X0326035Y0123597D01*
X0324612Y0123007D01*
X0323523Y0121918D01*
X0322934Y0120495D01*
X0322934Y0118955D01*
X0323523Y0117532D01*
X0324612Y0116443D01*
X0326035Y0115853D01*
X0327180Y0115853D01*
X0327180Y0109385D01*
X0327883Y0108682D01*
X0331633Y0108682D01*
X0332336Y0109385D01*
X0332336Y0113088D01*
X0332805Y0112619D01*
X0337736Y0112619D01*
X0338439Y0113322D01*
X0338439Y0117466D01*
X0337736Y0118169D01*
X0332805Y0118169D01*
X0332102Y0117466D01*
X0332102Y0116520D01*
X0331633Y0116988D01*
X0329544Y0116988D01*
X0330088Y0117532D01*
X0330677Y0118955D01*
X0330677Y0120495D01*
X0330088Y0121918D01*
X0328999Y0123007D01*
X0330196Y0121657D02*
X0332428Y0121657D01*
X0330677Y0120459D02*
X0352373Y0120459D01*
X0352373Y0119260D02*
X0330677Y0119260D01*
X0330307Y0118062D02*
X0332697Y0118062D01*
X0332102Y0116863D02*
X0331758Y0116863D01*
X0327180Y0115665D02*
X0320525Y0115665D01*
X0320525Y0114466D02*
X0327180Y0114466D01*
X0327180Y0113268D02*
X0320525Y0113268D01*
X0320525Y0112069D02*
X0327180Y0112069D01*
X0327180Y0110870D02*
X0320525Y0110870D01*
X0320525Y0109672D02*
X0327180Y0109672D01*
X0332336Y0109672D02*
X0337676Y0109672D01*
X0336478Y0108473D02*
X0319575Y0108473D01*
X0319575Y0107275D02*
X0335350Y0107275D01*
X0335350Y0106076D02*
X0319877Y0106076D01*
X0320575Y0104878D02*
X0335350Y0104878D01*
X0335350Y0103679D02*
X0320659Y0103679D01*
X0320226Y0102481D02*
X0335350Y0102481D01*
X0335350Y0101282D02*
X0318510Y0101282D01*
X0312558Y0098885D02*
X0335350Y0098885D01*
X0335350Y0097687D02*
X0312593Y0097687D01*
X0311868Y0100084D02*
X0335350Y0100084D01*
X0338950Y0100084D02*
X0341362Y0100084D01*
X0341481Y0101282D02*
X0338950Y0101282D01*
X0338950Y0102481D02*
X0341481Y0102481D01*
X0341481Y0103679D02*
X0338950Y0103679D01*
X0338950Y0104878D02*
X0341481Y0104878D01*
X0341481Y0106076D02*
X0339172Y0106076D01*
X0340371Y0107275D02*
X0356871Y0107275D01*
X0357225Y0108473D02*
X0341569Y0108473D01*
X0340900Y0110350D02*
X0337150Y0106600D01*
X0337150Y0092850D01*
X0342775Y0087225D01*
X0364025Y0087225D01*
X0373400Y0077850D01*
X0373400Y0031600D01*
X0378400Y0026600D01*
X0384650Y0020350D01*
X0497150Y0020350D01*
X0500900Y0024100D01*
X0500900Y0069100D01*
X0508400Y0076600D01*
X0527494Y0076600D01*
X0531057Y0076114D02*
X0535743Y0076114D01*
X0535743Y0077312D02*
X0531057Y0077312D01*
X0531057Y0078511D02*
X0535743Y0078511D01*
X0535743Y0079709D02*
X0531057Y0079709D01*
X0535743Y0079853D02*
X0535743Y0073347D01*
X0536446Y0072644D01*
X0537506Y0072644D01*
X0537506Y0069905D01*
X0537369Y0069768D01*
X0534084Y0069768D01*
X0533634Y0069318D01*
X0533499Y0069551D01*
X0533201Y0069849D01*
X0532836Y0070059D01*
X0532430Y0070168D01*
X0530438Y0070168D01*
X0530438Y0066984D01*
X0529669Y0066984D01*
X0529669Y0066216D01*
X0526288Y0066216D01*
X0526288Y0064421D01*
X0526397Y0064014D01*
X0526608Y0063649D01*
X0526906Y0063351D01*
X0527271Y0063141D01*
X0527678Y0063031D01*
X0529669Y0063031D01*
X0529669Y0066216D01*
X0530438Y0066216D01*
X0530438Y0063031D01*
X0532430Y0063031D01*
X0532836Y0063141D01*
X0533201Y0063351D01*
X0533499Y0063649D01*
X0533634Y0063882D01*
X0534084Y0063431D01*
X0539409Y0063431D01*
X0540112Y0064134D01*
X0540112Y0067420D01*
X0541105Y0068413D01*
X0541105Y0072644D01*
X0542165Y0072644D01*
X0542868Y0073347D01*
X0542868Y0079853D01*
X0542165Y0080556D01*
X0536446Y0080556D01*
X0535743Y0079853D01*
X0542868Y0079709D02*
X0551221Y0079709D01*
X0551221Y0078511D02*
X0542868Y0078511D01*
X0542868Y0077312D02*
X0551221Y0077312D01*
X0551221Y0076114D02*
X0542868Y0076114D01*
X0542868Y0074915D02*
X0551221Y0074915D01*
X0551221Y0073717D02*
X0542868Y0073717D01*
X0541105Y0072518D02*
X0551221Y0072518D01*
X0551221Y0071320D02*
X0541105Y0071320D01*
X0541105Y0070121D02*
X0551221Y0070121D01*
X0551221Y0068923D02*
X0541105Y0068923D01*
X0540416Y0067724D02*
X0551221Y0067724D01*
X0551221Y0066526D02*
X0540112Y0066526D01*
X0540112Y0065327D02*
X0551221Y0065327D01*
X0551221Y0064129D02*
X0540106Y0064129D01*
X0536746Y0066600D02*
X0539306Y0069159D01*
X0539306Y0076600D01*
X0535743Y0074915D02*
X0531057Y0074915D01*
X0531057Y0073717D02*
X0535743Y0073717D01*
X0537506Y0072518D02*
X0506864Y0072518D01*
X0508062Y0073717D02*
X0523932Y0073717D01*
X0526906Y0069849D02*
X0526608Y0069551D01*
X0526397Y0069186D01*
X0526288Y0068779D01*
X0526288Y0066984D01*
X0529669Y0066984D01*
X0529669Y0070168D01*
X0527678Y0070168D01*
X0527271Y0070059D01*
X0526906Y0069849D01*
X0527501Y0070121D02*
X0504467Y0070121D01*
X0505665Y0071320D02*
X0537506Y0071320D01*
X0537506Y0070121D02*
X0532606Y0070121D01*
X0530438Y0070121D02*
X0529669Y0070121D01*
X0529669Y0068923D02*
X0530438Y0068923D01*
X0530438Y0067724D02*
X0529669Y0067724D01*
X0529669Y0066526D02*
X0502700Y0066526D01*
X0502700Y0067724D02*
X0526288Y0067724D01*
X0526327Y0068923D02*
X0503268Y0068923D01*
X0499376Y0070121D02*
X0375200Y0070121D01*
X0375200Y0068923D02*
X0499100Y0068923D01*
X0499100Y0067724D02*
X0375200Y0067724D01*
X0375200Y0066526D02*
X0499100Y0066526D01*
X0499100Y0065327D02*
X0375200Y0065327D01*
X0375200Y0064129D02*
X0499100Y0064129D01*
X0499100Y0062930D02*
X0375200Y0062930D01*
X0375200Y0061732D02*
X0499100Y0061732D01*
X0499100Y0060533D02*
X0375200Y0060533D01*
X0375200Y0059334D02*
X0479757Y0059334D01*
X0479817Y0059365D02*
X0479102Y0059001D01*
X0478452Y0058529D01*
X0477885Y0057961D01*
X0477413Y0057312D01*
X0477048Y0056596D01*
X0476800Y0055833D01*
X0476675Y0055040D01*
X0476675Y0054925D01*
X0481489Y0054925D01*
X0481489Y0059739D01*
X0481373Y0059739D01*
X0480581Y0059613D01*
X0479817Y0059365D01*
X0481489Y0059334D02*
X0482061Y0059334D01*
X0482061Y0059739D02*
X0482061Y0054925D01*
X0481489Y0054925D01*
X0481489Y0054353D01*
X0476675Y0054353D01*
X0476675Y0054237D01*
X0476800Y0053444D01*
X0477048Y0052681D01*
X0477413Y0051966D01*
X0477885Y0051316D01*
X0478452Y0050749D01*
X0479102Y0050277D01*
X0479817Y0049912D01*
X0480581Y0049664D01*
X0481373Y0049539D01*
X0481489Y0049539D01*
X0481489Y0054353D01*
X0482061Y0054353D01*
X0482061Y0054925D01*
X0486875Y0054925D01*
X0486875Y0055040D01*
X0486749Y0055833D01*
X0486501Y0056596D01*
X0486137Y0057312D01*
X0485665Y0057961D01*
X0485097Y0058529D01*
X0484448Y0059001D01*
X0483733Y0059365D01*
X0482969Y0059613D01*
X0482176Y0059739D01*
X0482061Y0059739D01*
X0482061Y0058136D02*
X0481489Y0058136D01*
X0481489Y0056937D02*
X0482061Y0056937D01*
X0482061Y0055739D02*
X0481489Y0055739D01*
X0481489Y0054540D02*
X0375200Y0054540D01*
X0375200Y0053342D02*
X0476834Y0053342D01*
X0477322Y0052143D02*
X0375200Y0052143D01*
X0375200Y0050945D02*
X0478256Y0050945D01*
X0480328Y0049746D02*
X0375200Y0049746D01*
X0375200Y0048548D02*
X0499100Y0048548D01*
X0499100Y0049746D02*
X0483222Y0049746D01*
X0482969Y0049664D02*
X0483733Y0049912D01*
X0484448Y0050277D01*
X0485097Y0050749D01*
X0485665Y0051316D01*
X0486137Y0051966D01*
X0486501Y0052681D01*
X0486749Y0053444D01*
X0486875Y0054237D01*
X0486875Y0054353D01*
X0482061Y0054353D01*
X0482061Y0049539D01*
X0482176Y0049539D01*
X0482969Y0049664D01*
X0482061Y0049746D02*
X0481489Y0049746D01*
X0481489Y0050945D02*
X0482061Y0050945D01*
X0482061Y0052143D02*
X0481489Y0052143D01*
X0481489Y0053342D02*
X0482061Y0053342D01*
X0482061Y0054540D02*
X0499100Y0054540D01*
X0499100Y0053342D02*
X0486716Y0053342D01*
X0486227Y0052143D02*
X0499100Y0052143D01*
X0499100Y0050945D02*
X0485293Y0050945D01*
X0486764Y0055739D02*
X0499100Y0055739D01*
X0499100Y0056937D02*
X0486327Y0056937D01*
X0485490Y0058136D02*
X0499100Y0058136D01*
X0499100Y0059334D02*
X0483793Y0059334D01*
X0478060Y0058136D02*
X0375200Y0058136D01*
X0375200Y0056937D02*
X0477222Y0056937D01*
X0476785Y0055739D02*
X0375200Y0055739D01*
X0371600Y0055739D02*
X0352818Y0055739D01*
X0352818Y0056937D02*
X0371600Y0056937D01*
X0371600Y0058136D02*
X0352818Y0058136D01*
X0352818Y0059334D02*
X0371600Y0059334D01*
X0371600Y0060533D02*
X0352883Y0060533D01*
X0353218Y0061732D02*
X0371600Y0061732D01*
X0371600Y0062930D02*
X0353218Y0062930D01*
X0353218Y0064129D02*
X0371600Y0064129D01*
X0371600Y0065327D02*
X0353218Y0065327D01*
X0353083Y0066526D02*
X0371600Y0066526D01*
X0371600Y0067724D02*
X0353218Y0067724D01*
X0353218Y0068923D02*
X0371600Y0068923D01*
X0371600Y0070121D02*
X0353218Y0070121D01*
X0353218Y0071320D02*
X0371600Y0071320D01*
X0371600Y0072518D02*
X0352976Y0072518D01*
X0352818Y0073717D02*
X0371600Y0073717D01*
X0371600Y0074915D02*
X0352818Y0074915D01*
X0352818Y0076114D02*
X0371600Y0076114D01*
X0371392Y0077312D02*
X0352818Y0077312D01*
X0352818Y0078511D02*
X0370194Y0078511D01*
X0368995Y0079709D02*
X0339084Y0079709D01*
X0339925Y0078511D02*
X0346481Y0078511D01*
X0349246Y0076600D02*
X0335900Y0076600D01*
X0316310Y0076600D01*
X0287633Y0047923D01*
X0290462Y0048206D02*
X0291591Y0047077D01*
X0291591Y0046082D01*
X0290158Y0044650D01*
X0292654Y0044650D01*
X0306404Y0058400D01*
X0331829Y0058400D01*
X0332127Y0059121D01*
X0333379Y0060373D01*
X0335015Y0061050D01*
X0336785Y0061050D01*
X0338421Y0060373D01*
X0339673Y0059121D01*
X0339971Y0058400D01*
X0346481Y0058400D01*
X0346481Y0059666D01*
X0346932Y0060116D01*
X0346699Y0060251D01*
X0346401Y0060549D01*
X0346191Y0060914D01*
X0346081Y0061320D01*
X0346081Y0063312D01*
X0349266Y0063312D01*
X0349266Y0064081D01*
X0346081Y0064081D01*
X0346081Y0066072D01*
X0346191Y0066479D01*
X0346260Y0066600D01*
X0346191Y0066721D01*
X0346081Y0067128D01*
X0346081Y0069119D01*
X0349266Y0069119D01*
X0349266Y0069888D01*
X0346081Y0069888D01*
X0346081Y0071880D01*
X0346191Y0072286D01*
X0346401Y0072651D01*
X0346699Y0072949D01*
X0346932Y0073084D01*
X0346481Y0073534D01*
X0346481Y0074800D01*
X0339971Y0074800D01*
X0339673Y0074079D01*
X0338421Y0072827D01*
X0336785Y0072150D01*
X0335015Y0072150D01*
X0333379Y0072827D01*
X0332127Y0074079D01*
X0331829Y0074800D01*
X0317056Y0074800D01*
X0290462Y0048206D01*
X0290804Y0048548D02*
X0296552Y0048548D01*
X0295354Y0047349D02*
X0291318Y0047349D01*
X0291591Y0046151D02*
X0294155Y0046151D01*
X0292957Y0044952D02*
X0290461Y0044952D01*
X0288322Y0042850D02*
X0293400Y0042850D01*
X0307150Y0056600D01*
X0335900Y0056600D01*
X0349246Y0056600D01*
X0349650Y0057004D01*
X0346481Y0059334D02*
X0339459Y0059334D01*
X0338033Y0060533D02*
X0346417Y0060533D01*
X0346081Y0061732D02*
X0303987Y0061732D01*
X0305186Y0062930D02*
X0346081Y0062930D01*
X0346081Y0064129D02*
X0306384Y0064129D01*
X0307583Y0065327D02*
X0346081Y0065327D01*
X0346217Y0066526D02*
X0308781Y0066526D01*
X0309980Y0067724D02*
X0346081Y0067724D01*
X0346081Y0068923D02*
X0311178Y0068923D01*
X0312377Y0070121D02*
X0346081Y0070121D01*
X0346081Y0071320D02*
X0313575Y0071320D01*
X0314774Y0072518D02*
X0334126Y0072518D01*
X0332490Y0073717D02*
X0315972Y0073717D01*
X0312080Y0074915D02*
X0293950Y0074915D01*
X0293950Y0073717D02*
X0310881Y0073717D01*
X0309683Y0072518D02*
X0293950Y0072518D01*
X0293950Y0071320D02*
X0308484Y0071320D01*
X0307286Y0070121D02*
X0293950Y0070121D01*
X0293950Y0068923D02*
X0306087Y0068923D01*
X0304889Y0067724D02*
X0293950Y0067724D01*
X0293950Y0066526D02*
X0303690Y0066526D01*
X0302492Y0065327D02*
X0293950Y0065327D01*
X0293950Y0064129D02*
X0301293Y0064129D01*
X0300095Y0062930D02*
X0293950Y0062930D01*
X0293950Y0061732D02*
X0298896Y0061732D01*
X0297698Y0060533D02*
X0293950Y0060533D01*
X0293680Y0059334D02*
X0296499Y0059334D01*
X0295301Y0058136D02*
X0292482Y0058136D01*
X0291591Y0056937D02*
X0294102Y0056937D01*
X0292904Y0055739D02*
X0291207Y0055739D01*
X0291705Y0054540D02*
X0290008Y0054540D01*
X0290507Y0053342D02*
X0288810Y0053342D01*
X0289308Y0052143D02*
X0287611Y0052143D01*
X0287723Y0050945D02*
X0288110Y0050945D01*
X0292002Y0049746D02*
X0297751Y0049746D01*
X0298949Y0050945D02*
X0293201Y0050945D01*
X0294399Y0052143D02*
X0300148Y0052143D01*
X0301346Y0053342D02*
X0295598Y0053342D01*
X0296796Y0054540D02*
X0302545Y0054540D01*
X0303743Y0055739D02*
X0297995Y0055739D01*
X0299193Y0056937D02*
X0304942Y0056937D01*
X0306140Y0058136D02*
X0300392Y0058136D01*
X0301590Y0059334D02*
X0332341Y0059334D01*
X0333767Y0060533D02*
X0302789Y0060533D01*
X0292150Y0060350D02*
X0292150Y0089100D01*
X0293400Y0090350D01*
X0296086Y0089297D02*
X0300657Y0089297D01*
X0300350Y0090496D02*
X0296284Y0090496D01*
X0295965Y0091694D02*
X0300350Y0091694D01*
X0300350Y0092893D02*
X0295005Y0092893D01*
X0296001Y0094091D02*
X0300350Y0094091D01*
X0300350Y0095290D02*
X0296284Y0095290D01*
X0296050Y0096488D02*
X0300350Y0096488D01*
X0300350Y0097687D02*
X0295142Y0097687D01*
X0295915Y0098885D02*
X0300350Y0098885D01*
X0300350Y0100084D02*
X0296284Y0100084D01*
X0296136Y0101282D02*
X0300350Y0101282D01*
X0300350Y0102481D02*
X0295348Y0102481D01*
X0296089Y0103679D02*
X0300350Y0103679D01*
X0300350Y0104878D02*
X0296284Y0104878D01*
X0295962Y0106076D02*
X0300350Y0106076D01*
X0300350Y0107275D02*
X0294781Y0107275D01*
X0292019Y0107275D02*
X0282700Y0107275D01*
X0282700Y0108473D02*
X0300350Y0108473D01*
X0301426Y0109672D02*
X0282700Y0109672D01*
X0282700Y0110870D02*
X0302625Y0110870D01*
X0303823Y0112069D02*
X0282700Y0112069D01*
X0282700Y0113268D02*
X0303416Y0113268D01*
X0303361Y0114466D02*
X0282700Y0114466D01*
X0281881Y0115665D02*
X0303361Y0115665D01*
X0303361Y0116863D02*
X0280683Y0116863D01*
X0279484Y0118062D02*
X0303957Y0118062D01*
X0309103Y0118062D02*
X0311493Y0118062D01*
X0311123Y0119260D02*
X0278286Y0119260D01*
X0277087Y0120459D02*
X0311123Y0120459D01*
X0317339Y0122856D02*
X0324461Y0122856D01*
X0323415Y0121657D02*
X0318385Y0121657D01*
X0318866Y0120459D02*
X0322934Y0120459D01*
X0322934Y0119260D02*
X0318866Y0119260D01*
X0318496Y0118062D02*
X0323304Y0118062D01*
X0324192Y0116863D02*
X0319947Y0116863D01*
X0315369Y0115665D02*
X0314620Y0115665D01*
X0314620Y0114466D02*
X0315369Y0114466D01*
X0315369Y0113268D02*
X0314620Y0113268D01*
X0314620Y0112069D02*
X0315369Y0112069D01*
X0315369Y0110870D02*
X0314620Y0110870D01*
X0314620Y0109672D02*
X0315369Y0109672D01*
X0315975Y0108473D02*
X0305319Y0108473D01*
X0304121Y0107275D02*
X0315975Y0107275D01*
X0315673Y0106076D02*
X0311851Y0106076D01*
X0312193Y0104878D02*
X0314975Y0104878D01*
X0316746Y0103071D02*
X0309025Y0103071D01*
X0305856Y0102481D02*
X0303950Y0102481D01*
X0303950Y0103679D02*
X0305856Y0103679D01*
X0305856Y0104878D02*
X0303950Y0104878D01*
X0303950Y0106076D02*
X0306199Y0106076D01*
X0302150Y0107850D02*
X0302150Y0090350D01*
X0305275Y0087225D01*
X0342775Y0087225D01*
X0343248Y0089297D02*
X0526461Y0089297D01*
X0526397Y0089186D02*
X0526288Y0088779D01*
X0526288Y0086984D01*
X0529669Y0086984D01*
X0529669Y0086216D01*
X0526288Y0086216D01*
X0526288Y0084421D01*
X0526397Y0084014D01*
X0526608Y0083649D01*
X0526906Y0083351D01*
X0527271Y0083141D01*
X0527678Y0083031D01*
X0529669Y0083031D01*
X0529669Y0086216D01*
X0530438Y0086216D01*
X0530438Y0083031D01*
X0532430Y0083031D01*
X0532836Y0083141D01*
X0533201Y0083351D01*
X0533499Y0083649D01*
X0533634Y0083882D01*
X0534084Y0083431D01*
X0539409Y0083431D01*
X0540112Y0084134D01*
X0540112Y0087420D01*
X0541105Y0088413D01*
X0541105Y0092644D01*
X0542165Y0092644D01*
X0542868Y0093347D01*
X0542868Y0099853D01*
X0542165Y0100556D01*
X0536446Y0100556D01*
X0535743Y0099853D01*
X0535743Y0093347D01*
X0536446Y0092644D01*
X0537506Y0092644D01*
X0537506Y0089905D01*
X0537369Y0089768D01*
X0534084Y0089768D01*
X0533634Y0089318D01*
X0533499Y0089551D01*
X0533201Y0089849D01*
X0532836Y0090059D01*
X0532430Y0090168D01*
X0530438Y0090168D01*
X0530438Y0086984D01*
X0529669Y0086984D01*
X0529669Y0090168D01*
X0527678Y0090168D01*
X0527271Y0090059D01*
X0526906Y0089849D01*
X0526608Y0089551D01*
X0526397Y0089186D01*
X0526288Y0088099D02*
X0365697Y0088099D01*
X0366895Y0086900D02*
X0529669Y0086900D01*
X0529669Y0085702D02*
X0530438Y0085702D01*
X0530438Y0084503D02*
X0529669Y0084503D01*
X0529669Y0083305D02*
X0530438Y0083305D01*
X0533121Y0083305D02*
X0551221Y0083305D01*
X0551221Y0084503D02*
X0540112Y0084503D01*
X0540112Y0085702D02*
X0551221Y0085702D01*
X0551221Y0086900D02*
X0540112Y0086900D01*
X0540791Y0088099D02*
X0551221Y0088099D01*
X0551221Y0089297D02*
X0541105Y0089297D01*
X0541105Y0090496D02*
X0551221Y0090496D01*
X0551221Y0091694D02*
X0541105Y0091694D01*
X0542413Y0092893D02*
X0551221Y0092893D01*
X0551221Y0094091D02*
X0542868Y0094091D01*
X0542868Y0095290D02*
X0551221Y0095290D01*
X0551221Y0096488D02*
X0542868Y0096488D01*
X0542868Y0097687D02*
X0551221Y0097687D01*
X0551221Y0098885D02*
X0542868Y0098885D01*
X0542637Y0100084D02*
X0551221Y0100084D01*
X0551221Y0101282D02*
X0514378Y0101282D01*
X0515396Y0102300D02*
X0525740Y0102300D01*
X0526084Y0102644D01*
X0530354Y0102644D01*
X0531057Y0103347D01*
X0531057Y0109853D01*
X0530354Y0110556D01*
X0524635Y0110556D01*
X0523932Y0109853D01*
X0523932Y0105900D01*
X0511545Y0105900D01*
X0510964Y0106481D01*
X0501308Y0106481D01*
X0500606Y0105778D01*
X0500606Y0102422D01*
X0501308Y0101719D01*
X0509723Y0101719D01*
X0509486Y0101481D01*
X0501308Y0101481D01*
X0500606Y0100778D01*
X0500606Y0097422D01*
X0500877Y0097150D01*
X0497896Y0097150D01*
X0497700Y0097346D01*
X0497700Y0101096D01*
X0496646Y0102150D01*
X0494146Y0104650D01*
X0492896Y0105900D01*
X0492896Y0105900D01*
X0491194Y0107601D01*
X0491194Y0110778D01*
X0490492Y0111481D01*
X0480836Y0111481D01*
X0480133Y0110778D01*
X0480133Y0107422D01*
X0480836Y0106719D01*
X0486986Y0106719D01*
X0487223Y0106481D01*
X0480836Y0106481D01*
X0480133Y0105778D01*
X0480133Y0102422D01*
X0480836Y0101719D01*
X0490492Y0101719D01*
X0491073Y0102300D01*
X0491404Y0102300D01*
X0491600Y0102104D01*
X0494100Y0099604D01*
X0494100Y0095854D01*
X0495350Y0094604D01*
X0496404Y0093550D01*
X0523932Y0093550D01*
X0523932Y0093347D01*
X0524635Y0092644D01*
X0530354Y0092644D01*
X0531057Y0093347D01*
X0531057Y0099853D01*
X0530354Y0100556D01*
X0524635Y0100556D01*
X0523932Y0099853D01*
X0523932Y0097150D01*
X0511395Y0097150D01*
X0511667Y0097422D01*
X0511667Y0098571D01*
X0515396Y0102300D01*
X0514650Y0104100D02*
X0509650Y0099100D01*
X0506136Y0099100D01*
X0501110Y0101282D02*
X0497513Y0101282D01*
X0497700Y0100084D02*
X0500606Y0100084D01*
X0500606Y0098885D02*
X0497700Y0098885D01*
X0497700Y0097687D02*
X0500606Y0097687D01*
X0497150Y0095350D02*
X0495900Y0096600D01*
X0495900Y0100350D01*
X0493400Y0102850D01*
X0487150Y0109100D01*
X0485664Y0109100D01*
X0480836Y0111719D02*
X0490492Y0111719D01*
X0491194Y0112422D01*
X0491194Y0115778D01*
X0490492Y0116481D01*
X0480836Y0116481D01*
X0480255Y0115900D01*
X0476284Y0115900D01*
X0476284Y0115924D01*
X0475845Y0116984D01*
X0475034Y0117795D01*
X0473974Y0118234D01*
X0472826Y0118234D01*
X0471766Y0117795D01*
X0470955Y0116984D01*
X0470516Y0115924D01*
X0470516Y0114776D01*
X0470955Y0113716D01*
X0471766Y0112905D01*
X0472826Y0112466D01*
X0473739Y0112466D01*
X0473904Y0112300D01*
X0480255Y0112300D01*
X0480836Y0111719D01*
X0480486Y0112069D02*
X0438120Y0112069D01*
X0438616Y0113268D02*
X0471404Y0113268D01*
X0470644Y0114466D02*
X0438698Y0114466D01*
X0438698Y0113464D02*
X0437351Y0110212D01*
X0434861Y0107722D01*
X0431608Y0106375D01*
X0428087Y0106375D01*
X0424835Y0107722D01*
X0422345Y0110212D01*
X0420998Y0113464D01*
X0420998Y0116985D01*
X0422345Y0120238D01*
X0424835Y0122727D01*
X0428087Y0124075D01*
X0431608Y0124075D01*
X0434861Y0122727D01*
X0437351Y0120238D01*
X0438698Y0116985D01*
X0438698Y0113464D01*
X0438698Y0115665D02*
X0470516Y0115665D01*
X0470905Y0116863D02*
X0438698Y0116863D01*
X0438252Y0118062D02*
X0472409Y0118062D01*
X0474391Y0118062D02*
X0526288Y0118062D01*
X0526288Y0118779D02*
X0526288Y0116984D01*
X0529669Y0116984D01*
X0529669Y0116216D01*
X0526288Y0116216D01*
X0526288Y0114421D01*
X0526397Y0114014D01*
X0526608Y0113649D01*
X0526906Y0113351D01*
X0527271Y0113141D01*
X0527678Y0113031D01*
X0529669Y0113031D01*
X0529669Y0116216D01*
X0530438Y0116216D01*
X0530438Y0113031D01*
X0532430Y0113031D01*
X0532836Y0113141D01*
X0533201Y0113351D01*
X0533499Y0113649D01*
X0533634Y0113882D01*
X0534084Y0113431D01*
X0537369Y0113431D01*
X0537506Y0113295D01*
X0537506Y0110556D01*
X0536446Y0110556D01*
X0535743Y0109853D01*
X0535743Y0103347D01*
X0536446Y0102644D01*
X0542165Y0102644D01*
X0542868Y0103347D01*
X0542868Y0109853D01*
X0542165Y0110556D01*
X0541105Y0110556D01*
X0541105Y0114787D01*
X0540112Y0115780D01*
X0540112Y0119066D01*
X0539409Y0119768D01*
X0534084Y0119768D01*
X0533634Y0119318D01*
X0533499Y0119551D01*
X0533201Y0119849D01*
X0532836Y0120059D01*
X0532430Y0120168D01*
X0530438Y0120168D01*
X0530438Y0116984D01*
X0529669Y0116984D01*
X0529669Y0120168D01*
X0527678Y0120168D01*
X0527271Y0120059D01*
X0526906Y0119849D01*
X0526608Y0119551D01*
X0526397Y0119186D01*
X0526288Y0118779D01*
X0526440Y0119260D02*
X0437756Y0119260D01*
X0437130Y0120459D02*
X0551221Y0120459D01*
X0551221Y0121657D02*
X0435931Y0121657D01*
X0434552Y0122856D02*
X0551221Y0122856D01*
X0551221Y0124054D02*
X0431658Y0124054D01*
X0428038Y0124054D02*
X0379689Y0124054D01*
X0379689Y0122856D02*
X0425144Y0122856D01*
X0423764Y0121657D02*
X0379362Y0121657D01*
X0373678Y0121657D02*
X0371446Y0121657D01*
X0371338Y0121918D02*
X0371927Y0120495D01*
X0371927Y0118955D01*
X0371338Y0117532D01*
X0370794Y0116988D01*
X0372883Y0116988D01*
X0373352Y0116520D01*
X0373352Y0117466D01*
X0374055Y0118169D01*
X0378986Y0118169D01*
X0379689Y0117466D01*
X0379689Y0113322D01*
X0378986Y0112619D01*
X0374055Y0112619D01*
X0373586Y0113088D01*
X0373586Y0109385D01*
X0372883Y0108682D01*
X0369133Y0108682D01*
X0368430Y0109385D01*
X0368430Y0115853D01*
X0367285Y0115853D01*
X0365862Y0116443D01*
X0364773Y0117532D01*
X0364184Y0118955D01*
X0364184Y0120495D01*
X0364773Y0121918D01*
X0365862Y0123007D01*
X0367285Y0123597D01*
X0368826Y0123597D01*
X0370249Y0123007D01*
X0371338Y0121918D01*
X0370400Y0122856D02*
X0373352Y0122856D01*
X0373352Y0124054D02*
X0350948Y0124054D01*
X0350948Y0122856D02*
X0353900Y0122856D01*
X0352854Y0121657D02*
X0350622Y0121657D01*
X0344938Y0121657D02*
X0338112Y0121657D01*
X0338439Y0122856D02*
X0344611Y0122856D01*
X0344611Y0124054D02*
X0338439Y0124054D01*
X0337843Y0118062D02*
X0345207Y0118062D01*
X0344611Y0116863D02*
X0338439Y0116863D01*
X0338439Y0115665D02*
X0344611Y0115665D01*
X0344611Y0114466D02*
X0338439Y0114466D01*
X0338384Y0113268D02*
X0344666Y0113268D01*
X0340073Y0112069D02*
X0332336Y0112069D01*
X0332336Y0110870D02*
X0338875Y0110870D01*
X0340900Y0110350D02*
X0350275Y0110350D01*
X0352760Y0112835D01*
X0353292Y0112835D01*
X0355870Y0113268D02*
X0356619Y0113268D01*
X0356619Y0114466D02*
X0355870Y0114466D01*
X0355870Y0115665D02*
X0356619Y0115665D01*
X0359025Y0113288D02*
X0359197Y0112835D01*
X0359025Y0113288D02*
X0359025Y0105350D01*
X0357371Y0103696D01*
X0344650Y0103696D01*
X0347818Y0106076D02*
X0356204Y0106076D01*
X0361179Y0107275D02*
X0425914Y0107275D01*
X0424083Y0108473D02*
X0360825Y0108473D01*
X0361775Y0109672D02*
X0368430Y0109672D01*
X0368430Y0110870D02*
X0361775Y0110870D01*
X0361775Y0112069D02*
X0368430Y0112069D01*
X0368430Y0113268D02*
X0361775Y0113268D01*
X0361775Y0114466D02*
X0368430Y0114466D01*
X0368430Y0115665D02*
X0361775Y0115665D01*
X0361197Y0116863D02*
X0365442Y0116863D01*
X0364554Y0118062D02*
X0359746Y0118062D01*
X0360116Y0119260D02*
X0364184Y0119260D01*
X0364184Y0120459D02*
X0360116Y0120459D01*
X0359635Y0121657D02*
X0364665Y0121657D01*
X0365711Y0122856D02*
X0358589Y0122856D01*
X0371927Y0120459D02*
X0422566Y0120459D01*
X0421940Y0119260D02*
X0371927Y0119260D01*
X0371557Y0118062D02*
X0373947Y0118062D01*
X0373352Y0116863D02*
X0373008Y0116863D01*
X0379093Y0118062D02*
X0421444Y0118062D01*
X0420998Y0116863D02*
X0379689Y0116863D01*
X0379689Y0115665D02*
X0420998Y0115665D01*
X0420998Y0114466D02*
X0379689Y0114466D01*
X0379634Y0113268D02*
X0421079Y0113268D01*
X0421576Y0112069D02*
X0373586Y0112069D01*
X0373586Y0110870D02*
X0422072Y0110870D01*
X0422885Y0109672D02*
X0373586Y0109672D01*
X0361846Y0106076D02*
X0480431Y0106076D01*
X0480280Y0107275D02*
X0433781Y0107275D01*
X0435612Y0108473D02*
X0480133Y0108473D01*
X0480133Y0109672D02*
X0436811Y0109672D01*
X0437623Y0110870D02*
X0480225Y0110870D01*
X0485664Y0114100D02*
X0474650Y0114100D01*
X0473400Y0115350D01*
X0475895Y0116863D02*
X0529669Y0116863D01*
X0529669Y0115665D02*
X0530438Y0115665D01*
X0530438Y0114466D02*
X0529669Y0114466D01*
X0529669Y0113268D02*
X0530438Y0113268D01*
X0533056Y0113268D02*
X0537506Y0113268D01*
X0537506Y0112069D02*
X0511314Y0112069D01*
X0510964Y0111719D02*
X0511667Y0112422D01*
X0511667Y0115778D01*
X0510964Y0116481D01*
X0501308Y0116481D01*
X0500606Y0115778D01*
X0500606Y0112422D01*
X0501308Y0111719D01*
X0510964Y0111719D01*
X0510964Y0111481D02*
X0501308Y0111481D01*
X0500606Y0110778D01*
X0500606Y0107422D01*
X0501308Y0106719D01*
X0510964Y0106719D01*
X0511545Y0107300D01*
X0512371Y0107300D01*
X0513016Y0106655D01*
X0514076Y0106216D01*
X0515224Y0106216D01*
X0516284Y0106655D01*
X0517095Y0107466D01*
X0517534Y0108526D01*
X0517534Y0109674D01*
X0517095Y0110734D01*
X0516284Y0111545D01*
X0515224Y0111984D01*
X0514076Y0111984D01*
X0513016Y0111545D01*
X0512371Y0110900D01*
X0511545Y0110900D01*
X0510964Y0111481D01*
X0514650Y0109100D02*
X0506136Y0109100D01*
X0500606Y0109672D02*
X0491194Y0109672D01*
X0491194Y0108473D02*
X0500606Y0108473D01*
X0500752Y0107275D02*
X0491521Y0107275D01*
X0492719Y0106076D02*
X0500904Y0106076D01*
X0500606Y0104878D02*
X0493918Y0104878D01*
X0495116Y0103679D02*
X0500606Y0103679D01*
X0500606Y0102481D02*
X0496315Y0102481D01*
X0493400Y0102850D02*
X0492150Y0104100D01*
X0485664Y0104100D01*
X0480133Y0103679D02*
X0361433Y0103679D01*
X0361909Y0104878D02*
X0480133Y0104878D01*
X0480133Y0102481D02*
X0359635Y0102481D01*
X0347818Y0101282D02*
X0480637Y0101282D01*
X0480836Y0101481D02*
X0480133Y0100778D01*
X0480133Y0097422D01*
X0480836Y0096719D01*
X0490492Y0096719D01*
X0491194Y0097422D01*
X0491194Y0100778D01*
X0490492Y0101481D01*
X0480836Y0101481D01*
X0480133Y0100084D02*
X0421338Y0100084D01*
X0421259Y0100162D02*
X0421962Y0099459D01*
X0421962Y0093741D01*
X0421259Y0093038D01*
X0415541Y0093038D01*
X0414838Y0093741D01*
X0414838Y0099459D01*
X0415541Y0100162D01*
X0421259Y0100162D01*
X0421962Y0098885D02*
X0480133Y0098885D01*
X0480133Y0097687D02*
X0421962Y0097687D01*
X0421962Y0096488D02*
X0494100Y0096488D01*
X0494100Y0097687D02*
X0491194Y0097687D01*
X0491194Y0098885D02*
X0494100Y0098885D01*
X0493621Y0100084D02*
X0491194Y0100084D01*
X0490690Y0101282D02*
X0492422Y0101282D01*
X0506136Y0104100D02*
X0514650Y0104100D01*
X0524994Y0104100D01*
X0527494Y0106600D01*
X0523932Y0106076D02*
X0511369Y0106076D01*
X0511520Y0107275D02*
X0512396Y0107275D01*
X0516904Y0107275D02*
X0523932Y0107275D01*
X0523932Y0108473D02*
X0517512Y0108473D01*
X0517534Y0109672D02*
X0523932Y0109672D01*
X0516958Y0110870D02*
X0537506Y0110870D01*
X0535743Y0109672D02*
X0531057Y0109672D01*
X0531057Y0108473D02*
X0535743Y0108473D01*
X0535743Y0107275D02*
X0531057Y0107275D01*
X0531057Y0106076D02*
X0535743Y0106076D01*
X0535743Y0104878D02*
X0531057Y0104878D01*
X0531057Y0103679D02*
X0535743Y0103679D01*
X0542868Y0103679D02*
X0551221Y0103679D01*
X0551221Y0102481D02*
X0525921Y0102481D01*
X0524163Y0100084D02*
X0513179Y0100084D01*
X0511981Y0098885D02*
X0523932Y0098885D01*
X0523932Y0097687D02*
X0511667Y0097687D01*
X0497150Y0095350D02*
X0526244Y0095350D01*
X0527494Y0096600D01*
X0531057Y0096488D02*
X0535743Y0096488D01*
X0535743Y0095290D02*
X0531057Y0095290D01*
X0531057Y0094091D02*
X0535743Y0094091D01*
X0536198Y0092893D02*
X0530602Y0092893D01*
X0524387Y0092893D02*
X0339653Y0092893D01*
X0338950Y0094091D02*
X0341265Y0094091D01*
X0341191Y0094221D02*
X0341401Y0093856D01*
X0341699Y0093558D01*
X0342064Y0093347D01*
X0342471Y0093238D01*
X0344266Y0093238D01*
X0344266Y0096619D01*
X0341081Y0096619D01*
X0341081Y0094628D01*
X0341191Y0094221D01*
X0341081Y0095290D02*
X0338950Y0095290D01*
X0338950Y0096488D02*
X0341081Y0096488D01*
X0341081Y0097687D02*
X0338950Y0097687D01*
X0338950Y0098885D02*
X0341081Y0098885D01*
X0347938Y0100084D02*
X0385462Y0100084D01*
X0385541Y0100162D02*
X0384838Y0099459D01*
X0384838Y0093741D01*
X0385541Y0093038D01*
X0391259Y0093038D01*
X0391962Y0093741D01*
X0391962Y0099459D01*
X0391259Y0100162D01*
X0385541Y0100162D01*
X0384838Y0098885D02*
X0348218Y0098885D01*
X0348218Y0097687D02*
X0384838Y0097687D01*
X0384838Y0096488D02*
X0348218Y0096488D01*
X0348218Y0095290D02*
X0384838Y0095290D01*
X0384838Y0094091D02*
X0348035Y0094091D01*
X0345034Y0094091D02*
X0344266Y0094091D01*
X0344266Y0095290D02*
X0345034Y0095290D01*
X0345034Y0096488D02*
X0344266Y0096488D01*
X0335350Y0096488D02*
X0309409Y0096488D01*
X0308641Y0096488D02*
X0303950Y0096488D01*
X0303950Y0095290D02*
X0305456Y0095290D01*
X0305456Y0095994D02*
X0305456Y0094003D01*
X0305566Y0093596D01*
X0305776Y0093231D01*
X0306074Y0092933D01*
X0306439Y0092722D01*
X0306846Y0092613D01*
X0308641Y0092613D01*
X0308641Y0095994D01*
X0305456Y0095994D01*
X0305456Y0097687D02*
X0303950Y0097687D01*
X0303950Y0098885D02*
X0305492Y0098885D01*
X0306182Y0100084D02*
X0303950Y0100084D01*
X0303950Y0101282D02*
X0305856Y0101282D01*
X0316746Y0103071D02*
X0317775Y0104100D01*
X0317775Y0113288D01*
X0317947Y0112835D01*
X0312042Y0112835D02*
X0310885Y0112835D01*
X0308400Y0110350D01*
X0304650Y0110350D01*
X0302150Y0107850D01*
X0293400Y0104725D02*
X0284650Y0095975D01*
X0284650Y0065350D01*
X0281224Y0061924D01*
X0280986Y0061924D01*
X0283179Y0060129D02*
X0287150Y0064100D01*
X0287150Y0094100D01*
X0293400Y0100350D01*
X0288610Y0102481D02*
X0282700Y0102481D01*
X0282700Y0103679D02*
X0289809Y0103679D01*
X0290516Y0104878D02*
X0282700Y0104878D01*
X0282700Y0106076D02*
X0290838Y0106076D01*
X0278400Y0109100D02*
X0270900Y0116600D01*
X0265900Y0119100D02*
X0268400Y0121600D01*
X0273400Y0121600D01*
X0280900Y0114100D01*
X0280900Y0075272D01*
X0274269Y0068641D01*
X0272633Y0070833D02*
X0278400Y0076600D01*
X0278400Y0109100D01*
X0265900Y0111600D02*
X0265900Y0119100D01*
X0264713Y0120459D02*
X0262981Y0120459D01*
X0265912Y0121657D02*
X0157314Y0121657D01*
X0157868Y0120459D02*
X0208819Y0120459D01*
X0209160Y0120800D02*
X0206700Y0118340D01*
X0206700Y0114860D01*
X0209160Y0112400D01*
X0212640Y0112400D01*
X0215100Y0114860D01*
X0215100Y0118340D01*
X0212640Y0120800D01*
X0209160Y0120800D01*
X0207620Y0119260D02*
X0189459Y0119260D01*
X0190020Y0118062D02*
X0206700Y0118062D01*
X0206700Y0116863D02*
X0190020Y0116863D01*
X0190020Y0115665D02*
X0206700Y0115665D01*
X0207094Y0114466D02*
X0189797Y0114466D01*
X0184464Y0113268D02*
X0182336Y0113268D01*
X0182336Y0114466D02*
X0184287Y0114466D01*
X0184064Y0115665D02*
X0182336Y0115665D01*
X0184064Y0116863D02*
X0175516Y0116863D01*
X0173784Y0116863D02*
X0157868Y0116863D01*
X0157868Y0115665D02*
X0172176Y0115665D01*
X0171766Y0114466D02*
X0157737Y0114466D01*
X0156105Y0113268D02*
X0163772Y0113268D01*
X0162573Y0112069D02*
X0157868Y0112069D01*
X0160829Y0110870D02*
X0161375Y0110870D01*
X0162554Y0109504D02*
X0164650Y0111600D01*
X0172150Y0111600D01*
X0174650Y0109100D01*
X0174650Y0108254D01*
X0180054Y0102850D01*
X0176688Y0102481D02*
X0171450Y0102481D01*
X0171450Y0101282D02*
X0176688Y0101282D01*
X0176989Y0100084D02*
X0171450Y0100084D01*
X0171450Y0098885D02*
X0176317Y0098885D01*
X0176288Y0097687D02*
X0171450Y0097687D01*
X0171450Y0096488D02*
X0179669Y0096488D01*
X0176288Y0095290D02*
X0171450Y0095290D01*
X0171450Y0094091D02*
X0176376Y0094091D01*
X0178473Y0092893D02*
X0171450Y0092893D01*
X0172101Y0091694D02*
X0177863Y0091694D01*
X0177863Y0090496D02*
X0173300Y0090496D01*
X0174498Y0089297D02*
X0177863Y0089297D01*
X0178057Y0088099D02*
X0175697Y0088099D01*
X0176895Y0086900D02*
X0206700Y0086900D01*
X0206700Y0085702D02*
X0178094Y0085702D01*
X0180752Y0088099D02*
X0180930Y0088099D01*
X0180930Y0089297D02*
X0180752Y0089297D01*
X0183625Y0088099D02*
X0183649Y0088099D01*
X0188269Y0088099D02*
X0190322Y0088099D01*
X0193978Y0088099D02*
X0206700Y0088099D01*
X0207658Y0089297D02*
X0194836Y0089297D01*
X0195034Y0090496D02*
X0208856Y0090496D01*
X0212944Y0090496D02*
X0214100Y0090496D01*
X0214100Y0091694D02*
X0194715Y0091694D01*
X0193548Y0092893D02*
X0208667Y0092893D01*
X0207469Y0094091D02*
X0190069Y0094091D01*
X0190112Y0095290D02*
X0206700Y0095290D01*
X0206700Y0096488D02*
X0190112Y0096488D01*
X0190112Y0097687D02*
X0206700Y0097687D01*
X0207246Y0098885D02*
X0190112Y0098885D01*
X0189811Y0100084D02*
X0208444Y0100084D01*
X0213356Y0100084D02*
X0214100Y0100084D01*
X0214100Y0101282D02*
X0190112Y0101282D01*
X0190112Y0102481D02*
X0209079Y0102481D01*
X0207881Y0103679D02*
X0190112Y0103679D01*
X0190112Y0104878D02*
X0206700Y0104878D01*
X0206700Y0106076D02*
X0187719Y0106076D01*
X0186521Y0107275D02*
X0206700Y0107275D01*
X0206481Y0108473D02*
X0185322Y0108473D01*
X0184464Y0109672D02*
X0184124Y0109672D01*
X0184464Y0110870D02*
X0182925Y0110870D01*
X0182180Y0112069D02*
X0184464Y0112069D01*
X0187042Y0111541D02*
X0205959Y0111541D01*
X0210900Y0106600D01*
X0213919Y0103679D02*
X0214100Y0103679D01*
X0214100Y0102481D02*
X0212721Y0102481D01*
X0220900Y0106600D02*
X0227150Y0106600D01*
X0229650Y0104100D01*
X0230900Y0099100D02*
X0235900Y0104100D01*
X0235900Y0110975D01*
X0230275Y0116600D01*
X0220900Y0116600D01*
X0215900Y0111600D01*
X0215900Y0080975D01*
X0212996Y0078071D01*
X0212996Y0076600D01*
X0206304Y0076600D02*
X0205054Y0077850D01*
X0198400Y0077850D01*
X0200620Y0079709D02*
X0203582Y0079709D01*
X0209025Y0079709D02*
X0210275Y0079709D01*
X0213287Y0080908D02*
X0185802Y0080908D01*
X0180998Y0080908D02*
X0169138Y0080908D01*
X0167939Y0082106D02*
X0176598Y0082106D01*
X0175400Y0083305D02*
X0166741Y0083305D01*
X0165542Y0084503D02*
X0174201Y0084503D01*
X0173003Y0085702D02*
X0164344Y0085702D01*
X0163145Y0086900D02*
X0171804Y0086900D01*
X0170606Y0088099D02*
X0161947Y0088099D01*
X0160748Y0089297D02*
X0169407Y0089297D01*
X0168209Y0090496D02*
X0159550Y0090496D01*
X0158351Y0091694D02*
X0167850Y0091694D01*
X0167850Y0092893D02*
X0157153Y0092893D01*
X0156919Y0094091D02*
X0167850Y0094091D01*
X0167850Y0095290D02*
X0156919Y0095290D01*
X0156919Y0096488D02*
X0167850Y0096488D01*
X0167850Y0097687D02*
X0156919Y0097687D01*
X0156919Y0098885D02*
X0167850Y0098885D01*
X0167850Y0100084D02*
X0148920Y0100084D01*
X0149378Y0101282D02*
X0167850Y0101282D01*
X0167850Y0102481D02*
X0150576Y0102481D01*
X0151775Y0103679D02*
X0159643Y0103679D01*
X0159188Y0104878D02*
X0152973Y0104878D01*
X0150279Y0107275D02*
X0146057Y0107275D01*
X0146057Y0108473D02*
X0150743Y0108473D01*
X0150743Y0109672D02*
X0146057Y0109672D01*
X0146057Y0110870D02*
X0150743Y0110870D01*
X0150743Y0112069D02*
X0146057Y0112069D01*
X0145926Y0114466D02*
X0150874Y0114466D01*
X0150743Y0115665D02*
X0146057Y0115665D01*
X0146057Y0116863D02*
X0150743Y0116863D01*
X0150743Y0118062D02*
X0146057Y0118062D01*
X0146057Y0119260D02*
X0150743Y0119260D01*
X0150743Y0120459D02*
X0146057Y0120459D01*
X0145503Y0121657D02*
X0151297Y0121657D01*
X0157868Y0119260D02*
X0184624Y0119260D01*
X0184064Y0118062D02*
X0157868Y0118062D01*
X0154306Y0117850D02*
X0154306Y0109100D01*
X0154306Y0108756D01*
X0147150Y0101600D01*
X0143400Y0101600D01*
X0142150Y0100350D01*
X0142150Y0096082D01*
X0142239Y0095994D01*
X0142239Y0092939D01*
X0128400Y0079100D01*
X0128400Y0075350D01*
X0127150Y0074100D01*
X0120900Y0074100D01*
X0114650Y0067850D01*
X0114650Y0047850D01*
X0120900Y0041600D01*
X0117399Y0042555D02*
X0064450Y0042555D01*
X0064397Y0042609D02*
X0063811Y0043034D01*
X0063166Y0043363D01*
X0062477Y0043587D01*
X0061762Y0043700D01*
X0058800Y0043700D01*
X0058800Y0039500D01*
X0058000Y0039500D01*
X0058000Y0043700D01*
X0055038Y0043700D01*
X0054323Y0043587D01*
X0053634Y0043363D01*
X0052989Y0043034D01*
X0052403Y0042609D01*
X0051891Y0042097D01*
X0051466Y0041511D01*
X0051137Y0040866D01*
X0050913Y0040177D01*
X0050806Y0039500D01*
X0058000Y0039500D01*
X0058000Y0038700D01*
X0058800Y0038700D01*
X0058800Y0039500D01*
X0065994Y0039500D01*
X0065887Y0040177D01*
X0065663Y0040866D01*
X0065334Y0041511D01*
X0064909Y0042097D01*
X0064397Y0042609D01*
X0065413Y0041357D02*
X0117263Y0041357D01*
X0116064Y0040158D02*
X0065890Y0040158D01*
X0065994Y0038700D02*
X0058800Y0038700D01*
X0058800Y0034500D01*
X0061762Y0034500D01*
X0062477Y0034613D01*
X0063166Y0034837D01*
X0063811Y0035166D01*
X0064397Y0035591D01*
X0064909Y0036103D01*
X0065334Y0036689D01*
X0065663Y0037334D01*
X0065887Y0038023D01*
X0065994Y0038700D01*
X0065802Y0037761D02*
X0105000Y0037761D01*
X0105000Y0036563D02*
X0065243Y0036563D01*
X0064084Y0035364D02*
X0105000Y0035364D01*
X0105000Y0034166D02*
X0092058Y0034166D01*
X0092021Y0034304D02*
X0091810Y0034669D01*
X0091512Y0034967D01*
X0091147Y0035178D01*
X0090741Y0035287D01*
X0086799Y0035287D01*
X0086799Y0027200D01*
X0085599Y0027200D01*
X0085599Y0026000D01*
X0080269Y0026000D01*
X0080269Y0019303D01*
X0080378Y0018896D01*
X0080588Y0018531D01*
X0080886Y0018233D01*
X0081251Y0018022D01*
X0081658Y0017913D01*
X0085599Y0017913D01*
X0085599Y0026000D01*
X0086799Y0026000D01*
X0086799Y0017913D01*
X0090741Y0017913D01*
X0091147Y0018022D01*
X0091512Y0018233D01*
X0091810Y0018531D01*
X0092021Y0018896D01*
X0092130Y0019303D01*
X0092130Y0026000D01*
X0086799Y0026000D01*
X0086799Y0027200D01*
X0092130Y0027200D01*
X0092130Y0033897D01*
X0092021Y0034304D01*
X0092130Y0032967D02*
X0105000Y0032967D01*
X0105582Y0030491D02*
X0105218Y0030280D01*
X0104920Y0029982D01*
X0104709Y0029618D01*
X0104600Y0029211D01*
X0104600Y0027200D01*
X0110000Y0027200D01*
X0110000Y0030600D01*
X0105989Y0030600D01*
X0105582Y0030491D01*
X0105878Y0030570D02*
X0092130Y0030570D01*
X0092130Y0029372D02*
X0104643Y0029372D01*
X0104600Y0028173D02*
X0092130Y0028173D01*
X0086799Y0028173D02*
X0085599Y0028173D01*
X0085599Y0027200D02*
X0085599Y0035287D01*
X0081658Y0035287D01*
X0081251Y0035178D01*
X0080886Y0034967D01*
X0080588Y0034669D01*
X0080378Y0034304D01*
X0080269Y0033897D01*
X0080269Y0027200D01*
X0085599Y0027200D01*
X0085599Y0026975D02*
X0065066Y0026975D01*
X0064961Y0026721D02*
X0065600Y0028265D01*
X0065600Y0029935D01*
X0064961Y0031479D01*
X0063779Y0032661D01*
X0062235Y0033300D01*
X0057594Y0033300D01*
X0057259Y0033635D01*
X0056377Y0034000D01*
X0028600Y0034000D01*
X0028600Y0036097D01*
X0027897Y0036800D01*
X0018903Y0036800D01*
X0018200Y0036097D01*
X0018200Y0027103D01*
X0018903Y0026400D01*
X0027897Y0026400D01*
X0028600Y0027103D01*
X0028600Y0029200D01*
X0051200Y0029200D01*
X0051200Y0028265D01*
X0051839Y0026721D01*
X0053021Y0025539D01*
X0054565Y0024900D01*
X0062235Y0024900D01*
X0063779Y0025539D01*
X0064961Y0026721D01*
X0064016Y0025776D02*
X0080269Y0025776D01*
X0080269Y0024578D02*
X0015500Y0024578D01*
X0015500Y0025776D02*
X0052784Y0025776D01*
X0051734Y0026975D02*
X0028472Y0026975D01*
X0028600Y0028173D02*
X0051238Y0028173D01*
X0064671Y0031769D02*
X0080269Y0031769D01*
X0080269Y0032967D02*
X0063039Y0032967D01*
X0065337Y0030570D02*
X0080269Y0030570D01*
X0080269Y0029372D02*
X0065600Y0029372D01*
X0065562Y0028173D02*
X0080269Y0028173D01*
X0085599Y0029372D02*
X0086799Y0029372D01*
X0086799Y0030570D02*
X0085599Y0030570D01*
X0085599Y0031769D02*
X0086799Y0031769D01*
X0086799Y0032967D02*
X0085599Y0032967D01*
X0085599Y0034166D02*
X0086799Y0034166D01*
X0080340Y0034166D02*
X0028600Y0034166D01*
X0028600Y0035364D02*
X0052716Y0035364D01*
X0052989Y0035166D02*
X0053634Y0034837D01*
X0054323Y0034613D01*
X0055038Y0034500D01*
X0058000Y0034500D01*
X0058000Y0038700D01*
X0050806Y0038700D01*
X0050913Y0038023D01*
X0051137Y0037334D01*
X0051466Y0036689D01*
X0051891Y0036103D01*
X0052403Y0035591D01*
X0052989Y0035166D01*
X0051557Y0036563D02*
X0028134Y0036563D01*
X0018666Y0036563D02*
X0015500Y0036563D01*
X0015500Y0037761D02*
X0050998Y0037761D01*
X0050910Y0040158D02*
X0015500Y0040158D01*
X0015500Y0038960D02*
X0058000Y0038960D01*
X0058800Y0038960D02*
X0105363Y0038960D01*
X0116860Y0034166D02*
X0127440Y0034166D01*
X0128247Y0032967D02*
X0116200Y0032967D01*
X0115618Y0030491D02*
X0115211Y0030600D01*
X0111200Y0030600D01*
X0111200Y0027200D01*
X0110000Y0027200D01*
X0110000Y0026000D01*
X0111200Y0026000D01*
X0111200Y0027200D01*
X0116600Y0027200D01*
X0116600Y0029211D01*
X0116491Y0029618D01*
X0116280Y0029982D01*
X0115982Y0030280D01*
X0115618Y0030491D01*
X0115322Y0030570D02*
X0168657Y0030570D01*
X0168367Y0029372D02*
X0116557Y0029372D01*
X0116600Y0028173D02*
X0168432Y0028173D01*
X0168928Y0026975D02*
X0111200Y0026975D01*
X0111200Y0026000D02*
X0116600Y0026000D01*
X0116600Y0023989D01*
X0116491Y0023582D01*
X0116280Y0023218D01*
X0115982Y0022920D01*
X0115618Y0022709D01*
X0115211Y0022600D01*
X0111200Y0022600D01*
X0111200Y0026000D01*
X0111200Y0025776D02*
X0110000Y0025776D01*
X0110000Y0026000D02*
X0110000Y0022600D01*
X0105989Y0022600D01*
X0105582Y0022709D01*
X0105218Y0022920D01*
X0104920Y0023218D01*
X0104709Y0023582D01*
X0104600Y0023989D01*
X0104600Y0026000D01*
X0110000Y0026000D01*
X0110000Y0026975D02*
X0086799Y0026975D01*
X0086799Y0025776D02*
X0085599Y0025776D01*
X0085599Y0024578D02*
X0086799Y0024578D01*
X0086799Y0023379D02*
X0085599Y0023379D01*
X0085599Y0022181D02*
X0086799Y0022181D01*
X0086799Y0020982D02*
X0085599Y0020982D01*
X0085599Y0019784D02*
X0086799Y0019784D01*
X0086799Y0018585D02*
X0085599Y0018585D01*
X0080557Y0018585D02*
X0072309Y0018585D01*
X0073507Y0017387D02*
X0105000Y0017387D01*
X0105000Y0016500D02*
X0074394Y0016500D01*
X0069759Y0021135D01*
X0068877Y0021500D01*
X0064940Y0021500D01*
X0063779Y0022661D01*
X0062235Y0023300D01*
X0054565Y0023300D01*
X0053021Y0022661D01*
X0051839Y0021479D01*
X0051318Y0020220D01*
X0028034Y0020220D01*
X0027808Y0020766D01*
X0026346Y0022229D01*
X0024434Y0023020D01*
X0022366Y0023020D01*
X0020454Y0022229D01*
X0018992Y0020766D01*
X0018200Y0018855D01*
X0018200Y0016786D01*
X0018992Y0014875D01*
X0020454Y0013412D01*
X0022366Y0012620D01*
X0024434Y0012620D01*
X0026346Y0013412D01*
X0027808Y0014875D01*
X0028034Y0015420D01*
X0053308Y0015420D01*
X0054565Y0014900D01*
X0062235Y0014900D01*
X0063779Y0015539D01*
X0064940Y0016700D01*
X0067406Y0016700D01*
X0071365Y0012741D01*
X0072041Y0012065D01*
X0072923Y0011700D01*
X0107677Y0011700D01*
X0108559Y0012065D01*
X0110394Y0013900D01*
X0115497Y0013900D01*
X0116200Y0014603D01*
X0116200Y0020397D01*
X0115497Y0021100D01*
X0105703Y0021100D01*
X0105000Y0020397D01*
X0105000Y0016500D01*
X0105000Y0018585D02*
X0091841Y0018585D01*
X0092130Y0019784D02*
X0105000Y0019784D01*
X0105585Y0020982D02*
X0092130Y0020982D01*
X0092130Y0022181D02*
X0127064Y0022181D01*
X0126641Y0021758D02*
X0125294Y0018505D01*
X0125294Y0014985D01*
X0126641Y0011732D01*
X0129131Y0009242D01*
X0132384Y0007895D01*
X0135904Y0007895D01*
X0139157Y0009242D01*
X0141647Y0011732D01*
X0142994Y0014985D01*
X0142994Y0018505D01*
X0141647Y0021758D01*
X0139157Y0024248D01*
X0135904Y0025595D01*
X0132384Y0025595D01*
X0129131Y0024248D01*
X0126641Y0021758D01*
X0126320Y0020982D02*
X0115615Y0020982D01*
X0116200Y0019784D02*
X0125823Y0019784D01*
X0125327Y0018585D02*
X0116200Y0018585D01*
X0116200Y0017387D02*
X0125294Y0017387D01*
X0125294Y0016188D02*
X0116200Y0016188D01*
X0116200Y0014990D02*
X0125294Y0014990D01*
X0125788Y0013791D02*
X0110285Y0013791D01*
X0109087Y0012593D02*
X0126285Y0012593D01*
X0126979Y0011394D02*
X0015500Y0011394D01*
X0015500Y0010196D02*
X0128178Y0010196D01*
X0129723Y0008997D02*
X0015500Y0008997D01*
X0015500Y0007799D02*
X0224656Y0007799D01*
X0223457Y0008997D02*
X0138565Y0008997D01*
X0140110Y0010196D02*
X0222259Y0010196D01*
X0221060Y0011394D02*
X0203839Y0011394D01*
X0203834Y0011385D02*
X0204045Y0011750D01*
X0204154Y0012157D01*
X0204154Y0016689D01*
X0199217Y0016689D01*
X0199217Y0017889D01*
X0204154Y0017889D01*
X0204154Y0022421D01*
X0204045Y0022828D01*
X0203834Y0023193D01*
X0203536Y0023491D01*
X0203171Y0023701D01*
X0202764Y0023810D01*
X0199216Y0023810D01*
X0199216Y0017889D01*
X0198017Y0017889D01*
X0198017Y0023810D01*
X0194469Y0023810D01*
X0194062Y0023701D01*
X0193697Y0023491D01*
X0193399Y0023193D01*
X0193189Y0022828D01*
X0193080Y0022421D01*
X0193080Y0017889D01*
X0198016Y0017889D01*
X0198016Y0016689D01*
X0193080Y0016689D01*
X0193080Y0012157D01*
X0193189Y0011750D01*
X0193399Y0011385D01*
X0193697Y0011087D01*
X0194062Y0010877D01*
X0194469Y0010768D01*
X0198017Y0010768D01*
X0198017Y0016689D01*
X0199216Y0016689D01*
X0199216Y0010768D01*
X0202764Y0010768D01*
X0203171Y0010877D01*
X0203536Y0011087D01*
X0203834Y0011385D01*
X0204154Y0012593D02*
X0219862Y0012593D01*
X0219100Y0013791D02*
X0204154Y0013791D01*
X0204154Y0014990D02*
X0219100Y0014990D01*
X0219100Y0016188D02*
X0218154Y0016188D01*
X0218018Y0016109D02*
X0218382Y0016320D01*
X0218680Y0016618D01*
X0218891Y0016982D01*
X0219000Y0017389D01*
X0219000Y0020450D01*
X0216050Y0020450D01*
X0216050Y0020750D01*
X0219000Y0020750D01*
X0219000Y0023811D01*
X0218891Y0024218D01*
X0218680Y0024582D01*
X0218382Y0024880D01*
X0218018Y0025091D01*
X0217611Y0025200D01*
X0216050Y0025200D01*
X0216050Y0020750D01*
X0215750Y0020750D01*
X0215750Y0025200D01*
X0214189Y0025200D01*
X0213782Y0025091D01*
X0213418Y0024880D01*
X0213120Y0024582D01*
X0212909Y0024218D01*
X0212800Y0023811D01*
X0212800Y0020750D01*
X0215750Y0020750D01*
X0215750Y0020450D01*
X0216050Y0020450D01*
X0216050Y0016000D01*
X0217611Y0016000D01*
X0218018Y0016109D01*
X0218999Y0017387D02*
X0219100Y0017387D01*
X0219100Y0018585D02*
X0219000Y0018585D01*
X0219000Y0019784D02*
X0219100Y0019784D01*
X0219100Y0020982D02*
X0219000Y0020982D01*
X0219000Y0022181D02*
X0219100Y0022181D01*
X0219100Y0023379D02*
X0219000Y0023379D01*
X0219100Y0024578D02*
X0218683Y0024578D01*
X0219100Y0025776D02*
X0191654Y0025776D01*
X0191755Y0025818D02*
X0192844Y0026907D01*
X0193433Y0028330D01*
X0193433Y0029870D01*
X0192844Y0031293D01*
X0191755Y0032382D01*
X0190332Y0032972D01*
X0189397Y0032972D01*
X0189464Y0033039D01*
X0189674Y0033404D01*
X0189783Y0033811D01*
X0189783Y0038942D01*
X0187199Y0038942D01*
X0187199Y0032421D01*
X0187463Y0032421D01*
X0187368Y0032382D01*
X0186279Y0031293D01*
X0185690Y0029870D01*
X0185690Y0028330D01*
X0186279Y0026907D01*
X0187368Y0025818D01*
X0188791Y0025228D01*
X0190332Y0025228D01*
X0191755Y0025818D01*
X0192872Y0026975D02*
X0219100Y0026975D01*
X0219100Y0028173D02*
X0193368Y0028173D01*
X0193433Y0029372D02*
X0219100Y0029372D01*
X0219100Y0030570D02*
X0193143Y0030570D01*
X0192368Y0031769D02*
X0219100Y0031769D01*
X0219100Y0032967D02*
X0203762Y0032967D01*
X0203834Y0033039D02*
X0204045Y0033404D01*
X0204154Y0033811D01*
X0204154Y0038343D01*
X0199217Y0038343D01*
X0199217Y0039542D01*
X0204154Y0039542D01*
X0204154Y0044074D01*
X0204045Y0044481D01*
X0203834Y0044846D01*
X0203536Y0045144D01*
X0203171Y0045355D01*
X0202764Y0045464D01*
X0199216Y0045464D01*
X0199216Y0039543D01*
X0198017Y0039543D01*
X0198017Y0045464D01*
X0194469Y0045464D01*
X0194062Y0045355D01*
X0193697Y0045144D01*
X0193399Y0044846D01*
X0193189Y0044481D01*
X0193080Y0044074D01*
X0193080Y0039542D01*
X0198016Y0039542D01*
X0198016Y0038343D01*
X0193080Y0038343D01*
X0193080Y0033811D01*
X0193189Y0033404D01*
X0193399Y0033039D01*
X0193697Y0032741D01*
X0194062Y0032530D01*
X0194469Y0032421D01*
X0198017Y0032421D01*
X0198017Y0038342D01*
X0199216Y0038342D01*
X0199216Y0032421D01*
X0202764Y0032421D01*
X0203171Y0032530D01*
X0203536Y0032741D01*
X0203834Y0033039D01*
X0204154Y0034166D02*
X0219100Y0034166D01*
X0219100Y0035364D02*
X0204154Y0035364D01*
X0204154Y0036563D02*
X0219100Y0036563D01*
X0219100Y0037761D02*
X0204154Y0037761D01*
X0204154Y0040158D02*
X0212800Y0040158D01*
X0212800Y0041357D02*
X0204154Y0041357D01*
X0204154Y0042555D02*
X0215750Y0042555D01*
X0215750Y0041357D02*
X0216050Y0041357D01*
X0216050Y0040158D02*
X0215750Y0040158D01*
X0215750Y0038960D02*
X0216050Y0038960D01*
X0218878Y0038960D02*
X0219100Y0038960D01*
X0212922Y0038960D02*
X0199217Y0038960D01*
X0199216Y0040158D02*
X0198017Y0040158D01*
X0198016Y0038960D02*
X0189783Y0038960D01*
X0189783Y0040158D02*
X0193080Y0040158D01*
X0193080Y0041357D02*
X0189783Y0041357D01*
X0189783Y0042555D02*
X0193080Y0042555D01*
X0193080Y0043754D02*
X0189783Y0043754D01*
X0189358Y0044952D02*
X0193505Y0044952D01*
X0198017Y0044952D02*
X0199216Y0044952D01*
X0199216Y0043754D02*
X0198017Y0043754D01*
X0198017Y0042555D02*
X0199216Y0042555D01*
X0199216Y0041357D02*
X0198017Y0041357D01*
X0198017Y0037761D02*
X0199216Y0037761D01*
X0199216Y0036563D02*
X0198017Y0036563D01*
X0198017Y0035364D02*
X0199216Y0035364D01*
X0199216Y0034166D02*
X0198017Y0034166D01*
X0198017Y0032967D02*
X0199216Y0032967D01*
X0193471Y0032967D02*
X0190342Y0032967D01*
X0189783Y0034166D02*
X0193080Y0034166D01*
X0193080Y0035364D02*
X0189783Y0035364D01*
X0189783Y0036563D02*
X0193080Y0036563D01*
X0193080Y0037761D02*
X0189783Y0037761D01*
X0187199Y0037761D02*
X0187199Y0037761D01*
X0187199Y0036563D02*
X0187199Y0036563D01*
X0187199Y0035364D02*
X0187199Y0035364D01*
X0187199Y0034166D02*
X0187199Y0034166D01*
X0187199Y0032967D02*
X0187199Y0032967D01*
X0186755Y0031769D02*
X0175045Y0031769D01*
X0175820Y0030570D02*
X0185980Y0030570D01*
X0185690Y0029372D02*
X0176110Y0029372D01*
X0176045Y0028173D02*
X0185755Y0028173D01*
X0186251Y0026975D02*
X0175549Y0026975D01*
X0174331Y0025776D02*
X0187469Y0025776D01*
X0193586Y0023379D02*
X0168214Y0023379D01*
X0168103Y0023491D02*
X0167738Y0023701D01*
X0167331Y0023810D01*
X0163783Y0023810D01*
X0163783Y0017889D01*
X0162583Y0017889D01*
X0162583Y0016689D01*
X0157646Y0016689D01*
X0157646Y0012157D01*
X0157755Y0011750D01*
X0157966Y0011385D01*
X0158264Y0011087D01*
X0158629Y0010877D01*
X0159036Y0010768D01*
X0162583Y0010768D01*
X0162583Y0016689D01*
X0163783Y0016689D01*
X0163783Y0010768D01*
X0167331Y0010768D01*
X0167738Y0010877D01*
X0168103Y0011087D01*
X0168401Y0011385D01*
X0168611Y0011750D01*
X0168720Y0012157D01*
X0168720Y0016689D01*
X0163784Y0016689D01*
X0163784Y0017889D01*
X0168720Y0017889D01*
X0168720Y0022421D01*
X0168611Y0022828D01*
X0168401Y0023193D01*
X0168103Y0023491D01*
X0168720Y0022181D02*
X0193080Y0022181D01*
X0193080Y0020982D02*
X0168720Y0020982D01*
X0168720Y0019784D02*
X0193080Y0019784D01*
X0193080Y0018585D02*
X0168720Y0018585D01*
X0168720Y0016188D02*
X0193080Y0016188D01*
X0193080Y0014990D02*
X0168720Y0014990D01*
X0168720Y0013791D02*
X0193080Y0013791D01*
X0193080Y0012593D02*
X0168720Y0012593D01*
X0168406Y0011394D02*
X0193394Y0011394D01*
X0198017Y0011394D02*
X0199216Y0011394D01*
X0199216Y0012593D02*
X0198017Y0012593D01*
X0198017Y0013791D02*
X0199216Y0013791D01*
X0199216Y0014990D02*
X0198017Y0014990D01*
X0198017Y0016188D02*
X0199216Y0016188D01*
X0199217Y0017387D02*
X0212801Y0017387D01*
X0212800Y0017389D02*
X0212909Y0016982D01*
X0213120Y0016618D01*
X0213418Y0016320D01*
X0213782Y0016109D01*
X0214189Y0016000D01*
X0215750Y0016000D01*
X0215750Y0020450D01*
X0212800Y0020450D01*
X0212800Y0017389D01*
X0212800Y0018585D02*
X0204154Y0018585D01*
X0204154Y0019784D02*
X0212800Y0019784D01*
X0212800Y0020982D02*
X0204154Y0020982D01*
X0204154Y0022181D02*
X0212800Y0022181D01*
X0212800Y0023379D02*
X0203647Y0023379D01*
X0199216Y0023379D02*
X0198017Y0023379D01*
X0198017Y0022181D02*
X0199216Y0022181D01*
X0199216Y0020982D02*
X0198017Y0020982D01*
X0198017Y0019784D02*
X0199216Y0019784D01*
X0199216Y0018585D02*
X0198017Y0018585D01*
X0198016Y0017387D02*
X0163784Y0017387D01*
X0163783Y0018585D02*
X0162583Y0018585D01*
X0162583Y0017889D02*
X0162583Y0023810D01*
X0159036Y0023810D01*
X0158629Y0023701D01*
X0158264Y0023491D01*
X0157966Y0023193D01*
X0157755Y0022828D01*
X0157646Y0022421D01*
X0157646Y0017889D01*
X0162583Y0017889D01*
X0162583Y0017387D02*
X0142994Y0017387D01*
X0142961Y0018585D02*
X0157646Y0018585D01*
X0157646Y0019784D02*
X0142464Y0019784D01*
X0141968Y0020982D02*
X0157646Y0020982D01*
X0157646Y0022181D02*
X0141224Y0022181D01*
X0140026Y0023379D02*
X0158153Y0023379D01*
X0162583Y0023379D02*
X0163783Y0023379D01*
X0163783Y0022181D02*
X0162583Y0022181D01*
X0162583Y0020982D02*
X0163783Y0020982D01*
X0163783Y0019784D02*
X0162583Y0019784D01*
X0162583Y0016188D02*
X0163783Y0016188D01*
X0163783Y0014990D02*
X0162583Y0014990D01*
X0162583Y0013791D02*
X0163783Y0013791D01*
X0163783Y0012593D02*
X0162583Y0012593D01*
X0162583Y0011394D02*
X0163783Y0011394D01*
X0157961Y0011394D02*
X0141309Y0011394D01*
X0142003Y0012593D02*
X0157646Y0012593D01*
X0157646Y0013791D02*
X0142500Y0013791D01*
X0142994Y0014990D02*
X0157646Y0014990D01*
X0157646Y0016188D02*
X0142994Y0016188D01*
X0138360Y0024578D02*
X0213117Y0024578D01*
X0215750Y0024578D02*
X0216050Y0024578D01*
X0216050Y0023379D02*
X0215750Y0023379D01*
X0215750Y0022181D02*
X0216050Y0022181D01*
X0216050Y0020982D02*
X0215750Y0020982D01*
X0215750Y0019784D02*
X0216050Y0019784D01*
X0216050Y0018585D02*
X0215750Y0018585D01*
X0215750Y0017387D02*
X0216050Y0017387D01*
X0216050Y0016188D02*
X0215750Y0016188D01*
X0213645Y0016188D02*
X0204154Y0016188D01*
X0220900Y0014100D02*
X0220900Y0041600D01*
X0220275Y0042225D01*
X0221227Y0044952D02*
X0221600Y0044952D01*
X0221600Y0046151D02*
X0218909Y0046151D01*
X0219000Y0044952D02*
X0219323Y0044952D01*
X0216050Y0044952D02*
X0215750Y0044952D01*
X0215750Y0043754D02*
X0216050Y0043754D01*
X0216050Y0046151D02*
X0215750Y0046151D01*
X0212891Y0046151D02*
X0184246Y0046151D01*
X0185445Y0047349D02*
X0221600Y0047349D01*
X0221600Y0048548D02*
X0186643Y0048548D01*
X0187842Y0049746D02*
X0221600Y0049746D01*
X0221600Y0050945D02*
X0189040Y0050945D01*
X0190239Y0052143D02*
X0221600Y0052143D01*
X0221600Y0053342D02*
X0191438Y0053342D01*
X0191450Y0054540D02*
X0221600Y0054540D01*
X0221600Y0055739D02*
X0191450Y0055739D01*
X0191450Y0056937D02*
X0221600Y0056937D01*
X0221600Y0058136D02*
X0191450Y0058136D01*
X0191450Y0059334D02*
X0221600Y0059334D01*
X0221600Y0060533D02*
X0191450Y0060533D01*
X0191450Y0061732D02*
X0221600Y0061732D01*
X0221600Y0062930D02*
X0191450Y0062930D01*
X0191450Y0064129D02*
X0221600Y0064129D01*
X0221600Y0065327D02*
X0191450Y0065327D01*
X0191450Y0066526D02*
X0221600Y0066526D01*
X0221600Y0067724D02*
X0220222Y0067724D01*
X0221556Y0068923D02*
X0221600Y0068923D01*
X0219025Y0070350D02*
X0212996Y0070350D01*
X0206304Y0070350D02*
X0197775Y0070350D01*
X0195055Y0071320D02*
X0191226Y0071320D01*
X0191450Y0070121D02*
X0194891Y0070121D01*
X0195244Y0068923D02*
X0191450Y0068923D01*
X0191450Y0067724D02*
X0196578Y0067724D01*
X0198972Y0067724D02*
X0203099Y0067724D01*
X0209509Y0067724D02*
X0209791Y0067724D01*
X0216201Y0067724D02*
X0217828Y0067724D01*
X0202938Y0072518D02*
X0199686Y0072518D01*
X0195864Y0072518D02*
X0190027Y0072518D01*
X0188829Y0073717D02*
X0203356Y0073717D01*
X0202938Y0074915D02*
X0187630Y0074915D01*
X0186432Y0076114D02*
X0196057Y0076114D01*
X0195516Y0077312D02*
X0185233Y0077312D01*
X0183400Y0076600D02*
X0170900Y0076600D01*
X0155034Y0092466D01*
X0155034Y0095994D01*
X0152475Y0095994D02*
X0152475Y0091275D01*
X0169650Y0074100D01*
X0182150Y0074100D01*
X0187150Y0069100D01*
X0187150Y0055350D01*
X0177750Y0045950D01*
X0177750Y0038943D01*
X0174601Y0038943D02*
X0174601Y0042899D01*
X0163400Y0054100D01*
X0165900Y0056600D01*
X0177150Y0056600D01*
X0181600Y0056937D02*
X0185350Y0056937D01*
X0185350Y0058136D02*
X0181600Y0058136D01*
X0181600Y0059334D02*
X0185350Y0059334D01*
X0185350Y0060533D02*
X0181414Y0060533D01*
X0179692Y0062452D02*
X0179012Y0062105D01*
X0178286Y0061869D01*
X0177532Y0061750D01*
X0177239Y0061750D01*
X0177239Y0066511D01*
X0177239Y0066689D01*
X0177061Y0066689D01*
X0177061Y0071450D01*
X0176768Y0071450D01*
X0176014Y0071331D01*
X0175288Y0071095D01*
X0174608Y0070748D01*
X0173990Y0070299D01*
X0173451Y0069760D01*
X0173002Y0069142D01*
X0172655Y0068462D01*
X0172419Y0067736D01*
X0172300Y0066982D01*
X0172300Y0066689D01*
X0177061Y0066689D01*
X0177061Y0066511D01*
X0172300Y0066511D01*
X0172300Y0066218D01*
X0172419Y0065464D01*
X0172655Y0064738D01*
X0173002Y0064058D01*
X0173451Y0063440D01*
X0173990Y0062901D01*
X0174608Y0062452D01*
X0175288Y0062105D01*
X0176014Y0061869D01*
X0176768Y0061750D01*
X0177061Y0061750D01*
X0177061Y0066511D01*
X0177239Y0066511D01*
X0182000Y0066511D01*
X0182000Y0066218D01*
X0181881Y0065464D01*
X0181645Y0064738D01*
X0181298Y0064058D01*
X0180849Y0063440D01*
X0180310Y0062901D01*
X0179692Y0062452D01*
X0180339Y0062930D02*
X0185350Y0062930D01*
X0185350Y0061732D02*
X0126125Y0061732D01*
X0126125Y0062930D02*
X0135950Y0062930D01*
X0137120Y0062930D02*
X0137121Y0062930D01*
X0138291Y0062930D02*
X0173961Y0062930D01*
X0172966Y0064129D02*
X0156919Y0064129D01*
X0156919Y0065327D02*
X0172464Y0065327D01*
X0172418Y0067724D02*
X0156919Y0067724D01*
X0156919Y0066526D02*
X0177061Y0066526D01*
X0177239Y0066526D02*
X0185350Y0066526D01*
X0185350Y0067724D02*
X0181882Y0067724D01*
X0181881Y0067736D02*
X0181645Y0068462D01*
X0181298Y0069142D01*
X0180849Y0069760D01*
X0180310Y0070299D01*
X0179692Y0070748D01*
X0179012Y0071095D01*
X0178286Y0071331D01*
X0177532Y0071450D01*
X0177239Y0071450D01*
X0177239Y0066689D01*
X0182000Y0066689D01*
X0182000Y0066982D01*
X0181881Y0067736D01*
X0181410Y0068923D02*
X0184782Y0068923D01*
X0183583Y0070121D02*
X0180488Y0070121D01*
X0182385Y0071320D02*
X0178319Y0071320D01*
X0177239Y0071320D02*
X0177061Y0071320D01*
X0175981Y0071320D02*
X0138644Y0071320D01*
X0137121Y0071320D02*
X0137120Y0071320D01*
X0137120Y0070121D02*
X0137121Y0070121D01*
X0137120Y0068923D02*
X0137121Y0068923D01*
X0137120Y0067724D02*
X0137121Y0067724D01*
X0137121Y0067206D02*
X0137120Y0067206D01*
X0137120Y0066526D02*
X0137121Y0066526D01*
X0137120Y0065327D02*
X0137121Y0065327D01*
X0137120Y0064129D02*
X0137121Y0064129D01*
X0132150Y0067354D02*
X0132002Y0067206D01*
X0132150Y0067354D02*
X0132150Y0077850D01*
X0134370Y0079709D02*
X0161495Y0079709D01*
X0160297Y0080908D02*
X0132753Y0080908D01*
X0133952Y0082106D02*
X0159098Y0082106D01*
X0157900Y0083305D02*
X0135150Y0083305D01*
X0136349Y0084503D02*
X0156701Y0084503D01*
X0155503Y0085702D02*
X0137547Y0085702D01*
X0138746Y0086900D02*
X0154304Y0086900D01*
X0153106Y0088099D02*
X0139944Y0088099D01*
X0141143Y0089297D02*
X0151907Y0089297D01*
X0150709Y0090496D02*
X0142341Y0090496D01*
X0143540Y0091694D02*
X0146272Y0091694D01*
X0147357Y0091694D02*
X0147357Y0091694D01*
X0148441Y0091694D02*
X0150675Y0091694D01*
X0147357Y0092893D02*
X0147357Y0092893D01*
X0147357Y0094091D02*
X0147357Y0094091D01*
X0147357Y0095290D02*
X0147357Y0095290D01*
X0139680Y0096488D02*
X0139679Y0096488D01*
X0139679Y0097687D02*
X0139680Y0097687D01*
X0139679Y0098885D02*
X0139680Y0098885D01*
X0139679Y0100084D02*
X0139680Y0100084D01*
X0138920Y0101282D02*
X0140537Y0101282D01*
X0141735Y0102481D02*
X0138815Y0102481D01*
X0137616Y0103679D02*
X0146684Y0103679D01*
X0147882Y0104878D02*
X0136418Y0104878D01*
X0135219Y0106076D02*
X0138932Y0106076D01*
X0138932Y0107275D02*
X0134502Y0107275D01*
X0135112Y0108473D02*
X0138932Y0108473D01*
X0141244Y0110350D02*
X0142494Y0109100D01*
X0141244Y0110350D02*
X0131746Y0110350D01*
X0130054Y0105350D02*
X0125054Y0110350D01*
X0120900Y0116600D02*
X0118400Y0114100D01*
X0118400Y0106600D01*
X0122150Y0102850D01*
X0132150Y0102850D01*
X0134561Y0100439D01*
X0134561Y0095994D01*
X0137120Y0095994D02*
X0137120Y0101630D01*
X0133400Y0105350D01*
X0130054Y0105350D01*
X0119973Y0102481D02*
X0111543Y0102481D01*
X0111669Y0102175D02*
X0110322Y0105428D01*
X0107832Y0107917D01*
X0104580Y0109265D01*
X0101059Y0109265D01*
X0097806Y0107917D01*
X0095317Y0105428D01*
X0093969Y0102175D01*
X0093969Y0098654D01*
X0095317Y0095401D01*
X0097806Y0092912D01*
X0101059Y0091565D01*
X0104580Y0091565D01*
X0107832Y0092912D01*
X0110322Y0095401D01*
X0111669Y0098654D01*
X0111669Y0102175D01*
X0111669Y0101282D02*
X0121172Y0101282D01*
X0119881Y0098885D02*
X0111669Y0098885D01*
X0111669Y0100084D02*
X0127880Y0100084D01*
X0129443Y0100084D02*
X0129443Y0100084D01*
X0129443Y0098885D02*
X0129443Y0098885D01*
X0129443Y0097687D02*
X0129443Y0097687D01*
X0129443Y0096488D02*
X0129443Y0096488D01*
X0129443Y0095994D02*
X0129443Y0095994D01*
X0129443Y0095290D02*
X0129443Y0095290D01*
X0129443Y0094091D02*
X0129443Y0094091D01*
X0129443Y0092893D02*
X0129443Y0092893D01*
X0129443Y0091694D02*
X0129443Y0091694D01*
X0128359Y0091694D02*
X0104893Y0091694D01*
X0107786Y0092893D02*
X0119881Y0092893D01*
X0119881Y0094091D02*
X0109012Y0094091D01*
X0110210Y0095290D02*
X0119881Y0095290D01*
X0119881Y0096488D02*
X0110772Y0096488D01*
X0111269Y0097687D02*
X0119881Y0097687D01*
X0131007Y0100084D02*
X0132371Y0100084D01*
X0118775Y0103679D02*
X0111046Y0103679D01*
X0110550Y0104878D02*
X0117576Y0104878D01*
X0116600Y0106076D02*
X0109673Y0106076D01*
X0108475Y0107275D02*
X0116600Y0107275D01*
X0116600Y0108473D02*
X0106490Y0108473D01*
X0116600Y0109672D02*
X0041328Y0109672D01*
X0041824Y0108473D02*
X0099149Y0108473D01*
X0097164Y0107275D02*
X0041900Y0107275D01*
X0041900Y0108291D02*
X0041900Y0104909D01*
X0040606Y0101785D01*
X0038215Y0099394D01*
X0035091Y0098100D01*
X0031709Y0098100D01*
X0028585Y0099394D01*
X0026194Y0101785D01*
X0024900Y0104909D01*
X0024900Y0108291D01*
X0026194Y0111415D01*
X0028585Y0113806D01*
X0031709Y0115100D01*
X0035091Y0115100D01*
X0038215Y0113806D01*
X0040606Y0111415D01*
X0041900Y0108291D01*
X0041900Y0106076D02*
X0095965Y0106076D01*
X0095089Y0104878D02*
X0041887Y0104878D01*
X0041391Y0103679D02*
X0066651Y0103679D01*
X0067425Y0104000D02*
X0065624Y0103254D01*
X0064246Y0101876D01*
X0063500Y0100075D01*
X0063500Y0098125D01*
X0064246Y0096324D01*
X0065624Y0094946D01*
X0067425Y0094200D01*
X0069375Y0094200D01*
X0071176Y0094946D01*
X0072554Y0096324D01*
X0073300Y0098125D01*
X0073300Y0100075D01*
X0072554Y0101876D01*
X0071176Y0103254D01*
X0069375Y0104000D01*
X0067425Y0104000D01*
X0070149Y0103679D02*
X0094592Y0103679D01*
X0094096Y0102481D02*
X0071949Y0102481D01*
X0072800Y0101282D02*
X0093969Y0101282D01*
X0093969Y0100084D02*
X0073296Y0100084D01*
X0073300Y0098885D02*
X0093969Y0098885D01*
X0094370Y0097687D02*
X0073118Y0097687D01*
X0072622Y0096488D02*
X0094866Y0096488D01*
X0095428Y0095290D02*
X0071519Y0095290D01*
X0071176Y0093254D02*
X0069375Y0094000D01*
X0067425Y0094000D01*
X0065624Y0093254D01*
X0064246Y0091876D01*
X0063500Y0090075D01*
X0063500Y0088125D01*
X0064246Y0086324D01*
X0064670Y0085900D01*
X0062958Y0085900D01*
X0062554Y0086876D01*
X0061176Y0088254D01*
X0059375Y0089000D01*
X0057425Y0089000D01*
X0055624Y0088254D01*
X0054246Y0086876D01*
X0053500Y0085075D01*
X0053500Y0083125D01*
X0054246Y0081324D01*
X0055624Y0079946D01*
X0057425Y0079200D01*
X0059375Y0079200D01*
X0061176Y0079946D01*
X0062554Y0081324D01*
X0062958Y0082300D01*
X0064174Y0082300D01*
X0063867Y0081878D01*
X0063488Y0081134D01*
X0063230Y0080341D01*
X0063100Y0079517D01*
X0063100Y0079500D01*
X0068000Y0079500D01*
X0068000Y0078700D01*
X0063100Y0078700D01*
X0063100Y0078683D01*
X0063230Y0077859D01*
X0063488Y0077066D01*
X0063867Y0076322D01*
X0064357Y0075647D01*
X0064947Y0075057D01*
X0065622Y0074567D01*
X0066366Y0074188D01*
X0067159Y0073930D01*
X0067983Y0073800D01*
X0068000Y0073800D01*
X0068000Y0078700D01*
X0068800Y0078700D01*
X0068800Y0079500D01*
X0073700Y0079500D01*
X0073700Y0079517D01*
X0073569Y0080341D01*
X0073312Y0081134D01*
X0072933Y0081878D01*
X0072626Y0082300D01*
X0085231Y0082300D01*
X0085231Y0080591D01*
X0085934Y0079888D01*
X0090866Y0079888D01*
X0091568Y0080591D01*
X0091568Y0085916D01*
X0090884Y0086600D01*
X0091568Y0087284D01*
X0091568Y0092609D01*
X0090866Y0093312D01*
X0085934Y0093312D01*
X0085231Y0092609D01*
X0085231Y0090900D01*
X0072958Y0090900D01*
X0072554Y0091876D01*
X0071176Y0093254D01*
X0071537Y0092893D02*
X0085515Y0092893D01*
X0085231Y0091694D02*
X0072629Y0091694D01*
X0068400Y0089100D02*
X0087554Y0089100D01*
X0088400Y0089946D01*
X0091568Y0090496D02*
X0137250Y0090496D01*
X0136052Y0089297D02*
X0091568Y0089297D01*
X0091568Y0088099D02*
X0134853Y0088099D01*
X0133655Y0086900D02*
X0091185Y0086900D01*
X0091568Y0085702D02*
X0132456Y0085702D01*
X0131258Y0084503D02*
X0091568Y0084503D01*
X0091568Y0083305D02*
X0130059Y0083305D01*
X0128861Y0082106D02*
X0091568Y0082106D01*
X0091568Y0080908D02*
X0127662Y0080908D01*
X0126600Y0079709D02*
X0073670Y0079709D01*
X0073700Y0078700D02*
X0068800Y0078700D01*
X0068800Y0073800D01*
X0068817Y0073800D01*
X0069641Y0073930D01*
X0070434Y0074188D01*
X0071178Y0074567D01*
X0071853Y0075057D01*
X0072443Y0075647D01*
X0072933Y0076322D01*
X0073312Y0077066D01*
X0073569Y0077859D01*
X0073700Y0078683D01*
X0073700Y0078700D01*
X0073673Y0078511D02*
X0126600Y0078511D01*
X0126600Y0077312D02*
X0073392Y0077312D01*
X0072781Y0076114D02*
X0126600Y0076114D01*
X0127150Y0074100D02*
X0129443Y0071807D01*
X0129443Y0067206D01*
X0124325Y0067206D02*
X0124325Y0052328D01*
X0125054Y0051600D01*
X0121688Y0052143D02*
X0116450Y0052143D01*
X0116450Y0050945D02*
X0121688Y0050945D01*
X0121688Y0049746D02*
X0116450Y0049746D01*
X0116498Y0048548D02*
X0122275Y0048548D01*
X0117696Y0047349D02*
X0147005Y0047349D01*
X0145807Y0046151D02*
X0118895Y0046151D01*
X0120093Y0044952D02*
X0144608Y0044952D01*
X0148999Y0042555D02*
X0157646Y0042555D01*
X0157646Y0041357D02*
X0147801Y0041357D01*
X0146602Y0040158D02*
X0157646Y0040158D01*
X0157646Y0039542D02*
X0157646Y0044074D01*
X0157755Y0044481D01*
X0157966Y0044846D01*
X0158264Y0045144D01*
X0158629Y0045355D01*
X0159036Y0045464D01*
X0162583Y0045464D01*
X0162583Y0039543D01*
X0163783Y0039543D01*
X0163783Y0045464D01*
X0167331Y0045464D01*
X0167738Y0045355D01*
X0168103Y0045144D01*
X0168401Y0044846D01*
X0168611Y0044481D01*
X0168720Y0044074D01*
X0168720Y0039542D01*
X0163784Y0039542D01*
X0163784Y0038343D01*
X0168720Y0038343D01*
X0168720Y0033811D01*
X0168611Y0033404D01*
X0168401Y0033039D01*
X0168103Y0032741D01*
X0167738Y0032530D01*
X0167331Y0032421D01*
X0163783Y0032421D01*
X0163783Y0038342D01*
X0162583Y0038342D01*
X0162583Y0032421D01*
X0159036Y0032421D01*
X0158629Y0032530D01*
X0158264Y0032741D01*
X0157966Y0033039D01*
X0157755Y0033404D01*
X0157646Y0033811D01*
X0157646Y0038343D01*
X0162583Y0038343D01*
X0162583Y0039542D01*
X0157646Y0039542D01*
X0157646Y0037761D02*
X0130633Y0037761D01*
X0130997Y0038960D02*
X0129434Y0038960D01*
X0130487Y0040158D02*
X0128236Y0040158D01*
X0127037Y0041357D02*
X0130487Y0041357D01*
X0130487Y0042555D02*
X0126313Y0042555D01*
X0126290Y0043754D02*
X0130510Y0043754D01*
X0128968Y0048548D02*
X0127832Y0048548D01*
X0131746Y0051600D02*
X0137150Y0051600D01*
X0139375Y0049746D02*
X0149346Y0049746D01*
X0149071Y0050945D02*
X0148295Y0050945D01*
X0145438Y0050945D02*
X0144669Y0050945D01*
X0144669Y0052143D02*
X0145438Y0052143D01*
X0145438Y0053342D02*
X0144669Y0053342D01*
X0144669Y0054540D02*
X0145438Y0054540D01*
X0145438Y0055739D02*
X0144669Y0055739D01*
X0144669Y0056937D02*
X0145438Y0056937D01*
X0148565Y0056937D02*
X0148753Y0056937D01*
X0154740Y0056937D02*
X0163692Y0056937D01*
X0164890Y0058136D02*
X0126125Y0058136D01*
X0126125Y0059334D02*
X0172700Y0059334D01*
X0172886Y0060533D02*
X0126125Y0060533D01*
X0122525Y0058136D02*
X0122373Y0058136D01*
X0122525Y0056937D02*
X0121566Y0056937D01*
X0122525Y0055739D02*
X0116450Y0055739D01*
X0116450Y0056937D02*
X0117734Y0056937D01*
X0116927Y0058136D02*
X0116450Y0058136D01*
X0116450Y0059334D02*
X0116766Y0059334D01*
X0116450Y0060533D02*
X0117122Y0060533D01*
X0116450Y0061732D02*
X0118466Y0061732D01*
X0119966Y0062930D02*
X0116450Y0062930D01*
X0116450Y0064129D02*
X0119881Y0064129D01*
X0119881Y0065327D02*
X0116450Y0065327D01*
X0116450Y0066526D02*
X0119881Y0066526D01*
X0119881Y0067724D02*
X0117070Y0067724D01*
X0118268Y0068923D02*
X0119881Y0068923D01*
X0119881Y0070121D02*
X0119467Y0070121D01*
X0120665Y0071320D02*
X0127385Y0071320D01*
X0117971Y0073717D02*
X0063300Y0073717D01*
X0063300Y0073125D02*
X0063300Y0075075D01*
X0062554Y0076876D01*
X0061176Y0078254D01*
X0059375Y0079000D01*
X0057425Y0079000D01*
X0055624Y0078254D01*
X0054246Y0076876D01*
X0053500Y0075075D01*
X0053500Y0073125D01*
X0054246Y0071324D01*
X0055624Y0069946D01*
X0056339Y0069650D01*
X0055396Y0069650D01*
X0052700Y0072346D01*
X0052700Y0087104D01*
X0055583Y0089987D01*
X0055624Y0089946D01*
X0057425Y0089200D01*
X0059375Y0089200D01*
X0061176Y0089946D01*
X0062554Y0091324D01*
X0063300Y0093125D01*
X0063300Y0095075D01*
X0062554Y0096876D01*
X0061176Y0098254D01*
X0059375Y0099000D01*
X0057425Y0099000D01*
X0055624Y0098254D01*
X0054246Y0096876D01*
X0053500Y0095075D01*
X0053500Y0093125D01*
X0053538Y0093034D01*
X0050154Y0089650D01*
X0049100Y0088596D01*
X0049100Y0070854D01*
X0052850Y0067104D01*
X0053904Y0066050D01*
X0084050Y0066050D01*
X0084050Y0064463D01*
X0083970Y0064382D01*
X0083759Y0064018D01*
X0083650Y0063611D01*
X0083650Y0061650D01*
X0087850Y0061650D01*
X0087850Y0060550D01*
X0088950Y0060550D01*
X0088950Y0061650D01*
X0093150Y0061650D01*
X0093150Y0063611D01*
X0093041Y0064018D01*
X0092830Y0064382D01*
X0092750Y0064463D01*
X0092750Y0069897D01*
X0092047Y0070600D01*
X0084753Y0070600D01*
X0084050Y0069897D01*
X0084050Y0069650D01*
X0060461Y0069650D01*
X0061176Y0069946D01*
X0062554Y0071324D01*
X0063300Y0073125D01*
X0063048Y0072518D02*
X0116773Y0072518D01*
X0115574Y0071320D02*
X0062549Y0071320D01*
X0061351Y0070121D02*
X0084274Y0070121D01*
X0092526Y0070121D02*
X0114376Y0070121D01*
X0113177Y0068923D02*
X0092750Y0068923D01*
X0092750Y0067724D02*
X0112850Y0067724D01*
X0112850Y0066526D02*
X0092750Y0066526D01*
X0092750Y0065327D02*
X0112850Y0065327D01*
X0112850Y0064129D02*
X0092977Y0064129D01*
X0093150Y0062930D02*
X0112850Y0062930D01*
X0112850Y0061732D02*
X0093150Y0061732D01*
X0093150Y0060550D02*
X0088950Y0060550D01*
X0088950Y0057200D01*
X0091761Y0057200D01*
X0092168Y0057309D01*
X0092532Y0057520D01*
X0092830Y0057818D01*
X0093041Y0058182D01*
X0093150Y0058589D01*
X0093150Y0060550D01*
X0093150Y0060533D02*
X0112850Y0060533D01*
X0112850Y0059334D02*
X0093150Y0059334D01*
X0093014Y0058136D02*
X0112850Y0058136D01*
X0112850Y0056937D02*
X0015500Y0056937D01*
X0015500Y0055739D02*
X0112850Y0055739D01*
X0112850Y0054540D02*
X0015500Y0054540D01*
X0015500Y0053342D02*
X0112850Y0053342D01*
X0112850Y0052143D02*
X0015500Y0052143D01*
X0015500Y0050945D02*
X0112850Y0050945D01*
X0112850Y0049746D02*
X0015500Y0049746D01*
X0015500Y0048548D02*
X0112850Y0048548D01*
X0112850Y0047349D02*
X0015500Y0047349D01*
X0015500Y0046151D02*
X0113804Y0046151D01*
X0115002Y0044952D02*
X0015500Y0044952D01*
X0015500Y0043754D02*
X0116201Y0043754D01*
X0121654Y0038960D02*
X0121942Y0038960D01*
X0120455Y0037761D02*
X0123845Y0037761D01*
X0125043Y0036563D02*
X0119257Y0036563D01*
X0118058Y0035364D02*
X0126242Y0035364D01*
X0132491Y0036563D02*
X0157646Y0036563D01*
X0157646Y0035364D02*
X0133498Y0035364D01*
X0133784Y0034166D02*
X0157646Y0034166D01*
X0158038Y0032967D02*
X0133553Y0032967D01*
X0132648Y0031769D02*
X0169432Y0031769D01*
X0168329Y0032967D02*
X0171458Y0032967D01*
X0172417Y0034166D02*
X0168720Y0034166D01*
X0168720Y0035364D02*
X0172417Y0035364D01*
X0172417Y0036563D02*
X0168720Y0036563D01*
X0168720Y0037761D02*
X0172417Y0037761D01*
X0172417Y0038960D02*
X0163784Y0038960D01*
X0163783Y0040158D02*
X0162583Y0040158D01*
X0162583Y0038960D02*
X0134858Y0038960D01*
X0150198Y0043754D02*
X0157646Y0043754D01*
X0158072Y0044952D02*
X0151396Y0044952D01*
X0152595Y0046151D02*
X0168804Y0046151D01*
X0168295Y0044952D02*
X0170002Y0044952D01*
X0171201Y0043754D02*
X0168720Y0043754D01*
X0168720Y0042555D02*
X0172399Y0042555D01*
X0172417Y0041357D02*
X0168720Y0041357D01*
X0168720Y0040158D02*
X0172417Y0040158D01*
X0163783Y0041357D02*
X0162583Y0041357D01*
X0162583Y0042555D02*
X0163783Y0042555D01*
X0163783Y0043754D02*
X0162583Y0043754D01*
X0162583Y0044952D02*
X0163783Y0044952D01*
X0167605Y0047349D02*
X0153786Y0047349D01*
X0154146Y0048548D02*
X0166407Y0048548D01*
X0165208Y0049746D02*
X0154146Y0049746D01*
X0154422Y0050945D02*
X0164009Y0050945D01*
X0162811Y0052143D02*
X0155112Y0052143D01*
X0151746Y0054100D02*
X0163400Y0054100D01*
X0166386Y0054540D02*
X0172700Y0054540D01*
X0172700Y0053342D02*
X0166704Y0053342D01*
X0167902Y0052143D02*
X0181398Y0052143D01*
X0181600Y0053342D02*
X0182596Y0053342D01*
X0181600Y0054540D02*
X0183795Y0054540D01*
X0184993Y0055739D02*
X0181600Y0055739D01*
X0189650Y0054100D02*
X0189650Y0070350D01*
X0183400Y0076600D01*
X0171535Y0078511D02*
X0195552Y0078511D01*
X0196180Y0079709D02*
X0170336Y0079709D01*
X0163892Y0077312D02*
X0135034Y0077312D01*
X0134998Y0078511D02*
X0162694Y0078511D01*
X0165091Y0076114D02*
X0134493Y0076114D01*
X0133950Y0074915D02*
X0166289Y0074915D01*
X0167488Y0073717D02*
X0133950Y0073717D01*
X0133950Y0072518D02*
X0168686Y0072518D01*
X0173812Y0070121D02*
X0156919Y0070121D01*
X0156919Y0068923D02*
X0172890Y0068923D01*
X0177061Y0068923D02*
X0177239Y0068923D01*
X0177239Y0070121D02*
X0177061Y0070121D01*
X0177061Y0067724D02*
X0177239Y0067724D01*
X0177239Y0065327D02*
X0177061Y0065327D01*
X0177061Y0064129D02*
X0177239Y0064129D01*
X0177239Y0062930D02*
X0177061Y0062930D01*
X0181334Y0064129D02*
X0185350Y0064129D01*
X0185350Y0065327D02*
X0181836Y0065327D01*
X0141542Y0056937D02*
X0126125Y0056937D01*
X0126125Y0055739D02*
X0141288Y0055739D01*
X0141288Y0054540D02*
X0134637Y0054540D01*
X0139487Y0053342D02*
X0141288Y0053342D01*
X0141288Y0052143D02*
X0140034Y0052143D01*
X0140001Y0050945D02*
X0141812Y0050945D01*
X0148204Y0048548D02*
X0134525Y0048548D01*
X0121688Y0053342D02*
X0116450Y0053342D01*
X0116450Y0054540D02*
X0122163Y0054540D01*
X0127944Y0054540D02*
X0128856Y0054540D01*
X0121766Y0061216D02*
X0119650Y0059100D01*
X0121766Y0061216D02*
X0121766Y0067206D01*
X0133950Y0071320D02*
X0135597Y0071320D01*
X0119170Y0074915D02*
X0071657Y0074915D01*
X0068800Y0074915D02*
X0068000Y0074915D01*
X0068000Y0076114D02*
X0068800Y0076114D01*
X0068800Y0077312D02*
X0068000Y0077312D01*
X0068000Y0078511D02*
X0068800Y0078511D01*
X0073385Y0080908D02*
X0085231Y0080908D01*
X0085231Y0082106D02*
X0072767Y0082106D01*
X0064033Y0082106D02*
X0062878Y0082106D01*
X0063415Y0080908D02*
X0062137Y0080908D01*
X0063130Y0079709D02*
X0060604Y0079709D01*
X0060556Y0078511D02*
X0063127Y0078511D01*
X0063408Y0077312D02*
X0062117Y0077312D01*
X0062870Y0076114D02*
X0064019Y0076114D01*
X0063300Y0074915D02*
X0065143Y0074915D01*
X0054683Y0077312D02*
X0052700Y0077312D01*
X0052700Y0076114D02*
X0053930Y0076114D01*
X0053500Y0074915D02*
X0052700Y0074915D01*
X0052700Y0073717D02*
X0053500Y0073717D01*
X0053752Y0072518D02*
X0052700Y0072518D01*
X0053726Y0071320D02*
X0054251Y0071320D01*
X0054924Y0070121D02*
X0055449Y0070121D01*
X0054650Y0067850D02*
X0050900Y0071600D01*
X0050900Y0087850D01*
X0057150Y0094100D01*
X0058400Y0094100D01*
X0063300Y0094091D02*
X0096627Y0094091D01*
X0097852Y0092893D02*
X0091285Y0092893D01*
X0091568Y0091694D02*
X0100746Y0091694D01*
X0130528Y0091694D02*
X0138449Y0091694D01*
X0169650Y0091600D02*
X0178292Y0082958D01*
X0183400Y0082958D01*
X0207258Y0082958D01*
X0210900Y0086600D01*
X0213544Y0083305D02*
X0214100Y0083305D01*
X0214100Y0082106D02*
X0208952Y0082106D01*
X0220900Y0079100D02*
X0223400Y0076600D01*
X0223400Y0015350D01*
X0229650Y0009100D01*
X0253400Y0009100D01*
X0260900Y0016600D01*
X0260900Y0028544D01*
X0264723Y0032367D01*
X0262531Y0034559D02*
X0258400Y0030428D01*
X0258400Y0017850D01*
X0252150Y0011600D01*
X0230900Y0011600D01*
X0225900Y0016600D01*
X0225900Y0076600D01*
X0230900Y0081600D01*
X0230900Y0099100D01*
X0233231Y0098885D02*
X0233300Y0098885D01*
X0234429Y0100084D02*
X0234699Y0100084D01*
X0235628Y0101282D02*
X0236097Y0101282D01*
X0236826Y0102481D02*
X0237495Y0102481D01*
X0237700Y0103679D02*
X0238893Y0103679D01*
X0237700Y0104878D02*
X0240292Y0104878D01*
X0240350Y0106076D02*
X0237700Y0106076D01*
X0237700Y0107275D02*
X0240350Y0107275D01*
X0240350Y0108473D02*
X0237700Y0108473D01*
X0237700Y0109672D02*
X0241426Y0109672D01*
X0242625Y0110870D02*
X0237700Y0110870D01*
X0237352Y0112069D02*
X0243823Y0112069D01*
X0245022Y0113268D02*
X0236153Y0113268D01*
X0234955Y0114466D02*
X0246220Y0114466D01*
X0246700Y0115665D02*
X0233756Y0115665D01*
X0232558Y0116863D02*
X0246700Y0116863D01*
X0246700Y0118062D02*
X0231359Y0118062D01*
X0224180Y0119260D02*
X0247620Y0119260D01*
X0248819Y0120459D02*
X0222981Y0120459D01*
X0218819Y0120459D02*
X0212981Y0120459D01*
X0214180Y0119260D02*
X0217620Y0119260D01*
X0216700Y0118062D02*
X0215100Y0118062D01*
X0215100Y0116863D02*
X0216700Y0116863D01*
X0216700Y0115665D02*
X0215100Y0115665D01*
X0214706Y0114466D02*
X0216220Y0114466D01*
X0215022Y0113268D02*
X0213507Y0113268D01*
X0214100Y0112069D02*
X0207977Y0112069D01*
X0208293Y0113268D02*
X0206778Y0113268D01*
X0209175Y0110870D02*
X0214100Y0110870D01*
X0214100Y0109672D02*
X0213768Y0109672D01*
X0205282Y0109672D02*
X0189620Y0109672D01*
X0186746Y0104504D02*
X0179650Y0111600D01*
X0179650Y0113992D01*
X0179758Y0114100D01*
X0174650Y0114100D01*
X0186953Y0116863D02*
X0187131Y0116863D01*
X0187131Y0118062D02*
X0186953Y0118062D01*
X0186953Y0119260D02*
X0187131Y0119260D01*
X0152506Y0113268D02*
X0134660Y0113268D01*
X0135112Y0114466D02*
X0139063Y0114466D01*
X0141244Y0116600D02*
X0131746Y0116600D01*
X0125054Y0116600D02*
X0120900Y0116600D01*
X0119816Y0118062D02*
X0015500Y0118062D01*
X0015500Y0119260D02*
X0121883Y0119260D01*
X0128224Y0119260D02*
X0128576Y0119260D01*
X0134917Y0119260D02*
X0138932Y0119260D01*
X0138932Y0120459D02*
X0015500Y0120459D01*
X0015500Y0121657D02*
X0139486Y0121657D01*
X0142494Y0117850D02*
X0141244Y0116600D01*
X0118617Y0116863D02*
X0015500Y0116863D01*
X0015500Y0115665D02*
X0117419Y0115665D01*
X0116600Y0114466D02*
X0036621Y0114466D01*
X0038753Y0113268D02*
X0116600Y0113268D01*
X0116600Y0112069D02*
X0039952Y0112069D01*
X0040831Y0110870D02*
X0116600Y0110870D01*
X0146057Y0106076D02*
X0149081Y0106076D01*
X0154306Y0109100D02*
X0160054Y0109100D01*
X0162554Y0106600D01*
X0162554Y0109504D01*
X0172612Y0108473D02*
X0172731Y0108473D01*
X0172612Y0107275D02*
X0173083Y0107275D01*
X0172612Y0106076D02*
X0174282Y0106076D01*
X0175480Y0104878D02*
X0172612Y0104878D01*
X0172157Y0103679D02*
X0176679Y0103679D01*
X0169650Y0106196D02*
X0169246Y0106600D01*
X0169650Y0106196D02*
X0169650Y0091600D01*
X0185959Y0090242D02*
X0185959Y0095813D01*
X0186746Y0096600D01*
X0187759Y0092893D02*
X0190752Y0092893D01*
X0192150Y0090350D02*
X0186067Y0090350D01*
X0185959Y0090242D01*
X0213132Y0092893D02*
X0214100Y0092893D01*
X0233400Y0096600D02*
X0242150Y0104100D01*
X0242150Y0107850D01*
X0250900Y0116600D01*
X0255100Y0116863D02*
X0256700Y0116863D01*
X0256700Y0115665D02*
X0255100Y0115665D01*
X0254706Y0114466D02*
X0257094Y0114466D01*
X0257522Y0113268D02*
X0253507Y0113268D01*
X0256323Y0112069D02*
X0248915Y0112069D01*
X0248665Y0110870D02*
X0247716Y0110870D01*
X0247467Y0109672D02*
X0246518Y0109672D01*
X0246300Y0108473D02*
X0245319Y0108473D01*
X0246300Y0107275D02*
X0244121Y0107275D01*
X0243950Y0106076D02*
X0246300Y0106076D01*
X0246300Y0104878D02*
X0243950Y0104878D01*
X0243950Y0103679D02*
X0247315Y0103679D01*
X0248514Y0102481D02*
X0243076Y0102481D01*
X0241629Y0101282D02*
X0254003Y0101282D01*
X0253286Y0102481D02*
X0254973Y0102481D01*
X0255900Y0104100D02*
X0259650Y0100350D01*
X0259650Y0075906D01*
X0264723Y0070833D01*
X0262609Y0068641D02*
X0269650Y0061600D01*
X0269650Y0056997D01*
X0269650Y0048087D01*
X0278724Y0039013D01*
X0278724Y0038776D01*
X0287150Y0030350D01*
X0289650Y0030350D01*
X0291034Y0031734D01*
X0298667Y0024100D01*
X0310900Y0024100D01*
X0315350Y0024578D02*
X0316065Y0024578D01*
X0316050Y0024482D02*
X0316050Y0024189D01*
X0320811Y0024189D01*
X0320811Y0028950D01*
X0320518Y0028950D01*
X0319764Y0028831D01*
X0319038Y0028595D01*
X0318358Y0028248D01*
X0317740Y0027799D01*
X0317201Y0027260D01*
X0316752Y0026642D01*
X0316405Y0025962D01*
X0316169Y0025236D01*
X0316050Y0024482D01*
X0316050Y0024011D02*
X0316050Y0023718D01*
X0316169Y0022964D01*
X0316405Y0022238D01*
X0316752Y0021558D01*
X0317201Y0020940D01*
X0317740Y0020401D01*
X0318358Y0019952D01*
X0319038Y0019605D01*
X0319764Y0019369D01*
X0320518Y0019250D01*
X0320811Y0019250D01*
X0320811Y0024011D01*
X0320989Y0024011D01*
X0320989Y0024189D01*
X0325750Y0024189D01*
X0325750Y0024482D01*
X0325631Y0025236D01*
X0325395Y0025962D01*
X0325048Y0026642D01*
X0324599Y0027260D01*
X0324060Y0027799D01*
X0323442Y0028248D01*
X0322762Y0028595D01*
X0322036Y0028831D01*
X0321282Y0028950D01*
X0320989Y0028950D01*
X0320989Y0024189D01*
X0320811Y0024189D01*
X0320811Y0024011D01*
X0316050Y0024011D01*
X0316104Y0023379D02*
X0315350Y0023379D01*
X0315350Y0022181D02*
X0316435Y0022181D01*
X0317170Y0020982D02*
X0315350Y0020982D01*
X0314781Y0019784D02*
X0318688Y0019784D01*
X0320811Y0019784D02*
X0320989Y0019784D01*
X0320989Y0019250D02*
X0321282Y0019250D01*
X0322036Y0019369D01*
X0322762Y0019605D01*
X0323442Y0019952D01*
X0324060Y0020401D01*
X0324599Y0020940D01*
X0325048Y0021558D01*
X0325395Y0022238D01*
X0325631Y0022964D01*
X0325750Y0023718D01*
X0325750Y0024011D01*
X0320989Y0024011D01*
X0320989Y0019250D01*
X0320989Y0020982D02*
X0320811Y0020982D01*
X0320811Y0022181D02*
X0320989Y0022181D01*
X0320989Y0023379D02*
X0320811Y0023379D01*
X0320811Y0024578D02*
X0320989Y0024578D01*
X0320989Y0025776D02*
X0320811Y0025776D01*
X0320811Y0026975D02*
X0320989Y0026975D01*
X0320989Y0028173D02*
X0320811Y0028173D01*
X0318255Y0028173D02*
X0315024Y0028173D01*
X0315350Y0026975D02*
X0316994Y0026975D01*
X0316345Y0025776D02*
X0315350Y0025776D01*
X0323545Y0028173D02*
X0374281Y0028173D01*
X0374838Y0026975D02*
X0324806Y0026975D01*
X0325455Y0025776D02*
X0374838Y0025776D01*
X0374838Y0024578D02*
X0325735Y0024578D01*
X0325696Y0023379D02*
X0375199Y0023379D01*
X0380274Y0022181D02*
X0325365Y0022181D01*
X0324630Y0020982D02*
X0381472Y0020982D01*
X0382671Y0019784D02*
X0323112Y0019784D01*
X0307019Y0019784D02*
X0297137Y0019784D01*
X0295938Y0020982D02*
X0306450Y0020982D01*
X0306450Y0022181D02*
X0294740Y0022181D01*
X0293541Y0023379D02*
X0296843Y0023379D01*
X0295644Y0024578D02*
X0292343Y0024578D01*
X0291144Y0025776D02*
X0294446Y0025776D01*
X0293247Y0026975D02*
X0289946Y0026975D01*
X0289835Y0028173D02*
X0288747Y0028173D01*
X0291954Y0028173D02*
X0292049Y0028173D01*
X0295941Y0029372D02*
X0373083Y0029372D01*
X0371884Y0030570D02*
X0294743Y0030570D01*
X0295157Y0031769D02*
X0371600Y0031769D01*
X0371600Y0032967D02*
X0297314Y0032967D01*
X0297523Y0034166D02*
X0371600Y0034166D01*
X0371600Y0035364D02*
X0299711Y0035364D01*
X0300289Y0036563D02*
X0371600Y0036563D01*
X0371600Y0037761D02*
X0299796Y0037761D01*
X0297605Y0037761D02*
X0296518Y0037761D01*
X0296406Y0036563D02*
X0296213Y0036563D01*
X0295319Y0036563D02*
X0295126Y0036563D01*
X0295015Y0037761D02*
X0293928Y0037761D01*
X0293816Y0038960D02*
X0289836Y0038960D01*
X0291034Y0037761D02*
X0292015Y0037761D01*
X0294412Y0040158D02*
X0288637Y0040158D01*
X0285943Y0037761D02*
X0283835Y0037761D01*
X0284168Y0038094D02*
X0280987Y0041276D01*
X0284168Y0038094D01*
X0283312Y0037238D01*
X0282992Y0037053D01*
X0287432Y0032613D01*
X0289262Y0034443D01*
X0284889Y0038815D01*
X0284168Y0038094D01*
X0283303Y0038960D02*
X0283303Y0038960D01*
X0282104Y0040158D02*
X0282104Y0040158D01*
X0280987Y0041276D02*
X0280987Y0041276D01*
X0280986Y0041276D02*
X0280986Y0041276D01*
X0277804Y0044458D01*
X0276948Y0043602D01*
X0276850Y0043432D01*
X0271450Y0048833D01*
X0271450Y0052651D01*
X0278741Y0045361D01*
X0278661Y0045314D01*
X0277805Y0044458D01*
X0280986Y0041276D01*
X0280906Y0041357D02*
X0280906Y0041357D01*
X0279707Y0042555D02*
X0279707Y0042555D01*
X0278509Y0043754D02*
X0278509Y0043754D01*
X0278299Y0044952D02*
X0275330Y0044952D01*
X0274132Y0046151D02*
X0277950Y0046151D01*
X0276752Y0047349D02*
X0272933Y0047349D01*
X0271735Y0048548D02*
X0275553Y0048548D01*
X0274355Y0049746D02*
X0271450Y0049746D01*
X0271450Y0050945D02*
X0273156Y0050945D01*
X0271958Y0052143D02*
X0271450Y0052143D01*
X0267850Y0052143D02*
X0251831Y0052143D01*
X0251288Y0051600D02*
X0253124Y0053436D01*
X0253124Y0053511D01*
X0253199Y0053511D01*
X0255316Y0055628D01*
X0255316Y0055774D01*
X0255462Y0055774D01*
X0257254Y0057566D01*
X0257368Y0057566D01*
X0257775Y0057675D01*
X0258139Y0057886D01*
X0258995Y0058742D01*
X0255814Y0061924D01*
X0258995Y0058742D01*
X0259852Y0059598D01*
X0260062Y0059963D01*
X0260171Y0060370D01*
X0260171Y0060483D01*
X0262034Y0062346D01*
X0262034Y0062421D01*
X0262109Y0062421D01*
X0264196Y0064508D01*
X0267850Y0060854D01*
X0267850Y0047479D01*
X0267534Y0047795D01*
X0266474Y0048234D01*
X0265326Y0048234D01*
X0264266Y0047795D01*
X0263621Y0047150D01*
X0260529Y0047150D01*
X0260845Y0047466D01*
X0261284Y0048526D01*
X0261284Y0049674D01*
X0260845Y0050734D01*
X0260034Y0051545D01*
X0258974Y0051984D01*
X0257826Y0051984D01*
X0256766Y0051545D01*
X0255955Y0050734D01*
X0255516Y0049674D01*
X0255516Y0048526D01*
X0255813Y0047809D01*
X0255430Y0047426D01*
X0255316Y0047426D01*
X0255316Y0047572D01*
X0253199Y0049689D01*
X0253124Y0049689D01*
X0253124Y0049764D01*
X0251288Y0051600D01*
X0251943Y0050945D02*
X0256166Y0050945D01*
X0255546Y0049746D02*
X0253124Y0049746D01*
X0254340Y0048548D02*
X0255516Y0048548D01*
X0258400Y0049100D02*
X0258400Y0047850D01*
X0254018Y0043468D01*
X0253621Y0043468D01*
X0255813Y0041513D02*
X0259650Y0045350D01*
X0265900Y0045350D01*
X0263820Y0047349D02*
X0260728Y0047349D01*
X0261284Y0048548D02*
X0267850Y0048548D01*
X0267850Y0049746D02*
X0261254Y0049746D01*
X0260634Y0050945D02*
X0267850Y0050945D01*
X0267850Y0053342D02*
X0253030Y0053342D01*
X0254228Y0054540D02*
X0267850Y0054540D01*
X0267850Y0055739D02*
X0255316Y0055739D01*
X0256625Y0056937D02*
X0267850Y0056937D01*
X0267850Y0058136D02*
X0258390Y0058136D01*
X0258403Y0059334D02*
X0258403Y0059334D01*
X0259588Y0059334D02*
X0267850Y0059334D01*
X0267850Y0060533D02*
X0260221Y0060533D01*
X0261420Y0061732D02*
X0266973Y0061732D01*
X0265774Y0062930D02*
X0262618Y0062930D01*
X0263817Y0064129D02*
X0264576Y0064129D01*
X0258076Y0064186D02*
X0248400Y0073863D01*
X0248400Y0080754D01*
X0251568Y0080908D02*
X0255350Y0080908D01*
X0255350Y0082106D02*
X0251568Y0082106D01*
X0251568Y0083305D02*
X0255350Y0083305D01*
X0255350Y0084503D02*
X0251767Y0084503D01*
X0251968Y0085702D02*
X0255350Y0085702D01*
X0255350Y0086900D02*
X0251968Y0086900D01*
X0251968Y0088099D02*
X0255350Y0088099D01*
X0255350Y0089297D02*
X0251968Y0089297D01*
X0251706Y0090496D02*
X0255350Y0090496D01*
X0255350Y0091694D02*
X0240698Y0091694D01*
X0241281Y0092893D02*
X0255350Y0092893D01*
X0255350Y0094091D02*
X0241267Y0094091D01*
X0240664Y0095290D02*
X0255350Y0095290D01*
X0254668Y0096488D02*
X0236036Y0096488D01*
X0236136Y0095290D02*
X0235200Y0095290D01*
X0235200Y0094091D02*
X0235533Y0094091D01*
X0235272Y0092893D02*
X0235200Y0092893D01*
X0235900Y0090975D02*
X0238400Y0093475D01*
X0237966Y0090496D02*
X0245094Y0090496D01*
X0244831Y0089297D02*
X0237700Y0089297D01*
X0237700Y0088099D02*
X0244831Y0088099D01*
X0244831Y0086900D02*
X0237700Y0086900D01*
X0237700Y0085702D02*
X0244831Y0085702D01*
X0245033Y0084503D02*
X0237700Y0084503D01*
X0237700Y0083305D02*
X0245231Y0083305D01*
X0245231Y0082106D02*
X0237700Y0082106D01*
X0237700Y0080908D02*
X0245231Y0080908D01*
X0245231Y0079709D02*
X0237700Y0079709D01*
X0237700Y0078511D02*
X0245231Y0078511D01*
X0246600Y0077312D02*
X0237700Y0077312D01*
X0237700Y0076114D02*
X0246600Y0076114D01*
X0246600Y0074915D02*
X0237700Y0074915D01*
X0237700Y0073717D02*
X0246600Y0073717D01*
X0247199Y0072518D02*
X0237700Y0072518D01*
X0237700Y0071320D02*
X0248398Y0071320D01*
X0249596Y0070121D02*
X0237700Y0070121D01*
X0237700Y0068923D02*
X0250795Y0068923D01*
X0251993Y0067724D02*
X0237700Y0067724D01*
X0237700Y0066526D02*
X0245497Y0066526D01*
X0244902Y0065327D02*
X0237700Y0065327D01*
X0237700Y0064129D02*
X0244900Y0064129D01*
X0245333Y0062930D02*
X0245491Y0062930D01*
X0242717Y0062930D02*
X0237700Y0062930D01*
X0237700Y0061732D02*
X0241475Y0061732D01*
X0241141Y0060533D02*
X0237700Y0060533D01*
X0237700Y0059334D02*
X0241324Y0059334D01*
X0242160Y0058136D02*
X0237700Y0058136D01*
X0237700Y0056937D02*
X0244892Y0056937D01*
X0245593Y0055739D02*
X0237700Y0055739D01*
X0237700Y0054540D02*
X0246792Y0054540D01*
X0247990Y0053342D02*
X0237700Y0053342D01*
X0237700Y0052143D02*
X0249189Y0052143D01*
X0249077Y0050945D02*
X0237700Y0050945D01*
X0237700Y0049746D02*
X0247879Y0049746D01*
X0246680Y0048548D02*
X0237700Y0048548D01*
X0237700Y0047349D02*
X0245482Y0047349D01*
X0244780Y0046151D02*
X0237700Y0046151D01*
X0237700Y0044952D02*
X0243582Y0044952D01*
X0242383Y0043754D02*
X0237700Y0043754D01*
X0237700Y0042555D02*
X0240196Y0042555D01*
X0238454Y0041357D02*
X0237700Y0041357D01*
X0237700Y0040158D02*
X0238016Y0040158D01*
X0238095Y0038960D02*
X0237700Y0038960D01*
X0238534Y0037761D02*
X0238785Y0037761D01*
X0239733Y0036563D02*
X0248280Y0036563D01*
X0248016Y0035364D02*
X0240931Y0035364D01*
X0242130Y0034166D02*
X0248269Y0034166D01*
X0250900Y0035350D02*
X0254650Y0035350D01*
X0258076Y0038776D01*
X0258076Y0039013D01*
X0260268Y0036821D02*
X0255047Y0031600D01*
X0242150Y0031600D01*
X0235900Y0037850D01*
X0235900Y0090975D01*
X0248016Y0090496D02*
X0248784Y0090496D01*
X0248784Y0089297D02*
X0248016Y0089297D01*
X0248016Y0088099D02*
X0248784Y0088099D01*
X0220900Y0086600D02*
X0220900Y0079100D01*
X0230900Y0076600D02*
X0233400Y0079100D01*
X0233400Y0096600D01*
X0237434Y0097687D02*
X0253363Y0097687D01*
X0253016Y0098885D02*
X0238832Y0098885D01*
X0240230Y0100084D02*
X0253186Y0100084D01*
X0255900Y0099100D02*
X0257150Y0097850D01*
X0257150Y0074100D01*
X0262531Y0068719D01*
X0262531Y0068641D01*
X0262609Y0068641D01*
X0258213Y0070121D02*
X0254687Y0070121D01*
X0253489Y0071320D02*
X0257385Y0071320D01*
X0256186Y0072518D02*
X0252290Y0072518D01*
X0251092Y0073717D02*
X0255350Y0073717D01*
X0255350Y0074915D02*
X0250200Y0074915D01*
X0250200Y0076114D02*
X0255350Y0076114D01*
X0255350Y0077312D02*
X0250200Y0077312D01*
X0251568Y0078511D02*
X0255350Y0078511D01*
X0255350Y0079709D02*
X0251568Y0079709D01*
X0230900Y0076600D02*
X0230900Y0042600D01*
X0230900Y0020600D01*
X0234054Y0020600D01*
X0240900Y0027446D01*
X0241304Y0027850D01*
X0250900Y0027850D01*
X0272077Y0031673D02*
X0272077Y0032367D01*
X0272077Y0031673D02*
X0277150Y0026600D01*
X0278400Y0030350D02*
X0284025Y0030350D01*
X0299025Y0015350D01*
X0497150Y0015350D01*
X0503400Y0009100D01*
X0533056Y0009100D01*
X0539306Y0015350D01*
X0542868Y0014990D02*
X0551221Y0014990D01*
X0551221Y0016188D02*
X0542868Y0016188D01*
X0542868Y0017387D02*
X0551221Y0017387D01*
X0551221Y0018585D02*
X0542868Y0018585D01*
X0535743Y0018585D02*
X0531057Y0018585D01*
X0531057Y0017387D02*
X0535743Y0017387D01*
X0535743Y0016188D02*
X0531057Y0016188D01*
X0531057Y0014990D02*
X0535743Y0014990D01*
X0535201Y0013791D02*
X0531057Y0013791D01*
X0531057Y0012593D02*
X0534002Y0012593D01*
X0532804Y0011394D02*
X0519479Y0011394D01*
X0519826Y0012593D02*
X0523932Y0012593D01*
X0527494Y0015350D02*
X0516461Y0014207D01*
X0510152Y0014990D02*
X0509384Y0014990D01*
X0509384Y0016188D02*
X0510152Y0016188D01*
X0510152Y0017387D02*
X0509384Y0017387D01*
X0506551Y0017387D02*
X0299534Y0017387D01*
X0298335Y0018585D02*
X0383869Y0018585D01*
X0385365Y0022181D02*
X0496435Y0022181D01*
X0497634Y0023379D02*
X0431601Y0023379D01*
X0431259Y0023038D02*
X0431962Y0023741D01*
X0431962Y0029459D01*
X0431259Y0030162D01*
X0425541Y0030162D01*
X0424838Y0029459D01*
X0424838Y0023741D01*
X0425541Y0023038D01*
X0431259Y0023038D01*
X0431962Y0024578D02*
X0498832Y0024578D01*
X0499100Y0025776D02*
X0431962Y0025776D01*
X0431962Y0026975D02*
X0499100Y0026975D01*
X0499100Y0028173D02*
X0431962Y0028173D01*
X0431962Y0029372D02*
X0499100Y0029372D01*
X0499100Y0030570D02*
X0376975Y0030570D01*
X0375777Y0031769D02*
X0499100Y0031769D01*
X0499100Y0032967D02*
X0375200Y0032967D01*
X0375200Y0034166D02*
X0499100Y0034166D01*
X0499100Y0035364D02*
X0375200Y0035364D01*
X0375200Y0036563D02*
X0499100Y0036563D01*
X0499100Y0037761D02*
X0375200Y0037761D01*
X0375200Y0038960D02*
X0499100Y0038960D01*
X0499100Y0040158D02*
X0375200Y0040158D01*
X0375200Y0041357D02*
X0499100Y0041357D01*
X0499100Y0042555D02*
X0375200Y0042555D01*
X0375200Y0043754D02*
X0499100Y0043754D01*
X0499100Y0044952D02*
X0375200Y0044952D01*
X0375200Y0046151D02*
X0499100Y0046151D01*
X0499100Y0047349D02*
X0375200Y0047349D01*
X0371600Y0047349D02*
X0300445Y0047349D01*
X0299246Y0046151D02*
X0371600Y0046151D01*
X0371600Y0044952D02*
X0298048Y0044952D01*
X0296849Y0043754D02*
X0371600Y0043754D01*
X0371600Y0042555D02*
X0295651Y0042555D01*
X0294452Y0041357D02*
X0371600Y0041357D01*
X0371600Y0040158D02*
X0297399Y0040158D01*
X0297716Y0038960D02*
X0371600Y0038960D01*
X0395420Y0030453D02*
X0395827Y0030562D01*
X0398213Y0030562D01*
X0398213Y0026787D01*
X0398213Y0026413D01*
X0398587Y0026413D01*
X0398587Y0022638D01*
X0400973Y0022638D01*
X0401380Y0022747D01*
X0401745Y0022957D01*
X0402043Y0023255D01*
X0402253Y0023620D01*
X0402362Y0024027D01*
X0402362Y0026413D01*
X0398587Y0026413D01*
X0398587Y0026787D01*
X0402362Y0026787D01*
X0402362Y0029173D01*
X0402253Y0029580D01*
X0402043Y0029945D01*
X0401745Y0030243D01*
X0401380Y0030453D01*
X0400973Y0030562D01*
X0398587Y0030562D01*
X0398587Y0026787D01*
X0398213Y0026787D01*
X0394438Y0026787D01*
X0394438Y0029173D01*
X0394547Y0029580D01*
X0394757Y0029945D01*
X0395055Y0030243D01*
X0395420Y0030453D01*
X0394491Y0029372D02*
X0391962Y0029372D01*
X0391962Y0029459D02*
X0391259Y0030162D01*
X0385541Y0030162D01*
X0384838Y0029459D01*
X0384838Y0023741D01*
X0385541Y0023038D01*
X0391259Y0023038D01*
X0391962Y0023741D01*
X0391962Y0029459D01*
X0391962Y0028173D02*
X0394438Y0028173D01*
X0394438Y0026975D02*
X0391962Y0026975D01*
X0391962Y0025776D02*
X0394438Y0025776D01*
X0394438Y0026413D02*
X0394438Y0024027D01*
X0394547Y0023620D01*
X0394757Y0023255D01*
X0395055Y0022957D01*
X0395420Y0022747D01*
X0395827Y0022638D01*
X0398213Y0022638D01*
X0398213Y0026413D01*
X0394438Y0026413D01*
X0398213Y0026975D02*
X0398587Y0026975D01*
X0398587Y0028173D02*
X0398213Y0028173D01*
X0398213Y0029372D02*
X0398587Y0029372D01*
X0402309Y0029372D02*
X0404838Y0029372D01*
X0404838Y0029459D02*
X0404838Y0023741D01*
X0405541Y0023038D01*
X0411259Y0023038D01*
X0411962Y0023741D01*
X0411962Y0029459D01*
X0411259Y0030162D01*
X0405541Y0030162D01*
X0404838Y0029459D01*
X0404838Y0028173D02*
X0402362Y0028173D01*
X0402362Y0026975D02*
X0404838Y0026975D01*
X0404838Y0025776D02*
X0402362Y0025776D01*
X0402362Y0024578D02*
X0404838Y0024578D01*
X0405199Y0023379D02*
X0402114Y0023379D01*
X0398587Y0023379D02*
X0398213Y0023379D01*
X0398213Y0024578D02*
X0398587Y0024578D01*
X0398587Y0025776D02*
X0398213Y0025776D01*
X0394438Y0024578D02*
X0391962Y0024578D01*
X0391601Y0023379D02*
X0394686Y0023379D01*
X0385199Y0023379D02*
X0384166Y0023379D01*
X0384838Y0024578D02*
X0382968Y0024578D01*
X0381962Y0025776D02*
X0384838Y0025776D01*
X0384838Y0026975D02*
X0381962Y0026975D01*
X0381962Y0028173D02*
X0384838Y0028173D01*
X0384838Y0029372D02*
X0381962Y0029372D01*
X0411962Y0029372D02*
X0414838Y0029372D01*
X0414838Y0029459D02*
X0414838Y0023741D01*
X0415541Y0023038D01*
X0421259Y0023038D01*
X0421962Y0023741D01*
X0421962Y0029459D01*
X0421259Y0030162D01*
X0415541Y0030162D01*
X0414838Y0029459D01*
X0414838Y0028173D02*
X0411962Y0028173D01*
X0411962Y0026975D02*
X0414838Y0026975D01*
X0414838Y0025776D02*
X0411962Y0025776D01*
X0411962Y0024578D02*
X0414838Y0024578D01*
X0415199Y0023379D02*
X0411601Y0023379D01*
X0421601Y0023379D02*
X0425199Y0023379D01*
X0424838Y0024578D02*
X0421962Y0024578D01*
X0421962Y0025776D02*
X0424838Y0025776D01*
X0424838Y0026975D02*
X0421962Y0026975D01*
X0421962Y0028173D02*
X0424838Y0028173D01*
X0424838Y0029372D02*
X0421962Y0029372D01*
X0371600Y0048548D02*
X0301643Y0048548D01*
X0302842Y0049746D02*
X0371600Y0049746D01*
X0371600Y0050945D02*
X0304041Y0050945D01*
X0305239Y0052143D02*
X0371600Y0052143D01*
X0371600Y0053342D02*
X0338935Y0053342D01*
X0339864Y0054540D02*
X0346481Y0054540D01*
X0352818Y0054540D02*
X0371600Y0054540D01*
X0350034Y0064129D02*
X0349266Y0064129D01*
X0349266Y0065327D02*
X0350034Y0065327D01*
X0350034Y0066526D02*
X0349266Y0066526D01*
X0349266Y0067724D02*
X0350034Y0067724D01*
X0350034Y0068923D02*
X0349266Y0068923D01*
X0346324Y0072518D02*
X0337674Y0072518D01*
X0339310Y0073717D02*
X0346481Y0073717D01*
X0349246Y0076600D02*
X0349650Y0076196D01*
X0337129Y0080908D02*
X0367797Y0080908D01*
X0366598Y0082106D02*
X0293950Y0082106D01*
X0293950Y0080908D02*
X0334671Y0080908D01*
X0332716Y0079709D02*
X0293950Y0079709D01*
X0293950Y0078511D02*
X0331875Y0078511D01*
X0314477Y0077312D02*
X0293950Y0077312D01*
X0293950Y0076114D02*
X0313278Y0076114D01*
X0293950Y0083305D02*
X0365400Y0083305D01*
X0364201Y0084503D02*
X0293950Y0084503D01*
X0293950Y0085702D02*
X0304253Y0085702D01*
X0303054Y0086900D02*
X0293950Y0086900D01*
X0295228Y0088099D02*
X0301856Y0088099D01*
X0305748Y0089297D02*
X0338157Y0089297D01*
X0336959Y0090496D02*
X0304550Y0090496D01*
X0303950Y0091694D02*
X0335760Y0091694D01*
X0335350Y0092893D02*
X0311907Y0092893D01*
X0312593Y0094091D02*
X0335350Y0094091D01*
X0335350Y0095290D02*
X0312593Y0095290D01*
X0309409Y0095290D02*
X0308641Y0095290D01*
X0308641Y0094091D02*
X0309409Y0094091D01*
X0309409Y0092893D02*
X0308641Y0092893D01*
X0306143Y0092893D02*
X0303950Y0092893D01*
X0303950Y0094091D02*
X0305456Y0094091D01*
X0293400Y0095350D02*
X0289650Y0091600D01*
X0289650Y0062850D01*
X0285441Y0058641D01*
X0285441Y0057469D01*
X0287633Y0055833D02*
X0292150Y0060350D01*
X0283179Y0060129D02*
X0283179Y0059732D01*
X0269650Y0056997D02*
X0283179Y0043468D01*
X0283179Y0043071D01*
X0292150Y0034100D01*
X0292150Y0032850D01*
X0291034Y0031734D01*
X0287786Y0032967D02*
X0287078Y0032967D01*
X0285880Y0034166D02*
X0288985Y0034166D01*
X0288340Y0035364D02*
X0284681Y0035364D01*
X0283483Y0036563D02*
X0287142Y0036563D01*
X0282804Y0032150D02*
X0280514Y0034440D01*
X0279714Y0033640D01*
X0276532Y0036821D01*
X0276532Y0036821D01*
X0279714Y0033639D01*
X0278858Y0032783D01*
X0278639Y0032657D01*
X0279146Y0032150D01*
X0282804Y0032150D01*
X0281987Y0032967D02*
X0279041Y0032967D01*
X0279187Y0034166D02*
X0279187Y0034166D01*
X0280240Y0034166D02*
X0280789Y0034166D01*
X0277989Y0035364D02*
X0277989Y0035364D01*
X0276790Y0036563D02*
X0276790Y0036563D01*
X0276532Y0036821D02*
X0273350Y0040003D01*
X0272494Y0039147D01*
X0272283Y0038783D01*
X0272174Y0038376D01*
X0272174Y0038262D01*
X0270311Y0036399D01*
X0270311Y0036324D01*
X0270236Y0036324D01*
X0268400Y0034488D01*
X0266564Y0036324D01*
X0266489Y0036324D01*
X0266489Y0036399D01*
X0264372Y0038516D01*
X0264226Y0038516D01*
X0264226Y0038662D01*
X0262109Y0040779D01*
X0262034Y0040779D01*
X0262034Y0040854D01*
X0259917Y0042971D01*
X0259817Y0042971D01*
X0260396Y0043550D01*
X0263621Y0043550D01*
X0264266Y0042905D01*
X0265326Y0042466D01*
X0266474Y0042466D01*
X0267534Y0042905D01*
X0268345Y0043716D01*
X0268784Y0044776D01*
X0268784Y0045924D01*
X0268442Y0046749D01*
X0274286Y0040906D01*
X0274206Y0040859D01*
X0273350Y0040003D01*
X0276532Y0036822D01*
X0276532Y0036821D01*
X0275592Y0037761D02*
X0275592Y0037761D01*
X0274393Y0038960D02*
X0274393Y0038960D01*
X0273505Y0040158D02*
X0262730Y0040158D01*
X0263928Y0038960D02*
X0272385Y0038960D01*
X0271673Y0037761D02*
X0265127Y0037761D01*
X0266325Y0036563D02*
X0270475Y0036563D01*
X0269276Y0035364D02*
X0267524Y0035364D01*
X0274269Y0034559D02*
X0274269Y0034481D01*
X0278400Y0030350D01*
X0296325Y0035364D02*
X0297412Y0035364D01*
X0273835Y0041357D02*
X0261531Y0041357D01*
X0260333Y0042555D02*
X0265110Y0042555D01*
X0266690Y0042555D02*
X0272636Y0042555D01*
X0271438Y0043754D02*
X0268361Y0043754D01*
X0268784Y0044952D02*
X0270239Y0044952D01*
X0269041Y0046151D02*
X0268690Y0046151D01*
X0276529Y0043754D02*
X0277100Y0043754D01*
X0285441Y0045731D02*
X0288322Y0042850D01*
X0255813Y0041513D02*
X0255813Y0041276D01*
X0251133Y0040158D02*
X0243879Y0040158D01*
X0243705Y0038960D02*
X0252332Y0038960D01*
X0252568Y0037761D02*
X0253530Y0037761D01*
X0249232Y0037761D02*
X0243015Y0037761D01*
X0240900Y0039725D02*
X0249098Y0047923D01*
X0249167Y0047923D01*
X0247538Y0043754D02*
X0247474Y0043754D01*
X0246276Y0042555D02*
X0248736Y0042555D01*
X0249935Y0041357D02*
X0245077Y0041357D01*
X0212800Y0043754D02*
X0204154Y0043754D01*
X0203728Y0044952D02*
X0212800Y0044952D01*
X0187199Y0044952D02*
X0187199Y0044952D01*
X0187199Y0043754D02*
X0187199Y0043754D01*
X0187199Y0042555D02*
X0187199Y0042555D01*
X0187199Y0041357D02*
X0187199Y0041357D01*
X0187199Y0040158D02*
X0187199Y0040158D01*
X0187199Y0038960D02*
X0187199Y0038960D01*
X0180900Y0038943D02*
X0180900Y0045350D01*
X0182150Y0046600D01*
X0189650Y0054100D01*
X0180199Y0050945D02*
X0169101Y0050945D01*
X0170299Y0049746D02*
X0179001Y0049746D01*
X0177802Y0048548D02*
X0171498Y0048548D01*
X0172696Y0047349D02*
X0176604Y0047349D01*
X0175950Y0046151D02*
X0173895Y0046151D01*
X0163783Y0037761D02*
X0162583Y0037761D01*
X0162583Y0036563D02*
X0163783Y0036563D01*
X0163783Y0035364D02*
X0162583Y0035364D01*
X0162583Y0034166D02*
X0163783Y0034166D01*
X0163783Y0032967D02*
X0162583Y0032967D01*
X0170146Y0025776D02*
X0116600Y0025776D01*
X0116600Y0024578D02*
X0129927Y0024578D01*
X0128262Y0023379D02*
X0116374Y0023379D01*
X0111200Y0023379D02*
X0110000Y0023379D01*
X0110000Y0024578D02*
X0111200Y0024578D01*
X0104826Y0023379D02*
X0092130Y0023379D01*
X0092130Y0024578D02*
X0104600Y0024578D01*
X0104600Y0025776D02*
X0092130Y0025776D01*
X0080269Y0023379D02*
X0015500Y0023379D01*
X0015500Y0022181D02*
X0020406Y0022181D01*
X0019208Y0020982D02*
X0015500Y0020982D01*
X0015500Y0019784D02*
X0018585Y0019784D01*
X0018200Y0018585D02*
X0015500Y0018585D01*
X0015500Y0017387D02*
X0018200Y0017387D01*
X0018448Y0016188D02*
X0015500Y0016188D01*
X0015500Y0014990D02*
X0018944Y0014990D01*
X0020075Y0013791D02*
X0015500Y0013791D01*
X0015500Y0012593D02*
X0071513Y0012593D01*
X0070315Y0013791D02*
X0026725Y0013791D01*
X0027856Y0014990D02*
X0054348Y0014990D01*
X0062452Y0014990D02*
X0069116Y0014990D01*
X0067918Y0016188D02*
X0064428Y0016188D01*
X0071110Y0019784D02*
X0080269Y0019784D01*
X0080269Y0020982D02*
X0069912Y0020982D01*
X0064259Y0022181D02*
X0080269Y0022181D01*
X0052541Y0022181D02*
X0026394Y0022181D01*
X0027592Y0020982D02*
X0051634Y0020982D01*
X0018328Y0026975D02*
X0015500Y0026975D01*
X0015500Y0028173D02*
X0018200Y0028173D01*
X0018200Y0029372D02*
X0015500Y0029372D01*
X0015500Y0030570D02*
X0018200Y0030570D01*
X0018200Y0031769D02*
X0015500Y0031769D01*
X0015500Y0032967D02*
X0018200Y0032967D01*
X0018200Y0034166D02*
X0015500Y0034166D01*
X0015500Y0035364D02*
X0018200Y0035364D01*
X0015500Y0041357D02*
X0051387Y0041357D01*
X0052350Y0042555D02*
X0015500Y0042555D01*
X0058000Y0042555D02*
X0058800Y0042555D01*
X0058800Y0041357D02*
X0058000Y0041357D01*
X0058000Y0040158D02*
X0058800Y0040158D01*
X0058800Y0037761D02*
X0058000Y0037761D01*
X0058000Y0036563D02*
X0058800Y0036563D01*
X0058800Y0035364D02*
X0058000Y0035364D01*
X0092130Y0031769D02*
X0129152Y0031769D01*
X0111200Y0030570D02*
X0110000Y0030570D01*
X0110000Y0029372D02*
X0111200Y0029372D01*
X0111200Y0028173D02*
X0110000Y0028173D01*
X0015500Y0006600D02*
X0225854Y0006600D01*
X0228400Y0006600D02*
X0220900Y0014100D01*
X0240900Y0020350D02*
X0244025Y0017225D01*
X0247775Y0017225D01*
X0240900Y0020350D02*
X0240900Y0020754D01*
X0254650Y0006600D02*
X0263400Y0015350D01*
X0263400Y0019725D01*
X0265275Y0021600D01*
X0289025Y0021600D01*
X0290900Y0019725D01*
X0290900Y0011600D01*
X0295100Y0011394D02*
X0498560Y0011394D01*
X0497362Y0012593D02*
X0295100Y0012593D01*
X0295100Y0013791D02*
X0298038Y0013791D01*
X0296840Y0014990D02*
X0295100Y0014990D01*
X0294788Y0016188D02*
X0295641Y0016188D01*
X0294443Y0017387D02*
X0294053Y0017387D01*
X0293244Y0018585D02*
X0292700Y0018585D01*
X0289100Y0018585D02*
X0282254Y0018585D01*
X0281735Y0018800D02*
X0280065Y0018800D01*
X0278521Y0018161D01*
X0277339Y0016979D01*
X0276700Y0015435D01*
X0276700Y0007765D01*
X0277339Y0006221D01*
X0277360Y0006200D01*
X0274840Y0006200D01*
X0275163Y0006834D01*
X0275387Y0007523D01*
X0275500Y0008238D01*
X0275500Y0011200D01*
X0271300Y0011200D01*
X0271300Y0012000D01*
X0275500Y0012000D01*
X0275500Y0014962D01*
X0275387Y0015677D01*
X0275163Y0016366D01*
X0274834Y0017011D01*
X0274409Y0017597D01*
X0273897Y0018109D01*
X0273311Y0018534D01*
X0272666Y0018863D01*
X0271977Y0019087D01*
X0271300Y0019194D01*
X0271300Y0012000D01*
X0270500Y0012000D01*
X0270500Y0019194D01*
X0269823Y0019087D01*
X0269134Y0018863D01*
X0268489Y0018534D01*
X0267903Y0018109D01*
X0267391Y0017597D01*
X0266966Y0017011D01*
X0266637Y0016366D01*
X0266413Y0015677D01*
X0266300Y0014962D01*
X0266300Y0012000D01*
X0270500Y0012000D01*
X0270500Y0011200D01*
X0266300Y0011200D01*
X0266300Y0008238D01*
X0266413Y0007523D01*
X0266637Y0006834D01*
X0266960Y0006200D01*
X0256796Y0006200D01*
X0265200Y0014604D01*
X0265200Y0018979D01*
X0266021Y0019800D01*
X0288279Y0019800D01*
X0289100Y0018979D01*
X0289100Y0018400D01*
X0288521Y0018161D01*
X0287339Y0016979D01*
X0286700Y0015435D01*
X0286700Y0007765D01*
X0287339Y0006221D01*
X0287360Y0006200D01*
X0284440Y0006200D01*
X0284461Y0006221D01*
X0285100Y0007765D01*
X0285100Y0015435D01*
X0284461Y0016979D01*
X0283279Y0018161D01*
X0281735Y0018800D01*
X0279546Y0018585D02*
X0273211Y0018585D01*
X0274561Y0017387D02*
X0277747Y0017387D01*
X0277012Y0016188D02*
X0275221Y0016188D01*
X0275496Y0014990D02*
X0276700Y0014990D01*
X0276700Y0013791D02*
X0275500Y0013791D01*
X0275500Y0012593D02*
X0276700Y0012593D01*
X0276700Y0011394D02*
X0271300Y0011394D01*
X0270500Y0011394D02*
X0261990Y0011394D01*
X0263188Y0012593D02*
X0266300Y0012593D01*
X0266300Y0013791D02*
X0264387Y0013791D01*
X0265200Y0014990D02*
X0266304Y0014990D01*
X0266579Y0016188D02*
X0265200Y0016188D01*
X0265200Y0017387D02*
X0267239Y0017387D01*
X0268589Y0018585D02*
X0265200Y0018585D01*
X0266004Y0019784D02*
X0288296Y0019784D01*
X0287747Y0017387D02*
X0284053Y0017387D01*
X0284788Y0016188D02*
X0287012Y0016188D01*
X0286700Y0014990D02*
X0285100Y0014990D01*
X0285100Y0013791D02*
X0286700Y0013791D01*
X0286700Y0012593D02*
X0285100Y0012593D01*
X0285100Y0011394D02*
X0286700Y0011394D01*
X0286700Y0010196D02*
X0285100Y0010196D01*
X0285100Y0008997D02*
X0286700Y0008997D01*
X0286700Y0007799D02*
X0285100Y0007799D01*
X0284618Y0006600D02*
X0287182Y0006600D01*
X0294618Y0006600D02*
X0551221Y0006600D01*
X0551221Y0007799D02*
X0534300Y0007799D01*
X0535498Y0008997D02*
X0551221Y0008997D01*
X0551221Y0012593D02*
X0542868Y0012593D01*
X0542868Y0013791D02*
X0551221Y0013791D01*
X0551221Y0019784D02*
X0499129Y0019784D01*
X0500328Y0020982D02*
X0551221Y0020982D01*
X0551221Y0022181D02*
X0501526Y0022181D01*
X0502700Y0023379D02*
X0523932Y0023379D01*
X0523932Y0023347D02*
X0524635Y0022644D01*
X0530354Y0022644D01*
X0531057Y0023347D01*
X0531057Y0029853D01*
X0530354Y0030556D01*
X0524635Y0030556D01*
X0523932Y0029853D01*
X0523932Y0029094D01*
X0520112Y0029805D01*
X0520112Y0031065D01*
X0519409Y0031768D01*
X0514084Y0031768D01*
X0513634Y0031318D01*
X0513499Y0031551D01*
X0513201Y0031849D01*
X0512836Y0032059D01*
X0512430Y0032168D01*
X0510438Y0032168D01*
X0510438Y0028984D01*
X0509669Y0028984D01*
X0509669Y0028216D01*
X0506288Y0028216D01*
X0506288Y0026421D01*
X0506397Y0026014D01*
X0506608Y0025649D01*
X0506906Y0025351D01*
X0507271Y0025140D01*
X0507678Y0025031D01*
X0509669Y0025031D01*
X0509669Y0028216D01*
X0510438Y0028216D01*
X0510438Y0025031D01*
X0512430Y0025031D01*
X0512836Y0025140D01*
X0513201Y0025351D01*
X0513499Y0025649D01*
X0513634Y0025882D01*
X0514084Y0025431D01*
X0519409Y0025431D01*
X0520112Y0026134D01*
X0520112Y0026143D01*
X0523932Y0025432D01*
X0523932Y0023347D01*
X0523932Y0024578D02*
X0502700Y0024578D01*
X0502700Y0025776D02*
X0506534Y0025776D01*
X0506288Y0026975D02*
X0502700Y0026975D01*
X0502700Y0028173D02*
X0506288Y0028173D01*
X0506288Y0028984D02*
X0509669Y0028984D01*
X0509669Y0032168D01*
X0507678Y0032168D01*
X0507271Y0032059D01*
X0506906Y0031849D01*
X0506608Y0031551D01*
X0506397Y0031186D01*
X0506288Y0030779D01*
X0506288Y0028984D01*
X0506288Y0029372D02*
X0502700Y0029372D01*
X0502700Y0030570D02*
X0506288Y0030570D01*
X0506826Y0031769D02*
X0502700Y0031769D01*
X0502700Y0032967D02*
X0541643Y0032967D01*
X0543056Y0034100D02*
X0539306Y0037850D01*
X0542868Y0037761D02*
X0551221Y0037761D01*
X0551221Y0036563D02*
X0549991Y0036563D01*
X0550998Y0035364D02*
X0551221Y0035364D01*
X0548400Y0034100D02*
X0543056Y0034100D01*
X0536175Y0034166D02*
X0530625Y0034166D01*
X0530354Y0033894D02*
X0531057Y0034597D01*
X0531057Y0041103D01*
X0530354Y0041806D01*
X0524635Y0041806D01*
X0523932Y0041103D01*
X0523932Y0039650D01*
X0520112Y0039650D01*
X0520112Y0040316D01*
X0519409Y0041018D01*
X0514084Y0041018D01*
X0513634Y0040568D01*
X0513499Y0040801D01*
X0513201Y0041099D01*
X0512836Y0041309D01*
X0512430Y0041418D01*
X0510438Y0041418D01*
X0510438Y0038234D01*
X0509669Y0038234D01*
X0509669Y0037466D01*
X0506288Y0037466D01*
X0506288Y0035671D01*
X0506397Y0035264D01*
X0506608Y0034899D01*
X0506906Y0034601D01*
X0507271Y0034391D01*
X0507678Y0034281D01*
X0509669Y0034281D01*
X0509669Y0037466D01*
X0510438Y0037466D01*
X0510438Y0034281D01*
X0512430Y0034281D01*
X0512836Y0034391D01*
X0513201Y0034601D01*
X0513499Y0034899D01*
X0513634Y0035132D01*
X0514084Y0034681D01*
X0519409Y0034681D01*
X0520112Y0035384D01*
X0520112Y0036050D01*
X0523932Y0036050D01*
X0523932Y0034597D01*
X0524635Y0033894D01*
X0530354Y0033894D01*
X0531057Y0035364D02*
X0535743Y0035364D01*
X0535743Y0036563D02*
X0531057Y0036563D01*
X0531057Y0037761D02*
X0535743Y0037761D01*
X0535743Y0038960D02*
X0531057Y0038960D01*
X0531057Y0040158D02*
X0535743Y0040158D01*
X0535997Y0041357D02*
X0530803Y0041357D01*
X0524186Y0041357D02*
X0512660Y0041357D01*
X0510438Y0041357D02*
X0509669Y0041357D01*
X0509669Y0041418D02*
X0507678Y0041418D01*
X0507271Y0041309D01*
X0506906Y0041099D01*
X0506608Y0040801D01*
X0506397Y0040436D01*
X0506288Y0040029D01*
X0506288Y0038234D01*
X0509669Y0038234D01*
X0509669Y0041418D01*
X0509669Y0040158D02*
X0510438Y0040158D01*
X0510438Y0038960D02*
X0509669Y0038960D01*
X0509669Y0037761D02*
X0502700Y0037761D01*
X0502700Y0036563D02*
X0506288Y0036563D01*
X0506370Y0035364D02*
X0502700Y0035364D01*
X0502700Y0034166D02*
X0524364Y0034166D01*
X0523932Y0035364D02*
X0520092Y0035364D01*
X0516746Y0037850D02*
X0527494Y0037850D01*
X0523932Y0040158D02*
X0520112Y0040158D01*
X0510438Y0036563D02*
X0509669Y0036563D01*
X0509669Y0035364D02*
X0510438Y0035364D01*
X0506288Y0038960D02*
X0502700Y0038960D01*
X0502700Y0040158D02*
X0506323Y0040158D01*
X0507447Y0041357D02*
X0502700Y0041357D01*
X0502700Y0042555D02*
X0547610Y0042555D01*
X0549190Y0042555D02*
X0551221Y0042555D01*
X0551221Y0041357D02*
X0542614Y0041357D01*
X0542868Y0040158D02*
X0551221Y0040158D01*
X0551221Y0038960D02*
X0542868Y0038960D01*
X0543138Y0036563D02*
X0546809Y0036563D01*
X0551053Y0032967D02*
X0551221Y0032967D01*
X0551221Y0031769D02*
X0550148Y0031769D01*
X0551221Y0030570D02*
X0520112Y0030570D01*
X0522438Y0029372D02*
X0523932Y0029372D01*
X0527494Y0026600D02*
X0516746Y0028600D01*
X0510438Y0028173D02*
X0509669Y0028173D01*
X0509669Y0026975D02*
X0510438Y0026975D01*
X0510438Y0025776D02*
X0509669Y0025776D01*
X0513573Y0025776D02*
X0513739Y0025776D01*
X0519754Y0025776D02*
X0522082Y0025776D01*
X0531057Y0025776D02*
X0535743Y0025776D01*
X0535743Y0024578D02*
X0531057Y0024578D01*
X0531057Y0023379D02*
X0535743Y0023379D01*
X0539306Y0026600D02*
X0540556Y0025350D01*
X0548400Y0025350D01*
X0546292Y0023379D02*
X0542868Y0023379D01*
X0550508Y0023379D02*
X0551221Y0023379D01*
X0551202Y0024578D02*
X0551221Y0024578D01*
X0551221Y0026975D02*
X0550849Y0026975D01*
X0551221Y0028173D02*
X0549121Y0028173D01*
X0547679Y0028173D02*
X0542868Y0028173D01*
X0542868Y0029372D02*
X0551221Y0029372D01*
X0546652Y0031769D02*
X0513281Y0031769D01*
X0510438Y0031769D02*
X0509669Y0031769D01*
X0509669Y0030570D02*
X0510438Y0030570D01*
X0510438Y0029372D02*
X0509669Y0029372D01*
X0531057Y0029372D02*
X0535743Y0029372D01*
X0535743Y0028173D02*
X0531057Y0028173D01*
X0531057Y0026975D02*
X0535743Y0026975D01*
X0523932Y0018585D02*
X0497931Y0018585D01*
X0498857Y0016188D02*
X0506002Y0016188D01*
X0506002Y0014990D02*
X0500056Y0014990D01*
X0501255Y0013791D02*
X0506002Y0013791D01*
X0506002Y0012593D02*
X0502453Y0012593D01*
X0503652Y0011394D02*
X0506243Y0011394D01*
X0500957Y0008997D02*
X0295100Y0008997D01*
X0295100Y0007799D02*
X0502156Y0007799D01*
X0499759Y0010196D02*
X0295100Y0010196D01*
X0277182Y0006600D02*
X0275044Y0006600D01*
X0275430Y0007799D02*
X0276700Y0007799D01*
X0276700Y0008997D02*
X0275500Y0008997D01*
X0275500Y0010196D02*
X0276700Y0010196D01*
X0271300Y0012593D02*
X0270500Y0012593D01*
X0270500Y0013791D02*
X0271300Y0013791D01*
X0271300Y0014990D02*
X0270500Y0014990D01*
X0270500Y0016188D02*
X0271300Y0016188D01*
X0271300Y0017387D02*
X0270500Y0017387D01*
X0270500Y0018585D02*
X0271300Y0018585D01*
X0266300Y0010196D02*
X0260791Y0010196D01*
X0259593Y0008997D02*
X0266300Y0008997D01*
X0266370Y0007799D02*
X0258394Y0007799D01*
X0257196Y0006600D02*
X0266756Y0006600D01*
X0254650Y0006600D02*
X0228400Y0006600D01*
X0298338Y0026975D02*
X0306450Y0026975D01*
X0306776Y0028173D02*
X0297140Y0028173D01*
X0306438Y0053342D02*
X0332865Y0053342D01*
X0331936Y0054540D02*
X0307636Y0054540D01*
X0287633Y0055277D02*
X0287633Y0055833D01*
X0257204Y0060533D02*
X0257204Y0060533D01*
X0256006Y0061732D02*
X0256006Y0061732D01*
X0255814Y0061924D02*
X0255814Y0061924D01*
X0254807Y0062930D02*
X0254807Y0062930D01*
X0253609Y0064129D02*
X0253609Y0064129D01*
X0252853Y0065327D02*
X0250648Y0065327D01*
X0250650Y0064129D02*
X0251706Y0064129D01*
X0251022Y0062930D02*
X0250059Y0062930D01*
X0249823Y0061732D02*
X0249575Y0061732D01*
X0247775Y0060975D02*
X0247775Y0064725D01*
X0250053Y0066526D02*
X0253192Y0066526D01*
X0255886Y0068923D02*
X0257014Y0068923D01*
X0272077Y0070833D02*
X0272633Y0070833D01*
X0278587Y0070121D02*
X0282850Y0070121D01*
X0282850Y0068923D02*
X0279786Y0068923D01*
X0280984Y0067724D02*
X0282850Y0067724D01*
X0282850Y0066526D02*
X0282183Y0066526D01*
X0282850Y0071320D02*
X0279493Y0071320D01*
X0280691Y0072518D02*
X0282850Y0072518D01*
X0282850Y0073717D02*
X0281890Y0073717D01*
X0282700Y0074915D02*
X0282850Y0074915D01*
X0282850Y0076114D02*
X0282700Y0076114D01*
X0282700Y0077312D02*
X0282850Y0077312D01*
X0282850Y0078511D02*
X0282700Y0078511D01*
X0282700Y0079709D02*
X0282850Y0079709D01*
X0282850Y0080908D02*
X0282700Y0080908D01*
X0282700Y0082106D02*
X0282850Y0082106D01*
X0282850Y0083305D02*
X0282700Y0083305D01*
X0282700Y0084503D02*
X0282850Y0084503D01*
X0282850Y0085702D02*
X0282700Y0085702D01*
X0282700Y0086900D02*
X0282850Y0086900D01*
X0282850Y0088099D02*
X0282700Y0088099D01*
X0282700Y0089297D02*
X0282850Y0089297D01*
X0282850Y0090496D02*
X0282700Y0090496D01*
X0282700Y0091694D02*
X0282850Y0091694D01*
X0282850Y0092893D02*
X0282700Y0092893D01*
X0282700Y0094091D02*
X0282850Y0094091D01*
X0282850Y0095290D02*
X0282700Y0095290D01*
X0282700Y0096488D02*
X0282850Y0096488D01*
X0282700Y0097687D02*
X0283816Y0097687D01*
X0282700Y0098885D02*
X0285015Y0098885D01*
X0286213Y0100084D02*
X0282700Y0100084D01*
X0282700Y0101282D02*
X0287412Y0101282D01*
X0265900Y0111600D02*
X0260900Y0106600D01*
X0251300Y0106076D02*
X0250500Y0106076D01*
X0250500Y0104878D02*
X0251300Y0104878D01*
X0251300Y0103679D02*
X0250500Y0103679D01*
X0250500Y0102481D02*
X0251300Y0102481D01*
X0255900Y0104100D02*
X0255900Y0109100D01*
X0260900Y0114100D01*
X0260900Y0116600D01*
X0256700Y0118062D02*
X0255100Y0118062D01*
X0254180Y0119260D02*
X0257620Y0119260D01*
X0258819Y0120459D02*
X0252981Y0120459D01*
X0267110Y0122856D02*
X0015500Y0122856D01*
X0015500Y0114466D02*
X0030179Y0114466D01*
X0028047Y0113268D02*
X0015500Y0113268D01*
X0015500Y0112069D02*
X0026848Y0112069D01*
X0025969Y0110870D02*
X0015500Y0110870D01*
X0015500Y0109672D02*
X0025472Y0109672D01*
X0024976Y0108473D02*
X0015500Y0108473D01*
X0015500Y0107275D02*
X0024900Y0107275D01*
X0024900Y0106076D02*
X0015500Y0106076D01*
X0015500Y0104878D02*
X0024913Y0104878D01*
X0025409Y0103679D02*
X0015500Y0103679D01*
X0015500Y0102481D02*
X0025906Y0102481D01*
X0026697Y0101282D02*
X0015500Y0101282D01*
X0015500Y0100084D02*
X0027895Y0100084D01*
X0029813Y0098885D02*
X0015500Y0098885D01*
X0015500Y0097687D02*
X0055057Y0097687D01*
X0054086Y0096488D02*
X0015500Y0096488D01*
X0015500Y0095290D02*
X0053589Y0095290D01*
X0053500Y0094091D02*
X0015500Y0094091D01*
X0015500Y0092893D02*
X0053397Y0092893D01*
X0052199Y0091694D02*
X0015500Y0091694D01*
X0015500Y0090496D02*
X0051000Y0090496D01*
X0049802Y0089297D02*
X0015500Y0089297D01*
X0015500Y0088099D02*
X0049100Y0088099D01*
X0049100Y0086900D02*
X0015500Y0086900D01*
X0015500Y0085702D02*
X0049100Y0085702D01*
X0049100Y0084503D02*
X0015500Y0084503D01*
X0015500Y0083305D02*
X0049100Y0083305D01*
X0049100Y0082106D02*
X0015500Y0082106D01*
X0015500Y0080908D02*
X0049100Y0080908D01*
X0049100Y0079709D02*
X0015500Y0079709D01*
X0015500Y0078511D02*
X0049100Y0078511D01*
X0049100Y0077312D02*
X0015500Y0077312D01*
X0015500Y0076114D02*
X0049100Y0076114D01*
X0049100Y0074915D02*
X0035537Y0074915D01*
X0035091Y0075100D02*
X0031709Y0075100D01*
X0028585Y0073806D01*
X0026194Y0071415D01*
X0024900Y0068291D01*
X0024900Y0064909D01*
X0026194Y0061785D01*
X0028585Y0059394D01*
X0031709Y0058100D01*
X0035091Y0058100D01*
X0038215Y0059394D01*
X0040606Y0061785D01*
X0041900Y0064909D01*
X0041900Y0068291D01*
X0040606Y0071415D01*
X0038215Y0073806D01*
X0035091Y0075100D01*
X0038304Y0073717D02*
X0049100Y0073717D01*
X0049100Y0072518D02*
X0039503Y0072518D01*
X0040645Y0071320D02*
X0049100Y0071320D01*
X0049833Y0070121D02*
X0041142Y0070121D01*
X0041638Y0068923D02*
X0051032Y0068923D01*
X0052230Y0067724D02*
X0041900Y0067724D01*
X0041900Y0066526D02*
X0053429Y0066526D01*
X0054650Y0067850D02*
X0087650Y0067850D01*
X0088400Y0067100D01*
X0084050Y0065327D02*
X0041900Y0065327D01*
X0041577Y0064129D02*
X0083823Y0064129D01*
X0083650Y0062930D02*
X0041080Y0062930D01*
X0040552Y0061732D02*
X0083650Y0061732D01*
X0083650Y0060550D02*
X0083650Y0058589D01*
X0083759Y0058182D01*
X0083970Y0057818D01*
X0084268Y0057520D01*
X0084632Y0057309D01*
X0085039Y0057200D01*
X0087850Y0057200D01*
X0087850Y0060550D01*
X0083650Y0060550D01*
X0083650Y0060533D02*
X0039354Y0060533D01*
X0038071Y0059334D02*
X0083650Y0059334D01*
X0083786Y0058136D02*
X0035178Y0058136D01*
X0031622Y0058136D02*
X0015500Y0058136D01*
X0015500Y0059334D02*
X0028729Y0059334D01*
X0027446Y0060533D02*
X0015500Y0060533D01*
X0015500Y0061732D02*
X0026248Y0061732D01*
X0025720Y0062930D02*
X0015500Y0062930D01*
X0015500Y0064129D02*
X0025223Y0064129D01*
X0024900Y0065327D02*
X0015500Y0065327D01*
X0015500Y0066526D02*
X0024900Y0066526D01*
X0024900Y0067724D02*
X0015500Y0067724D01*
X0015500Y0068923D02*
X0025162Y0068923D01*
X0025658Y0070121D02*
X0015500Y0070121D01*
X0015500Y0071320D02*
X0026155Y0071320D01*
X0027297Y0072518D02*
X0015500Y0072518D01*
X0015500Y0073717D02*
X0028496Y0073717D01*
X0031263Y0074915D02*
X0015500Y0074915D01*
X0052700Y0078511D02*
X0056244Y0078511D01*
X0056196Y0079709D02*
X0052700Y0079709D01*
X0052700Y0080908D02*
X0054663Y0080908D01*
X0053922Y0082106D02*
X0052700Y0082106D01*
X0052700Y0083305D02*
X0053500Y0083305D01*
X0053500Y0084503D02*
X0052700Y0084503D01*
X0052700Y0085702D02*
X0053760Y0085702D01*
X0054271Y0086900D02*
X0052700Y0086900D01*
X0053694Y0088099D02*
X0055469Y0088099D01*
X0054893Y0089297D02*
X0057190Y0089297D01*
X0059610Y0089297D02*
X0063500Y0089297D01*
X0063511Y0088099D02*
X0061331Y0088099D01*
X0062529Y0086900D02*
X0064007Y0086900D01*
X0058400Y0084100D02*
X0087554Y0084100D01*
X0088400Y0083254D01*
X0063674Y0090496D02*
X0061725Y0090496D01*
X0062707Y0091694D02*
X0064171Y0091694D01*
X0063204Y0092893D02*
X0065263Y0092893D01*
X0065281Y0095290D02*
X0063211Y0095290D01*
X0062714Y0096488D02*
X0064178Y0096488D01*
X0063682Y0097687D02*
X0061743Y0097687D01*
X0063500Y0098885D02*
X0059651Y0098885D01*
X0057149Y0098885D02*
X0036987Y0098885D01*
X0038905Y0100084D02*
X0063504Y0100084D01*
X0064000Y0101282D02*
X0040103Y0101282D01*
X0040894Y0102481D02*
X0064851Y0102481D01*
X0157868Y0106076D02*
X0159188Y0106076D01*
X0159188Y0107275D02*
X0157868Y0107275D01*
X0165464Y0103679D02*
X0166336Y0103679D01*
X0186746Y0102850D02*
X0186746Y0104504D01*
X0250500Y0107275D02*
X0251300Y0107275D01*
X0251300Y0108473D02*
X0250500Y0108473D01*
X0250500Y0109672D02*
X0251300Y0109672D01*
X0251300Y0110870D02*
X0250500Y0110870D01*
X0253135Y0110870D02*
X0255125Y0110870D01*
X0309698Y0116863D02*
X0310042Y0116863D01*
X0350353Y0118062D02*
X0352743Y0118062D01*
X0351292Y0116863D02*
X0350948Y0116863D01*
X0355870Y0112069D02*
X0356619Y0112069D01*
X0356619Y0110870D02*
X0355870Y0110870D01*
X0355870Y0109672D02*
X0356619Y0109672D01*
X0391338Y0100084D02*
X0395462Y0100084D01*
X0395541Y0100162D02*
X0394838Y0099459D01*
X0394838Y0093741D01*
X0395541Y0093038D01*
X0401259Y0093038D01*
X0401962Y0093741D01*
X0401962Y0099459D01*
X0401259Y0100162D01*
X0395541Y0100162D01*
X0394838Y0098885D02*
X0391962Y0098885D01*
X0391962Y0097687D02*
X0394838Y0097687D01*
X0394838Y0096488D02*
X0391962Y0096488D01*
X0391962Y0095290D02*
X0394838Y0095290D01*
X0394838Y0094091D02*
X0391962Y0094091D01*
X0401962Y0094091D02*
X0404838Y0094091D01*
X0404838Y0093741D02*
X0405541Y0093038D01*
X0411259Y0093038D01*
X0411962Y0093741D01*
X0411962Y0099459D01*
X0411259Y0100162D01*
X0405541Y0100162D01*
X0404838Y0099459D01*
X0404838Y0093741D01*
X0404838Y0095290D02*
X0401962Y0095290D01*
X0401962Y0096488D02*
X0404838Y0096488D01*
X0404838Y0097687D02*
X0401962Y0097687D01*
X0401962Y0098885D02*
X0404838Y0098885D01*
X0405462Y0100084D02*
X0401338Y0100084D01*
X0411338Y0100084D02*
X0415462Y0100084D01*
X0414838Y0098885D02*
X0411962Y0098885D01*
X0411962Y0097687D02*
X0414838Y0097687D01*
X0414838Y0096488D02*
X0411962Y0096488D01*
X0411962Y0095290D02*
X0414838Y0095290D01*
X0414838Y0094091D02*
X0411962Y0094091D01*
X0421962Y0094091D02*
X0495863Y0094091D01*
X0494665Y0095290D02*
X0421962Y0095290D01*
X0371689Y0082106D02*
X0477465Y0082106D01*
X0477790Y0082892D02*
X0477075Y0081164D01*
X0477075Y0079294D01*
X0477790Y0077567D01*
X0479112Y0076245D01*
X0480840Y0075529D01*
X0482710Y0075529D01*
X0484437Y0076245D01*
X0485759Y0077567D01*
X0486475Y0079294D01*
X0486475Y0081164D01*
X0485759Y0082892D01*
X0484437Y0084214D01*
X0482710Y0084929D01*
X0480840Y0084929D01*
X0479112Y0084214D01*
X0477790Y0082892D01*
X0478203Y0083305D02*
X0370491Y0083305D01*
X0369292Y0084503D02*
X0479811Y0084503D01*
X0483738Y0084503D02*
X0526288Y0084503D01*
X0526288Y0085702D02*
X0368094Y0085702D01*
X0372888Y0080908D02*
X0477075Y0080908D01*
X0477075Y0079709D02*
X0374086Y0079709D01*
X0375200Y0078511D02*
X0477399Y0078511D01*
X0478045Y0077312D02*
X0375200Y0077312D01*
X0375200Y0076114D02*
X0479429Y0076114D01*
X0484120Y0076114D02*
X0505368Y0076114D01*
X0506567Y0077312D02*
X0485504Y0077312D01*
X0486150Y0078511D02*
X0523932Y0078511D01*
X0523932Y0079709D02*
X0486475Y0079709D01*
X0486475Y0080908D02*
X0551221Y0080908D01*
X0551221Y0082106D02*
X0486085Y0082106D01*
X0485346Y0083305D02*
X0526986Y0083305D01*
X0536746Y0086600D02*
X0539306Y0089159D01*
X0539306Y0096600D01*
X0535743Y0097687D02*
X0531057Y0097687D01*
X0531057Y0098885D02*
X0535743Y0098885D01*
X0535974Y0100084D02*
X0530826Y0100084D01*
X0542868Y0104878D02*
X0551221Y0104878D01*
X0551221Y0106076D02*
X0542868Y0106076D01*
X0542868Y0107275D02*
X0551221Y0107275D01*
X0551221Y0108473D02*
X0542868Y0108473D01*
X0542868Y0109672D02*
X0551221Y0109672D01*
X0551221Y0110870D02*
X0541105Y0110870D01*
X0541105Y0112069D02*
X0551221Y0112069D01*
X0551221Y0113268D02*
X0541105Y0113268D01*
X0541105Y0114466D02*
X0551221Y0114466D01*
X0551221Y0115665D02*
X0540227Y0115665D01*
X0540112Y0116863D02*
X0551221Y0116863D01*
X0551221Y0118062D02*
X0540112Y0118062D01*
X0539917Y0119260D02*
X0551221Y0119260D01*
X0539306Y0114041D02*
X0536746Y0116600D01*
X0530438Y0118062D02*
X0529669Y0118062D01*
X0529669Y0119260D02*
X0530438Y0119260D01*
X0526288Y0115665D02*
X0511667Y0115665D01*
X0511667Y0114466D02*
X0526288Y0114466D01*
X0527051Y0113268D02*
X0511667Y0113268D01*
X0500958Y0112069D02*
X0490842Y0112069D01*
X0491102Y0110870D02*
X0500698Y0110870D01*
X0500606Y0113268D02*
X0491194Y0113268D01*
X0491194Y0114466D02*
X0500606Y0114466D01*
X0500606Y0115665D02*
X0491194Y0115665D01*
X0539306Y0114041D02*
X0539306Y0106600D01*
X0537506Y0091694D02*
X0340851Y0091694D01*
X0342050Y0090496D02*
X0537506Y0090496D01*
X0530438Y0089297D02*
X0529669Y0089297D01*
X0529669Y0088099D02*
X0530438Y0088099D01*
X0504170Y0074915D02*
X0375200Y0074915D01*
X0375200Y0073717D02*
X0502971Y0073717D01*
X0501773Y0072518D02*
X0375200Y0072518D01*
X0375200Y0071320D02*
X0500574Y0071320D01*
X0502700Y0065327D02*
X0526288Y0065327D01*
X0526366Y0064129D02*
X0502700Y0064129D01*
X0502700Y0062930D02*
X0551221Y0062930D01*
X0551221Y0061732D02*
X0502700Y0061732D01*
X0502700Y0060533D02*
X0551221Y0060533D01*
X0551221Y0059334D02*
X0502700Y0059334D01*
X0502700Y0058136D02*
X0551221Y0058136D01*
X0551221Y0056937D02*
X0502700Y0056937D01*
X0502700Y0055739D02*
X0551221Y0055739D01*
X0551221Y0054540D02*
X0502700Y0054540D01*
X0502700Y0053342D02*
X0551221Y0053342D01*
X0551221Y0052143D02*
X0542868Y0052143D01*
X0542868Y0050945D02*
X0551221Y0050945D01*
X0551221Y0049746D02*
X0542868Y0049746D01*
X0542868Y0048548D02*
X0551221Y0048548D01*
X0551221Y0047349D02*
X0550480Y0047349D01*
X0551190Y0046151D02*
X0551221Y0046151D01*
X0551221Y0043754D02*
X0550861Y0043754D01*
X0548400Y0045350D02*
X0543056Y0045350D01*
X0539306Y0049100D01*
X0535743Y0048548D02*
X0531057Y0048548D01*
X0531057Y0049746D02*
X0535743Y0049746D01*
X0535743Y0050945D02*
X0531057Y0050945D01*
X0531057Y0052143D02*
X0535743Y0052143D01*
X0531057Y0052353D02*
X0530354Y0053056D01*
X0524635Y0053056D01*
X0523932Y0052353D01*
X0523932Y0050900D01*
X0521362Y0050900D01*
X0521362Y0051566D01*
X0520659Y0052268D01*
X0515334Y0052268D01*
X0514884Y0051818D01*
X0514749Y0052051D01*
X0514451Y0052349D01*
X0514086Y0052559D01*
X0513680Y0052668D01*
X0511688Y0052668D01*
X0511688Y0049484D01*
X0510919Y0049484D01*
X0510919Y0048716D01*
X0507538Y0048716D01*
X0507538Y0046921D01*
X0507647Y0046514D01*
X0507858Y0046149D01*
X0508156Y0045851D01*
X0508521Y0045641D01*
X0508928Y0045531D01*
X0510919Y0045531D01*
X0510919Y0048716D01*
X0511688Y0048716D01*
X0511688Y0045531D01*
X0513680Y0045531D01*
X0514086Y0045641D01*
X0514451Y0045851D01*
X0514749Y0046149D01*
X0514884Y0046382D01*
X0515334Y0045931D01*
X0520659Y0045931D01*
X0521362Y0046634D01*
X0521362Y0047300D01*
X0523932Y0047300D01*
X0523932Y0045847D01*
X0524635Y0045144D01*
X0530354Y0045144D01*
X0531057Y0045847D01*
X0531057Y0052353D01*
X0523932Y0052143D02*
X0520784Y0052143D01*
X0521362Y0050945D02*
X0523932Y0050945D01*
X0515209Y0052143D02*
X0514657Y0052143D01*
X0511688Y0052143D02*
X0510919Y0052143D01*
X0510919Y0052668D02*
X0510919Y0049484D01*
X0507538Y0049484D01*
X0507538Y0051279D01*
X0507647Y0051686D01*
X0507858Y0052051D01*
X0508156Y0052349D01*
X0508521Y0052559D01*
X0508928Y0052668D01*
X0510919Y0052668D01*
X0510919Y0050945D02*
X0511688Y0050945D01*
X0511688Y0049746D02*
X0510919Y0049746D01*
X0510919Y0048548D02*
X0511688Y0048548D01*
X0511688Y0047349D02*
X0510919Y0047349D01*
X0510919Y0046151D02*
X0511688Y0046151D01*
X0514750Y0046151D02*
X0515115Y0046151D01*
X0520878Y0046151D02*
X0523932Y0046151D01*
X0527494Y0049100D02*
X0517996Y0049100D01*
X0507538Y0048548D02*
X0502700Y0048548D01*
X0502700Y0049746D02*
X0507538Y0049746D01*
X0507538Y0050945D02*
X0502700Y0050945D01*
X0502700Y0052143D02*
X0507950Y0052143D01*
X0507538Y0047349D02*
X0502700Y0047349D01*
X0502700Y0046151D02*
X0507857Y0046151D01*
X0502700Y0044952D02*
X0540908Y0044952D01*
X0542106Y0043754D02*
X0502700Y0043754D01*
X0531057Y0046151D02*
X0535743Y0046151D01*
X0535743Y0047349D02*
X0531057Y0047349D01*
X0543602Y0047349D02*
X0546320Y0047349D01*
X0530438Y0064129D02*
X0529669Y0064129D01*
X0529669Y0065327D02*
X0530438Y0065327D01*
X0523932Y0017387D02*
X0512985Y0017387D01*
X0513293Y0011394D02*
X0513443Y0011394D01*
X0251359Y0057469D02*
X0251281Y0057469D01*
X0247775Y0060975D01*
X0244025Y0060350D02*
X0249098Y0055277D01*
X0249167Y0055277D01*
X0088950Y0058136D02*
X0087850Y0058136D01*
X0087850Y0059334D02*
X0088950Y0059334D01*
X0088950Y0060533D02*
X0087850Y0060533D01*
D37*
X0119650Y0059100D03*
X0137150Y0051600D03*
X0130900Y0034100D03*
X0153400Y0021600D03*
X0210900Y0012850D03*
X0247775Y0017225D03*
X0277150Y0026600D03*
X0250900Y0027850D03*
X0250900Y0035350D03*
X0240900Y0039725D03*
X0220275Y0042225D03*
X0258400Y0049100D03*
X0265900Y0045350D03*
X0273400Y0049100D03*
X0313400Y0051600D03*
X0308400Y0036600D03*
X0286525Y0035350D03*
X0268400Y0037225D03*
X0244025Y0060350D03*
X0247775Y0064725D03*
X0219025Y0070350D03*
X0217150Y0064100D03*
X0197775Y0070350D03*
X0198400Y0077850D03*
X0192150Y0090350D03*
X0238400Y0093475D03*
X0255900Y0099100D03*
X0229650Y0104100D03*
X0174650Y0114100D03*
X0083400Y0096600D03*
X0078400Y0096600D03*
X0132150Y0077850D03*
X0293400Y0090350D03*
X0293400Y0095350D03*
X0293400Y0100350D03*
X0293400Y0104725D03*
X0317775Y0104100D03*
X0359025Y0105350D03*
X0298400Y0081600D03*
X0298400Y0076600D03*
X0383400Y0036600D03*
X0513400Y0056600D03*
X0513400Y0066600D03*
X0548400Y0045350D03*
X0548400Y0034100D03*
X0548400Y0025350D03*
X0468400Y0096600D03*
X0463400Y0096600D03*
X0463400Y0101600D03*
X0468400Y0101600D03*
X0514650Y0109100D03*
X0473400Y0115350D03*
D38*
X0151746Y0054100D02*
X0151746Y0048696D01*
X0144650Y0041600D01*
X0132928Y0041600D01*
X0130900Y0034100D02*
X0123872Y0041128D01*
X0123872Y0041600D01*
X0120900Y0041600D01*
X0115000Y0035700D01*
X0110600Y0035700D01*
X0058400Y0029100D02*
X0055900Y0031600D01*
X0023400Y0031600D01*
X0057120Y0017820D02*
X0058400Y0019100D01*
X0068400Y0019100D01*
X0073400Y0014100D01*
X0107200Y0014100D01*
X0110600Y0017500D01*
X0057120Y0017820D02*
X0023400Y0017820D01*
M02*
