%
M48
M72
T01C0.0197
T02C0.0276
T03C0.0315
T04C0.0354
T05C0.0400
T06C0.0472
T07C0.1280
T08C0.1350
%
T01
X13090Y3410
X15340Y2160
X21090Y1285
X24778Y1723
X27715Y2660
X25090Y2785
X25090Y3535
X24090Y3973
X22028Y4223
X25840Y4910
X26590Y4535
X27340Y4910
X31340Y5160
X30840Y3660
X28653Y3535
X26840Y3723
X24403Y6035
X24778Y6473
X21903Y7035
X21715Y6410
X19778Y7035
X19840Y7785
X19215Y9035
X23840Y9348
X25590Y9910
X22965Y10410
X17465Y11410
X8340Y9660
X7840Y9660
X13215Y7785
X11965Y5910
X13715Y5160
X29340Y9035
X29340Y9535
X29340Y10035
X29340Y10473
X31778Y10410
X35903Y10535
X29840Y8160
X29840Y7660
X38340Y3660
X51340Y5660
X51340Y6660
X54840Y4535
X54840Y3410
X54840Y2535
X46840Y9660
X46340Y9660
X46340Y10160
X46840Y10160
X51465Y10910
X47340Y11535
T02
X33590Y7660
X33590Y5660
X32090Y2410
X31090Y2410
X17715Y5660
X17715Y6660
T03
X37840Y2660
X38840Y2660
X39840Y2660
X40840Y2660
X41840Y2660
X42840Y2660
X41840Y9660
X40840Y9660
X39840Y9660
X38840Y9660
T04
X36806Y11973
X35624Y11973
X32681Y11973
X31499Y11973
X48177Y8023
X48177Y5464
X18956Y2910
X17224Y2910
T05
X27090Y1160
X28090Y1160
X29090Y1160
X5840Y1910
X5840Y2910
X5840Y3910
X5840Y7410
X6840Y7910
X5840Y8410
X6840Y8910
X5840Y9410
X6840Y9910
X21090Y9660
X22090Y9660
X22090Y8660
X21090Y8660
X21090Y10660
X22090Y10660
X25090Y10660
X26090Y10660
X27090Y10660
X27090Y11660
X26090Y11660
X25090Y11660
X22090Y11660
X21090Y11660
T06
X2340Y1782
X2340Y3160
T07
X3340Y6660
X3340Y10660
T08
X10282Y10041
X13414Y1675
X42985Y11522
M30
