G75*
%MOIN*%
%OFA0B0*%
%FSLAX25Y25*%
%IPPOS*%
%LPD*%
%AMOC8*
5,1,8,0,0,1.08239X$1,22.5*
%
%ADD10C,0.00000*%
D10*
X0013400Y0004100D02*
X0013400Y0126551D01*
X0553321Y0126551D01*
X0553321Y0004100D01*
X0013400Y0004100D01*
X0127394Y0016745D02*
X0127396Y0016911D01*
X0127402Y0017076D01*
X0127412Y0017242D01*
X0127427Y0017407D01*
X0127445Y0017571D01*
X0127467Y0017735D01*
X0127493Y0017899D01*
X0127524Y0018062D01*
X0127558Y0018224D01*
X0127596Y0018385D01*
X0127639Y0018545D01*
X0127685Y0018704D01*
X0127735Y0018862D01*
X0127789Y0019019D01*
X0127846Y0019174D01*
X0127908Y0019328D01*
X0127973Y0019480D01*
X0128042Y0019631D01*
X0128115Y0019780D01*
X0128191Y0019927D01*
X0128271Y0020072D01*
X0128354Y0020215D01*
X0128441Y0020356D01*
X0128532Y0020495D01*
X0128625Y0020632D01*
X0128722Y0020766D01*
X0128823Y0020898D01*
X0128926Y0021027D01*
X0129033Y0021154D01*
X0129143Y0021278D01*
X0129255Y0021399D01*
X0129371Y0021518D01*
X0129490Y0021634D01*
X0129611Y0021746D01*
X0129735Y0021856D01*
X0129862Y0021963D01*
X0129991Y0022066D01*
X0130123Y0022167D01*
X0130257Y0022264D01*
X0130394Y0022357D01*
X0130533Y0022448D01*
X0130674Y0022535D01*
X0130817Y0022618D01*
X0130962Y0022698D01*
X0131109Y0022774D01*
X0131258Y0022847D01*
X0131409Y0022916D01*
X0131561Y0022981D01*
X0131715Y0023043D01*
X0131870Y0023100D01*
X0132027Y0023154D01*
X0132185Y0023204D01*
X0132344Y0023250D01*
X0132504Y0023293D01*
X0132665Y0023331D01*
X0132827Y0023365D01*
X0132990Y0023396D01*
X0133154Y0023422D01*
X0133318Y0023444D01*
X0133482Y0023462D01*
X0133647Y0023477D01*
X0133813Y0023487D01*
X0133978Y0023493D01*
X0134144Y0023495D01*
X0134310Y0023493D01*
X0134475Y0023487D01*
X0134641Y0023477D01*
X0134806Y0023462D01*
X0134970Y0023444D01*
X0135134Y0023422D01*
X0135298Y0023396D01*
X0135461Y0023365D01*
X0135623Y0023331D01*
X0135784Y0023293D01*
X0135944Y0023250D01*
X0136103Y0023204D01*
X0136261Y0023154D01*
X0136418Y0023100D01*
X0136573Y0023043D01*
X0136727Y0022981D01*
X0136879Y0022916D01*
X0137030Y0022847D01*
X0137179Y0022774D01*
X0137326Y0022698D01*
X0137471Y0022618D01*
X0137614Y0022535D01*
X0137755Y0022448D01*
X0137894Y0022357D01*
X0138031Y0022264D01*
X0138165Y0022167D01*
X0138297Y0022066D01*
X0138426Y0021963D01*
X0138553Y0021856D01*
X0138677Y0021746D01*
X0138798Y0021634D01*
X0138917Y0021518D01*
X0139033Y0021399D01*
X0139145Y0021278D01*
X0139255Y0021154D01*
X0139362Y0021027D01*
X0139465Y0020898D01*
X0139566Y0020766D01*
X0139663Y0020632D01*
X0139756Y0020495D01*
X0139847Y0020356D01*
X0139934Y0020215D01*
X0140017Y0020072D01*
X0140097Y0019927D01*
X0140173Y0019780D01*
X0140246Y0019631D01*
X0140315Y0019480D01*
X0140380Y0019328D01*
X0140442Y0019174D01*
X0140499Y0019019D01*
X0140553Y0018862D01*
X0140603Y0018704D01*
X0140649Y0018545D01*
X0140692Y0018385D01*
X0140730Y0018224D01*
X0140764Y0018062D01*
X0140795Y0017899D01*
X0140821Y0017735D01*
X0140843Y0017571D01*
X0140861Y0017407D01*
X0140876Y0017242D01*
X0140886Y0017076D01*
X0140892Y0016911D01*
X0140894Y0016745D01*
X0140892Y0016579D01*
X0140886Y0016414D01*
X0140876Y0016248D01*
X0140861Y0016083D01*
X0140843Y0015919D01*
X0140821Y0015755D01*
X0140795Y0015591D01*
X0140764Y0015428D01*
X0140730Y0015266D01*
X0140692Y0015105D01*
X0140649Y0014945D01*
X0140603Y0014786D01*
X0140553Y0014628D01*
X0140499Y0014471D01*
X0140442Y0014316D01*
X0140380Y0014162D01*
X0140315Y0014010D01*
X0140246Y0013859D01*
X0140173Y0013710D01*
X0140097Y0013563D01*
X0140017Y0013418D01*
X0139934Y0013275D01*
X0139847Y0013134D01*
X0139756Y0012995D01*
X0139663Y0012858D01*
X0139566Y0012724D01*
X0139465Y0012592D01*
X0139362Y0012463D01*
X0139255Y0012336D01*
X0139145Y0012212D01*
X0139033Y0012091D01*
X0138917Y0011972D01*
X0138798Y0011856D01*
X0138677Y0011744D01*
X0138553Y0011634D01*
X0138426Y0011527D01*
X0138297Y0011424D01*
X0138165Y0011323D01*
X0138031Y0011226D01*
X0137894Y0011133D01*
X0137755Y0011042D01*
X0137614Y0010955D01*
X0137471Y0010872D01*
X0137326Y0010792D01*
X0137179Y0010716D01*
X0137030Y0010643D01*
X0136879Y0010574D01*
X0136727Y0010509D01*
X0136573Y0010447D01*
X0136418Y0010390D01*
X0136261Y0010336D01*
X0136103Y0010286D01*
X0135944Y0010240D01*
X0135784Y0010197D01*
X0135623Y0010159D01*
X0135461Y0010125D01*
X0135298Y0010094D01*
X0135134Y0010068D01*
X0134970Y0010046D01*
X0134806Y0010028D01*
X0134641Y0010013D01*
X0134475Y0010003D01*
X0134310Y0009997D01*
X0134144Y0009995D01*
X0133978Y0009997D01*
X0133813Y0010003D01*
X0133647Y0010013D01*
X0133482Y0010028D01*
X0133318Y0010046D01*
X0133154Y0010068D01*
X0132990Y0010094D01*
X0132827Y0010125D01*
X0132665Y0010159D01*
X0132504Y0010197D01*
X0132344Y0010240D01*
X0132185Y0010286D01*
X0132027Y0010336D01*
X0131870Y0010390D01*
X0131715Y0010447D01*
X0131561Y0010509D01*
X0131409Y0010574D01*
X0131258Y0010643D01*
X0131109Y0010716D01*
X0130962Y0010792D01*
X0130817Y0010872D01*
X0130674Y0010955D01*
X0130533Y0011042D01*
X0130394Y0011133D01*
X0130257Y0011226D01*
X0130123Y0011323D01*
X0129991Y0011424D01*
X0129862Y0011527D01*
X0129735Y0011634D01*
X0129611Y0011744D01*
X0129490Y0011856D01*
X0129371Y0011972D01*
X0129255Y0012091D01*
X0129143Y0012212D01*
X0129033Y0012336D01*
X0128926Y0012463D01*
X0128823Y0012592D01*
X0128722Y0012724D01*
X0128625Y0012858D01*
X0128532Y0012995D01*
X0128441Y0013134D01*
X0128354Y0013275D01*
X0128271Y0013418D01*
X0128191Y0013563D01*
X0128115Y0013710D01*
X0128042Y0013859D01*
X0127973Y0014010D01*
X0127908Y0014162D01*
X0127846Y0014316D01*
X0127789Y0014471D01*
X0127735Y0014628D01*
X0127685Y0014786D01*
X0127639Y0014945D01*
X0127596Y0015105D01*
X0127558Y0015266D01*
X0127524Y0015428D01*
X0127493Y0015591D01*
X0127467Y0015755D01*
X0127445Y0015919D01*
X0127427Y0016083D01*
X0127412Y0016248D01*
X0127402Y0016414D01*
X0127396Y0016579D01*
X0127394Y0016745D01*
X0170467Y0029100D02*
X0170469Y0029184D01*
X0170475Y0029267D01*
X0170485Y0029350D01*
X0170499Y0029433D01*
X0170516Y0029515D01*
X0170538Y0029596D01*
X0170563Y0029675D01*
X0170592Y0029754D01*
X0170625Y0029831D01*
X0170661Y0029906D01*
X0170701Y0029980D01*
X0170744Y0030052D01*
X0170791Y0030121D01*
X0170841Y0030188D01*
X0170894Y0030253D01*
X0170950Y0030315D01*
X0171008Y0030375D01*
X0171070Y0030432D01*
X0171134Y0030485D01*
X0171201Y0030536D01*
X0171270Y0030583D01*
X0171341Y0030628D01*
X0171414Y0030668D01*
X0171489Y0030705D01*
X0171566Y0030739D01*
X0171644Y0030769D01*
X0171723Y0030795D01*
X0171804Y0030818D01*
X0171886Y0030836D01*
X0171968Y0030851D01*
X0172051Y0030862D01*
X0172134Y0030869D01*
X0172218Y0030872D01*
X0172302Y0030871D01*
X0172385Y0030866D01*
X0172469Y0030857D01*
X0172551Y0030844D01*
X0172633Y0030828D01*
X0172714Y0030807D01*
X0172795Y0030783D01*
X0172873Y0030755D01*
X0172951Y0030723D01*
X0173027Y0030687D01*
X0173101Y0030648D01*
X0173173Y0030606D01*
X0173243Y0030560D01*
X0173311Y0030511D01*
X0173376Y0030459D01*
X0173439Y0030404D01*
X0173499Y0030346D01*
X0173557Y0030285D01*
X0173611Y0030221D01*
X0173663Y0030155D01*
X0173711Y0030087D01*
X0173756Y0030016D01*
X0173797Y0029943D01*
X0173836Y0029869D01*
X0173870Y0029793D01*
X0173901Y0029715D01*
X0173928Y0029636D01*
X0173952Y0029555D01*
X0173971Y0029474D01*
X0173987Y0029392D01*
X0173999Y0029309D01*
X0174007Y0029225D01*
X0174011Y0029142D01*
X0174011Y0029058D01*
X0174007Y0028975D01*
X0173999Y0028891D01*
X0173987Y0028808D01*
X0173971Y0028726D01*
X0173952Y0028645D01*
X0173928Y0028564D01*
X0173901Y0028485D01*
X0173870Y0028407D01*
X0173836Y0028331D01*
X0173797Y0028257D01*
X0173756Y0028184D01*
X0173711Y0028113D01*
X0173663Y0028045D01*
X0173611Y0027979D01*
X0173557Y0027915D01*
X0173499Y0027854D01*
X0173439Y0027796D01*
X0173376Y0027741D01*
X0173311Y0027689D01*
X0173243Y0027640D01*
X0173173Y0027594D01*
X0173101Y0027552D01*
X0173027Y0027513D01*
X0172951Y0027477D01*
X0172873Y0027445D01*
X0172795Y0027417D01*
X0172714Y0027393D01*
X0172633Y0027372D01*
X0172551Y0027356D01*
X0172469Y0027343D01*
X0172385Y0027334D01*
X0172302Y0027329D01*
X0172218Y0027328D01*
X0172134Y0027331D01*
X0172051Y0027338D01*
X0171968Y0027349D01*
X0171886Y0027364D01*
X0171804Y0027382D01*
X0171723Y0027405D01*
X0171644Y0027431D01*
X0171566Y0027461D01*
X0171489Y0027495D01*
X0171414Y0027532D01*
X0171341Y0027572D01*
X0171270Y0027617D01*
X0171201Y0027664D01*
X0171134Y0027715D01*
X0171070Y0027768D01*
X0171008Y0027825D01*
X0170950Y0027885D01*
X0170894Y0027947D01*
X0170841Y0028012D01*
X0170791Y0028079D01*
X0170744Y0028148D01*
X0170701Y0028220D01*
X0170661Y0028294D01*
X0170625Y0028369D01*
X0170592Y0028446D01*
X0170563Y0028525D01*
X0170538Y0028604D01*
X0170516Y0028685D01*
X0170499Y0028767D01*
X0170485Y0028850D01*
X0170475Y0028933D01*
X0170469Y0029016D01*
X0170467Y0029100D01*
X0187789Y0029100D02*
X0187791Y0029184D01*
X0187797Y0029267D01*
X0187807Y0029350D01*
X0187821Y0029433D01*
X0187838Y0029515D01*
X0187860Y0029596D01*
X0187885Y0029675D01*
X0187914Y0029754D01*
X0187947Y0029831D01*
X0187983Y0029906D01*
X0188023Y0029980D01*
X0188066Y0030052D01*
X0188113Y0030121D01*
X0188163Y0030188D01*
X0188216Y0030253D01*
X0188272Y0030315D01*
X0188330Y0030375D01*
X0188392Y0030432D01*
X0188456Y0030485D01*
X0188523Y0030536D01*
X0188592Y0030583D01*
X0188663Y0030628D01*
X0188736Y0030668D01*
X0188811Y0030705D01*
X0188888Y0030739D01*
X0188966Y0030769D01*
X0189045Y0030795D01*
X0189126Y0030818D01*
X0189208Y0030836D01*
X0189290Y0030851D01*
X0189373Y0030862D01*
X0189456Y0030869D01*
X0189540Y0030872D01*
X0189624Y0030871D01*
X0189707Y0030866D01*
X0189791Y0030857D01*
X0189873Y0030844D01*
X0189955Y0030828D01*
X0190036Y0030807D01*
X0190117Y0030783D01*
X0190195Y0030755D01*
X0190273Y0030723D01*
X0190349Y0030687D01*
X0190423Y0030648D01*
X0190495Y0030606D01*
X0190565Y0030560D01*
X0190633Y0030511D01*
X0190698Y0030459D01*
X0190761Y0030404D01*
X0190821Y0030346D01*
X0190879Y0030285D01*
X0190933Y0030221D01*
X0190985Y0030155D01*
X0191033Y0030087D01*
X0191078Y0030016D01*
X0191119Y0029943D01*
X0191158Y0029869D01*
X0191192Y0029793D01*
X0191223Y0029715D01*
X0191250Y0029636D01*
X0191274Y0029555D01*
X0191293Y0029474D01*
X0191309Y0029392D01*
X0191321Y0029309D01*
X0191329Y0029225D01*
X0191333Y0029142D01*
X0191333Y0029058D01*
X0191329Y0028975D01*
X0191321Y0028891D01*
X0191309Y0028808D01*
X0191293Y0028726D01*
X0191274Y0028645D01*
X0191250Y0028564D01*
X0191223Y0028485D01*
X0191192Y0028407D01*
X0191158Y0028331D01*
X0191119Y0028257D01*
X0191078Y0028184D01*
X0191033Y0028113D01*
X0190985Y0028045D01*
X0190933Y0027979D01*
X0190879Y0027915D01*
X0190821Y0027854D01*
X0190761Y0027796D01*
X0190698Y0027741D01*
X0190633Y0027689D01*
X0190565Y0027640D01*
X0190495Y0027594D01*
X0190423Y0027552D01*
X0190349Y0027513D01*
X0190273Y0027477D01*
X0190195Y0027445D01*
X0190117Y0027417D01*
X0190036Y0027393D01*
X0189955Y0027372D01*
X0189873Y0027356D01*
X0189791Y0027343D01*
X0189707Y0027334D01*
X0189624Y0027329D01*
X0189540Y0027328D01*
X0189456Y0027331D01*
X0189373Y0027338D01*
X0189290Y0027349D01*
X0189208Y0027364D01*
X0189126Y0027382D01*
X0189045Y0027405D01*
X0188966Y0027431D01*
X0188888Y0027461D01*
X0188811Y0027495D01*
X0188736Y0027532D01*
X0188663Y0027572D01*
X0188592Y0027617D01*
X0188523Y0027664D01*
X0188456Y0027715D01*
X0188392Y0027768D01*
X0188330Y0027825D01*
X0188272Y0027885D01*
X0188216Y0027947D01*
X0188163Y0028012D01*
X0188113Y0028079D01*
X0188066Y0028148D01*
X0188023Y0028220D01*
X0187983Y0028294D01*
X0187947Y0028369D01*
X0187914Y0028446D01*
X0187885Y0028525D01*
X0187860Y0028604D01*
X0187838Y0028685D01*
X0187821Y0028767D01*
X0187807Y0028850D01*
X0187797Y0028933D01*
X0187791Y0029016D01*
X0187789Y0029100D01*
X0027000Y0066600D02*
X0027002Y0066760D01*
X0027008Y0066919D01*
X0027018Y0067078D01*
X0027032Y0067237D01*
X0027050Y0067396D01*
X0027071Y0067554D01*
X0027097Y0067711D01*
X0027127Y0067868D01*
X0027160Y0068024D01*
X0027198Y0068179D01*
X0027239Y0068333D01*
X0027284Y0068486D01*
X0027333Y0068638D01*
X0027386Y0068789D01*
X0027442Y0068938D01*
X0027503Y0069086D01*
X0027566Y0069232D01*
X0027634Y0069377D01*
X0027705Y0069520D01*
X0027779Y0069661D01*
X0027857Y0069800D01*
X0027939Y0069937D01*
X0028024Y0070072D01*
X0028112Y0070205D01*
X0028204Y0070336D01*
X0028298Y0070464D01*
X0028396Y0070590D01*
X0028497Y0070714D01*
X0028601Y0070835D01*
X0028708Y0070953D01*
X0028818Y0071069D01*
X0028931Y0071182D01*
X0029047Y0071292D01*
X0029165Y0071399D01*
X0029286Y0071503D01*
X0029410Y0071604D01*
X0029536Y0071702D01*
X0029664Y0071796D01*
X0029795Y0071888D01*
X0029928Y0071976D01*
X0030063Y0072061D01*
X0030200Y0072143D01*
X0030339Y0072221D01*
X0030480Y0072295D01*
X0030623Y0072366D01*
X0030768Y0072434D01*
X0030914Y0072497D01*
X0031062Y0072558D01*
X0031211Y0072614D01*
X0031362Y0072667D01*
X0031514Y0072716D01*
X0031667Y0072761D01*
X0031821Y0072802D01*
X0031976Y0072840D01*
X0032132Y0072873D01*
X0032289Y0072903D01*
X0032446Y0072929D01*
X0032604Y0072950D01*
X0032763Y0072968D01*
X0032922Y0072982D01*
X0033081Y0072992D01*
X0033240Y0072998D01*
X0033400Y0073000D01*
X0033560Y0072998D01*
X0033719Y0072992D01*
X0033878Y0072982D01*
X0034037Y0072968D01*
X0034196Y0072950D01*
X0034354Y0072929D01*
X0034511Y0072903D01*
X0034668Y0072873D01*
X0034824Y0072840D01*
X0034979Y0072802D01*
X0035133Y0072761D01*
X0035286Y0072716D01*
X0035438Y0072667D01*
X0035589Y0072614D01*
X0035738Y0072558D01*
X0035886Y0072497D01*
X0036032Y0072434D01*
X0036177Y0072366D01*
X0036320Y0072295D01*
X0036461Y0072221D01*
X0036600Y0072143D01*
X0036737Y0072061D01*
X0036872Y0071976D01*
X0037005Y0071888D01*
X0037136Y0071796D01*
X0037264Y0071702D01*
X0037390Y0071604D01*
X0037514Y0071503D01*
X0037635Y0071399D01*
X0037753Y0071292D01*
X0037869Y0071182D01*
X0037982Y0071069D01*
X0038092Y0070953D01*
X0038199Y0070835D01*
X0038303Y0070714D01*
X0038404Y0070590D01*
X0038502Y0070464D01*
X0038596Y0070336D01*
X0038688Y0070205D01*
X0038776Y0070072D01*
X0038861Y0069937D01*
X0038943Y0069800D01*
X0039021Y0069661D01*
X0039095Y0069520D01*
X0039166Y0069377D01*
X0039234Y0069232D01*
X0039297Y0069086D01*
X0039358Y0068938D01*
X0039414Y0068789D01*
X0039467Y0068638D01*
X0039516Y0068486D01*
X0039561Y0068333D01*
X0039602Y0068179D01*
X0039640Y0068024D01*
X0039673Y0067868D01*
X0039703Y0067711D01*
X0039729Y0067554D01*
X0039750Y0067396D01*
X0039768Y0067237D01*
X0039782Y0067078D01*
X0039792Y0066919D01*
X0039798Y0066760D01*
X0039800Y0066600D01*
X0039798Y0066440D01*
X0039792Y0066281D01*
X0039782Y0066122D01*
X0039768Y0065963D01*
X0039750Y0065804D01*
X0039729Y0065646D01*
X0039703Y0065489D01*
X0039673Y0065332D01*
X0039640Y0065176D01*
X0039602Y0065021D01*
X0039561Y0064867D01*
X0039516Y0064714D01*
X0039467Y0064562D01*
X0039414Y0064411D01*
X0039358Y0064262D01*
X0039297Y0064114D01*
X0039234Y0063968D01*
X0039166Y0063823D01*
X0039095Y0063680D01*
X0039021Y0063539D01*
X0038943Y0063400D01*
X0038861Y0063263D01*
X0038776Y0063128D01*
X0038688Y0062995D01*
X0038596Y0062864D01*
X0038502Y0062736D01*
X0038404Y0062610D01*
X0038303Y0062486D01*
X0038199Y0062365D01*
X0038092Y0062247D01*
X0037982Y0062131D01*
X0037869Y0062018D01*
X0037753Y0061908D01*
X0037635Y0061801D01*
X0037514Y0061697D01*
X0037390Y0061596D01*
X0037264Y0061498D01*
X0037136Y0061404D01*
X0037005Y0061312D01*
X0036872Y0061224D01*
X0036737Y0061139D01*
X0036600Y0061057D01*
X0036461Y0060979D01*
X0036320Y0060905D01*
X0036177Y0060834D01*
X0036032Y0060766D01*
X0035886Y0060703D01*
X0035738Y0060642D01*
X0035589Y0060586D01*
X0035438Y0060533D01*
X0035286Y0060484D01*
X0035133Y0060439D01*
X0034979Y0060398D01*
X0034824Y0060360D01*
X0034668Y0060327D01*
X0034511Y0060297D01*
X0034354Y0060271D01*
X0034196Y0060250D01*
X0034037Y0060232D01*
X0033878Y0060218D01*
X0033719Y0060208D01*
X0033560Y0060202D01*
X0033400Y0060200D01*
X0033240Y0060202D01*
X0033081Y0060208D01*
X0032922Y0060218D01*
X0032763Y0060232D01*
X0032604Y0060250D01*
X0032446Y0060271D01*
X0032289Y0060297D01*
X0032132Y0060327D01*
X0031976Y0060360D01*
X0031821Y0060398D01*
X0031667Y0060439D01*
X0031514Y0060484D01*
X0031362Y0060533D01*
X0031211Y0060586D01*
X0031062Y0060642D01*
X0030914Y0060703D01*
X0030768Y0060766D01*
X0030623Y0060834D01*
X0030480Y0060905D01*
X0030339Y0060979D01*
X0030200Y0061057D01*
X0030063Y0061139D01*
X0029928Y0061224D01*
X0029795Y0061312D01*
X0029664Y0061404D01*
X0029536Y0061498D01*
X0029410Y0061596D01*
X0029286Y0061697D01*
X0029165Y0061801D01*
X0029047Y0061908D01*
X0028931Y0062018D01*
X0028818Y0062131D01*
X0028708Y0062247D01*
X0028601Y0062365D01*
X0028497Y0062486D01*
X0028396Y0062610D01*
X0028298Y0062736D01*
X0028204Y0062864D01*
X0028112Y0062995D01*
X0028024Y0063128D01*
X0027939Y0063263D01*
X0027857Y0063400D01*
X0027779Y0063539D01*
X0027705Y0063680D01*
X0027634Y0063823D01*
X0027566Y0063968D01*
X0027503Y0064114D01*
X0027442Y0064262D01*
X0027386Y0064411D01*
X0027333Y0064562D01*
X0027284Y0064714D01*
X0027239Y0064867D01*
X0027198Y0065021D01*
X0027160Y0065176D01*
X0027127Y0065332D01*
X0027097Y0065489D01*
X0027071Y0065646D01*
X0027050Y0065804D01*
X0027032Y0065963D01*
X0027018Y0066122D01*
X0027008Y0066281D01*
X0027002Y0066440D01*
X0027000Y0066600D01*
X0096069Y0100415D02*
X0096071Y0100581D01*
X0096077Y0100746D01*
X0096087Y0100912D01*
X0096102Y0101077D01*
X0096120Y0101241D01*
X0096142Y0101405D01*
X0096168Y0101569D01*
X0096199Y0101732D01*
X0096233Y0101894D01*
X0096271Y0102055D01*
X0096314Y0102215D01*
X0096360Y0102374D01*
X0096410Y0102532D01*
X0096464Y0102689D01*
X0096521Y0102844D01*
X0096583Y0102998D01*
X0096648Y0103150D01*
X0096717Y0103301D01*
X0096790Y0103450D01*
X0096866Y0103597D01*
X0096946Y0103742D01*
X0097029Y0103885D01*
X0097116Y0104026D01*
X0097207Y0104165D01*
X0097300Y0104302D01*
X0097397Y0104436D01*
X0097498Y0104568D01*
X0097601Y0104697D01*
X0097708Y0104824D01*
X0097818Y0104948D01*
X0097930Y0105069D01*
X0098046Y0105188D01*
X0098165Y0105304D01*
X0098286Y0105416D01*
X0098410Y0105526D01*
X0098537Y0105633D01*
X0098666Y0105736D01*
X0098798Y0105837D01*
X0098932Y0105934D01*
X0099069Y0106027D01*
X0099208Y0106118D01*
X0099349Y0106205D01*
X0099492Y0106288D01*
X0099637Y0106368D01*
X0099784Y0106444D01*
X0099933Y0106517D01*
X0100084Y0106586D01*
X0100236Y0106651D01*
X0100390Y0106713D01*
X0100545Y0106770D01*
X0100702Y0106824D01*
X0100860Y0106874D01*
X0101019Y0106920D01*
X0101179Y0106963D01*
X0101340Y0107001D01*
X0101502Y0107035D01*
X0101665Y0107066D01*
X0101829Y0107092D01*
X0101993Y0107114D01*
X0102157Y0107132D01*
X0102322Y0107147D01*
X0102488Y0107157D01*
X0102653Y0107163D01*
X0102819Y0107165D01*
X0102985Y0107163D01*
X0103150Y0107157D01*
X0103316Y0107147D01*
X0103481Y0107132D01*
X0103645Y0107114D01*
X0103809Y0107092D01*
X0103973Y0107066D01*
X0104136Y0107035D01*
X0104298Y0107001D01*
X0104459Y0106963D01*
X0104619Y0106920D01*
X0104778Y0106874D01*
X0104936Y0106824D01*
X0105093Y0106770D01*
X0105248Y0106713D01*
X0105402Y0106651D01*
X0105554Y0106586D01*
X0105705Y0106517D01*
X0105854Y0106444D01*
X0106001Y0106368D01*
X0106146Y0106288D01*
X0106289Y0106205D01*
X0106430Y0106118D01*
X0106569Y0106027D01*
X0106706Y0105934D01*
X0106840Y0105837D01*
X0106972Y0105736D01*
X0107101Y0105633D01*
X0107228Y0105526D01*
X0107352Y0105416D01*
X0107473Y0105304D01*
X0107592Y0105188D01*
X0107708Y0105069D01*
X0107820Y0104948D01*
X0107930Y0104824D01*
X0108037Y0104697D01*
X0108140Y0104568D01*
X0108241Y0104436D01*
X0108338Y0104302D01*
X0108431Y0104165D01*
X0108522Y0104026D01*
X0108609Y0103885D01*
X0108692Y0103742D01*
X0108772Y0103597D01*
X0108848Y0103450D01*
X0108921Y0103301D01*
X0108990Y0103150D01*
X0109055Y0102998D01*
X0109117Y0102844D01*
X0109174Y0102689D01*
X0109228Y0102532D01*
X0109278Y0102374D01*
X0109324Y0102215D01*
X0109367Y0102055D01*
X0109405Y0101894D01*
X0109439Y0101732D01*
X0109470Y0101569D01*
X0109496Y0101405D01*
X0109518Y0101241D01*
X0109536Y0101077D01*
X0109551Y0100912D01*
X0109561Y0100746D01*
X0109567Y0100581D01*
X0109569Y0100415D01*
X0109567Y0100249D01*
X0109561Y0100084D01*
X0109551Y0099918D01*
X0109536Y0099753D01*
X0109518Y0099589D01*
X0109496Y0099425D01*
X0109470Y0099261D01*
X0109439Y0099098D01*
X0109405Y0098936D01*
X0109367Y0098775D01*
X0109324Y0098615D01*
X0109278Y0098456D01*
X0109228Y0098298D01*
X0109174Y0098141D01*
X0109117Y0097986D01*
X0109055Y0097832D01*
X0108990Y0097680D01*
X0108921Y0097529D01*
X0108848Y0097380D01*
X0108772Y0097233D01*
X0108692Y0097088D01*
X0108609Y0096945D01*
X0108522Y0096804D01*
X0108431Y0096665D01*
X0108338Y0096528D01*
X0108241Y0096394D01*
X0108140Y0096262D01*
X0108037Y0096133D01*
X0107930Y0096006D01*
X0107820Y0095882D01*
X0107708Y0095761D01*
X0107592Y0095642D01*
X0107473Y0095526D01*
X0107352Y0095414D01*
X0107228Y0095304D01*
X0107101Y0095197D01*
X0106972Y0095094D01*
X0106840Y0094993D01*
X0106706Y0094896D01*
X0106569Y0094803D01*
X0106430Y0094712D01*
X0106289Y0094625D01*
X0106146Y0094542D01*
X0106001Y0094462D01*
X0105854Y0094386D01*
X0105705Y0094313D01*
X0105554Y0094244D01*
X0105402Y0094179D01*
X0105248Y0094117D01*
X0105093Y0094060D01*
X0104936Y0094006D01*
X0104778Y0093956D01*
X0104619Y0093910D01*
X0104459Y0093867D01*
X0104298Y0093829D01*
X0104136Y0093795D01*
X0103973Y0093764D01*
X0103809Y0093738D01*
X0103645Y0093716D01*
X0103481Y0093698D01*
X0103316Y0093683D01*
X0103150Y0093673D01*
X0102985Y0093667D01*
X0102819Y0093665D01*
X0102653Y0093667D01*
X0102488Y0093673D01*
X0102322Y0093683D01*
X0102157Y0093698D01*
X0101993Y0093716D01*
X0101829Y0093738D01*
X0101665Y0093764D01*
X0101502Y0093795D01*
X0101340Y0093829D01*
X0101179Y0093867D01*
X0101019Y0093910D01*
X0100860Y0093956D01*
X0100702Y0094006D01*
X0100545Y0094060D01*
X0100390Y0094117D01*
X0100236Y0094179D01*
X0100084Y0094244D01*
X0099933Y0094313D01*
X0099784Y0094386D01*
X0099637Y0094462D01*
X0099492Y0094542D01*
X0099349Y0094625D01*
X0099208Y0094712D01*
X0099069Y0094803D01*
X0098932Y0094896D01*
X0098798Y0094993D01*
X0098666Y0095094D01*
X0098537Y0095197D01*
X0098410Y0095304D01*
X0098286Y0095414D01*
X0098165Y0095526D01*
X0098046Y0095642D01*
X0097930Y0095761D01*
X0097818Y0095882D01*
X0097708Y0096006D01*
X0097601Y0096133D01*
X0097498Y0096262D01*
X0097397Y0096394D01*
X0097300Y0096528D01*
X0097207Y0096665D01*
X0097116Y0096804D01*
X0097029Y0096945D01*
X0096946Y0097088D01*
X0096866Y0097233D01*
X0096790Y0097380D01*
X0096717Y0097529D01*
X0096648Y0097680D01*
X0096583Y0097832D01*
X0096521Y0097986D01*
X0096464Y0098141D01*
X0096410Y0098298D01*
X0096360Y0098456D01*
X0096314Y0098615D01*
X0096271Y0098775D01*
X0096233Y0098936D01*
X0096199Y0099098D01*
X0096168Y0099261D01*
X0096142Y0099425D01*
X0096120Y0099589D01*
X0096102Y0099753D01*
X0096087Y0099918D01*
X0096077Y0100084D01*
X0096071Y0100249D01*
X0096069Y0100415D01*
X0027000Y0106600D02*
X0027002Y0106760D01*
X0027008Y0106919D01*
X0027018Y0107078D01*
X0027032Y0107237D01*
X0027050Y0107396D01*
X0027071Y0107554D01*
X0027097Y0107711D01*
X0027127Y0107868D01*
X0027160Y0108024D01*
X0027198Y0108179D01*
X0027239Y0108333D01*
X0027284Y0108486D01*
X0027333Y0108638D01*
X0027386Y0108789D01*
X0027442Y0108938D01*
X0027503Y0109086D01*
X0027566Y0109232D01*
X0027634Y0109377D01*
X0027705Y0109520D01*
X0027779Y0109661D01*
X0027857Y0109800D01*
X0027939Y0109937D01*
X0028024Y0110072D01*
X0028112Y0110205D01*
X0028204Y0110336D01*
X0028298Y0110464D01*
X0028396Y0110590D01*
X0028497Y0110714D01*
X0028601Y0110835D01*
X0028708Y0110953D01*
X0028818Y0111069D01*
X0028931Y0111182D01*
X0029047Y0111292D01*
X0029165Y0111399D01*
X0029286Y0111503D01*
X0029410Y0111604D01*
X0029536Y0111702D01*
X0029664Y0111796D01*
X0029795Y0111888D01*
X0029928Y0111976D01*
X0030063Y0112061D01*
X0030200Y0112143D01*
X0030339Y0112221D01*
X0030480Y0112295D01*
X0030623Y0112366D01*
X0030768Y0112434D01*
X0030914Y0112497D01*
X0031062Y0112558D01*
X0031211Y0112614D01*
X0031362Y0112667D01*
X0031514Y0112716D01*
X0031667Y0112761D01*
X0031821Y0112802D01*
X0031976Y0112840D01*
X0032132Y0112873D01*
X0032289Y0112903D01*
X0032446Y0112929D01*
X0032604Y0112950D01*
X0032763Y0112968D01*
X0032922Y0112982D01*
X0033081Y0112992D01*
X0033240Y0112998D01*
X0033400Y0113000D01*
X0033560Y0112998D01*
X0033719Y0112992D01*
X0033878Y0112982D01*
X0034037Y0112968D01*
X0034196Y0112950D01*
X0034354Y0112929D01*
X0034511Y0112903D01*
X0034668Y0112873D01*
X0034824Y0112840D01*
X0034979Y0112802D01*
X0035133Y0112761D01*
X0035286Y0112716D01*
X0035438Y0112667D01*
X0035589Y0112614D01*
X0035738Y0112558D01*
X0035886Y0112497D01*
X0036032Y0112434D01*
X0036177Y0112366D01*
X0036320Y0112295D01*
X0036461Y0112221D01*
X0036600Y0112143D01*
X0036737Y0112061D01*
X0036872Y0111976D01*
X0037005Y0111888D01*
X0037136Y0111796D01*
X0037264Y0111702D01*
X0037390Y0111604D01*
X0037514Y0111503D01*
X0037635Y0111399D01*
X0037753Y0111292D01*
X0037869Y0111182D01*
X0037982Y0111069D01*
X0038092Y0110953D01*
X0038199Y0110835D01*
X0038303Y0110714D01*
X0038404Y0110590D01*
X0038502Y0110464D01*
X0038596Y0110336D01*
X0038688Y0110205D01*
X0038776Y0110072D01*
X0038861Y0109937D01*
X0038943Y0109800D01*
X0039021Y0109661D01*
X0039095Y0109520D01*
X0039166Y0109377D01*
X0039234Y0109232D01*
X0039297Y0109086D01*
X0039358Y0108938D01*
X0039414Y0108789D01*
X0039467Y0108638D01*
X0039516Y0108486D01*
X0039561Y0108333D01*
X0039602Y0108179D01*
X0039640Y0108024D01*
X0039673Y0107868D01*
X0039703Y0107711D01*
X0039729Y0107554D01*
X0039750Y0107396D01*
X0039768Y0107237D01*
X0039782Y0107078D01*
X0039792Y0106919D01*
X0039798Y0106760D01*
X0039800Y0106600D01*
X0039798Y0106440D01*
X0039792Y0106281D01*
X0039782Y0106122D01*
X0039768Y0105963D01*
X0039750Y0105804D01*
X0039729Y0105646D01*
X0039703Y0105489D01*
X0039673Y0105332D01*
X0039640Y0105176D01*
X0039602Y0105021D01*
X0039561Y0104867D01*
X0039516Y0104714D01*
X0039467Y0104562D01*
X0039414Y0104411D01*
X0039358Y0104262D01*
X0039297Y0104114D01*
X0039234Y0103968D01*
X0039166Y0103823D01*
X0039095Y0103680D01*
X0039021Y0103539D01*
X0038943Y0103400D01*
X0038861Y0103263D01*
X0038776Y0103128D01*
X0038688Y0102995D01*
X0038596Y0102864D01*
X0038502Y0102736D01*
X0038404Y0102610D01*
X0038303Y0102486D01*
X0038199Y0102365D01*
X0038092Y0102247D01*
X0037982Y0102131D01*
X0037869Y0102018D01*
X0037753Y0101908D01*
X0037635Y0101801D01*
X0037514Y0101697D01*
X0037390Y0101596D01*
X0037264Y0101498D01*
X0037136Y0101404D01*
X0037005Y0101312D01*
X0036872Y0101224D01*
X0036737Y0101139D01*
X0036600Y0101057D01*
X0036461Y0100979D01*
X0036320Y0100905D01*
X0036177Y0100834D01*
X0036032Y0100766D01*
X0035886Y0100703D01*
X0035738Y0100642D01*
X0035589Y0100586D01*
X0035438Y0100533D01*
X0035286Y0100484D01*
X0035133Y0100439D01*
X0034979Y0100398D01*
X0034824Y0100360D01*
X0034668Y0100327D01*
X0034511Y0100297D01*
X0034354Y0100271D01*
X0034196Y0100250D01*
X0034037Y0100232D01*
X0033878Y0100218D01*
X0033719Y0100208D01*
X0033560Y0100202D01*
X0033400Y0100200D01*
X0033240Y0100202D01*
X0033081Y0100208D01*
X0032922Y0100218D01*
X0032763Y0100232D01*
X0032604Y0100250D01*
X0032446Y0100271D01*
X0032289Y0100297D01*
X0032132Y0100327D01*
X0031976Y0100360D01*
X0031821Y0100398D01*
X0031667Y0100439D01*
X0031514Y0100484D01*
X0031362Y0100533D01*
X0031211Y0100586D01*
X0031062Y0100642D01*
X0030914Y0100703D01*
X0030768Y0100766D01*
X0030623Y0100834D01*
X0030480Y0100905D01*
X0030339Y0100979D01*
X0030200Y0101057D01*
X0030063Y0101139D01*
X0029928Y0101224D01*
X0029795Y0101312D01*
X0029664Y0101404D01*
X0029536Y0101498D01*
X0029410Y0101596D01*
X0029286Y0101697D01*
X0029165Y0101801D01*
X0029047Y0101908D01*
X0028931Y0102018D01*
X0028818Y0102131D01*
X0028708Y0102247D01*
X0028601Y0102365D01*
X0028497Y0102486D01*
X0028396Y0102610D01*
X0028298Y0102736D01*
X0028204Y0102864D01*
X0028112Y0102995D01*
X0028024Y0103128D01*
X0027939Y0103263D01*
X0027857Y0103400D01*
X0027779Y0103539D01*
X0027705Y0103680D01*
X0027634Y0103823D01*
X0027566Y0103968D01*
X0027503Y0104114D01*
X0027442Y0104262D01*
X0027386Y0104411D01*
X0027333Y0104562D01*
X0027284Y0104714D01*
X0027239Y0104867D01*
X0027198Y0105021D01*
X0027160Y0105176D01*
X0027127Y0105332D01*
X0027097Y0105489D01*
X0027071Y0105646D01*
X0027050Y0105804D01*
X0027032Y0105963D01*
X0027018Y0106122D01*
X0027008Y0106281D01*
X0027002Y0106440D01*
X0027000Y0106600D01*
X0313222Y0119725D02*
X0313224Y0119809D01*
X0313230Y0119892D01*
X0313240Y0119975D01*
X0313254Y0120058D01*
X0313271Y0120140D01*
X0313293Y0120221D01*
X0313318Y0120300D01*
X0313347Y0120379D01*
X0313380Y0120456D01*
X0313416Y0120531D01*
X0313456Y0120605D01*
X0313499Y0120677D01*
X0313546Y0120746D01*
X0313596Y0120813D01*
X0313649Y0120878D01*
X0313705Y0120940D01*
X0313763Y0121000D01*
X0313825Y0121057D01*
X0313889Y0121110D01*
X0313956Y0121161D01*
X0314025Y0121208D01*
X0314096Y0121253D01*
X0314169Y0121293D01*
X0314244Y0121330D01*
X0314321Y0121364D01*
X0314399Y0121394D01*
X0314478Y0121420D01*
X0314559Y0121443D01*
X0314641Y0121461D01*
X0314723Y0121476D01*
X0314806Y0121487D01*
X0314889Y0121494D01*
X0314973Y0121497D01*
X0315057Y0121496D01*
X0315140Y0121491D01*
X0315224Y0121482D01*
X0315306Y0121469D01*
X0315388Y0121453D01*
X0315469Y0121432D01*
X0315550Y0121408D01*
X0315628Y0121380D01*
X0315706Y0121348D01*
X0315782Y0121312D01*
X0315856Y0121273D01*
X0315928Y0121231D01*
X0315998Y0121185D01*
X0316066Y0121136D01*
X0316131Y0121084D01*
X0316194Y0121029D01*
X0316254Y0120971D01*
X0316312Y0120910D01*
X0316366Y0120846D01*
X0316418Y0120780D01*
X0316466Y0120712D01*
X0316511Y0120641D01*
X0316552Y0120568D01*
X0316591Y0120494D01*
X0316625Y0120418D01*
X0316656Y0120340D01*
X0316683Y0120261D01*
X0316707Y0120180D01*
X0316726Y0120099D01*
X0316742Y0120017D01*
X0316754Y0119934D01*
X0316762Y0119850D01*
X0316766Y0119767D01*
X0316766Y0119683D01*
X0316762Y0119600D01*
X0316754Y0119516D01*
X0316742Y0119433D01*
X0316726Y0119351D01*
X0316707Y0119270D01*
X0316683Y0119189D01*
X0316656Y0119110D01*
X0316625Y0119032D01*
X0316591Y0118956D01*
X0316552Y0118882D01*
X0316511Y0118809D01*
X0316466Y0118738D01*
X0316418Y0118670D01*
X0316366Y0118604D01*
X0316312Y0118540D01*
X0316254Y0118479D01*
X0316194Y0118421D01*
X0316131Y0118366D01*
X0316066Y0118314D01*
X0315998Y0118265D01*
X0315928Y0118219D01*
X0315856Y0118177D01*
X0315782Y0118138D01*
X0315706Y0118102D01*
X0315628Y0118070D01*
X0315550Y0118042D01*
X0315469Y0118018D01*
X0315388Y0117997D01*
X0315306Y0117981D01*
X0315224Y0117968D01*
X0315140Y0117959D01*
X0315057Y0117954D01*
X0314973Y0117953D01*
X0314889Y0117956D01*
X0314806Y0117963D01*
X0314723Y0117974D01*
X0314641Y0117989D01*
X0314559Y0118007D01*
X0314478Y0118030D01*
X0314399Y0118056D01*
X0314321Y0118086D01*
X0314244Y0118120D01*
X0314169Y0118157D01*
X0314096Y0118197D01*
X0314025Y0118242D01*
X0313956Y0118289D01*
X0313889Y0118340D01*
X0313825Y0118393D01*
X0313763Y0118450D01*
X0313705Y0118510D01*
X0313649Y0118572D01*
X0313596Y0118637D01*
X0313546Y0118704D01*
X0313499Y0118773D01*
X0313456Y0118845D01*
X0313416Y0118919D01*
X0313380Y0118994D01*
X0313347Y0119071D01*
X0313318Y0119150D01*
X0313293Y0119229D01*
X0313271Y0119310D01*
X0313254Y0119392D01*
X0313240Y0119475D01*
X0313230Y0119558D01*
X0313224Y0119641D01*
X0313222Y0119725D01*
X0325034Y0119725D02*
X0325036Y0119809D01*
X0325042Y0119892D01*
X0325052Y0119975D01*
X0325066Y0120058D01*
X0325083Y0120140D01*
X0325105Y0120221D01*
X0325130Y0120300D01*
X0325159Y0120379D01*
X0325192Y0120456D01*
X0325228Y0120531D01*
X0325268Y0120605D01*
X0325311Y0120677D01*
X0325358Y0120746D01*
X0325408Y0120813D01*
X0325461Y0120878D01*
X0325517Y0120940D01*
X0325575Y0121000D01*
X0325637Y0121057D01*
X0325701Y0121110D01*
X0325768Y0121161D01*
X0325837Y0121208D01*
X0325908Y0121253D01*
X0325981Y0121293D01*
X0326056Y0121330D01*
X0326133Y0121364D01*
X0326211Y0121394D01*
X0326290Y0121420D01*
X0326371Y0121443D01*
X0326453Y0121461D01*
X0326535Y0121476D01*
X0326618Y0121487D01*
X0326701Y0121494D01*
X0326785Y0121497D01*
X0326869Y0121496D01*
X0326952Y0121491D01*
X0327036Y0121482D01*
X0327118Y0121469D01*
X0327200Y0121453D01*
X0327281Y0121432D01*
X0327362Y0121408D01*
X0327440Y0121380D01*
X0327518Y0121348D01*
X0327594Y0121312D01*
X0327668Y0121273D01*
X0327740Y0121231D01*
X0327810Y0121185D01*
X0327878Y0121136D01*
X0327943Y0121084D01*
X0328006Y0121029D01*
X0328066Y0120971D01*
X0328124Y0120910D01*
X0328178Y0120846D01*
X0328230Y0120780D01*
X0328278Y0120712D01*
X0328323Y0120641D01*
X0328364Y0120568D01*
X0328403Y0120494D01*
X0328437Y0120418D01*
X0328468Y0120340D01*
X0328495Y0120261D01*
X0328519Y0120180D01*
X0328538Y0120099D01*
X0328554Y0120017D01*
X0328566Y0119934D01*
X0328574Y0119850D01*
X0328578Y0119767D01*
X0328578Y0119683D01*
X0328574Y0119600D01*
X0328566Y0119516D01*
X0328554Y0119433D01*
X0328538Y0119351D01*
X0328519Y0119270D01*
X0328495Y0119189D01*
X0328468Y0119110D01*
X0328437Y0119032D01*
X0328403Y0118956D01*
X0328364Y0118882D01*
X0328323Y0118809D01*
X0328278Y0118738D01*
X0328230Y0118670D01*
X0328178Y0118604D01*
X0328124Y0118540D01*
X0328066Y0118479D01*
X0328006Y0118421D01*
X0327943Y0118366D01*
X0327878Y0118314D01*
X0327810Y0118265D01*
X0327740Y0118219D01*
X0327668Y0118177D01*
X0327594Y0118138D01*
X0327518Y0118102D01*
X0327440Y0118070D01*
X0327362Y0118042D01*
X0327281Y0118018D01*
X0327200Y0117997D01*
X0327118Y0117981D01*
X0327036Y0117968D01*
X0326952Y0117959D01*
X0326869Y0117954D01*
X0326785Y0117953D01*
X0326701Y0117956D01*
X0326618Y0117963D01*
X0326535Y0117974D01*
X0326453Y0117989D01*
X0326371Y0118007D01*
X0326290Y0118030D01*
X0326211Y0118056D01*
X0326133Y0118086D01*
X0326056Y0118120D01*
X0325981Y0118157D01*
X0325908Y0118197D01*
X0325837Y0118242D01*
X0325768Y0118289D01*
X0325701Y0118340D01*
X0325637Y0118393D01*
X0325575Y0118450D01*
X0325517Y0118510D01*
X0325461Y0118572D01*
X0325408Y0118637D01*
X0325358Y0118704D01*
X0325311Y0118773D01*
X0325268Y0118845D01*
X0325228Y0118919D01*
X0325192Y0118994D01*
X0325159Y0119071D01*
X0325130Y0119150D01*
X0325105Y0119229D01*
X0325083Y0119310D01*
X0325066Y0119392D01*
X0325052Y0119475D01*
X0325042Y0119558D01*
X0325036Y0119641D01*
X0325034Y0119725D01*
X0354472Y0119725D02*
X0354474Y0119809D01*
X0354480Y0119892D01*
X0354490Y0119975D01*
X0354504Y0120058D01*
X0354521Y0120140D01*
X0354543Y0120221D01*
X0354568Y0120300D01*
X0354597Y0120379D01*
X0354630Y0120456D01*
X0354666Y0120531D01*
X0354706Y0120605D01*
X0354749Y0120677D01*
X0354796Y0120746D01*
X0354846Y0120813D01*
X0354899Y0120878D01*
X0354955Y0120940D01*
X0355013Y0121000D01*
X0355075Y0121057D01*
X0355139Y0121110D01*
X0355206Y0121161D01*
X0355275Y0121208D01*
X0355346Y0121253D01*
X0355419Y0121293D01*
X0355494Y0121330D01*
X0355571Y0121364D01*
X0355649Y0121394D01*
X0355728Y0121420D01*
X0355809Y0121443D01*
X0355891Y0121461D01*
X0355973Y0121476D01*
X0356056Y0121487D01*
X0356139Y0121494D01*
X0356223Y0121497D01*
X0356307Y0121496D01*
X0356390Y0121491D01*
X0356474Y0121482D01*
X0356556Y0121469D01*
X0356638Y0121453D01*
X0356719Y0121432D01*
X0356800Y0121408D01*
X0356878Y0121380D01*
X0356956Y0121348D01*
X0357032Y0121312D01*
X0357106Y0121273D01*
X0357178Y0121231D01*
X0357248Y0121185D01*
X0357316Y0121136D01*
X0357381Y0121084D01*
X0357444Y0121029D01*
X0357504Y0120971D01*
X0357562Y0120910D01*
X0357616Y0120846D01*
X0357668Y0120780D01*
X0357716Y0120712D01*
X0357761Y0120641D01*
X0357802Y0120568D01*
X0357841Y0120494D01*
X0357875Y0120418D01*
X0357906Y0120340D01*
X0357933Y0120261D01*
X0357957Y0120180D01*
X0357976Y0120099D01*
X0357992Y0120017D01*
X0358004Y0119934D01*
X0358012Y0119850D01*
X0358016Y0119767D01*
X0358016Y0119683D01*
X0358012Y0119600D01*
X0358004Y0119516D01*
X0357992Y0119433D01*
X0357976Y0119351D01*
X0357957Y0119270D01*
X0357933Y0119189D01*
X0357906Y0119110D01*
X0357875Y0119032D01*
X0357841Y0118956D01*
X0357802Y0118882D01*
X0357761Y0118809D01*
X0357716Y0118738D01*
X0357668Y0118670D01*
X0357616Y0118604D01*
X0357562Y0118540D01*
X0357504Y0118479D01*
X0357444Y0118421D01*
X0357381Y0118366D01*
X0357316Y0118314D01*
X0357248Y0118265D01*
X0357178Y0118219D01*
X0357106Y0118177D01*
X0357032Y0118138D01*
X0356956Y0118102D01*
X0356878Y0118070D01*
X0356800Y0118042D01*
X0356719Y0118018D01*
X0356638Y0117997D01*
X0356556Y0117981D01*
X0356474Y0117968D01*
X0356390Y0117959D01*
X0356307Y0117954D01*
X0356223Y0117953D01*
X0356139Y0117956D01*
X0356056Y0117963D01*
X0355973Y0117974D01*
X0355891Y0117989D01*
X0355809Y0118007D01*
X0355728Y0118030D01*
X0355649Y0118056D01*
X0355571Y0118086D01*
X0355494Y0118120D01*
X0355419Y0118157D01*
X0355346Y0118197D01*
X0355275Y0118242D01*
X0355206Y0118289D01*
X0355139Y0118340D01*
X0355075Y0118393D01*
X0355013Y0118450D01*
X0354955Y0118510D01*
X0354899Y0118572D01*
X0354846Y0118637D01*
X0354796Y0118704D01*
X0354749Y0118773D01*
X0354706Y0118845D01*
X0354666Y0118919D01*
X0354630Y0118994D01*
X0354597Y0119071D01*
X0354568Y0119150D01*
X0354543Y0119229D01*
X0354521Y0119310D01*
X0354504Y0119392D01*
X0354490Y0119475D01*
X0354480Y0119558D01*
X0354474Y0119641D01*
X0354472Y0119725D01*
X0366284Y0119725D02*
X0366286Y0119809D01*
X0366292Y0119892D01*
X0366302Y0119975D01*
X0366316Y0120058D01*
X0366333Y0120140D01*
X0366355Y0120221D01*
X0366380Y0120300D01*
X0366409Y0120379D01*
X0366442Y0120456D01*
X0366478Y0120531D01*
X0366518Y0120605D01*
X0366561Y0120677D01*
X0366608Y0120746D01*
X0366658Y0120813D01*
X0366711Y0120878D01*
X0366767Y0120940D01*
X0366825Y0121000D01*
X0366887Y0121057D01*
X0366951Y0121110D01*
X0367018Y0121161D01*
X0367087Y0121208D01*
X0367158Y0121253D01*
X0367231Y0121293D01*
X0367306Y0121330D01*
X0367383Y0121364D01*
X0367461Y0121394D01*
X0367540Y0121420D01*
X0367621Y0121443D01*
X0367703Y0121461D01*
X0367785Y0121476D01*
X0367868Y0121487D01*
X0367951Y0121494D01*
X0368035Y0121497D01*
X0368119Y0121496D01*
X0368202Y0121491D01*
X0368286Y0121482D01*
X0368368Y0121469D01*
X0368450Y0121453D01*
X0368531Y0121432D01*
X0368612Y0121408D01*
X0368690Y0121380D01*
X0368768Y0121348D01*
X0368844Y0121312D01*
X0368918Y0121273D01*
X0368990Y0121231D01*
X0369060Y0121185D01*
X0369128Y0121136D01*
X0369193Y0121084D01*
X0369256Y0121029D01*
X0369316Y0120971D01*
X0369374Y0120910D01*
X0369428Y0120846D01*
X0369480Y0120780D01*
X0369528Y0120712D01*
X0369573Y0120641D01*
X0369614Y0120568D01*
X0369653Y0120494D01*
X0369687Y0120418D01*
X0369718Y0120340D01*
X0369745Y0120261D01*
X0369769Y0120180D01*
X0369788Y0120099D01*
X0369804Y0120017D01*
X0369816Y0119934D01*
X0369824Y0119850D01*
X0369828Y0119767D01*
X0369828Y0119683D01*
X0369824Y0119600D01*
X0369816Y0119516D01*
X0369804Y0119433D01*
X0369788Y0119351D01*
X0369769Y0119270D01*
X0369745Y0119189D01*
X0369718Y0119110D01*
X0369687Y0119032D01*
X0369653Y0118956D01*
X0369614Y0118882D01*
X0369573Y0118809D01*
X0369528Y0118738D01*
X0369480Y0118670D01*
X0369428Y0118604D01*
X0369374Y0118540D01*
X0369316Y0118479D01*
X0369256Y0118421D01*
X0369193Y0118366D01*
X0369128Y0118314D01*
X0369060Y0118265D01*
X0368990Y0118219D01*
X0368918Y0118177D01*
X0368844Y0118138D01*
X0368768Y0118102D01*
X0368690Y0118070D01*
X0368612Y0118042D01*
X0368531Y0118018D01*
X0368450Y0117997D01*
X0368368Y0117981D01*
X0368286Y0117968D01*
X0368202Y0117959D01*
X0368119Y0117954D01*
X0368035Y0117953D01*
X0367951Y0117956D01*
X0367868Y0117963D01*
X0367785Y0117974D01*
X0367703Y0117989D01*
X0367621Y0118007D01*
X0367540Y0118030D01*
X0367461Y0118056D01*
X0367383Y0118086D01*
X0367306Y0118120D01*
X0367231Y0118157D01*
X0367158Y0118197D01*
X0367087Y0118242D01*
X0367018Y0118289D01*
X0366951Y0118340D01*
X0366887Y0118393D01*
X0366825Y0118450D01*
X0366767Y0118510D01*
X0366711Y0118572D01*
X0366658Y0118637D01*
X0366608Y0118704D01*
X0366561Y0118773D01*
X0366518Y0118845D01*
X0366478Y0118919D01*
X0366442Y0118994D01*
X0366409Y0119071D01*
X0366380Y0119150D01*
X0366355Y0119229D01*
X0366333Y0119310D01*
X0366316Y0119392D01*
X0366302Y0119475D01*
X0366292Y0119558D01*
X0366286Y0119641D01*
X0366284Y0119725D01*
X0423098Y0115225D02*
X0423100Y0115391D01*
X0423106Y0115556D01*
X0423116Y0115722D01*
X0423131Y0115887D01*
X0423149Y0116051D01*
X0423171Y0116215D01*
X0423197Y0116379D01*
X0423228Y0116542D01*
X0423262Y0116704D01*
X0423300Y0116865D01*
X0423343Y0117025D01*
X0423389Y0117184D01*
X0423439Y0117342D01*
X0423493Y0117499D01*
X0423550Y0117654D01*
X0423612Y0117808D01*
X0423677Y0117960D01*
X0423746Y0118111D01*
X0423819Y0118260D01*
X0423895Y0118407D01*
X0423975Y0118552D01*
X0424058Y0118695D01*
X0424145Y0118836D01*
X0424236Y0118975D01*
X0424329Y0119112D01*
X0424426Y0119246D01*
X0424527Y0119378D01*
X0424630Y0119507D01*
X0424737Y0119634D01*
X0424847Y0119758D01*
X0424959Y0119879D01*
X0425075Y0119998D01*
X0425194Y0120114D01*
X0425315Y0120226D01*
X0425439Y0120336D01*
X0425566Y0120443D01*
X0425695Y0120546D01*
X0425827Y0120647D01*
X0425961Y0120744D01*
X0426098Y0120837D01*
X0426237Y0120928D01*
X0426378Y0121015D01*
X0426521Y0121098D01*
X0426666Y0121178D01*
X0426813Y0121254D01*
X0426962Y0121327D01*
X0427113Y0121396D01*
X0427265Y0121461D01*
X0427419Y0121523D01*
X0427574Y0121580D01*
X0427731Y0121634D01*
X0427889Y0121684D01*
X0428048Y0121730D01*
X0428208Y0121773D01*
X0428369Y0121811D01*
X0428531Y0121845D01*
X0428694Y0121876D01*
X0428858Y0121902D01*
X0429022Y0121924D01*
X0429186Y0121942D01*
X0429351Y0121957D01*
X0429517Y0121967D01*
X0429682Y0121973D01*
X0429848Y0121975D01*
X0430014Y0121973D01*
X0430179Y0121967D01*
X0430345Y0121957D01*
X0430510Y0121942D01*
X0430674Y0121924D01*
X0430838Y0121902D01*
X0431002Y0121876D01*
X0431165Y0121845D01*
X0431327Y0121811D01*
X0431488Y0121773D01*
X0431648Y0121730D01*
X0431807Y0121684D01*
X0431965Y0121634D01*
X0432122Y0121580D01*
X0432277Y0121523D01*
X0432431Y0121461D01*
X0432583Y0121396D01*
X0432734Y0121327D01*
X0432883Y0121254D01*
X0433030Y0121178D01*
X0433175Y0121098D01*
X0433318Y0121015D01*
X0433459Y0120928D01*
X0433598Y0120837D01*
X0433735Y0120744D01*
X0433869Y0120647D01*
X0434001Y0120546D01*
X0434130Y0120443D01*
X0434257Y0120336D01*
X0434381Y0120226D01*
X0434502Y0120114D01*
X0434621Y0119998D01*
X0434737Y0119879D01*
X0434849Y0119758D01*
X0434959Y0119634D01*
X0435066Y0119507D01*
X0435169Y0119378D01*
X0435270Y0119246D01*
X0435367Y0119112D01*
X0435460Y0118975D01*
X0435551Y0118836D01*
X0435638Y0118695D01*
X0435721Y0118552D01*
X0435801Y0118407D01*
X0435877Y0118260D01*
X0435950Y0118111D01*
X0436019Y0117960D01*
X0436084Y0117808D01*
X0436146Y0117654D01*
X0436203Y0117499D01*
X0436257Y0117342D01*
X0436307Y0117184D01*
X0436353Y0117025D01*
X0436396Y0116865D01*
X0436434Y0116704D01*
X0436468Y0116542D01*
X0436499Y0116379D01*
X0436525Y0116215D01*
X0436547Y0116051D01*
X0436565Y0115887D01*
X0436580Y0115722D01*
X0436590Y0115556D01*
X0436596Y0115391D01*
X0436598Y0115225D01*
X0436596Y0115059D01*
X0436590Y0114894D01*
X0436580Y0114728D01*
X0436565Y0114563D01*
X0436547Y0114399D01*
X0436525Y0114235D01*
X0436499Y0114071D01*
X0436468Y0113908D01*
X0436434Y0113746D01*
X0436396Y0113585D01*
X0436353Y0113425D01*
X0436307Y0113266D01*
X0436257Y0113108D01*
X0436203Y0112951D01*
X0436146Y0112796D01*
X0436084Y0112642D01*
X0436019Y0112490D01*
X0435950Y0112339D01*
X0435877Y0112190D01*
X0435801Y0112043D01*
X0435721Y0111898D01*
X0435638Y0111755D01*
X0435551Y0111614D01*
X0435460Y0111475D01*
X0435367Y0111338D01*
X0435270Y0111204D01*
X0435169Y0111072D01*
X0435066Y0110943D01*
X0434959Y0110816D01*
X0434849Y0110692D01*
X0434737Y0110571D01*
X0434621Y0110452D01*
X0434502Y0110336D01*
X0434381Y0110224D01*
X0434257Y0110114D01*
X0434130Y0110007D01*
X0434001Y0109904D01*
X0433869Y0109803D01*
X0433735Y0109706D01*
X0433598Y0109613D01*
X0433459Y0109522D01*
X0433318Y0109435D01*
X0433175Y0109352D01*
X0433030Y0109272D01*
X0432883Y0109196D01*
X0432734Y0109123D01*
X0432583Y0109054D01*
X0432431Y0108989D01*
X0432277Y0108927D01*
X0432122Y0108870D01*
X0431965Y0108816D01*
X0431807Y0108766D01*
X0431648Y0108720D01*
X0431488Y0108677D01*
X0431327Y0108639D01*
X0431165Y0108605D01*
X0431002Y0108574D01*
X0430838Y0108548D01*
X0430674Y0108526D01*
X0430510Y0108508D01*
X0430345Y0108493D01*
X0430179Y0108483D01*
X0430014Y0108477D01*
X0429848Y0108475D01*
X0429682Y0108477D01*
X0429517Y0108483D01*
X0429351Y0108493D01*
X0429186Y0108508D01*
X0429022Y0108526D01*
X0428858Y0108548D01*
X0428694Y0108574D01*
X0428531Y0108605D01*
X0428369Y0108639D01*
X0428208Y0108677D01*
X0428048Y0108720D01*
X0427889Y0108766D01*
X0427731Y0108816D01*
X0427574Y0108870D01*
X0427419Y0108927D01*
X0427265Y0108989D01*
X0427113Y0109054D01*
X0426962Y0109123D01*
X0426813Y0109196D01*
X0426666Y0109272D01*
X0426521Y0109352D01*
X0426378Y0109435D01*
X0426237Y0109522D01*
X0426098Y0109613D01*
X0425961Y0109706D01*
X0425827Y0109803D01*
X0425695Y0109904D01*
X0425566Y0110007D01*
X0425439Y0110114D01*
X0425315Y0110224D01*
X0425194Y0110336D01*
X0425075Y0110452D01*
X0424959Y0110571D01*
X0424847Y0110692D01*
X0424737Y0110816D01*
X0424630Y0110943D01*
X0424527Y0111072D01*
X0424426Y0111204D01*
X0424329Y0111338D01*
X0424236Y0111475D01*
X0424145Y0111614D01*
X0424058Y0111755D01*
X0423975Y0111898D01*
X0423895Y0112043D01*
X0423819Y0112190D01*
X0423746Y0112339D01*
X0423677Y0112490D01*
X0423612Y0112642D01*
X0423550Y0112796D01*
X0423493Y0112951D01*
X0423439Y0113108D01*
X0423389Y0113266D01*
X0423343Y0113425D01*
X0423300Y0113585D01*
X0423262Y0113746D01*
X0423228Y0113908D01*
X0423197Y0114071D01*
X0423171Y0114235D01*
X0423149Y0114399D01*
X0423131Y0114563D01*
X0423116Y0114728D01*
X0423106Y0114894D01*
X0423100Y0115059D01*
X0423098Y0115225D01*
M02*
