G75*
%MOIN*%
%OFA0B0*%
%FSLAX25Y25*%
%IPPOS*%
%LPD*%
%AMOC8*
5,1,8,0,0,1.08239X$1,22.5*
%
%ADD10C,0.14100*%
%ADD11R,0.04931X0.04537*%
%ADD12R,0.04537X0.04931*%
%ADD13C,0.07100*%
%ADD14R,0.07100X0.07100*%
%ADD15R,0.03080X0.03868*%
%ADD16R,0.05324X0.06112*%
%ADD17R,0.09400X0.05400*%
%ADD18R,0.09261X0.14773*%
%ADD19R,0.09261X0.02962*%
%ADD20C,0.08000*%
%ADD21C,0.13400*%
%ADD22OC8,0.06600*%
%ADD23R,0.08600X0.08600*%
%ADD24C,0.08600*%
%ADD25R,0.03356X0.03356*%
%ADD26C,0.06600*%
%ADD27R,0.03600X0.06600*%
%ADD28C,0.07600*%
%ADD29R,0.06900X0.05200*%
%ADD30R,0.07200X0.00600*%
%ADD31R,0.02569X0.10443*%
%ADD32R,0.08474X0.10443*%
%ADD33C,0.04143*%
%ADD34R,0.05324X0.05324*%
%ADD35R,0.02600X0.06400*%
%ADD36R,0.01970X0.06100*%
%ADD37R,0.03356X0.06506*%
%ADD38R,0.04537X0.02962*%
%ADD39R,0.04537X0.03750*%
D10*
X0134144Y0016745D03*
X0102819Y0100415D03*
X0429848Y0115225D03*
D11*
X0530054Y0116600D03*
X0536746Y0116600D03*
X0536746Y0086600D03*
X0530054Y0086600D03*
X0530054Y0066600D03*
X0536746Y0066600D03*
X0517996Y0049100D03*
X0511304Y0049100D03*
X0510054Y0037850D03*
X0516746Y0037850D03*
X0516746Y0028600D03*
X0510054Y0028600D03*
X0509768Y0014207D03*
X0516461Y0014207D03*
G36*
X0299112Y0036605D02*
X0295627Y0033120D01*
X0292420Y0036327D01*
X0295905Y0039812D01*
X0299112Y0036605D01*
G37*
G36*
X0294380Y0031873D02*
X0290895Y0028388D01*
X0287688Y0031595D01*
X0291173Y0035080D01*
X0294380Y0031873D01*
G37*
X0151746Y0054100D03*
X0145054Y0054100D03*
X0131746Y0051600D03*
X0125054Y0051600D03*
X0206304Y0070350D03*
X0212996Y0070350D03*
X0212996Y0076600D03*
X0206304Y0076600D03*
X0186746Y0096600D03*
X0180054Y0096600D03*
X0180054Y0102850D03*
X0186746Y0102850D03*
X0169246Y0106600D03*
X0162554Y0106600D03*
X0131746Y0110350D03*
X0125054Y0110350D03*
X0125054Y0116600D03*
X0131746Y0116600D03*
D12*
X0088400Y0089946D03*
X0088400Y0083254D03*
X0248400Y0080754D03*
X0248400Y0087446D03*
X0309025Y0096379D03*
X0309025Y0103071D03*
X0344650Y0103696D03*
X0344650Y0097004D03*
X0349650Y0076196D03*
X0349650Y0069504D03*
X0349650Y0063696D03*
X0349650Y0057004D03*
X0240900Y0027446D03*
X0240900Y0020754D03*
D13*
X0320900Y0024100D03*
X0335900Y0056600D03*
X0335900Y0076600D03*
X0177150Y0066600D03*
D14*
X0177150Y0056600D03*
X0310900Y0024100D03*
D15*
X0132928Y0041600D03*
X0123872Y0041600D03*
D16*
X0142494Y0109100D03*
X0154306Y0109100D03*
X0154306Y0117850D03*
X0142494Y0117850D03*
X0527494Y0106600D03*
X0539306Y0106600D03*
X0539306Y0096600D03*
X0527494Y0096600D03*
X0527494Y0076600D03*
X0539306Y0076600D03*
X0539306Y0049100D03*
X0527494Y0049100D03*
X0527494Y0037850D03*
X0539306Y0037850D03*
X0539306Y0026600D03*
X0527494Y0026600D03*
X0527494Y0015350D03*
X0539306Y0015350D03*
D17*
X0110600Y0017500D03*
X0110600Y0026600D03*
X0110600Y0035700D03*
D18*
X0086199Y0026600D03*
D19*
X0485664Y0099100D03*
X0485664Y0104100D03*
X0506136Y0104100D03*
X0506136Y0099100D03*
X0506136Y0109100D03*
X0506136Y0114100D03*
X0485664Y0114100D03*
X0485664Y0109100D03*
D20*
X0068400Y0099100D03*
X0058400Y0094100D03*
X0068400Y0089100D03*
X0058400Y0084100D03*
X0068400Y0079100D03*
X0058400Y0074100D03*
D21*
X0033400Y0066600D03*
X0033400Y0106600D03*
D22*
X0210900Y0106600D03*
X0220900Y0106600D03*
X0250900Y0106600D03*
X0260900Y0106600D03*
X0270900Y0106600D03*
X0270900Y0116600D03*
X0260900Y0116600D03*
X0250900Y0116600D03*
X0220900Y0116600D03*
X0210900Y0116600D03*
X0210900Y0096600D03*
X0220900Y0096600D03*
X0220900Y0086600D03*
X0210900Y0086600D03*
D23*
X0023400Y0031600D03*
D24*
X0023400Y0017820D03*
D25*
X0183400Y0082958D03*
X0180841Y0090242D03*
X0185959Y0090242D03*
X0187042Y0111541D03*
X0179758Y0114100D03*
X0187042Y0116659D03*
D26*
X0061400Y0039100D02*
X0055400Y0039100D01*
X0055400Y0029100D02*
X0061400Y0029100D01*
X0061400Y0019100D02*
X0055400Y0019100D01*
X0270900Y0014600D02*
X0270900Y0008600D01*
X0280900Y0008600D02*
X0280900Y0014600D01*
X0290900Y0014600D02*
X0290900Y0008600D01*
D27*
X0230900Y0020600D03*
X0215900Y0020600D03*
X0215900Y0042600D03*
X0230900Y0042600D03*
D28*
X0481775Y0054639D03*
X0481775Y0080229D03*
D29*
X0088400Y0067100D03*
X0088400Y0061100D03*
D30*
X0088400Y0064100D03*
D31*
X0174601Y0038943D03*
X0177750Y0038943D03*
X0180900Y0038943D03*
X0184050Y0038943D03*
X0187199Y0038943D03*
D32*
X0198617Y0038943D03*
X0163183Y0038943D03*
X0163183Y0017289D03*
X0198617Y0017289D03*
D33*
X0189561Y0029100D03*
X0172239Y0029100D03*
X0314994Y0119725D03*
X0326806Y0119725D03*
X0356244Y0119725D03*
X0368056Y0119725D03*
D34*
X0388400Y0096600D03*
X0398400Y0096600D03*
X0408400Y0096600D03*
X0418400Y0096600D03*
X0418400Y0026600D03*
X0428400Y0026600D03*
X0408400Y0026600D03*
X0398400Y0026600D03*
X0388400Y0026600D03*
X0378400Y0026600D03*
D35*
G36*
X0290814Y0046580D02*
X0288976Y0044742D01*
X0284452Y0049266D01*
X0286290Y0051104D01*
X0290814Y0046580D01*
G37*
G36*
X0288622Y0044388D02*
X0286784Y0042550D01*
X0282260Y0047074D01*
X0284098Y0048912D01*
X0288622Y0044388D01*
G37*
G36*
X0286360Y0042125D02*
X0284522Y0040287D01*
X0279998Y0044811D01*
X0281836Y0046649D01*
X0286360Y0042125D01*
G37*
G36*
X0284167Y0039933D02*
X0282329Y0038095D01*
X0277805Y0042619D01*
X0279643Y0044457D01*
X0284167Y0039933D01*
G37*
G36*
X0281905Y0037670D02*
X0280067Y0035832D01*
X0275543Y0040356D01*
X0277381Y0042194D01*
X0281905Y0037670D01*
G37*
G36*
X0279713Y0035478D02*
X0277875Y0033640D01*
X0273351Y0038164D01*
X0275189Y0040002D01*
X0279713Y0035478D01*
G37*
G36*
X0277450Y0033216D02*
X0275612Y0031378D01*
X0271088Y0035902D01*
X0272926Y0037740D01*
X0277450Y0033216D01*
G37*
G36*
X0275258Y0031024D02*
X0273420Y0029186D01*
X0268896Y0033710D01*
X0270734Y0035548D01*
X0275258Y0031024D01*
G37*
G36*
X0263380Y0029186D02*
X0261542Y0031024D01*
X0266066Y0035548D01*
X0267904Y0033710D01*
X0263380Y0029186D01*
G37*
G36*
X0261188Y0031378D02*
X0259350Y0033216D01*
X0263874Y0037740D01*
X0265712Y0035902D01*
X0261188Y0031378D01*
G37*
G36*
X0258925Y0033640D02*
X0257087Y0035478D01*
X0261611Y0040002D01*
X0263449Y0038164D01*
X0258925Y0033640D01*
G37*
G36*
X0256733Y0035832D02*
X0254895Y0037670D01*
X0259419Y0042194D01*
X0261257Y0040356D01*
X0256733Y0035832D01*
G37*
G36*
X0254470Y0038095D02*
X0252632Y0039933D01*
X0257156Y0044457D01*
X0258994Y0042619D01*
X0254470Y0038095D01*
G37*
G36*
X0252278Y0040287D02*
X0250440Y0042125D01*
X0254964Y0046649D01*
X0256802Y0044811D01*
X0252278Y0040287D01*
G37*
G36*
X0250016Y0042550D02*
X0248178Y0044388D01*
X0252702Y0048912D01*
X0254540Y0047074D01*
X0250016Y0042550D01*
G37*
G36*
X0247824Y0044742D02*
X0245986Y0046580D01*
X0250510Y0051104D01*
X0252348Y0049266D01*
X0247824Y0044742D01*
G37*
G36*
X0252348Y0053934D02*
X0250510Y0052096D01*
X0245986Y0056620D01*
X0247824Y0058458D01*
X0252348Y0053934D01*
G37*
G36*
X0254540Y0056126D02*
X0252702Y0054288D01*
X0248178Y0058812D01*
X0250016Y0060650D01*
X0254540Y0056126D01*
G37*
G36*
X0256802Y0058389D02*
X0254964Y0056551D01*
X0250440Y0061075D01*
X0252278Y0062913D01*
X0256802Y0058389D01*
G37*
G36*
X0258994Y0060581D02*
X0257156Y0058743D01*
X0252632Y0063267D01*
X0254470Y0065105D01*
X0258994Y0060581D01*
G37*
G36*
X0261257Y0062843D02*
X0259419Y0061005D01*
X0254895Y0065529D01*
X0256733Y0067367D01*
X0261257Y0062843D01*
G37*
G36*
X0263449Y0065036D02*
X0261611Y0063198D01*
X0257087Y0067722D01*
X0258925Y0069560D01*
X0263449Y0065036D01*
G37*
G36*
X0275189Y0063198D02*
X0273351Y0065036D01*
X0277875Y0069560D01*
X0279713Y0067722D01*
X0275189Y0063198D01*
G37*
G36*
X0277381Y0061005D02*
X0275543Y0062843D01*
X0280067Y0067367D01*
X0281905Y0065529D01*
X0277381Y0061005D01*
G37*
G36*
X0279643Y0058743D02*
X0277805Y0060581D01*
X0282329Y0065105D01*
X0284167Y0063267D01*
X0279643Y0058743D01*
G37*
G36*
X0281836Y0056551D02*
X0279998Y0058389D01*
X0284522Y0062913D01*
X0286360Y0061075D01*
X0281836Y0056551D01*
G37*
G36*
X0284098Y0054288D02*
X0282260Y0056126D01*
X0286784Y0060650D01*
X0288622Y0058812D01*
X0284098Y0054288D01*
G37*
G36*
X0286290Y0052096D02*
X0284452Y0053934D01*
X0288976Y0058458D01*
X0290814Y0056620D01*
X0286290Y0052096D01*
G37*
G36*
X0272926Y0065460D02*
X0271088Y0067298D01*
X0275612Y0071822D01*
X0277450Y0069984D01*
X0272926Y0065460D01*
G37*
G36*
X0265712Y0067298D02*
X0263874Y0065460D01*
X0259350Y0069984D01*
X0261188Y0071822D01*
X0265712Y0067298D01*
G37*
G36*
X0267904Y0069490D02*
X0266066Y0067652D01*
X0261542Y0072176D01*
X0263380Y0074014D01*
X0267904Y0069490D01*
G37*
G36*
X0270734Y0067652D02*
X0268896Y0069490D01*
X0273420Y0074014D01*
X0275258Y0072176D01*
X0270734Y0067652D01*
G37*
D36*
X0155034Y0067206D03*
X0152475Y0067206D03*
X0149916Y0067206D03*
X0147357Y0067206D03*
X0144798Y0067206D03*
X0142239Y0067206D03*
X0139680Y0067206D03*
X0137120Y0067206D03*
X0134561Y0067206D03*
X0132002Y0067206D03*
X0129443Y0067206D03*
X0126884Y0067206D03*
X0124325Y0067206D03*
X0121766Y0067206D03*
X0121766Y0095994D03*
X0124325Y0095994D03*
X0126884Y0095994D03*
X0129443Y0095994D03*
X0132002Y0095994D03*
X0134561Y0095994D03*
X0137120Y0095994D03*
X0139680Y0095994D03*
X0142239Y0095994D03*
X0144798Y0095994D03*
X0147357Y0095994D03*
X0149916Y0095994D03*
X0152475Y0095994D03*
X0155034Y0095994D03*
D37*
X0312042Y0112835D03*
X0317947Y0112835D03*
X0329758Y0112835D03*
X0353292Y0112835D03*
X0359197Y0112835D03*
X0371008Y0112835D03*
D38*
X0376520Y0123662D03*
X0347780Y0123662D03*
X0335270Y0123662D03*
X0306530Y0123662D03*
D39*
X0306530Y0115394D03*
X0335270Y0115394D03*
X0347780Y0115394D03*
X0376520Y0115394D03*
M02*
