G75*
%MOIN*%
%OFA0B0*%
%FSLAX25Y25*%
%IPPOS*%
%LPD*%
%AMOC8*
5,1,8,0,0,1.08239X$1,22.5*
%
%ADD10C,0.06500*%
%ADD11R,0.06500X0.06500*%
%ADD12C,0.07400*%
%ADD13OC8,0.06000*%
%ADD14R,0.08000X0.08000*%
%ADD15C,0.08000*%
%ADD16C,0.06000*%
%ADD17C,0.07000*%
%ADD18R,0.04724X0.04724*%
%ADD19C,0.03369*%
%ADD20C,0.01200*%
%ADD21C,0.02400*%
D10*
X0177150Y0066600D03*
X0320900Y0024100D03*
X0335900Y0056600D03*
X0335900Y0076600D03*
D11*
X0177150Y0056600D03*
X0310900Y0024100D03*
D12*
X0068400Y0079100D03*
X0058400Y0074100D03*
X0058400Y0084100D03*
X0068400Y0089100D03*
X0058400Y0094100D03*
X0068400Y0099100D03*
D13*
X0210900Y0096600D03*
X0220900Y0096600D03*
X0220900Y0086600D03*
X0210900Y0086600D03*
X0210900Y0106600D03*
X0220900Y0106600D03*
X0250900Y0106600D03*
X0260900Y0106600D03*
X0270900Y0106600D03*
X0270900Y0116600D03*
X0260900Y0116600D03*
X0250900Y0116600D03*
X0220900Y0116600D03*
X0210900Y0116600D03*
D14*
X0023400Y0031600D03*
D15*
X0023400Y0017820D03*
D16*
X0055400Y0019100D02*
X0061400Y0019100D01*
X0061400Y0029100D02*
X0055400Y0029100D01*
X0055400Y0039100D02*
X0061400Y0039100D01*
X0270900Y0014600D02*
X0270900Y0008600D01*
X0280900Y0008600D02*
X0280900Y0014600D01*
X0290900Y0014600D02*
X0290900Y0008600D01*
D17*
X0481775Y0054639D03*
X0481775Y0080229D03*
D18*
X0418400Y0096600D03*
X0408400Y0096600D03*
X0398400Y0096600D03*
X0388400Y0096600D03*
X0388400Y0026600D03*
X0378400Y0026600D03*
X0398400Y0026600D03*
X0408400Y0026600D03*
X0418400Y0026600D03*
X0428400Y0026600D03*
D19*
X0383400Y0036600D03*
X0313400Y0051600D03*
X0273400Y0049100D03*
X0265900Y0045350D03*
X0258400Y0049100D03*
X0240900Y0039725D03*
X0250900Y0035350D03*
X0268400Y0037225D03*
X0286525Y0035350D03*
X0308400Y0036600D03*
X0277150Y0026600D03*
X0250900Y0027850D03*
X0247775Y0017225D03*
X0210900Y0012850D03*
X0153400Y0021600D03*
X0130900Y0034100D03*
X0137150Y0051600D03*
X0119650Y0059100D03*
X0132150Y0077850D03*
X0192150Y0090350D03*
X0238400Y0093475D03*
X0255900Y0099100D03*
X0229650Y0104100D03*
X0174650Y0114100D03*
X0083400Y0096600D03*
X0078400Y0096600D03*
X0198400Y0077850D03*
X0197775Y0070350D03*
X0217150Y0064100D03*
X0219025Y0070350D03*
X0247775Y0064725D03*
X0244025Y0060350D03*
X0298400Y0076600D03*
X0298400Y0081600D03*
X0293400Y0090350D03*
X0293400Y0095350D03*
X0293400Y0100350D03*
X0293400Y0104725D03*
X0317775Y0104100D03*
X0359025Y0105350D03*
X0463400Y0101600D03*
X0468400Y0101600D03*
X0468400Y0096600D03*
X0463400Y0096600D03*
X0514650Y0109100D03*
X0473400Y0115350D03*
X0513400Y0066600D03*
X0513400Y0056600D03*
X0548400Y0045350D03*
X0548400Y0034100D03*
X0548400Y0025350D03*
X0220275Y0042225D03*
D20*
X0015500Y0006200D02*
X0015500Y0124451D01*
X0551221Y0124451D01*
X0551221Y0046076D01*
X0550845Y0046984D01*
X0550034Y0047795D01*
X0548974Y0048234D01*
X0547826Y0048234D01*
X0546766Y0047795D01*
X0545955Y0046984D01*
X0545516Y0045924D01*
X0545516Y0045011D01*
X0536404Y0035900D01*
X0441646Y0035900D01*
X0437896Y0039650D01*
X0421646Y0039650D01*
X0386200Y0075095D01*
X0479186Y0075095D01*
X0479978Y0075886D01*
X0480840Y0075529D01*
X0482710Y0075529D01*
X0484437Y0076245D01*
X0485759Y0077567D01*
X0486475Y0079294D01*
X0486475Y0081164D01*
X0485759Y0082892D01*
X0484437Y0084214D01*
X0482710Y0084929D01*
X0480840Y0084929D01*
X0479112Y0084214D01*
X0477790Y0082892D01*
X0477075Y0081164D01*
X0477075Y0079294D01*
X0477323Y0078695D01*
X0386350Y0078695D01*
X0366450Y0098596D01*
X0365396Y0099650D01*
X0301037Y0099650D01*
X0296284Y0104390D01*
X0296284Y0105299D01*
X0295845Y0106359D01*
X0295034Y0107170D01*
X0294720Y0107300D01*
X0312029Y0107300D01*
X0314891Y0104439D01*
X0314891Y0103526D01*
X0315330Y0102466D01*
X0316141Y0101655D01*
X0317201Y0101216D01*
X0318349Y0101216D01*
X0319409Y0101655D01*
X0320220Y0102466D01*
X0320659Y0103526D01*
X0320659Y0104674D01*
X0320220Y0105734D01*
X0319409Y0106545D01*
X0318349Y0106984D01*
X0317436Y0106984D01*
X0314621Y0109800D01*
X0352029Y0109800D01*
X0356141Y0105689D01*
X0356141Y0104776D01*
X0356580Y0103716D01*
X0357391Y0102905D01*
X0358451Y0102466D01*
X0359599Y0102466D01*
X0360659Y0102905D01*
X0361470Y0103716D01*
X0361909Y0104776D01*
X0361909Y0105924D01*
X0361470Y0106984D01*
X0360659Y0107795D01*
X0359599Y0108234D01*
X0358686Y0108234D01*
X0355194Y0111726D01*
X0412559Y0111757D01*
X0422545Y0102061D01*
X0423063Y0101543D01*
X0423079Y0101543D01*
X0423090Y0101532D01*
X0423822Y0101543D01*
X0436658Y0101543D01*
X0437392Y0101534D01*
X0437402Y0101543D01*
X0437415Y0101543D01*
X0437934Y0102062D01*
X0447504Y0111385D01*
X0468472Y0111385D01*
X0472135Y0107819D01*
X0472654Y0107300D01*
X0472669Y0107300D01*
X0472679Y0107290D01*
X0473412Y0107300D01*
X0512371Y0107300D01*
X0513016Y0106655D01*
X0514076Y0106216D01*
X0515224Y0106216D01*
X0516284Y0106655D01*
X0517095Y0107466D01*
X0517534Y0108526D01*
X0517534Y0109674D01*
X0517095Y0110734D01*
X0516284Y0111545D01*
X0515224Y0111984D01*
X0514076Y0111984D01*
X0513016Y0111545D01*
X0512371Y0110900D01*
X0474131Y0110900D01*
X0472298Y0112685D01*
X0472826Y0112466D01*
X0473974Y0112466D01*
X0475034Y0112905D01*
X0475845Y0113716D01*
X0476284Y0114776D01*
X0476284Y0115924D01*
X0475845Y0116984D01*
X0475034Y0117795D01*
X0473974Y0118234D01*
X0472826Y0118234D01*
X0471766Y0117795D01*
X0471127Y0117156D01*
X0446787Y0117223D01*
X0446783Y0117226D01*
X0446043Y0117225D01*
X0445301Y0117227D01*
X0445298Y0117223D01*
X0445292Y0117223D01*
X0444770Y0116698D01*
X0444244Y0116175D01*
X0444244Y0116170D01*
X0435356Y0107237D01*
X0433689Y0107237D01*
X0434861Y0107722D01*
X0437351Y0110212D01*
X0438698Y0113464D01*
X0438698Y0116985D01*
X0437351Y0120238D01*
X0434861Y0122727D01*
X0431608Y0124075D01*
X0428087Y0124075D01*
X0424835Y0122727D01*
X0422345Y0120238D01*
X0420998Y0116985D01*
X0420998Y0113464D01*
X0422345Y0110212D01*
X0424533Y0108024D01*
X0415408Y0116662D01*
X0414900Y0117171D01*
X0414870Y0117171D01*
X0414847Y0117192D01*
X0414129Y0117173D01*
X0371058Y0117252D01*
X0371338Y0117532D01*
X0371927Y0118955D01*
X0371927Y0120495D01*
X0371338Y0121918D01*
X0370249Y0123007D01*
X0368826Y0123597D01*
X0367285Y0123597D01*
X0365862Y0123007D01*
X0364773Y0121918D01*
X0364184Y0120495D01*
X0364184Y0118955D01*
X0364773Y0117532D01*
X0365042Y0117263D01*
X0359269Y0117274D01*
X0359527Y0117532D01*
X0360116Y0118955D01*
X0360116Y0120495D01*
X0359527Y0121918D01*
X0358438Y0123007D01*
X0357015Y0123597D01*
X0355474Y0123597D01*
X0354051Y0123007D01*
X0352962Y0121918D01*
X0352373Y0120495D01*
X0352373Y0118955D01*
X0352962Y0117532D01*
X0353209Y0117285D01*
X0329884Y0117328D01*
X0330088Y0117532D01*
X0330677Y0118955D01*
X0330677Y0120495D01*
X0330088Y0121918D01*
X0328999Y0123007D01*
X0327576Y0123597D01*
X0326035Y0123597D01*
X0324612Y0123007D01*
X0323523Y0121918D01*
X0322934Y0120495D01*
X0322934Y0118955D01*
X0323523Y0117532D01*
X0323716Y0117339D01*
X0318094Y0117350D01*
X0318277Y0117532D01*
X0318866Y0118955D01*
X0318866Y0120495D01*
X0318277Y0121918D01*
X0317188Y0123007D01*
X0315765Y0123597D01*
X0314224Y0123597D01*
X0312801Y0123007D01*
X0311712Y0121918D01*
X0311123Y0120495D01*
X0311123Y0118955D01*
X0311712Y0117532D01*
X0311883Y0117361D01*
X0280126Y0117420D01*
X0275200Y0122346D01*
X0274146Y0123400D01*
X0215154Y0123400D01*
X0212554Y0120800D01*
X0209160Y0120800D01*
X0206700Y0118340D01*
X0206700Y0114860D01*
X0209100Y0112460D01*
X0209100Y0110740D01*
X0206700Y0108340D01*
X0206700Y0104860D01*
X0209160Y0102400D01*
X0211654Y0102400D01*
X0210054Y0100800D01*
X0209160Y0100800D01*
X0206700Y0098340D01*
X0206700Y0094860D01*
X0209100Y0092460D01*
X0209100Y0090740D01*
X0206700Y0088340D01*
X0206700Y0084860D01*
X0209160Y0082400D01*
X0212640Y0082400D01*
X0214100Y0083860D01*
X0214100Y0072729D01*
X0216141Y0070689D01*
X0216141Y0069776D01*
X0216580Y0068716D01*
X0217391Y0067905D01*
X0218451Y0067466D01*
X0219599Y0067466D01*
X0220659Y0067905D01*
X0221470Y0068716D01*
X0221909Y0069776D01*
X0221909Y0070924D01*
X0221470Y0071984D01*
X0220659Y0072795D01*
X0219599Y0073234D01*
X0218686Y0073234D01*
X0217700Y0074221D01*
X0217700Y0083860D01*
X0219160Y0082400D01*
X0222640Y0082400D01*
X0225100Y0084860D01*
X0225100Y0088340D01*
X0222640Y0090800D01*
X0219160Y0090800D01*
X0217700Y0089340D01*
X0217700Y0092729D01*
X0218265Y0093295D01*
X0219160Y0092400D01*
X0222640Y0092400D01*
X0225040Y0094800D01*
X0234529Y0094800D01*
X0235516Y0093814D01*
X0235516Y0092901D01*
X0235955Y0091841D01*
X0236766Y0091030D01*
X0237826Y0090591D01*
X0238475Y0090591D01*
X0238475Y0052333D01*
X0238466Y0052323D01*
X0238475Y0051589D01*
X0238475Y0050854D01*
X0238484Y0050845D01*
X0238484Y0050832D01*
X0239010Y0050319D01*
X0239529Y0049800D01*
X0239542Y0049800D01*
X0251397Y0038234D01*
X0250561Y0038234D01*
X0236646Y0052150D01*
X0171646Y0052150D01*
X0170396Y0053400D01*
X0139429Y0053400D01*
X0138784Y0054045D01*
X0137724Y0054484D01*
X0136576Y0054484D01*
X0135516Y0054045D01*
X0134705Y0053234D01*
X0134266Y0052174D01*
X0134266Y0051026D01*
X0134705Y0049966D01*
X0135516Y0049155D01*
X0136576Y0048716D01*
X0137724Y0048716D01*
X0138784Y0049155D01*
X0139429Y0049800D01*
X0168904Y0049800D01*
X0169100Y0049604D01*
X0170154Y0048550D01*
X0235154Y0048550D01*
X0241095Y0042609D01*
X0240561Y0042609D01*
X0240200Y0042971D01*
X0239146Y0044025D01*
X0222554Y0044025D01*
X0221909Y0044670D01*
X0220849Y0045109D01*
X0219701Y0045109D01*
X0218641Y0044670D01*
X0217830Y0043859D01*
X0217391Y0042799D01*
X0217391Y0041651D01*
X0217830Y0040591D01*
X0218641Y0039780D01*
X0219701Y0039341D01*
X0220849Y0039341D01*
X0221909Y0039780D01*
X0222554Y0040425D01*
X0237654Y0040425D01*
X0238016Y0040064D01*
X0238016Y0039151D01*
X0238455Y0038091D01*
X0239266Y0037280D01*
X0240326Y0036841D01*
X0241474Y0036841D01*
X0242534Y0037280D01*
X0243345Y0038091D01*
X0243784Y0039151D01*
X0243784Y0039920D01*
X0248016Y0035689D01*
X0248016Y0034776D01*
X0248455Y0033716D01*
X0249100Y0033071D01*
X0249100Y0030129D01*
X0248455Y0029484D01*
X0248016Y0028424D01*
X0248016Y0027276D01*
X0248455Y0026216D01*
X0249266Y0025405D01*
X0250326Y0024966D01*
X0251474Y0024966D01*
X0252534Y0025405D01*
X0253345Y0026216D01*
X0253784Y0027276D01*
X0253784Y0028424D01*
X0253345Y0029484D01*
X0252700Y0030129D01*
X0252700Y0033071D01*
X0253345Y0033716D01*
X0253784Y0034776D01*
X0253784Y0035906D01*
X0264635Y0025319D01*
X0265154Y0024800D01*
X0265167Y0024800D01*
X0265177Y0024791D01*
X0265911Y0024800D01*
X0274871Y0024800D01*
X0275516Y0024155D01*
X0275890Y0024000D01*
X0249394Y0024000D01*
X0237259Y0036135D01*
X0236377Y0036500D01*
X0132579Y0036500D01*
X0132534Y0036545D01*
X0131474Y0036984D01*
X0130326Y0036984D01*
X0129266Y0036545D01*
X0128455Y0035734D01*
X0128016Y0034674D01*
X0128016Y0033526D01*
X0128455Y0032466D01*
X0129266Y0031655D01*
X0130326Y0031216D01*
X0131474Y0031216D01*
X0132534Y0031655D01*
X0132579Y0031700D01*
X0169363Y0031700D01*
X0168956Y0031293D01*
X0168367Y0029870D01*
X0168367Y0028330D01*
X0168956Y0026907D01*
X0170045Y0025818D01*
X0171468Y0025228D01*
X0173009Y0025228D01*
X0174432Y0025818D01*
X0175521Y0026907D01*
X0176110Y0028330D01*
X0176110Y0029870D01*
X0175521Y0031293D01*
X0175114Y0031700D01*
X0186686Y0031700D01*
X0186279Y0031293D01*
X0185690Y0029870D01*
X0185690Y0028330D01*
X0186279Y0026907D01*
X0187368Y0025818D01*
X0188791Y0025228D01*
X0190332Y0025228D01*
X0191755Y0025818D01*
X0192844Y0026907D01*
X0193433Y0028330D01*
X0193433Y0029870D01*
X0192844Y0031293D01*
X0192437Y0031700D01*
X0234906Y0031700D01*
X0245975Y0020631D01*
X0245975Y0019504D01*
X0245330Y0018859D01*
X0244891Y0017799D01*
X0244891Y0016651D01*
X0245330Y0015591D01*
X0246141Y0014780D01*
X0247201Y0014341D01*
X0248349Y0014341D01*
X0249409Y0014780D01*
X0250220Y0015591D01*
X0250659Y0016651D01*
X0250659Y0017799D01*
X0250220Y0018859D01*
X0249879Y0019200D01*
X0279100Y0019200D01*
X0279100Y0018400D01*
X0278521Y0018161D01*
X0277339Y0016979D01*
X0276700Y0015435D01*
X0276700Y0007765D01*
X0277339Y0006221D01*
X0277360Y0006200D01*
X0274840Y0006200D01*
X0275163Y0006834D01*
X0275387Y0007523D01*
X0275500Y0008238D01*
X0275500Y0011200D01*
X0271300Y0011200D01*
X0271300Y0012000D01*
X0270500Y0012000D01*
X0270500Y0019194D01*
X0269823Y0019087D01*
X0269134Y0018863D01*
X0268489Y0018534D01*
X0267903Y0018109D01*
X0267391Y0017597D01*
X0266966Y0017011D01*
X0266637Y0016366D01*
X0266413Y0015677D01*
X0266300Y0014962D01*
X0266300Y0012000D01*
X0270500Y0012000D01*
X0270500Y0011200D01*
X0266300Y0011200D01*
X0266300Y0008238D01*
X0266413Y0007523D01*
X0266637Y0006834D01*
X0266960Y0006200D01*
X0015500Y0006200D01*
X0015500Y0006600D02*
X0266756Y0006600D01*
X0266370Y0007799D02*
X0015500Y0007799D01*
X0015500Y0008997D02*
X0129723Y0008997D01*
X0129131Y0009242D02*
X0132384Y0007895D01*
X0135904Y0007895D01*
X0139157Y0009242D01*
X0141647Y0011732D01*
X0142994Y0014985D01*
X0142994Y0018505D01*
X0141647Y0021758D01*
X0139157Y0024248D01*
X0135904Y0025595D01*
X0132384Y0025595D01*
X0129131Y0024248D01*
X0126641Y0021758D01*
X0125294Y0018505D01*
X0125294Y0014985D01*
X0126641Y0011732D01*
X0129131Y0009242D01*
X0128178Y0010196D02*
X0015500Y0010196D01*
X0015500Y0011394D02*
X0126979Y0011394D01*
X0126285Y0012593D02*
X0015500Y0012593D01*
X0015500Y0013791D02*
X0020075Y0013791D01*
X0020454Y0013412D02*
X0022366Y0012620D01*
X0024434Y0012620D01*
X0026346Y0013412D01*
X0027808Y0014875D01*
X0028600Y0016786D01*
X0028600Y0018855D01*
X0027808Y0020766D01*
X0026346Y0022229D01*
X0024434Y0023020D01*
X0022366Y0023020D01*
X0020454Y0022229D01*
X0018992Y0020766D01*
X0018200Y0018855D01*
X0018200Y0016786D01*
X0018992Y0014875D01*
X0020454Y0013412D01*
X0018944Y0014990D02*
X0015500Y0014990D01*
X0015500Y0016188D02*
X0018448Y0016188D01*
X0018200Y0017387D02*
X0015500Y0017387D01*
X0015500Y0018585D02*
X0018200Y0018585D01*
X0018585Y0019784D02*
X0015500Y0019784D01*
X0015500Y0020982D02*
X0019208Y0020982D01*
X0020406Y0022181D02*
X0015500Y0022181D01*
X0015500Y0023379D02*
X0128262Y0023379D01*
X0127064Y0022181D02*
X0064259Y0022181D01*
X0063779Y0022661D02*
X0062235Y0023300D01*
X0054565Y0023300D01*
X0053021Y0022661D01*
X0051839Y0021479D01*
X0051200Y0019935D01*
X0051200Y0018265D01*
X0051839Y0016721D01*
X0053021Y0015539D01*
X0054565Y0014900D01*
X0062235Y0014900D01*
X0063779Y0015539D01*
X0064961Y0016721D01*
X0065600Y0018265D01*
X0065600Y0019935D01*
X0064961Y0021479D01*
X0063779Y0022661D01*
X0065166Y0020982D02*
X0126320Y0020982D01*
X0125823Y0019784D02*
X0065600Y0019784D01*
X0065600Y0018585D02*
X0125327Y0018585D01*
X0125294Y0017387D02*
X0065236Y0017387D01*
X0064428Y0016188D02*
X0125294Y0016188D01*
X0125294Y0014990D02*
X0062452Y0014990D01*
X0054348Y0014990D02*
X0027856Y0014990D01*
X0028352Y0016188D02*
X0052372Y0016188D01*
X0051564Y0017387D02*
X0028600Y0017387D01*
X0028600Y0018585D02*
X0051200Y0018585D01*
X0051200Y0019784D02*
X0028215Y0019784D01*
X0027592Y0020982D02*
X0051634Y0020982D01*
X0052541Y0022181D02*
X0026394Y0022181D01*
X0015500Y0024578D02*
X0129927Y0024578D01*
X0138360Y0024578D02*
X0242028Y0024578D01*
X0240830Y0025776D02*
X0191654Y0025776D01*
X0192872Y0026975D02*
X0239631Y0026975D01*
X0238433Y0028173D02*
X0193368Y0028173D01*
X0193433Y0029372D02*
X0237234Y0029372D01*
X0236036Y0030570D02*
X0193143Y0030570D01*
X0185980Y0030570D02*
X0175820Y0030570D01*
X0176110Y0029372D02*
X0185690Y0029372D01*
X0185755Y0028173D02*
X0176045Y0028173D01*
X0175549Y0026975D02*
X0186251Y0026975D01*
X0187469Y0025776D02*
X0174331Y0025776D01*
X0170146Y0025776D02*
X0064016Y0025776D01*
X0063779Y0025539D02*
X0064961Y0026721D01*
X0065600Y0028265D01*
X0065600Y0029935D01*
X0064961Y0031479D01*
X0063779Y0032661D01*
X0062235Y0033300D01*
X0054565Y0033300D01*
X0053021Y0032661D01*
X0051839Y0031479D01*
X0051200Y0029935D01*
X0051200Y0028265D01*
X0051839Y0026721D01*
X0053021Y0025539D01*
X0054565Y0024900D01*
X0062235Y0024900D01*
X0063779Y0025539D01*
X0065066Y0026975D02*
X0168928Y0026975D01*
X0168432Y0028173D02*
X0065562Y0028173D01*
X0065600Y0029372D02*
X0168367Y0029372D01*
X0168657Y0030570D02*
X0065337Y0030570D01*
X0064671Y0031769D02*
X0129152Y0031769D01*
X0128247Y0032967D02*
X0063039Y0032967D01*
X0062477Y0034613D02*
X0063166Y0034837D01*
X0063811Y0035166D01*
X0064397Y0035591D01*
X0064909Y0036103D01*
X0065334Y0036689D01*
X0065663Y0037334D01*
X0065887Y0038023D01*
X0065994Y0038700D01*
X0058800Y0038700D01*
X0058800Y0039500D01*
X0058000Y0039500D01*
X0058000Y0043700D01*
X0055038Y0043700D01*
X0054323Y0043587D01*
X0053634Y0043363D01*
X0052989Y0043034D01*
X0052403Y0042609D01*
X0051891Y0042097D01*
X0051466Y0041511D01*
X0051137Y0040866D01*
X0050913Y0040177D01*
X0050806Y0039500D01*
X0058000Y0039500D01*
X0058000Y0038700D01*
X0058800Y0038700D01*
X0058800Y0034500D01*
X0061762Y0034500D01*
X0062477Y0034613D01*
X0064084Y0035364D02*
X0128302Y0035364D01*
X0128016Y0034166D02*
X0028600Y0034166D01*
X0028600Y0035364D02*
X0052716Y0035364D01*
X0052989Y0035166D02*
X0053634Y0034837D01*
X0054323Y0034613D01*
X0055038Y0034500D01*
X0058000Y0034500D01*
X0058000Y0038700D01*
X0050806Y0038700D01*
X0050913Y0038023D01*
X0051137Y0037334D01*
X0051466Y0036689D01*
X0051891Y0036103D01*
X0052403Y0035591D01*
X0052989Y0035166D01*
X0051557Y0036563D02*
X0028134Y0036563D01*
X0027897Y0036800D02*
X0018903Y0036800D01*
X0018200Y0036097D01*
X0018200Y0027103D01*
X0018903Y0026400D01*
X0027897Y0026400D01*
X0028600Y0027103D01*
X0028600Y0036097D01*
X0027897Y0036800D01*
X0018666Y0036563D02*
X0015500Y0036563D01*
X0015500Y0037761D02*
X0050998Y0037761D01*
X0050910Y0040158D02*
X0015500Y0040158D01*
X0015500Y0038960D02*
X0058000Y0038960D01*
X0058800Y0038960D02*
X0238095Y0038960D01*
X0237921Y0040158D02*
X0222287Y0040158D01*
X0218263Y0040158D02*
X0065890Y0040158D01*
X0065887Y0040177D02*
X0065663Y0040866D01*
X0065334Y0041511D01*
X0064909Y0042097D01*
X0064397Y0042609D01*
X0063811Y0043034D01*
X0063166Y0043363D01*
X0062477Y0043587D01*
X0061762Y0043700D01*
X0058800Y0043700D01*
X0058800Y0039500D01*
X0065994Y0039500D01*
X0065887Y0040177D01*
X0065413Y0041357D02*
X0217513Y0041357D01*
X0217391Y0042555D02*
X0064450Y0042555D01*
X0058800Y0042555D02*
X0058000Y0042555D01*
X0058000Y0041357D02*
X0058800Y0041357D01*
X0058800Y0040158D02*
X0058000Y0040158D01*
X0058000Y0037761D02*
X0058800Y0037761D01*
X0058800Y0036563D02*
X0058000Y0036563D01*
X0058000Y0035364D02*
X0058800Y0035364D01*
X0065243Y0036563D02*
X0129309Y0036563D01*
X0132491Y0036563D02*
X0247142Y0036563D01*
X0248016Y0035364D02*
X0238030Y0035364D01*
X0239228Y0034166D02*
X0248269Y0034166D01*
X0249100Y0032967D02*
X0240427Y0032967D01*
X0241625Y0031769D02*
X0249100Y0031769D01*
X0249100Y0030570D02*
X0242824Y0030570D01*
X0244022Y0029372D02*
X0248408Y0029372D01*
X0248016Y0028173D02*
X0245221Y0028173D01*
X0246419Y0026975D02*
X0248141Y0026975D01*
X0247618Y0025776D02*
X0248895Y0025776D01*
X0248816Y0024578D02*
X0275093Y0024578D01*
X0278410Y0024000D02*
X0278784Y0024155D01*
X0279595Y0024966D01*
X0280034Y0026026D01*
X0280034Y0027174D01*
X0279595Y0028234D01*
X0278784Y0029045D01*
X0277724Y0029484D01*
X0276576Y0029484D01*
X0275516Y0029045D01*
X0274871Y0028400D01*
X0266633Y0028400D01*
X0242075Y0052359D01*
X0242075Y0058221D01*
X0242391Y0057905D01*
X0243451Y0057466D01*
X0244599Y0057466D01*
X0245659Y0057905D01*
X0246470Y0058716D01*
X0246909Y0059776D01*
X0246909Y0060924D01*
X0246470Y0061984D01*
X0246197Y0062257D01*
X0247201Y0061841D01*
X0248349Y0061841D01*
X0249409Y0062280D01*
X0250220Y0063091D01*
X0250420Y0063575D01*
X0290657Y0103811D01*
X0290955Y0103091D01*
X0291509Y0102537D01*
X0290955Y0101984D01*
X0290516Y0100924D01*
X0290516Y0099776D01*
X0290955Y0098716D01*
X0291766Y0097905D01*
X0291899Y0097850D01*
X0291766Y0097795D01*
X0290955Y0096984D01*
X0290516Y0095924D01*
X0290516Y0094776D01*
X0290955Y0093716D01*
X0291766Y0092905D01*
X0291899Y0092850D01*
X0291766Y0092795D01*
X0290955Y0091984D01*
X0290516Y0090924D01*
X0290516Y0089776D01*
X0290955Y0088716D01*
X0291766Y0087905D01*
X0292826Y0087466D01*
X0293974Y0087466D01*
X0295034Y0087905D01*
X0295679Y0088550D01*
X0360154Y0088550D01*
X0416600Y0032104D01*
X0417654Y0031050D01*
X0432654Y0031050D01*
X0436600Y0027104D01*
X0437654Y0026050D01*
X0545154Y0026050D01*
X0545516Y0025689D01*
X0545516Y0024776D01*
X0545955Y0023716D01*
X0546766Y0022905D01*
X0547826Y0022466D01*
X0548974Y0022466D01*
X0550034Y0022905D01*
X0550845Y0023716D01*
X0551221Y0024624D01*
X0551221Y0006200D01*
X0294440Y0006200D01*
X0294461Y0006221D01*
X0295100Y0007765D01*
X0295100Y0015435D01*
X0294461Y0016979D01*
X0293279Y0018161D01*
X0291735Y0018800D01*
X0290065Y0018800D01*
X0288521Y0018161D01*
X0287339Y0016979D01*
X0286700Y0015435D01*
X0286700Y0007765D01*
X0287339Y0006221D01*
X0287360Y0006200D01*
X0284440Y0006200D01*
X0284461Y0006221D01*
X0285100Y0007765D01*
X0285100Y0015435D01*
X0284461Y0016979D01*
X0283279Y0018161D01*
X0282700Y0018400D01*
X0282700Y0019200D01*
X0308877Y0019200D01*
X0309759Y0019565D01*
X0309844Y0019650D01*
X0314647Y0019650D01*
X0315350Y0020353D01*
X0315350Y0026004D01*
X0319146Y0029800D01*
X0372654Y0029800D01*
X0374838Y0027617D01*
X0374838Y0023741D01*
X0375541Y0023038D01*
X0381259Y0023038D01*
X0381962Y0023741D01*
X0381962Y0029459D01*
X0381259Y0030162D01*
X0377383Y0030162D01*
X0375200Y0032346D01*
X0374146Y0033400D01*
X0317654Y0033400D01*
X0312804Y0028550D01*
X0307153Y0028550D01*
X0306450Y0027847D01*
X0306450Y0024000D01*
X0278410Y0024000D01*
X0279207Y0024578D02*
X0306450Y0024578D01*
X0306450Y0025776D02*
X0279931Y0025776D01*
X0280034Y0026975D02*
X0306450Y0026975D01*
X0306776Y0028173D02*
X0279620Y0028173D01*
X0277995Y0029372D02*
X0313626Y0029372D01*
X0314825Y0030570D02*
X0264408Y0030570D01*
X0265637Y0029372D02*
X0276305Y0029372D01*
X0277150Y0026600D02*
X0265900Y0026600D01*
X0240275Y0051600D01*
X0240275Y0090350D01*
X0241525Y0091600D01*
X0241525Y0098475D01*
X0235900Y0104100D01*
X0229650Y0104100D01*
X0231929Y0102300D02*
X0235154Y0102300D01*
X0239725Y0097729D01*
X0239725Y0096048D01*
X0238974Y0096359D01*
X0238061Y0096359D01*
X0236021Y0098400D01*
X0225040Y0098400D01*
X0222640Y0100800D01*
X0219160Y0100800D01*
X0216700Y0098340D01*
X0216700Y0096821D01*
X0215154Y0095275D01*
X0215100Y0095221D01*
X0215100Y0098340D01*
X0213893Y0099547D01*
X0216646Y0102300D01*
X0217700Y0103354D01*
X0217700Y0103860D01*
X0219160Y0102400D01*
X0222640Y0102400D01*
X0225100Y0104860D01*
X0225100Y0108340D01*
X0223640Y0109800D01*
X0247595Y0109800D01*
X0246300Y0108505D01*
X0246300Y0107000D01*
X0250500Y0107000D01*
X0250500Y0106200D01*
X0251300Y0106200D01*
X0251300Y0107000D01*
X0255500Y0107000D01*
X0255500Y0108505D01*
X0254205Y0109800D01*
X0258160Y0109800D01*
X0256700Y0108340D01*
X0256700Y0104860D01*
X0259160Y0102400D01*
X0262640Y0102400D01*
X0265100Y0104860D01*
X0265100Y0108340D01*
X0263640Y0109800D01*
X0268160Y0109800D01*
X0266700Y0108340D01*
X0266700Y0104946D01*
X0262654Y0100900D01*
X0258179Y0100900D01*
X0257534Y0101545D01*
X0256474Y0101984D01*
X0255326Y0101984D01*
X0254266Y0101545D01*
X0253455Y0100734D01*
X0253016Y0099674D01*
X0253016Y0098526D01*
X0253455Y0097466D01*
X0254266Y0096655D01*
X0255326Y0096216D01*
X0256474Y0096216D01*
X0257534Y0096655D01*
X0258179Y0097300D01*
X0264146Y0097300D01*
X0269246Y0102400D01*
X0272640Y0102400D01*
X0275100Y0104860D01*
X0275100Y0108340D01*
X0273640Y0109800D01*
X0275798Y0109800D01*
X0275811Y0109787D01*
X0276541Y0109800D01*
X0277271Y0109800D01*
X0277284Y0109813D01*
X0277302Y0109813D01*
X0277809Y0110338D01*
X0278325Y0110854D01*
X0278325Y0110873D01*
X0279110Y0111686D01*
X0290322Y0111692D01*
X0249529Y0070900D01*
X0245779Y0070900D01*
X0244725Y0069846D01*
X0242225Y0067346D01*
X0242225Y0062629D01*
X0242075Y0062479D01*
X0242075Y0089604D01*
X0242271Y0089800D01*
X0243325Y0090854D01*
X0243325Y0099221D01*
X0236646Y0105900D01*
X0231929Y0105900D01*
X0231284Y0106545D01*
X0230224Y0106984D01*
X0229076Y0106984D01*
X0228016Y0106545D01*
X0227205Y0105734D01*
X0226766Y0104674D01*
X0226766Y0103526D01*
X0227205Y0102466D01*
X0228016Y0101655D01*
X0229076Y0101216D01*
X0230224Y0101216D01*
X0231284Y0101655D01*
X0231929Y0102300D01*
X0230385Y0101282D02*
X0236172Y0101282D01*
X0237371Y0100084D02*
X0223356Y0100084D01*
X0224554Y0098885D02*
X0238569Y0098885D01*
X0239725Y0097687D02*
X0236734Y0097687D01*
X0237932Y0096488D02*
X0239725Y0096488D01*
X0238400Y0093475D02*
X0235275Y0096600D01*
X0220900Y0096600D01*
X0219025Y0096600D01*
X0215900Y0093475D01*
X0215900Y0073475D01*
X0219025Y0070350D01*
X0221745Y0071320D02*
X0238475Y0071320D01*
X0238475Y0072518D02*
X0220936Y0072518D01*
X0221909Y0070121D02*
X0238475Y0070121D01*
X0238475Y0068923D02*
X0221556Y0068923D01*
X0220222Y0067724D02*
X0238475Y0067724D01*
X0238475Y0066526D02*
X0177239Y0066526D01*
X0177239Y0066511D02*
X0177239Y0066689D01*
X0177061Y0066689D01*
X0177061Y0071450D01*
X0176768Y0071450D01*
X0176014Y0071331D01*
X0175288Y0071095D01*
X0174608Y0070748D01*
X0173990Y0070299D01*
X0173451Y0069760D01*
X0173002Y0069142D01*
X0172655Y0068462D01*
X0172419Y0067736D01*
X0172300Y0066982D01*
X0172300Y0066689D01*
X0177061Y0066689D01*
X0177061Y0066511D01*
X0172300Y0066511D01*
X0172300Y0066218D01*
X0172419Y0065464D01*
X0172655Y0064738D01*
X0173002Y0064058D01*
X0173451Y0063440D01*
X0173990Y0062901D01*
X0174608Y0062452D01*
X0175288Y0062105D01*
X0176014Y0061869D01*
X0176768Y0061750D01*
X0177061Y0061750D01*
X0177061Y0066511D01*
X0177239Y0066511D01*
X0182000Y0066511D01*
X0182000Y0066218D01*
X0181881Y0065464D01*
X0181645Y0064738D01*
X0181298Y0064058D01*
X0180849Y0063440D01*
X0180310Y0062901D01*
X0179692Y0062452D01*
X0179012Y0062105D01*
X0178286Y0061869D01*
X0177532Y0061750D01*
X0177239Y0061750D01*
X0177239Y0066511D01*
X0177239Y0066689D02*
X0182000Y0066689D01*
X0182000Y0066982D01*
X0181881Y0067736D01*
X0181645Y0068462D01*
X0181298Y0069142D01*
X0180849Y0069760D01*
X0180310Y0070299D01*
X0179692Y0070748D01*
X0179012Y0071095D01*
X0178286Y0071331D01*
X0177532Y0071450D01*
X0177239Y0071450D01*
X0177239Y0066689D01*
X0177061Y0066526D02*
X0132121Y0066526D01*
X0133320Y0067724D02*
X0172418Y0067724D01*
X0172890Y0068923D02*
X0134518Y0068923D01*
X0135717Y0070121D02*
X0173812Y0070121D01*
X0175981Y0071320D02*
X0136915Y0071320D01*
X0138114Y0072518D02*
X0193061Y0072518D01*
X0192029Y0073550D02*
X0194891Y0070689D01*
X0194891Y0069776D01*
X0195330Y0068716D01*
X0196141Y0067905D01*
X0197201Y0067466D01*
X0198349Y0067466D01*
X0199409Y0067905D01*
X0200220Y0068716D01*
X0200659Y0069776D01*
X0200659Y0070924D01*
X0200220Y0071984D01*
X0199409Y0072795D01*
X0198349Y0073234D01*
X0197436Y0073234D01*
X0194621Y0076050D01*
X0196121Y0076050D01*
X0196766Y0075405D01*
X0197826Y0074966D01*
X0198974Y0074966D01*
X0200034Y0075405D01*
X0200845Y0076216D01*
X0201284Y0077276D01*
X0201284Y0078424D01*
X0200845Y0079484D01*
X0200034Y0080295D01*
X0198974Y0080734D01*
X0197826Y0080734D01*
X0196766Y0080295D01*
X0196121Y0079650D01*
X0191496Y0079650D01*
X0192896Y0081050D01*
X0193950Y0082104D01*
X0193950Y0088071D01*
X0194595Y0088716D01*
X0195034Y0089776D01*
X0195034Y0090924D01*
X0194595Y0091984D01*
X0193784Y0092795D01*
X0192724Y0093234D01*
X0191576Y0093234D01*
X0190516Y0092795D01*
X0189705Y0091984D01*
X0189266Y0090924D01*
X0189266Y0089776D01*
X0189705Y0088716D01*
X0190350Y0088071D01*
X0190350Y0083596D01*
X0188904Y0082150D01*
X0136646Y0082150D01*
X0135396Y0083400D01*
X0127654Y0083400D01*
X0126600Y0082346D01*
X0117654Y0073400D01*
X0064146Y0073400D01*
X0063300Y0074246D01*
X0063300Y0075075D01*
X0062554Y0076876D01*
X0061176Y0078254D01*
X0059375Y0079000D01*
X0057425Y0079000D01*
X0055624Y0078254D01*
X0054246Y0076876D01*
X0053500Y0075075D01*
X0053500Y0073125D01*
X0054246Y0071324D01*
X0055624Y0069946D01*
X0057425Y0069200D01*
X0059375Y0069200D01*
X0061176Y0069946D01*
X0061842Y0070612D01*
X0062654Y0069800D01*
X0119146Y0069800D01*
X0129146Y0079800D01*
X0130021Y0079800D01*
X0129705Y0079484D01*
X0129266Y0078424D01*
X0129266Y0077276D01*
X0129705Y0076216D01*
X0130516Y0075405D01*
X0131576Y0074966D01*
X0132724Y0074966D01*
X0133784Y0075405D01*
X0134429Y0076050D01*
X0136554Y0076050D01*
X0121667Y0061162D01*
X0121284Y0061545D01*
X0120224Y0061984D01*
X0119076Y0061984D01*
X0118016Y0061545D01*
X0117205Y0060734D01*
X0116766Y0059674D01*
X0116766Y0058526D01*
X0117205Y0057466D01*
X0118016Y0056655D01*
X0119076Y0056216D01*
X0120224Y0056216D01*
X0121284Y0056655D01*
X0121929Y0057300D01*
X0122896Y0057300D01*
X0139146Y0073550D01*
X0192029Y0073550D01*
X0192775Y0075350D02*
X0197775Y0070350D01*
X0200495Y0071320D02*
X0215510Y0071320D01*
X0216141Y0070121D02*
X0200659Y0070121D01*
X0200306Y0068923D02*
X0216494Y0068923D01*
X0217828Y0067724D02*
X0198972Y0067724D01*
X0196578Y0067724D02*
X0181882Y0067724D01*
X0181410Y0068923D02*
X0195244Y0068923D01*
X0194891Y0070121D02*
X0180488Y0070121D01*
X0178319Y0071320D02*
X0194260Y0071320D01*
X0196954Y0073717D02*
X0214100Y0073717D01*
X0214100Y0074915D02*
X0195755Y0074915D01*
X0192775Y0075350D02*
X0138400Y0075350D01*
X0122150Y0059100D01*
X0119650Y0059100D01*
X0116927Y0058136D02*
X0035178Y0058136D01*
X0035091Y0058100D02*
X0038215Y0059394D01*
X0040606Y0061785D01*
X0041900Y0064909D01*
X0041900Y0068291D01*
X0040606Y0071415D01*
X0038215Y0073806D01*
X0035091Y0075100D01*
X0031709Y0075100D01*
X0028585Y0073806D01*
X0026194Y0071415D01*
X0024900Y0068291D01*
X0024900Y0064909D01*
X0026194Y0061785D01*
X0028585Y0059394D01*
X0031709Y0058100D01*
X0035091Y0058100D01*
X0038071Y0059334D02*
X0116766Y0059334D01*
X0117122Y0060533D02*
X0039354Y0060533D01*
X0040552Y0061732D02*
X0118466Y0061732D01*
X0120834Y0061732D02*
X0122236Y0061732D01*
X0123434Y0062930D02*
X0041080Y0062930D01*
X0041577Y0064129D02*
X0124633Y0064129D01*
X0125831Y0065327D02*
X0041900Y0065327D01*
X0041900Y0066526D02*
X0127030Y0066526D01*
X0128229Y0067724D02*
X0041900Y0067724D01*
X0041638Y0068923D02*
X0129427Y0068923D01*
X0130626Y0070121D02*
X0119467Y0070121D01*
X0120665Y0071320D02*
X0131824Y0071320D01*
X0133023Y0072518D02*
X0121864Y0072518D01*
X0123062Y0073717D02*
X0134221Y0073717D01*
X0135420Y0074915D02*
X0124261Y0074915D01*
X0125459Y0076114D02*
X0129807Y0076114D01*
X0129266Y0077312D02*
X0126658Y0077312D01*
X0127856Y0078511D02*
X0129302Y0078511D01*
X0129055Y0079709D02*
X0129930Y0079709D01*
X0132150Y0077850D02*
X0198400Y0077850D01*
X0200620Y0079709D02*
X0214100Y0079709D01*
X0214100Y0078511D02*
X0201248Y0078511D01*
X0201284Y0077312D02*
X0214100Y0077312D01*
X0214100Y0076114D02*
X0200743Y0076114D01*
X0196180Y0079709D02*
X0191555Y0079709D01*
X0192753Y0080908D02*
X0214100Y0080908D01*
X0214100Y0082106D02*
X0193950Y0082106D01*
X0193950Y0083305D02*
X0208256Y0083305D01*
X0207057Y0084503D02*
X0193950Y0084503D01*
X0193950Y0085702D02*
X0206700Y0085702D01*
X0206700Y0086900D02*
X0193950Y0086900D01*
X0193978Y0088099D02*
X0206700Y0088099D01*
X0207658Y0089297D02*
X0194836Y0089297D01*
X0195034Y0090496D02*
X0208856Y0090496D01*
X0209100Y0091694D02*
X0194715Y0091694D01*
X0193548Y0092893D02*
X0208667Y0092893D01*
X0207469Y0094091D02*
X0109012Y0094091D01*
X0107832Y0092912D02*
X0110322Y0095401D01*
X0111669Y0098654D01*
X0111669Y0102175D01*
X0110322Y0105428D01*
X0107832Y0107917D01*
X0104580Y0109265D01*
X0101059Y0109265D01*
X0097806Y0107917D01*
X0095317Y0105428D01*
X0093969Y0102175D01*
X0093969Y0098654D01*
X0095317Y0095401D01*
X0097806Y0092912D01*
X0101059Y0091565D01*
X0104580Y0091565D01*
X0107832Y0092912D01*
X0107786Y0092893D02*
X0190752Y0092893D01*
X0189585Y0091694D02*
X0104893Y0091694D01*
X0100746Y0091694D02*
X0072629Y0091694D01*
X0072554Y0091876D02*
X0071176Y0093254D01*
X0069375Y0094000D01*
X0067425Y0094000D01*
X0065624Y0093254D01*
X0064246Y0091876D01*
X0063500Y0090075D01*
X0063500Y0088125D01*
X0064246Y0086324D01*
X0065624Y0084946D01*
X0067230Y0084281D01*
X0067159Y0084269D01*
X0066366Y0084012D01*
X0065622Y0083633D01*
X0064947Y0083143D01*
X0064357Y0082553D01*
X0063867Y0081878D01*
X0063488Y0081134D01*
X0063230Y0080341D01*
X0063100Y0079517D01*
X0063100Y0079500D01*
X0068000Y0079500D01*
X0068000Y0078700D01*
X0063100Y0078700D01*
X0063100Y0078683D01*
X0063230Y0077859D01*
X0063488Y0077066D01*
X0063867Y0076322D01*
X0064357Y0075647D01*
X0064947Y0075057D01*
X0065622Y0074567D01*
X0066366Y0074188D01*
X0067159Y0073930D01*
X0067983Y0073800D01*
X0068000Y0073800D01*
X0068000Y0078700D01*
X0068800Y0078700D01*
X0068800Y0079500D01*
X0073700Y0079500D01*
X0073700Y0079517D01*
X0073569Y0080341D01*
X0073312Y0081134D01*
X0072933Y0081878D01*
X0072443Y0082553D01*
X0071853Y0083143D01*
X0071178Y0083633D01*
X0070434Y0084012D01*
X0069641Y0084269D01*
X0069570Y0084281D01*
X0071176Y0084946D01*
X0072554Y0086324D01*
X0073300Y0088125D01*
X0073300Y0090075D01*
X0072554Y0091876D01*
X0071537Y0092893D02*
X0097852Y0092893D01*
X0096627Y0094091D02*
X0063300Y0094091D01*
X0063300Y0093125D02*
X0062554Y0091324D01*
X0061176Y0089946D01*
X0059375Y0089200D01*
X0057425Y0089200D01*
X0055624Y0089946D01*
X0054246Y0091324D01*
X0053500Y0093125D01*
X0053500Y0095075D01*
X0054246Y0096876D01*
X0055624Y0098254D01*
X0057425Y0099000D01*
X0059375Y0099000D01*
X0061176Y0098254D01*
X0062554Y0096876D01*
X0063300Y0095075D01*
X0063300Y0093125D01*
X0063204Y0092893D02*
X0065263Y0092893D01*
X0064171Y0091694D02*
X0062707Y0091694D01*
X0063674Y0090496D02*
X0061725Y0090496D01*
X0063500Y0089297D02*
X0059610Y0089297D01*
X0059375Y0089000D02*
X0057425Y0089000D01*
X0055624Y0088254D01*
X0054246Y0086876D01*
X0053500Y0085075D01*
X0053500Y0083125D01*
X0054246Y0081324D01*
X0055624Y0079946D01*
X0057425Y0079200D01*
X0059375Y0079200D01*
X0061176Y0079946D01*
X0062554Y0081324D01*
X0063300Y0083125D01*
X0063300Y0085075D01*
X0062554Y0086876D01*
X0061176Y0088254D01*
X0059375Y0089000D01*
X0061331Y0088099D02*
X0063511Y0088099D01*
X0064007Y0086900D02*
X0062529Y0086900D01*
X0063040Y0085702D02*
X0064869Y0085702D01*
X0063300Y0084503D02*
X0066693Y0084503D01*
X0065170Y0083305D02*
X0063300Y0083305D01*
X0062878Y0082106D02*
X0064033Y0082106D01*
X0063415Y0080908D02*
X0062137Y0080908D01*
X0063130Y0079709D02*
X0060604Y0079709D01*
X0060556Y0078511D02*
X0063127Y0078511D01*
X0063408Y0077312D02*
X0062117Y0077312D01*
X0062870Y0076114D02*
X0064019Y0076114D01*
X0063300Y0074915D02*
X0065143Y0074915D01*
X0063829Y0073717D02*
X0117971Y0073717D01*
X0119170Y0074915D02*
X0071657Y0074915D01*
X0071853Y0075057D02*
X0072443Y0075647D01*
X0072933Y0076322D01*
X0073312Y0077066D01*
X0073569Y0077859D01*
X0073700Y0078683D01*
X0073700Y0078700D01*
X0068800Y0078700D01*
X0068800Y0073800D01*
X0068817Y0073800D01*
X0069641Y0073930D01*
X0070434Y0074188D01*
X0071178Y0074567D01*
X0071853Y0075057D01*
X0072781Y0076114D02*
X0120368Y0076114D01*
X0121567Y0077312D02*
X0073392Y0077312D01*
X0073673Y0078511D02*
X0122765Y0078511D01*
X0123964Y0079709D02*
X0073670Y0079709D01*
X0073385Y0080908D02*
X0125162Y0080908D01*
X0126361Y0082106D02*
X0072767Y0082106D01*
X0071630Y0083305D02*
X0127559Y0083305D01*
X0128400Y0081600D02*
X0134650Y0081600D01*
X0135900Y0080350D01*
X0189650Y0080350D01*
X0192150Y0082850D01*
X0192150Y0090350D01*
X0189464Y0089297D02*
X0073300Y0089297D01*
X0073289Y0088099D02*
X0190322Y0088099D01*
X0190350Y0086900D02*
X0072793Y0086900D01*
X0071931Y0085702D02*
X0190350Y0085702D01*
X0190350Y0084503D02*
X0070107Y0084503D01*
X0057190Y0089297D02*
X0015500Y0089297D01*
X0015500Y0088099D02*
X0055469Y0088099D01*
X0054271Y0086900D02*
X0015500Y0086900D01*
X0015500Y0085702D02*
X0053760Y0085702D01*
X0053500Y0084503D02*
X0015500Y0084503D01*
X0015500Y0083305D02*
X0053500Y0083305D01*
X0053922Y0082106D02*
X0015500Y0082106D01*
X0015500Y0080908D02*
X0054663Y0080908D01*
X0056196Y0079709D02*
X0015500Y0079709D01*
X0015500Y0078511D02*
X0056244Y0078511D01*
X0054683Y0077312D02*
X0015500Y0077312D01*
X0015500Y0076114D02*
X0053930Y0076114D01*
X0053500Y0074915D02*
X0035537Y0074915D01*
X0038304Y0073717D02*
X0053500Y0073717D01*
X0053752Y0072518D02*
X0039503Y0072518D01*
X0040645Y0071320D02*
X0054251Y0071320D01*
X0055449Y0070121D02*
X0041142Y0070121D01*
X0028496Y0073717D02*
X0015500Y0073717D01*
X0015500Y0074915D02*
X0031263Y0074915D01*
X0027297Y0072518D02*
X0015500Y0072518D01*
X0015500Y0071320D02*
X0026155Y0071320D01*
X0025658Y0070121D02*
X0015500Y0070121D01*
X0015500Y0068923D02*
X0025162Y0068923D01*
X0024900Y0067724D02*
X0015500Y0067724D01*
X0015500Y0066526D02*
X0024900Y0066526D01*
X0024900Y0065327D02*
X0015500Y0065327D01*
X0015500Y0064129D02*
X0025223Y0064129D01*
X0025720Y0062930D02*
X0015500Y0062930D01*
X0015500Y0061732D02*
X0026248Y0061732D01*
X0027446Y0060533D02*
X0015500Y0060533D01*
X0015500Y0059334D02*
X0028729Y0059334D01*
X0031622Y0058136D02*
X0015500Y0058136D01*
X0015500Y0056937D02*
X0117734Y0056937D01*
X0121566Y0056937D02*
X0172700Y0056937D01*
X0172700Y0055739D02*
X0015500Y0055739D01*
X0015500Y0054540D02*
X0172700Y0054540D01*
X0172700Y0053342D02*
X0170454Y0053342D01*
X0169650Y0051600D02*
X0170900Y0050350D01*
X0235900Y0050350D01*
X0250900Y0035350D01*
X0250900Y0027850D01*
X0253659Y0026975D02*
X0262938Y0026975D01*
X0261710Y0028173D02*
X0253784Y0028173D01*
X0253392Y0029372D02*
X0260481Y0029372D01*
X0259253Y0030570D02*
X0252700Y0030570D01*
X0252700Y0031769D02*
X0258024Y0031769D01*
X0256796Y0032967D02*
X0252700Y0032967D01*
X0253531Y0034166D02*
X0255567Y0034166D01*
X0254339Y0035364D02*
X0253784Y0035364D01*
X0258266Y0036563D02*
X0395892Y0036563D01*
X0397090Y0035364D02*
X0259494Y0035364D01*
X0260723Y0034166D02*
X0398289Y0034166D01*
X0399487Y0032967D02*
X0374578Y0032967D01*
X0375777Y0031769D02*
X0400686Y0031769D01*
X0400973Y0030562D02*
X0398587Y0030562D01*
X0398587Y0026787D01*
X0402362Y0026787D01*
X0402362Y0029173D01*
X0402253Y0029580D01*
X0402043Y0029945D01*
X0401745Y0030243D01*
X0401380Y0030453D01*
X0400973Y0030562D01*
X0401884Y0030570D02*
X0376975Y0030570D01*
X0373400Y0031600D02*
X0318400Y0031600D01*
X0310900Y0024100D01*
X0315350Y0024578D02*
X0316065Y0024578D01*
X0316050Y0024482D02*
X0316050Y0024189D01*
X0320811Y0024189D01*
X0320811Y0028950D01*
X0320518Y0028950D01*
X0319764Y0028831D01*
X0319038Y0028595D01*
X0318358Y0028248D01*
X0317740Y0027799D01*
X0317201Y0027260D01*
X0316752Y0026642D01*
X0316405Y0025962D01*
X0316169Y0025236D01*
X0316050Y0024482D01*
X0316050Y0024011D02*
X0316050Y0023718D01*
X0316169Y0022964D01*
X0316405Y0022238D01*
X0316752Y0021558D01*
X0317201Y0020940D01*
X0317740Y0020401D01*
X0318358Y0019952D01*
X0319038Y0019605D01*
X0319764Y0019369D01*
X0320518Y0019250D01*
X0320811Y0019250D01*
X0320811Y0024011D01*
X0320989Y0024011D01*
X0320989Y0024189D01*
X0325750Y0024189D01*
X0325750Y0024482D01*
X0325631Y0025236D01*
X0325395Y0025962D01*
X0325048Y0026642D01*
X0324599Y0027260D01*
X0324060Y0027799D01*
X0323442Y0028248D01*
X0322762Y0028595D01*
X0322036Y0028831D01*
X0321282Y0028950D01*
X0320989Y0028950D01*
X0320989Y0024189D01*
X0320811Y0024189D01*
X0320811Y0024011D01*
X0316050Y0024011D01*
X0316104Y0023379D02*
X0315350Y0023379D01*
X0315350Y0022181D02*
X0316435Y0022181D01*
X0317170Y0020982D02*
X0315350Y0020982D01*
X0314781Y0019784D02*
X0318688Y0019784D01*
X0320811Y0019784D02*
X0320989Y0019784D01*
X0320989Y0019250D02*
X0321282Y0019250D01*
X0322036Y0019369D01*
X0322762Y0019605D01*
X0323442Y0019952D01*
X0324060Y0020401D01*
X0324599Y0020940D01*
X0325048Y0021558D01*
X0325395Y0022238D01*
X0325631Y0022964D01*
X0325750Y0023718D01*
X0325750Y0024011D01*
X0320989Y0024011D01*
X0320989Y0019250D01*
X0320989Y0020982D02*
X0320811Y0020982D01*
X0320811Y0022181D02*
X0320989Y0022181D01*
X0320989Y0023379D02*
X0320811Y0023379D01*
X0320811Y0024578D02*
X0320989Y0024578D01*
X0320989Y0025776D02*
X0320811Y0025776D01*
X0320811Y0026975D02*
X0320989Y0026975D01*
X0320989Y0028173D02*
X0320811Y0028173D01*
X0318717Y0029372D02*
X0373083Y0029372D01*
X0374281Y0028173D02*
X0323545Y0028173D01*
X0324806Y0026975D02*
X0374838Y0026975D01*
X0374838Y0025776D02*
X0325455Y0025776D01*
X0325735Y0024578D02*
X0374838Y0024578D01*
X0375199Y0023379D02*
X0325696Y0023379D01*
X0325365Y0022181D02*
X0551221Y0022181D01*
X0551221Y0023379D02*
X0550508Y0023379D01*
X0551202Y0024578D02*
X0551221Y0024578D01*
X0548400Y0025350D02*
X0545900Y0027850D01*
X0438400Y0027850D01*
X0433400Y0032850D01*
X0418400Y0032850D01*
X0360900Y0090350D01*
X0293400Y0090350D01*
X0290714Y0089297D02*
X0276143Y0089297D01*
X0274944Y0088099D02*
X0291572Y0088099D01*
X0295228Y0088099D02*
X0360606Y0088099D01*
X0361804Y0086900D02*
X0273746Y0086900D01*
X0272547Y0085702D02*
X0363003Y0085702D01*
X0364201Y0084503D02*
X0271349Y0084503D01*
X0270150Y0083305D02*
X0365400Y0083305D01*
X0366598Y0082106D02*
X0268952Y0082106D01*
X0267753Y0080908D02*
X0334671Y0080908D01*
X0335015Y0081050D02*
X0333379Y0080373D01*
X0332127Y0079121D01*
X0331450Y0077485D01*
X0331450Y0075715D01*
X0332127Y0074079D01*
X0333379Y0072827D01*
X0335015Y0072150D01*
X0336785Y0072150D01*
X0338421Y0072827D01*
X0339673Y0074079D01*
X0340350Y0075715D01*
X0340350Y0077485D01*
X0339673Y0079121D01*
X0338421Y0080373D01*
X0336785Y0081050D01*
X0335015Y0081050D01*
X0337129Y0080908D02*
X0367797Y0080908D01*
X0368995Y0079709D02*
X0339084Y0079709D01*
X0339925Y0078511D02*
X0370194Y0078511D01*
X0371392Y0077312D02*
X0340350Y0077312D01*
X0340350Y0076114D02*
X0372591Y0076114D01*
X0373789Y0074915D02*
X0340019Y0074915D01*
X0339310Y0073717D02*
X0374988Y0073717D01*
X0376186Y0072518D02*
X0337674Y0072518D01*
X0334126Y0072518D02*
X0259364Y0072518D01*
X0260562Y0073717D02*
X0332490Y0073717D01*
X0331781Y0074915D02*
X0261761Y0074915D01*
X0262959Y0076114D02*
X0331450Y0076114D01*
X0331450Y0077312D02*
X0264158Y0077312D01*
X0265356Y0078511D02*
X0331875Y0078511D01*
X0332716Y0079709D02*
X0266555Y0079709D01*
X0259537Y0080908D02*
X0242075Y0080908D01*
X0242075Y0082106D02*
X0260736Y0082106D01*
X0261934Y0083305D02*
X0242075Y0083305D01*
X0242075Y0084503D02*
X0263133Y0084503D01*
X0264331Y0085702D02*
X0242075Y0085702D01*
X0242075Y0086900D02*
X0265530Y0086900D01*
X0266728Y0088099D02*
X0242075Y0088099D01*
X0242075Y0089297D02*
X0267927Y0089297D01*
X0269125Y0090496D02*
X0242966Y0090496D01*
X0243325Y0091694D02*
X0270324Y0091694D01*
X0271522Y0092893D02*
X0243325Y0092893D01*
X0243325Y0094091D02*
X0272721Y0094091D01*
X0273919Y0095290D02*
X0243325Y0095290D01*
X0243325Y0096488D02*
X0254668Y0096488D01*
X0253363Y0097687D02*
X0243325Y0097687D01*
X0243325Y0098885D02*
X0253016Y0098885D01*
X0253186Y0100084D02*
X0242462Y0100084D01*
X0241263Y0101282D02*
X0254003Y0101282D01*
X0252805Y0102000D02*
X0255500Y0104695D01*
X0255500Y0106200D01*
X0251300Y0106200D01*
X0251300Y0102000D01*
X0252805Y0102000D01*
X0253286Y0102481D02*
X0259079Y0102481D01*
X0257881Y0103679D02*
X0254485Y0103679D01*
X0255500Y0104878D02*
X0256700Y0104878D01*
X0256700Y0106076D02*
X0255500Y0106076D01*
X0255500Y0107275D02*
X0256700Y0107275D01*
X0256834Y0108473D02*
X0255500Y0108473D01*
X0254333Y0109672D02*
X0258032Y0109672D01*
X0263768Y0109672D02*
X0268032Y0109672D01*
X0266834Y0108473D02*
X0264966Y0108473D01*
X0265100Y0107275D02*
X0266700Y0107275D01*
X0266700Y0106076D02*
X0265100Y0106076D01*
X0265100Y0104878D02*
X0266632Y0104878D01*
X0265434Y0103679D02*
X0263919Y0103679D01*
X0264235Y0102481D02*
X0262721Y0102481D01*
X0263037Y0101282D02*
X0257797Y0101282D01*
X0255900Y0099100D02*
X0263400Y0099100D01*
X0270900Y0106600D01*
X0275100Y0106076D02*
X0284706Y0106076D01*
X0283507Y0104878D02*
X0275100Y0104878D01*
X0273919Y0103679D02*
X0282309Y0103679D01*
X0281110Y0102481D02*
X0272721Y0102481D01*
X0268128Y0101282D02*
X0279912Y0101282D01*
X0278713Y0100084D02*
X0266929Y0100084D01*
X0265731Y0098885D02*
X0277515Y0098885D01*
X0276316Y0097687D02*
X0264532Y0097687D01*
X0257132Y0096488D02*
X0275118Y0096488D01*
X0282135Y0095290D02*
X0290516Y0095290D01*
X0290750Y0096488D02*
X0283334Y0096488D01*
X0284532Y0097687D02*
X0291658Y0097687D01*
X0290885Y0098885D02*
X0285731Y0098885D01*
X0286929Y0100084D02*
X0290516Y0100084D01*
X0290664Y0101282D02*
X0288128Y0101282D01*
X0289326Y0102481D02*
X0291452Y0102481D01*
X0290711Y0103679D02*
X0290525Y0103679D01*
X0293400Y0104725D02*
X0300292Y0097850D01*
X0364650Y0097850D01*
X0385605Y0076895D01*
X0478441Y0076895D01*
X0481775Y0080229D01*
X0486150Y0078511D02*
X0551221Y0078511D01*
X0551221Y0079709D02*
X0486475Y0079709D01*
X0486475Y0080908D02*
X0551221Y0080908D01*
X0551221Y0082106D02*
X0486085Y0082106D01*
X0485346Y0083305D02*
X0551221Y0083305D01*
X0551221Y0084503D02*
X0483738Y0084503D01*
X0479811Y0084503D02*
X0380542Y0084503D01*
X0379344Y0085702D02*
X0551221Y0085702D01*
X0551221Y0086900D02*
X0378145Y0086900D01*
X0376947Y0088099D02*
X0551221Y0088099D01*
X0551221Y0089297D02*
X0375748Y0089297D01*
X0374550Y0090496D02*
X0551221Y0090496D01*
X0551221Y0091694D02*
X0373351Y0091694D01*
X0372153Y0092893D02*
X0551221Y0092893D01*
X0551221Y0094091D02*
X0421962Y0094091D01*
X0421962Y0093741D02*
X0421259Y0093038D01*
X0415541Y0093038D01*
X0414838Y0093741D01*
X0414838Y0099459D01*
X0415541Y0100162D01*
X0421259Y0100162D01*
X0421962Y0099459D01*
X0421962Y0093741D01*
X0421962Y0095290D02*
X0551221Y0095290D01*
X0551221Y0096488D02*
X0421962Y0096488D01*
X0421962Y0097687D02*
X0551221Y0097687D01*
X0551221Y0098885D02*
X0421962Y0098885D01*
X0421338Y0100084D02*
X0551221Y0100084D01*
X0551221Y0101282D02*
X0318510Y0101282D01*
X0317040Y0101282D02*
X0299400Y0101282D01*
X0300602Y0100084D02*
X0385462Y0100084D01*
X0385541Y0100162D02*
X0384838Y0099459D01*
X0384838Y0093741D01*
X0385541Y0093038D01*
X0391259Y0093038D01*
X0391962Y0093741D01*
X0391962Y0099459D01*
X0391259Y0100162D01*
X0385541Y0100162D01*
X0384838Y0098885D02*
X0366160Y0098885D01*
X0366450Y0098596D02*
X0366450Y0098596D01*
X0367359Y0097687D02*
X0384838Y0097687D01*
X0384838Y0096488D02*
X0368557Y0096488D01*
X0369756Y0095290D02*
X0384838Y0095290D01*
X0384838Y0094091D02*
X0370954Y0094091D01*
X0363400Y0095350D02*
X0420900Y0037850D01*
X0437150Y0037850D01*
X0440900Y0034100D01*
X0537150Y0034100D01*
X0548400Y0045350D01*
X0550480Y0047349D02*
X0551221Y0047349D01*
X0551190Y0046151D02*
X0551221Y0046151D01*
X0546320Y0047349D02*
X0413946Y0047349D01*
X0415145Y0046151D02*
X0545610Y0046151D01*
X0545457Y0044952D02*
X0416343Y0044952D01*
X0417542Y0043754D02*
X0544258Y0043754D01*
X0543060Y0042555D02*
X0418740Y0042555D01*
X0419939Y0041357D02*
X0541861Y0041357D01*
X0540663Y0040158D02*
X0421137Y0040158D01*
X0412142Y0036563D02*
X0410983Y0036563D01*
X0410943Y0037761D02*
X0409784Y0037761D01*
X0409745Y0038960D02*
X0408586Y0038960D01*
X0408546Y0040158D02*
X0407387Y0040158D01*
X0407348Y0041357D02*
X0406189Y0041357D01*
X0406149Y0042555D02*
X0404990Y0042555D01*
X0404951Y0043754D02*
X0403792Y0043754D01*
X0403752Y0044952D02*
X0402593Y0044952D01*
X0402554Y0046151D02*
X0401395Y0046151D01*
X0401355Y0047349D02*
X0267980Y0047349D01*
X0268179Y0047150D02*
X0267534Y0047795D01*
X0266474Y0048234D01*
X0265326Y0048234D01*
X0264266Y0047795D01*
X0263455Y0046984D01*
X0263016Y0045924D01*
X0263016Y0045780D01*
X0260987Y0047809D01*
X0261284Y0048526D01*
X0261284Y0049674D01*
X0260845Y0050734D01*
X0260034Y0051545D01*
X0258974Y0051984D01*
X0257826Y0051984D01*
X0256766Y0051545D01*
X0255955Y0050734D01*
X0255516Y0049674D01*
X0255516Y0048526D01*
X0255955Y0047466D01*
X0256766Y0046655D01*
X0257250Y0046454D01*
X0263904Y0039800D01*
X0392654Y0039800D01*
X0404838Y0027617D01*
X0404838Y0023741D01*
X0405541Y0023038D01*
X0411259Y0023038D01*
X0411962Y0023741D01*
X0411962Y0029459D01*
X0411259Y0030162D01*
X0407383Y0030162D01*
X0394146Y0043400D01*
X0268029Y0043400D01*
X0268179Y0043550D01*
X0398904Y0043550D01*
X0414838Y0027617D01*
X0414838Y0023741D01*
X0415541Y0023038D01*
X0421259Y0023038D01*
X0421962Y0023741D01*
X0421962Y0029459D01*
X0421259Y0030162D01*
X0417383Y0030162D01*
X0400396Y0047150D01*
X0268179Y0047150D01*
X0265900Y0045350D02*
X0399650Y0045350D01*
X0418400Y0026600D01*
X0421962Y0026975D02*
X0424838Y0026975D01*
X0424838Y0028173D02*
X0421962Y0028173D01*
X0421962Y0029372D02*
X0424838Y0029372D01*
X0424838Y0029459D02*
X0424838Y0023741D01*
X0425541Y0023038D01*
X0431259Y0023038D01*
X0431962Y0023741D01*
X0431962Y0029459D01*
X0431259Y0030162D01*
X0425541Y0030162D01*
X0424838Y0029459D01*
X0431962Y0029372D02*
X0434333Y0029372D01*
X0435531Y0028173D02*
X0431962Y0028173D01*
X0431962Y0026975D02*
X0436730Y0026975D01*
X0431962Y0025776D02*
X0545428Y0025776D01*
X0545598Y0024578D02*
X0431962Y0024578D01*
X0431601Y0023379D02*
X0546292Y0023379D01*
X0551221Y0020982D02*
X0324630Y0020982D01*
X0323112Y0019784D02*
X0551221Y0019784D01*
X0551221Y0018585D02*
X0292254Y0018585D01*
X0294053Y0017387D02*
X0551221Y0017387D01*
X0551221Y0016188D02*
X0294788Y0016188D01*
X0295100Y0014990D02*
X0551221Y0014990D01*
X0551221Y0013791D02*
X0295100Y0013791D01*
X0295100Y0012593D02*
X0551221Y0012593D01*
X0551221Y0011394D02*
X0295100Y0011394D01*
X0295100Y0010196D02*
X0551221Y0010196D01*
X0551221Y0008997D02*
X0295100Y0008997D01*
X0295100Y0007799D02*
X0551221Y0007799D01*
X0551221Y0006600D02*
X0294618Y0006600D01*
X0287182Y0006600D02*
X0284618Y0006600D01*
X0285100Y0007799D02*
X0286700Y0007799D01*
X0286700Y0008997D02*
X0285100Y0008997D01*
X0285100Y0010196D02*
X0286700Y0010196D01*
X0286700Y0011394D02*
X0285100Y0011394D01*
X0285100Y0012593D02*
X0286700Y0012593D01*
X0286700Y0013791D02*
X0285100Y0013791D01*
X0285100Y0014990D02*
X0286700Y0014990D01*
X0287012Y0016188D02*
X0284788Y0016188D01*
X0284053Y0017387D02*
X0287747Y0017387D01*
X0289546Y0018585D02*
X0282700Y0018585D01*
X0279100Y0018585D02*
X0273211Y0018585D01*
X0273311Y0018534D02*
X0272666Y0018863D01*
X0271977Y0019087D01*
X0271300Y0019194D01*
X0271300Y0012000D01*
X0275500Y0012000D01*
X0275500Y0014962D01*
X0275387Y0015677D01*
X0275163Y0016366D01*
X0274834Y0017011D01*
X0274409Y0017597D01*
X0273897Y0018109D01*
X0273311Y0018534D01*
X0274561Y0017387D02*
X0277747Y0017387D01*
X0277012Y0016188D02*
X0275221Y0016188D01*
X0275496Y0014990D02*
X0276700Y0014990D01*
X0276700Y0013791D02*
X0275500Y0013791D01*
X0275500Y0012593D02*
X0276700Y0012593D01*
X0276700Y0011394D02*
X0271300Y0011394D01*
X0270500Y0011394D02*
X0141309Y0011394D01*
X0142003Y0012593D02*
X0266300Y0012593D01*
X0266300Y0013791D02*
X0142500Y0013791D01*
X0142994Y0014990D02*
X0245931Y0014990D01*
X0245083Y0016188D02*
X0142994Y0016188D01*
X0142994Y0017387D02*
X0244891Y0017387D01*
X0245216Y0018585D02*
X0142961Y0018585D01*
X0142464Y0019784D02*
X0245975Y0019784D01*
X0245624Y0020982D02*
X0141968Y0020982D01*
X0141224Y0022181D02*
X0244425Y0022181D01*
X0243227Y0023379D02*
X0140026Y0023379D01*
X0125788Y0013791D02*
X0026725Y0013791D01*
X0015500Y0025776D02*
X0052784Y0025776D01*
X0051734Y0026975D02*
X0028472Y0026975D01*
X0028600Y0028173D02*
X0051238Y0028173D01*
X0051200Y0029372D02*
X0028600Y0029372D01*
X0028600Y0030570D02*
X0051463Y0030570D01*
X0052129Y0031769D02*
X0028600Y0031769D01*
X0028600Y0032967D02*
X0053761Y0032967D01*
X0065802Y0037761D02*
X0238785Y0037761D01*
X0240900Y0039725D02*
X0238400Y0042225D01*
X0220275Y0042225D01*
X0221227Y0044952D02*
X0238752Y0044952D01*
X0239417Y0043754D02*
X0239951Y0043754D01*
X0240200Y0042971D02*
X0240200Y0042971D01*
X0243843Y0044952D02*
X0244511Y0044952D01*
X0245042Y0043754D02*
X0245740Y0043754D01*
X0246240Y0042555D02*
X0246968Y0042555D01*
X0247439Y0041357D02*
X0248197Y0041357D01*
X0248637Y0040158D02*
X0249425Y0040158D01*
X0249836Y0038960D02*
X0250654Y0038960D01*
X0254580Y0040158D02*
X0263546Y0040158D01*
X0262348Y0041357D02*
X0253352Y0041357D01*
X0252123Y0042555D02*
X0261149Y0042555D01*
X0259951Y0043754D02*
X0250895Y0043754D01*
X0249666Y0044952D02*
X0258752Y0044952D01*
X0257554Y0046151D02*
X0248438Y0046151D01*
X0247209Y0047349D02*
X0256072Y0047349D01*
X0255516Y0048548D02*
X0245981Y0048548D01*
X0244753Y0049746D02*
X0255546Y0049746D01*
X0256166Y0050945D02*
X0243524Y0050945D01*
X0242296Y0052143D02*
X0396561Y0052143D01*
X0397759Y0050945D02*
X0260634Y0050945D01*
X0261254Y0049746D02*
X0398958Y0049746D01*
X0400157Y0048548D02*
X0261284Y0048548D01*
X0261446Y0047349D02*
X0263820Y0047349D01*
X0263110Y0046151D02*
X0262645Y0046151D01*
X0258400Y0047850D02*
X0264650Y0041600D01*
X0393400Y0041600D01*
X0408400Y0026600D01*
X0411962Y0026975D02*
X0414838Y0026975D01*
X0414838Y0025776D02*
X0411962Y0025776D01*
X0411962Y0024578D02*
X0414838Y0024578D01*
X0415199Y0023379D02*
X0411601Y0023379D01*
X0405199Y0023379D02*
X0402114Y0023379D01*
X0402043Y0023255D02*
X0402253Y0023620D01*
X0402362Y0024027D01*
X0402362Y0026413D01*
X0398587Y0026413D01*
X0398587Y0022638D01*
X0400973Y0022638D01*
X0401380Y0022747D01*
X0401745Y0022957D01*
X0402043Y0023255D01*
X0402362Y0024578D02*
X0404838Y0024578D01*
X0404838Y0025776D02*
X0402362Y0025776D01*
X0402362Y0026975D02*
X0404838Y0026975D01*
X0404281Y0028173D02*
X0402362Y0028173D01*
X0402309Y0029372D02*
X0403083Y0029372D01*
X0405777Y0031769D02*
X0410686Y0031769D01*
X0411884Y0030570D02*
X0406975Y0030570D01*
X0404578Y0032967D02*
X0409487Y0032967D01*
X0408289Y0034166D02*
X0403380Y0034166D01*
X0402181Y0035364D02*
X0407090Y0035364D01*
X0405892Y0036563D02*
X0400983Y0036563D01*
X0399784Y0037761D02*
X0404693Y0037761D01*
X0403495Y0038960D02*
X0398586Y0038960D01*
X0397387Y0040158D02*
X0402296Y0040158D01*
X0401098Y0041357D02*
X0396189Y0041357D01*
X0394990Y0042555D02*
X0399899Y0042555D01*
X0394693Y0037761D02*
X0257037Y0037761D01*
X0255809Y0038960D02*
X0393495Y0038960D01*
X0412181Y0035364D02*
X0413340Y0035364D01*
X0413380Y0034166D02*
X0414539Y0034166D01*
X0414578Y0032967D02*
X0415737Y0032967D01*
X0415777Y0031769D02*
X0416936Y0031769D01*
X0416975Y0030570D02*
X0433134Y0030570D01*
X0435900Y0035350D02*
X0439650Y0031600D01*
X0545900Y0031600D01*
X0548400Y0034100D01*
X0537067Y0036563D02*
X0440983Y0036563D01*
X0439784Y0037761D02*
X0538266Y0037761D01*
X0539464Y0038960D02*
X0438586Y0038960D01*
X0435900Y0035350D02*
X0419650Y0035350D01*
X0362150Y0092850D01*
X0298400Y0092850D01*
X0295900Y0095350D01*
X0293400Y0095350D01*
X0290799Y0094091D02*
X0280937Y0094091D01*
X0279738Y0092893D02*
X0291795Y0092893D01*
X0290835Y0091694D02*
X0278540Y0091694D01*
X0277341Y0090496D02*
X0290516Y0090496D01*
X0299650Y0095350D02*
X0363400Y0095350D01*
X0359635Y0102481D02*
X0422113Y0102481D01*
X0420879Y0103679D02*
X0361433Y0103679D01*
X0361909Y0104878D02*
X0419644Y0104878D01*
X0418410Y0106076D02*
X0361846Y0106076D01*
X0361179Y0107275D02*
X0417175Y0107275D01*
X0415941Y0108473D02*
X0358447Y0108473D01*
X0357249Y0109672D02*
X0414706Y0109672D01*
X0413472Y0110870D02*
X0356050Y0110870D01*
X0352775Y0111600D02*
X0359025Y0105350D01*
X0356141Y0104878D02*
X0320575Y0104878D01*
X0320659Y0103679D02*
X0356617Y0103679D01*
X0358415Y0102481D02*
X0320226Y0102481D01*
X0317775Y0104100D02*
X0312775Y0109100D01*
X0293400Y0109100D01*
X0249025Y0064725D01*
X0247775Y0064725D01*
X0250059Y0062930D02*
X0385774Y0062930D01*
X0384576Y0064129D02*
X0250974Y0064129D01*
X0252173Y0065327D02*
X0383377Y0065327D01*
X0382179Y0066526D02*
X0253371Y0066526D01*
X0254570Y0067724D02*
X0380980Y0067724D01*
X0379782Y0068923D02*
X0255768Y0068923D01*
X0256967Y0070121D02*
X0378583Y0070121D01*
X0377385Y0071320D02*
X0258165Y0071320D01*
X0252346Y0073717D02*
X0242075Y0073717D01*
X0242075Y0074915D02*
X0253545Y0074915D01*
X0254743Y0076114D02*
X0242075Y0076114D01*
X0242075Y0077312D02*
X0255942Y0077312D01*
X0257140Y0078511D02*
X0242075Y0078511D01*
X0242075Y0079709D02*
X0258339Y0079709D01*
X0238475Y0079709D02*
X0217700Y0079709D01*
X0217700Y0078511D02*
X0238475Y0078511D01*
X0238475Y0077312D02*
X0217700Y0077312D01*
X0217700Y0076114D02*
X0238475Y0076114D01*
X0238475Y0074915D02*
X0217700Y0074915D01*
X0218204Y0073717D02*
X0238475Y0073717D01*
X0242075Y0072518D02*
X0251148Y0072518D01*
X0249949Y0071320D02*
X0242075Y0071320D01*
X0242075Y0070121D02*
X0245001Y0070121D01*
X0243802Y0068923D02*
X0242075Y0068923D01*
X0242075Y0067724D02*
X0242603Y0067724D01*
X0242225Y0066526D02*
X0242075Y0066526D01*
X0242075Y0065327D02*
X0242225Y0065327D01*
X0242225Y0064129D02*
X0242075Y0064129D01*
X0242075Y0062930D02*
X0242225Y0062930D01*
X0238475Y0062930D02*
X0180339Y0062930D01*
X0181334Y0064129D02*
X0238475Y0064129D01*
X0238475Y0065327D02*
X0181836Y0065327D01*
X0177239Y0065327D02*
X0177061Y0065327D01*
X0177061Y0064129D02*
X0177239Y0064129D01*
X0177239Y0062930D02*
X0177061Y0062930D01*
X0173961Y0062930D02*
X0128526Y0062930D01*
X0129724Y0064129D02*
X0172966Y0064129D01*
X0172464Y0065327D02*
X0130923Y0065327D01*
X0127327Y0061732D02*
X0238475Y0061732D01*
X0238475Y0060533D02*
X0181414Y0060533D01*
X0181600Y0060347D02*
X0180897Y0061050D01*
X0173403Y0061050D01*
X0172700Y0060347D01*
X0172700Y0052853D01*
X0173403Y0052150D01*
X0180897Y0052150D01*
X0181600Y0052853D01*
X0181600Y0060347D01*
X0181600Y0059334D02*
X0238475Y0059334D01*
X0238475Y0058136D02*
X0181600Y0058136D01*
X0181600Y0056937D02*
X0238475Y0056937D01*
X0238475Y0055739D02*
X0181600Y0055739D01*
X0181600Y0054540D02*
X0238475Y0054540D01*
X0238475Y0053342D02*
X0181600Y0053342D01*
X0169650Y0051600D02*
X0137150Y0051600D01*
X0139375Y0049746D02*
X0168958Y0049746D01*
X0172700Y0058136D02*
X0123732Y0058136D01*
X0124930Y0059334D02*
X0172700Y0059334D01*
X0172886Y0060533D02*
X0126129Y0060533D01*
X0134813Y0053342D02*
X0015500Y0053342D01*
X0015500Y0052143D02*
X0134266Y0052143D01*
X0134299Y0050945D02*
X0015500Y0050945D01*
X0015500Y0049746D02*
X0134925Y0049746D01*
X0177061Y0067724D02*
X0177239Y0067724D01*
X0177239Y0068923D02*
X0177061Y0068923D01*
X0177061Y0070121D02*
X0177239Y0070121D01*
X0177239Y0071320D02*
X0177061Y0071320D01*
X0199686Y0072518D02*
X0214311Y0072518D01*
X0244025Y0066600D02*
X0246525Y0069100D01*
X0250275Y0069100D01*
X0292775Y0111600D01*
X0352775Y0111600D01*
X0352157Y0109672D02*
X0314749Y0109672D01*
X0315947Y0108473D02*
X0353356Y0108473D01*
X0354554Y0107275D02*
X0317146Y0107275D01*
X0319877Y0106076D02*
X0355753Y0106076D01*
X0391338Y0100084D02*
X0395462Y0100084D01*
X0395541Y0100162D02*
X0394838Y0099459D01*
X0394838Y0093741D01*
X0395541Y0093038D01*
X0401259Y0093038D01*
X0401962Y0093741D01*
X0401962Y0099459D01*
X0401259Y0100162D01*
X0395541Y0100162D01*
X0394838Y0098885D02*
X0391962Y0098885D01*
X0391962Y0097687D02*
X0394838Y0097687D01*
X0394838Y0096488D02*
X0391962Y0096488D01*
X0391962Y0095290D02*
X0394838Y0095290D01*
X0394838Y0094091D02*
X0391962Y0094091D01*
X0401962Y0094091D02*
X0404838Y0094091D01*
X0404838Y0093741D02*
X0405541Y0093038D01*
X0411259Y0093038D01*
X0411962Y0093741D01*
X0411962Y0099459D01*
X0411259Y0100162D01*
X0405541Y0100162D01*
X0404838Y0099459D01*
X0404838Y0093741D01*
X0404838Y0095290D02*
X0401962Y0095290D01*
X0401962Y0096488D02*
X0404838Y0096488D01*
X0404838Y0097687D02*
X0401962Y0097687D01*
X0401962Y0098885D02*
X0404838Y0098885D01*
X0405462Y0100084D02*
X0401338Y0100084D01*
X0411338Y0100084D02*
X0415462Y0100084D01*
X0414838Y0098885D02*
X0411962Y0098885D01*
X0411962Y0097687D02*
X0414838Y0097687D01*
X0414838Y0096488D02*
X0411962Y0096488D01*
X0411962Y0095290D02*
X0414838Y0095290D01*
X0414838Y0094091D02*
X0411962Y0094091D01*
X0438364Y0102481D02*
X0551221Y0102481D01*
X0551221Y0103679D02*
X0439594Y0103679D01*
X0440825Y0104878D02*
X0551221Y0104878D01*
X0551221Y0106076D02*
X0442055Y0106076D01*
X0443285Y0107275D02*
X0512396Y0107275D01*
X0516904Y0107275D02*
X0551221Y0107275D01*
X0551221Y0108473D02*
X0517512Y0108473D01*
X0517534Y0109672D02*
X0551221Y0109672D01*
X0551221Y0110870D02*
X0516958Y0110870D01*
X0514650Y0109100D02*
X0473400Y0109100D01*
X0469203Y0113185D01*
X0446772Y0113185D01*
X0436670Y0103343D01*
X0423809Y0103343D01*
X0413289Y0113557D01*
X0278346Y0113486D01*
X0276525Y0111600D01*
X0218400Y0111600D01*
X0215900Y0109100D01*
X0215900Y0104100D01*
X0210900Y0099100D01*
X0210900Y0096600D01*
X0210900Y0086600D01*
X0213544Y0083305D02*
X0214100Y0083305D01*
X0217700Y0083305D02*
X0218256Y0083305D01*
X0217700Y0082106D02*
X0238475Y0082106D01*
X0238475Y0080908D02*
X0217700Y0080908D01*
X0223544Y0083305D02*
X0238475Y0083305D01*
X0238475Y0084503D02*
X0224743Y0084503D01*
X0225100Y0085702D02*
X0238475Y0085702D01*
X0238475Y0086900D02*
X0225100Y0086900D01*
X0225100Y0088099D02*
X0238475Y0088099D01*
X0238475Y0089297D02*
X0224142Y0089297D01*
X0222944Y0090496D02*
X0238475Y0090496D01*
X0236102Y0091694D02*
X0217700Y0091694D01*
X0217700Y0090496D02*
X0218856Y0090496D01*
X0218667Y0092893D02*
X0217863Y0092893D01*
X0215169Y0095290D02*
X0215100Y0095290D01*
X0215100Y0096488D02*
X0216368Y0096488D01*
X0216700Y0097687D02*
X0215100Y0097687D01*
X0214554Y0098885D02*
X0217246Y0098885D01*
X0218444Y0100084D02*
X0214429Y0100084D01*
X0215628Y0101282D02*
X0228915Y0101282D01*
X0227199Y0102481D02*
X0222721Y0102481D01*
X0223919Y0103679D02*
X0226766Y0103679D01*
X0226850Y0104878D02*
X0225100Y0104878D01*
X0225100Y0106076D02*
X0227548Y0106076D01*
X0225100Y0107275D02*
X0246300Y0107275D01*
X0246300Y0106200D02*
X0246300Y0104695D01*
X0248995Y0102000D01*
X0250500Y0102000D01*
X0250500Y0106200D01*
X0246300Y0106200D01*
X0246300Y0106076D02*
X0231752Y0106076D01*
X0237668Y0104878D02*
X0246300Y0104878D01*
X0247315Y0103679D02*
X0238866Y0103679D01*
X0240065Y0102481D02*
X0248514Y0102481D01*
X0250500Y0102481D02*
X0251300Y0102481D01*
X0251300Y0103679D02*
X0250500Y0103679D01*
X0250500Y0104878D02*
X0251300Y0104878D01*
X0251300Y0106076D02*
X0250500Y0106076D01*
X0246300Y0108473D02*
X0224966Y0108473D01*
X0223768Y0109672D02*
X0247467Y0109672D01*
X0273768Y0109672D02*
X0288301Y0109672D01*
X0287103Y0108473D02*
X0274966Y0108473D01*
X0275100Y0107275D02*
X0285904Y0107275D01*
X0294781Y0107275D02*
X0312054Y0107275D01*
X0313253Y0106076D02*
X0295962Y0106076D01*
X0296284Y0104878D02*
X0314451Y0104878D01*
X0314891Y0103679D02*
X0296997Y0103679D01*
X0298199Y0102481D02*
X0315324Y0102481D01*
X0299650Y0095350D02*
X0294650Y0100350D01*
X0293400Y0100350D01*
X0289500Y0110870D02*
X0278325Y0110870D01*
X0279379Y0115621D02*
X0273400Y0121600D01*
X0215900Y0121600D01*
X0210900Y0116600D01*
X0210900Y0106600D01*
X0206700Y0106076D02*
X0109673Y0106076D01*
X0110550Y0104878D02*
X0206700Y0104878D01*
X0207881Y0103679D02*
X0111046Y0103679D01*
X0111543Y0102481D02*
X0209079Y0102481D01*
X0210537Y0101282D02*
X0111669Y0101282D01*
X0111669Y0100084D02*
X0208444Y0100084D01*
X0207246Y0098885D02*
X0111669Y0098885D01*
X0111269Y0097687D02*
X0206700Y0097687D01*
X0206700Y0096488D02*
X0110772Y0096488D01*
X0110210Y0095290D02*
X0206700Y0095290D01*
X0223133Y0092893D02*
X0235519Y0092893D01*
X0235238Y0094091D02*
X0224331Y0094091D01*
X0219079Y0102481D02*
X0216826Y0102481D01*
X0217700Y0103679D02*
X0217881Y0103679D01*
X0206700Y0107275D02*
X0108475Y0107275D01*
X0106490Y0108473D02*
X0206834Y0108473D01*
X0208032Y0109672D02*
X0081518Y0109672D01*
X0082716Y0110870D02*
X0209100Y0110870D01*
X0209100Y0112069D02*
X0176698Y0112069D01*
X0177095Y0112466D02*
X0177534Y0113526D01*
X0177534Y0114674D01*
X0177095Y0115734D01*
X0176284Y0116545D01*
X0175224Y0116984D01*
X0174076Y0116984D01*
X0173016Y0116545D01*
X0172371Y0115900D01*
X0082654Y0115900D01*
X0070350Y0103596D01*
X0069375Y0104000D01*
X0067425Y0104000D01*
X0065624Y0103254D01*
X0064246Y0101876D01*
X0063500Y0100075D01*
X0063500Y0098125D01*
X0064246Y0096324D01*
X0065624Y0094946D01*
X0067425Y0094200D01*
X0069375Y0094200D01*
X0071176Y0094946D01*
X0072554Y0096324D01*
X0073300Y0098125D01*
X0073300Y0100075D01*
X0072896Y0101050D01*
X0084146Y0112300D01*
X0172371Y0112300D01*
X0173016Y0111655D01*
X0174076Y0111216D01*
X0175224Y0111216D01*
X0176284Y0111655D01*
X0177095Y0112466D01*
X0177427Y0113268D02*
X0208293Y0113268D01*
X0207094Y0114466D02*
X0177534Y0114466D01*
X0177124Y0115665D02*
X0206700Y0115665D01*
X0206700Y0116863D02*
X0175516Y0116863D01*
X0173784Y0116863D02*
X0015500Y0116863D01*
X0015500Y0115665D02*
X0082419Y0115665D01*
X0081220Y0114466D02*
X0036621Y0114466D01*
X0035091Y0115100D02*
X0038215Y0113806D01*
X0040606Y0111415D01*
X0041900Y0108291D01*
X0041900Y0104909D01*
X0040606Y0101785D01*
X0038215Y0099394D01*
X0035091Y0098100D01*
X0031709Y0098100D01*
X0028585Y0099394D01*
X0026194Y0101785D01*
X0024900Y0104909D01*
X0024900Y0108291D01*
X0026194Y0111415D01*
X0028585Y0113806D01*
X0031709Y0115100D01*
X0035091Y0115100D01*
X0038753Y0113268D02*
X0080022Y0113268D01*
X0078823Y0112069D02*
X0039952Y0112069D01*
X0040831Y0110870D02*
X0077625Y0110870D01*
X0076426Y0109672D02*
X0041328Y0109672D01*
X0041824Y0108473D02*
X0075228Y0108473D01*
X0074029Y0107275D02*
X0041900Y0107275D01*
X0041900Y0106076D02*
X0072831Y0106076D01*
X0071632Y0104878D02*
X0041887Y0104878D01*
X0041391Y0103679D02*
X0066651Y0103679D01*
X0064851Y0102481D02*
X0040894Y0102481D01*
X0040103Y0101282D02*
X0064000Y0101282D01*
X0063504Y0100084D02*
X0038905Y0100084D01*
X0036987Y0098885D02*
X0057149Y0098885D01*
X0055057Y0097687D02*
X0015500Y0097687D01*
X0015500Y0098885D02*
X0029813Y0098885D01*
X0027895Y0100084D02*
X0015500Y0100084D01*
X0015500Y0101282D02*
X0026697Y0101282D01*
X0025906Y0102481D02*
X0015500Y0102481D01*
X0015500Y0103679D02*
X0025409Y0103679D01*
X0024913Y0104878D02*
X0015500Y0104878D01*
X0015500Y0106076D02*
X0024900Y0106076D01*
X0024900Y0107275D02*
X0015500Y0107275D01*
X0015500Y0108473D02*
X0024976Y0108473D01*
X0025472Y0109672D02*
X0015500Y0109672D01*
X0015500Y0110870D02*
X0025969Y0110870D01*
X0026848Y0112069D02*
X0015500Y0112069D01*
X0015500Y0113268D02*
X0028047Y0113268D01*
X0030179Y0114466D02*
X0015500Y0114466D01*
X0015500Y0118062D02*
X0206700Y0118062D01*
X0207620Y0119260D02*
X0015500Y0119260D01*
X0015500Y0120459D02*
X0208819Y0120459D01*
X0213412Y0121657D02*
X0015500Y0121657D01*
X0015500Y0122856D02*
X0214610Y0122856D01*
X0174650Y0114100D02*
X0083400Y0114100D01*
X0068400Y0099100D01*
X0073300Y0098885D02*
X0093969Y0098885D01*
X0093969Y0100084D02*
X0073296Y0100084D01*
X0073128Y0101282D02*
X0093969Y0101282D01*
X0094096Y0102481D02*
X0074326Y0102481D01*
X0075525Y0103679D02*
X0094592Y0103679D01*
X0095089Y0104878D02*
X0076723Y0104878D01*
X0077922Y0106076D02*
X0095965Y0106076D01*
X0097164Y0107275D02*
X0079121Y0107275D01*
X0080319Y0108473D02*
X0099149Y0108473D01*
X0083915Y0112069D02*
X0172602Y0112069D01*
X0095428Y0095290D02*
X0071519Y0095290D01*
X0072622Y0096488D02*
X0094866Y0096488D01*
X0094370Y0097687D02*
X0073118Y0097687D01*
X0065281Y0095290D02*
X0063211Y0095290D01*
X0062714Y0096488D02*
X0064178Y0096488D01*
X0063682Y0097687D02*
X0061743Y0097687D01*
X0063500Y0098885D02*
X0059651Y0098885D01*
X0054086Y0096488D02*
X0015500Y0096488D01*
X0015500Y0095290D02*
X0053589Y0095290D01*
X0053500Y0094091D02*
X0015500Y0094091D01*
X0015500Y0092893D02*
X0053596Y0092893D01*
X0054093Y0091694D02*
X0015500Y0091694D01*
X0015500Y0090496D02*
X0055075Y0090496D01*
X0073126Y0090496D02*
X0189266Y0090496D01*
X0190059Y0083305D02*
X0135491Y0083305D01*
X0128400Y0081600D02*
X0118400Y0071600D01*
X0063400Y0071600D01*
X0060900Y0074100D01*
X0058400Y0074100D01*
X0068000Y0074915D02*
X0068800Y0074915D01*
X0068800Y0076114D02*
X0068000Y0076114D01*
X0068000Y0077312D02*
X0068800Y0077312D01*
X0068800Y0078511D02*
X0068000Y0078511D01*
X0062333Y0070121D02*
X0061351Y0070121D01*
X0015500Y0048548D02*
X0235157Y0048548D01*
X0236355Y0047349D02*
X0015500Y0047349D01*
X0015500Y0046151D02*
X0237554Y0046151D01*
X0241446Y0047349D02*
X0242054Y0047349D01*
X0242645Y0046151D02*
X0243283Y0046151D01*
X0240826Y0048548D02*
X0240248Y0048548D01*
X0239597Y0049746D02*
X0239049Y0049746D01*
X0238475Y0050945D02*
X0237851Y0050945D01*
X0238468Y0052143D02*
X0236652Y0052143D01*
X0242075Y0053342D02*
X0332865Y0053342D01*
X0333379Y0052827D02*
X0335015Y0052150D01*
X0336785Y0052150D01*
X0338421Y0052827D01*
X0339673Y0054079D01*
X0340350Y0055715D01*
X0340350Y0057485D01*
X0339673Y0059121D01*
X0338421Y0060373D01*
X0336785Y0061050D01*
X0335015Y0061050D01*
X0333379Y0060373D01*
X0332127Y0059121D01*
X0331450Y0057485D01*
X0331450Y0055715D01*
X0332127Y0054079D01*
X0333379Y0052827D01*
X0331936Y0054540D02*
X0242075Y0054540D01*
X0242075Y0055739D02*
X0331450Y0055739D01*
X0331450Y0056937D02*
X0242075Y0056937D01*
X0242075Y0058136D02*
X0242160Y0058136D01*
X0244025Y0060350D02*
X0244025Y0066600D01*
X0246575Y0061732D02*
X0386973Y0061732D01*
X0388171Y0060533D02*
X0338033Y0060533D01*
X0339459Y0059334D02*
X0389370Y0059334D01*
X0390568Y0058136D02*
X0340080Y0058136D01*
X0340350Y0056937D02*
X0391767Y0056937D01*
X0392965Y0055739D02*
X0340350Y0055739D01*
X0339864Y0054540D02*
X0394164Y0054540D01*
X0395362Y0053342D02*
X0338935Y0053342D01*
X0331720Y0058136D02*
X0245890Y0058136D01*
X0246726Y0059334D02*
X0332341Y0059334D01*
X0333767Y0060533D02*
X0246909Y0060533D01*
X0258400Y0049100D02*
X0258400Y0047850D01*
X0245943Y0037761D02*
X0243015Y0037761D01*
X0243705Y0038960D02*
X0244745Y0038960D01*
X0261951Y0032967D02*
X0317222Y0032967D01*
X0316023Y0031769D02*
X0263180Y0031769D01*
X0264167Y0025776D02*
X0252905Y0025776D01*
X0248400Y0021600D02*
X0247775Y0020975D01*
X0247775Y0017225D01*
X0250467Y0016188D02*
X0266579Y0016188D01*
X0266304Y0014990D02*
X0249619Y0014990D01*
X0250659Y0017387D02*
X0267239Y0017387D01*
X0268589Y0018585D02*
X0250334Y0018585D01*
X0270500Y0018585D02*
X0271300Y0018585D01*
X0271300Y0017387D02*
X0270500Y0017387D01*
X0270500Y0016188D02*
X0271300Y0016188D01*
X0271300Y0014990D02*
X0270500Y0014990D01*
X0270500Y0013791D02*
X0271300Y0013791D01*
X0271300Y0012593D02*
X0270500Y0012593D01*
X0266300Y0010196D02*
X0140110Y0010196D01*
X0138565Y0008997D02*
X0266300Y0008997D01*
X0275044Y0006600D02*
X0277182Y0006600D01*
X0276700Y0007799D02*
X0275430Y0007799D01*
X0275500Y0008997D02*
X0276700Y0008997D01*
X0276700Y0010196D02*
X0275500Y0010196D01*
X0280900Y0011600D02*
X0280900Y0020975D01*
X0280275Y0021600D01*
X0315350Y0025776D02*
X0316345Y0025776D01*
X0316320Y0026975D02*
X0316994Y0026975D01*
X0317519Y0028173D02*
X0318255Y0028173D01*
X0373400Y0031600D02*
X0378400Y0026600D01*
X0381962Y0026975D02*
X0384838Y0026975D01*
X0384838Y0028173D02*
X0381962Y0028173D01*
X0381962Y0029372D02*
X0384838Y0029372D01*
X0384838Y0029459D02*
X0384838Y0023741D01*
X0385541Y0023038D01*
X0391259Y0023038D01*
X0391962Y0023741D01*
X0391962Y0029459D01*
X0391259Y0030162D01*
X0385541Y0030162D01*
X0384838Y0029459D01*
X0391962Y0029372D02*
X0394491Y0029372D01*
X0394438Y0029173D02*
X0394438Y0026787D01*
X0398213Y0026787D01*
X0398213Y0026413D01*
X0398587Y0026413D01*
X0398587Y0026787D01*
X0398213Y0026787D01*
X0398213Y0030562D01*
X0395827Y0030562D01*
X0395420Y0030453D01*
X0395055Y0030243D01*
X0394757Y0029945D01*
X0394547Y0029580D01*
X0394438Y0029173D01*
X0394438Y0028173D02*
X0391962Y0028173D01*
X0391962Y0026975D02*
X0394438Y0026975D01*
X0394438Y0026413D02*
X0394438Y0024027D01*
X0394547Y0023620D01*
X0394757Y0023255D01*
X0395055Y0022957D01*
X0395420Y0022747D01*
X0395827Y0022638D01*
X0398213Y0022638D01*
X0398213Y0026413D01*
X0394438Y0026413D01*
X0394438Y0025776D02*
X0391962Y0025776D01*
X0391962Y0024578D02*
X0394438Y0024578D01*
X0394686Y0023379D02*
X0391601Y0023379D01*
X0385199Y0023379D02*
X0381601Y0023379D01*
X0381962Y0024578D02*
X0384838Y0024578D01*
X0384838Y0025776D02*
X0381962Y0025776D01*
X0398213Y0025776D02*
X0398587Y0025776D01*
X0398587Y0024578D02*
X0398213Y0024578D01*
X0398213Y0023379D02*
X0398587Y0023379D01*
X0398587Y0026975D02*
X0398213Y0026975D01*
X0398213Y0028173D02*
X0398587Y0028173D01*
X0398587Y0029372D02*
X0398213Y0029372D01*
X0411962Y0029372D02*
X0413083Y0029372D01*
X0411962Y0028173D02*
X0414281Y0028173D01*
X0421962Y0025776D02*
X0424838Y0025776D01*
X0424838Y0024578D02*
X0421962Y0024578D01*
X0421601Y0023379D02*
X0425199Y0023379D01*
X0412748Y0048548D02*
X0551221Y0048548D01*
X0551221Y0049746D02*
X0483222Y0049746D01*
X0482969Y0049664D02*
X0483733Y0049912D01*
X0484448Y0050277D01*
X0485097Y0050749D01*
X0485665Y0051316D01*
X0486137Y0051966D01*
X0486501Y0052681D01*
X0486749Y0053444D01*
X0486875Y0054237D01*
X0486875Y0054353D01*
X0482061Y0054353D01*
X0482061Y0054925D01*
X0481489Y0054925D01*
X0481489Y0059739D01*
X0481373Y0059739D01*
X0480581Y0059613D01*
X0479817Y0059365D01*
X0479102Y0059001D01*
X0478452Y0058529D01*
X0477885Y0057961D01*
X0477413Y0057312D01*
X0477048Y0056596D01*
X0476800Y0055833D01*
X0476675Y0055040D01*
X0476675Y0054925D01*
X0481489Y0054925D01*
X0481489Y0054353D01*
X0476675Y0054353D01*
X0476675Y0054237D01*
X0476800Y0053444D01*
X0477048Y0052681D01*
X0477413Y0051966D01*
X0477885Y0051316D01*
X0478452Y0050749D01*
X0479102Y0050277D01*
X0479817Y0049912D01*
X0480581Y0049664D01*
X0481373Y0049539D01*
X0481489Y0049539D01*
X0481489Y0054353D01*
X0482061Y0054353D01*
X0482061Y0049539D01*
X0482176Y0049539D01*
X0482969Y0049664D01*
X0482061Y0049746D02*
X0481489Y0049746D01*
X0480328Y0049746D02*
X0411549Y0049746D01*
X0410351Y0050945D02*
X0478256Y0050945D01*
X0477322Y0052143D02*
X0409152Y0052143D01*
X0407954Y0053342D02*
X0476834Y0053342D01*
X0481489Y0053342D02*
X0482061Y0053342D01*
X0482061Y0054540D02*
X0551221Y0054540D01*
X0551221Y0053342D02*
X0486716Y0053342D01*
X0486227Y0052143D02*
X0551221Y0052143D01*
X0551221Y0050945D02*
X0485293Y0050945D01*
X0482061Y0050945D02*
X0481489Y0050945D01*
X0481489Y0052143D02*
X0482061Y0052143D01*
X0481489Y0054540D02*
X0406755Y0054540D01*
X0405557Y0055739D02*
X0476785Y0055739D01*
X0477222Y0056937D02*
X0404358Y0056937D01*
X0403160Y0058136D02*
X0478060Y0058136D01*
X0479757Y0059334D02*
X0401961Y0059334D01*
X0400763Y0060533D02*
X0551221Y0060533D01*
X0551221Y0059334D02*
X0483793Y0059334D01*
X0483733Y0059365D02*
X0482969Y0059613D01*
X0482176Y0059739D01*
X0482061Y0059739D01*
X0482061Y0054925D01*
X0486875Y0054925D01*
X0486875Y0055040D01*
X0486749Y0055833D01*
X0486501Y0056596D01*
X0486137Y0057312D01*
X0485665Y0057961D01*
X0485097Y0058529D01*
X0484448Y0059001D01*
X0483733Y0059365D01*
X0482061Y0059334D02*
X0481489Y0059334D01*
X0481489Y0058136D02*
X0482061Y0058136D01*
X0482061Y0056937D02*
X0481489Y0056937D01*
X0481489Y0055739D02*
X0482061Y0055739D01*
X0486327Y0056937D02*
X0551221Y0056937D01*
X0551221Y0055739D02*
X0486764Y0055739D01*
X0485490Y0058136D02*
X0551221Y0058136D01*
X0551221Y0061732D02*
X0399564Y0061732D01*
X0398366Y0062930D02*
X0551221Y0062930D01*
X0551221Y0064129D02*
X0397167Y0064129D01*
X0395969Y0065327D02*
X0551221Y0065327D01*
X0551221Y0066526D02*
X0394770Y0066526D01*
X0393571Y0067724D02*
X0551221Y0067724D01*
X0551221Y0068923D02*
X0392373Y0068923D01*
X0391174Y0070121D02*
X0551221Y0070121D01*
X0551221Y0071320D02*
X0389976Y0071320D01*
X0388777Y0072518D02*
X0551221Y0072518D01*
X0551221Y0073717D02*
X0387579Y0073717D01*
X0386380Y0074915D02*
X0551221Y0074915D01*
X0551221Y0076114D02*
X0484120Y0076114D01*
X0485504Y0077312D02*
X0551221Y0077312D01*
X0478203Y0083305D02*
X0381741Y0083305D01*
X0382939Y0082106D02*
X0477465Y0082106D01*
X0477075Y0080908D02*
X0384138Y0080908D01*
X0385336Y0079709D02*
X0477075Y0079709D01*
X0446042Y0115425D02*
X0436104Y0105438D01*
X0424651Y0105434D01*
X0414152Y0115373D01*
X0279379Y0115621D01*
X0279484Y0118062D02*
X0311493Y0118062D01*
X0311123Y0119260D02*
X0278286Y0119260D01*
X0277087Y0120459D02*
X0311123Y0120459D01*
X0311604Y0121657D02*
X0275888Y0121657D01*
X0275200Y0122346D02*
X0275200Y0122346D01*
X0274690Y0122856D02*
X0312650Y0122856D01*
X0317339Y0122856D02*
X0324461Y0122856D01*
X0323415Y0121657D02*
X0318385Y0121657D01*
X0318866Y0120459D02*
X0322934Y0120459D01*
X0322934Y0119260D02*
X0318866Y0119260D01*
X0318496Y0118062D02*
X0323304Y0118062D01*
X0330307Y0118062D02*
X0352743Y0118062D01*
X0352373Y0119260D02*
X0330677Y0119260D01*
X0330677Y0120459D02*
X0352373Y0120459D01*
X0352854Y0121657D02*
X0330196Y0121657D01*
X0329150Y0122856D02*
X0353900Y0122856D01*
X0358589Y0122856D02*
X0365711Y0122856D01*
X0364665Y0121657D02*
X0359635Y0121657D01*
X0360116Y0120459D02*
X0364184Y0120459D01*
X0364184Y0119260D02*
X0360116Y0119260D01*
X0359746Y0118062D02*
X0364554Y0118062D01*
X0371557Y0118062D02*
X0421444Y0118062D01*
X0420998Y0116863D02*
X0415207Y0116863D01*
X0416461Y0115665D02*
X0420998Y0115665D01*
X0420998Y0114466D02*
X0417727Y0114466D01*
X0418994Y0113268D02*
X0421079Y0113268D01*
X0421576Y0112069D02*
X0420260Y0112069D01*
X0421526Y0110870D02*
X0422072Y0110870D01*
X0422792Y0109672D02*
X0422885Y0109672D01*
X0424058Y0108473D02*
X0424083Y0108473D01*
X0433781Y0107275D02*
X0435393Y0107275D01*
X0435612Y0108473D02*
X0436586Y0108473D01*
X0436811Y0109672D02*
X0437779Y0109672D01*
X0437623Y0110870D02*
X0438971Y0110870D01*
X0438120Y0112069D02*
X0440164Y0112069D01*
X0441356Y0113268D02*
X0438616Y0113268D01*
X0438698Y0114466D02*
X0442549Y0114466D01*
X0443742Y0115665D02*
X0438698Y0115665D01*
X0438698Y0116863D02*
X0444934Y0116863D01*
X0446042Y0115425D02*
X0473400Y0115350D01*
X0475396Y0113268D02*
X0551221Y0113268D01*
X0551221Y0114466D02*
X0476156Y0114466D01*
X0476284Y0115665D02*
X0551221Y0115665D01*
X0551221Y0116863D02*
X0475895Y0116863D01*
X0474391Y0118062D02*
X0551221Y0118062D01*
X0551221Y0119260D02*
X0437756Y0119260D01*
X0438252Y0118062D02*
X0472409Y0118062D01*
X0472930Y0112069D02*
X0551221Y0112069D01*
X0551221Y0120459D02*
X0437130Y0120459D01*
X0435931Y0121657D02*
X0551221Y0121657D01*
X0551221Y0122856D02*
X0434552Y0122856D01*
X0431658Y0124054D02*
X0551221Y0124054D01*
X0471463Y0108473D02*
X0444516Y0108473D01*
X0445746Y0109672D02*
X0470232Y0109672D01*
X0469000Y0110870D02*
X0446976Y0110870D01*
X0421940Y0119260D02*
X0371927Y0119260D01*
X0371927Y0120459D02*
X0422566Y0120459D01*
X0423764Y0121657D02*
X0371446Y0121657D01*
X0370400Y0122856D02*
X0425144Y0122856D01*
X0428038Y0124054D02*
X0015500Y0124054D01*
X0070149Y0103679D02*
X0070434Y0103679D01*
X0015500Y0044952D02*
X0219323Y0044952D01*
X0217786Y0043754D02*
X0015500Y0043754D01*
X0015500Y0042555D02*
X0052350Y0042555D01*
X0051387Y0041357D02*
X0015500Y0041357D01*
X0015500Y0035364D02*
X0018200Y0035364D01*
X0018200Y0034166D02*
X0015500Y0034166D01*
X0015500Y0032967D02*
X0018200Y0032967D01*
X0018200Y0031769D02*
X0015500Y0031769D01*
X0015500Y0030570D02*
X0018200Y0030570D01*
X0018200Y0029372D02*
X0015500Y0029372D01*
X0015500Y0028173D02*
X0018200Y0028173D01*
X0018328Y0026975D02*
X0015500Y0026975D01*
D21*
X0130900Y0034100D02*
X0235900Y0034100D01*
X0248400Y0021600D01*
X0280275Y0021600D01*
X0308400Y0021600D01*
X0310900Y0024100D01*
M02*
